<svg xmlns="http://www.w3.org/2000/svg" xmlns:xlink="http://www.w3.org/1999/xlink" contentStyleType="text/css" data-diagram-type="ACTIVITY" height="1484px" preserveAspectRatio="none" style="width:938px;height:1484px;background:#FFFFFF;" version="1.1" viewBox="0 0 938 1484" width="938px" zoomAndPan="magnify"><?plantuml 1.2026.6?><defs/><g><g class="title" data-source-line="1"><text fill="#000000" font-family="sans-serif" font-size="14" font-weight="700" lengthAdjust="spacing" textLength="580.6719" x="178.002" y="33.5352">Activity Diagram - Employee Productivity Analytics &amp; Burnout Prediction System</text></g><ellipse cx="648.7617" cy="62.4883" fill="#222222" rx="10" ry="10" style="stroke:#222222;stroke-width:1;"/><rect fill="#F1F1F1" height="34.1328" rx="12.5" ry="12.5" style="stroke:#181818;stroke-width:0.5;" width="120.6758" x="588.4238" y="92.4883"/><text fill="#000000" font-family="sans-serif" font-size="12" lengthAdjust="spacing" textLength="100.6758" x="598.4238" y="114.0898">Open Application</text><rect fill="#F1F1F1" height="34.1328" rx="12.5" ry="12.5" style="stroke:#181818;stroke-width:0.5;" width="129.6816" x="583.9209" y="146.6211"/><text fill="#000000" font-family="sans-serif" font-size="12" lengthAdjust="spacing" textLength="109.6816" x="593.9209" y="168.2227">Display Login Page</text><rect fill="#F1F1F1" height="34.1328" rx="12.5" ry="12.5" style="stroke:#181818;stroke-width:0.5;" width="182.3574" x="557.583" y="200.7539"/><text fill="#000000" font-family="sans-serif" font-size="12" lengthAdjust="spacing" textLength="162.3574" x="567.583" y="222.3555">Enter Username &amp; Password</text><rect fill="#F1F1F1" height="34.1328" rx="12.5" ry="12.5" style="stroke:#181818;stroke-width:0.5;" width="146.9492" x="575.2871" y="254.8867"/><text fill="#000000" font-family="sans-serif" font-size="12" lengthAdjust="spacing" textLength="126.9492" x="585.2871" y="276.4883">Submit Login Request</text><polygon fill="#F1F1F1" points="601.2893,309.0195,696.2341,309.0195,708.2341,321.0195,696.2341,333.0195,601.2893,333.0195,589.2893,321.0195,601.2893,309.0195" style="stroke:#181818;stroke-width:0.5;stroke-linejoin:miter;stroke-miterlimit:10;"/><text fill="#000000" font-family="sans-serif" font-size="11" lengthAdjust="spacing" textLength="94.9448" x="601.2893" y="325.1768">Credentials Valid?</text><text fill="#000000" font-family="sans-serif" font-size="11" lengthAdjust="spacing" textLength="18.5894" x="570.7" y="318.6992">Yes</text><text fill="#000000" font-family="sans-serif" font-size="11" lengthAdjust="spacing" textLength="14.8833" x="708.2341" y="318.6992">No</text><rect fill="#F1F1F1" height="34.1328" rx="12.5" ry="12.5" style="stroke:#181818;stroke-width:0.5;" width="137.4863" x="336.3496" y="343.0195"/><text fill="#000000" font-family="sans-serif" font-size="12" lengthAdjust="spacing" textLength="117.4863" x="346.3496" y="364.6211">Generate JWT Token</text><rect fill="#F1F1F1" height="34.1328" rx="12.5" ry="12.5" style="stroke:#181818;stroke-width:0.5;" width="118.5195" x="345.833" y="397.1523"/><text fill="#000000" font-family="sans-serif" font-size="12" lengthAdjust="spacing" textLength="98.5195" x="355.833" y="418.7539">Load User Profile</text><polygon fill="#F1F1F1" points="77.2676,476.2852,132.2676,476.2852,144.2676,488.2852,132.2676,500.2852,77.2676,500.2852,65.2676,488.2852,77.2676,476.2852" style="stroke:#181818;stroke-width:0.5;stroke-linejoin:miter;stroke-miterlimit:10;"/><text fill="#000000" font-family="sans-serif" font-size="11" lengthAdjust="spacing" textLength="51.0952" x="108.7676" y="510.9199">Employee</text><text fill="#000000" font-family="sans-serif" font-size="11" lengthAdjust="spacing" textLength="55" x="77.2676" y="492.4424">User Role?</text><rect fill="#F1F1F1" height="34.1328" rx="12.5" ry="12.5" style="stroke:#181818;stroke-width:0.5;" width="177.5352" x="16" y="533.2402"/><text fill="#000000" font-family="sans-serif" font-size="12" lengthAdjust="spacing" textLength="157.5352" x="26" y="554.8418">Open Employee Dashboard</text><rect fill="#F1F1F1" height="34.1328" rx="12.5" ry="12.5" style="stroke:#181818;stroke-width:0.5;" width="87.9922" x="60.7715" y="600.3281"/><text fill="#000000" font-family="sans-serif" font-size="12" lengthAdjust="spacing" textLength="67.9922" x="70.7715" y="621.9297">View Profile</text><rect fill="#F1F1F1" height="34.1328" rx="12.5" ry="12.5" style="stroke:#181818;stroke-width:0.5;" width="112.3027" x="48.6162" y="667.416"/><text fill="#000000" font-family="sans-serif" font-size="12" lengthAdjust="spacing" textLength="92.3027" x="58.6162" y="689.0176">Submit Worklog</text><rect fill="#F1F1F1" height="34.1328" rx="12.5" ry="12.5" style="stroke:#181818;stroke-width:0.5;" width="116.8906" x="46.3223" y="734.5039"/><text fill="#000000" font-family="sans-serif" font-size="12" lengthAdjust="spacing" textLength="96.8906" x="56.3223" y="756.1055">View Attendance</text><rect fill="#F1F1F1" height="34.1328" rx="12.5" ry="12.5" style="stroke:#181818;stroke-width:0.5;" width="89.5273" x="60.0039" y="801.5918"/><text fill="#000000" font-family="sans-serif" font-size="12" lengthAdjust="spacing" textLength="69.5273" x="70.0039" y="823.1934">Apply Leave</text><rect fill="#F1F1F1" height="34.1328" rx="12.5" ry="12.5" style="stroke:#181818;stroke-width:0.5;" width="153.1777" x="28.1787" y="868.6797"/><text fill="#000000" font-family="sans-serif" font-size="12" lengthAdjust="spacing" textLength="133.1777" x="38.1787" y="890.2813">View Tasks &amp; Meetings</text><rect fill="#F1F1F1" height="34.1328" rx="12.5" ry="12.5" style="stroke:#181818;stroke-width:0.5;" width="159.0254" x="25.2549" y="935.7676"/><text fill="#000000" font-family="sans-serif" font-size="12" lengthAdjust="spacing" textLength="139.0254" x="35.2549" y="957.3691">View Burnout Prediction</text><polygon fill="#F1F1F1" points="266.5208,476.2852,312.4597,476.2852,324.4597,488.2852,312.4597,500.2852,266.5208,500.2852,254.5208,488.2852,266.5208,476.2852" style="stroke:#181818;stroke-width:0.5;stroke-linejoin:miter;stroke-miterlimit:10;"/><text fill="#000000" font-family="sans-serif" font-size="11" lengthAdjust="spacing" textLength="45.939" x="266.5208" y="492.4424">Manager</text><rect fill="#F1F1F1" height="34.1328" rx="12.5" ry="12.5" style="stroke:#181818;stroke-width:0.5;" width="171.9102" x="203.5352" y="520.2852"/><text fill="#000000" font-family="sans-serif" font-size="12" lengthAdjust="spacing" textLength="151.9102" x="213.5352" y="541.8867">Open Manager Dashboard</text><rect fill="#F1F1F1" height="34.1328" rx="12.5" ry="12.5" style="stroke:#181818;stroke-width:0.5;" width="140.4336" x="219.2734" y="587.373"/><text fill="#000000" font-family="sans-serif" font-size="12" lengthAdjust="spacing" textLength="120.4336" x="229.2734" y="608.9746">View Team Members</text><rect fill="#F1F1F1" height="34.1328" rx="12.5" ry="12.5" style="stroke:#181818;stroke-width:0.5;" width="153.582" x="212.6992" y="654.4609"/><text fill="#000000" font-family="sans-serif" font-size="12" lengthAdjust="spacing" textLength="133.582" x="222.6992" y="676.0625">Review Team Worklogs</text><rect fill="#F1F1F1" height="34.1328" rx="12.5" ry="12.5" style="stroke:#181818;stroke-width:0.5;" width="161.4453" x="208.7676" y="721.5488"/><text fill="#000000" font-family="sans-serif" font-size="12" lengthAdjust="spacing" textLength="141.4453" x="218.7676" y="743.1504">Approve Leave Requests</text><rect fill="#F1F1F1" height="34.1328" rx="12.5" ry="12.5" style="stroke:#181818;stroke-width:0.5;" width="96.1719" x="241.4043" y="788.6367"/><text fill="#000000" font-family="sans-serif" font-size="12" lengthAdjust="spacing" textLength="76.1719" x="251.4043" y="810.2383">Assign Tasks</text><rect fill="#F1F1F1" height="34.1328" rx="12.5" ry="12.5" style="stroke:#181818;stroke-width:0.5;" width="128.4043" x="225.2881" y="855.7246"/><text fill="#000000" font-family="sans-serif" font-size="12" lengthAdjust="spacing" textLength="108.4043" x="235.2881" y="877.3262">Schedule Meetings</text><rect fill="#F1F1F1" height="34.1328" rx="12.5" ry="12.5" style="stroke:#181818;stroke-width:0.5;" width="158.2051" x="210.3877" y="922.8125"/><text fill="#000000" font-family="sans-serif" font-size="12" lengthAdjust="spacing" textLength="138.2051" x="220.3877" y="944.4141">Review Burnout Reports</text><polygon fill="#F1F1F1" points="480.1816,476.2852,504.1816,476.2852,516.1816,488.2852,504.1816,500.2852,480.1816,500.2852,468.1816,488.2852,480.1816,476.2852" style="stroke:#181818;stroke-width:0.5;stroke-linejoin:miter;stroke-miterlimit:10;"/><text fill="#000000" font-family="sans-serif" font-size="11" lengthAdjust="spacing" textLength="15.0391" x="484.6621" y="492.4424">HR</text><rect fill="#F1F1F1" height="34.1328" rx="12.5" ry="12.5" style="stroke:#181818;stroke-width:0.5;" width="138.2012" x="423.0811" y="520.2852"/><text fill="#000000" font-family="sans-serif" font-size="12" lengthAdjust="spacing" textLength="118.2012" x="433.0811" y="541.8867">Open HR Dashboard</text><rect fill="#F1F1F1" height="34.1328" rx="12.5" ry="12.5" style="stroke:#181818;stroke-width:0.5;" width="130.8594" x="426.752" y="587.373"/><text fill="#000000" font-family="sans-serif" font-size="12" lengthAdjust="spacing" textLength="110.8594" x="436.752" y="608.9746">Manage Employees</text><rect fill="#F1F1F1" height="34.1328" rx="12.5" ry="12.5" style="stroke:#181818;stroke-width:0.5;" width="144.1953" x="420.084" y="654.4609"/><text fill="#000000" font-family="sans-serif" font-size="12" lengthAdjust="spacing" textLength="124.1953" x="430.084" y="676.0625">Manage Departments</text><rect fill="#F1F1F1" height="34.1328" rx="12.5" ry="12.5" style="stroke:#181818;stroke-width:0.5;" width="134.8496" x="424.7568" y="721.5488"/><text fill="#000000" font-family="sans-serif" font-size="12" lengthAdjust="spacing" textLength="114.8496" x="434.7568" y="743.1504">Manage Attendance</text><rect fill="#F1F1F1" height="34.1328" rx="12.5" ry="12.5" style="stroke:#181818;stroke-width:0.5;" width="115.0039" x="434.6797" y="788.6367"/><text fill="#000000" font-family="sans-serif" font-size="12" lengthAdjust="spacing" textLength="95.0039" x="444.6797" y="810.2383">Manage Projects</text><rect fill="#F1F1F1" height="34.1328" rx="12.5" ry="12.5" style="stroke:#181818;stroke-width:0.5;" width="120.7109" x="431.8262" y="855.7246"/><text fill="#000000" font-family="sans-serif" font-size="12" lengthAdjust="spacing" textLength="100.7109" x="441.8262" y="877.3262">Generate Reports</text><rect fill="#F1F1F1" height="34.1328" rx="12.5" ry="12.5" style="stroke:#181818;stroke-width:0.5;" width="113.4746" x="435.4443" y="922.8125"/><text fill="#000000" font-family="sans-serif" font-size="12" lengthAdjust="spacing" textLength="93.4746" x="445.4443" y="944.4141">Select Employee</text><rect fill="#F1F1F1" height="34.1328" rx="12.5" ry="12.5" style="stroke:#181818;stroke-width:0.5;" width="149.9961" x="417.1836" y="989.9004"/><text fill="#000000" font-family="sans-serif" font-size="12" lengthAdjust="spacing" textLength="129.9961" x="427.1836" y="1011.502">Collect Employee Data</text><rect fill="#F1F1F1" height="34.1328" rx="12.5" ry="12.5" style="stroke:#181818;stroke-width:0.5;" width="137.7266" x="423.3184" y="1044.0332"/><text fill="#000000" font-family="sans-serif" font-size="12" lengthAdjust="spacing" textLength="117.7266" x="433.3184" y="1065.6348">Prepare ML Features</text><rect fill="#F1F1F1" height="34.1328" rx="12.5" ry="12.5" style="stroke:#181818;stroke-width:0.5;" width="102.582" x="440.8906" y="1098.166"/><text fill="#000000" font-family="sans-serif" font-size="12" lengthAdjust="spacing" textLength="82.582" x="450.8906" y="1119.7676">Scale Features</text><rect fill="#F1F1F1" height="34.1328" rx="12.5" ry="12.5" style="stroke:#181818;stroke-width:0.5;" width="193.4727" x="395.4453" y="1152.2988"/><text fill="#000000" font-family="sans-serif" font-size="12" lengthAdjust="spacing" textLength="173.4727" x="405.4453" y="1173.9004">Run Burnout Prediction Model</text><rect fill="#F1F1F1" height="34.1328" rx="12.5" ry="12.5" style="stroke:#181818;stroke-width:0.5;" width="179.8262" x="402.2686" y="1206.4316"/><text fill="#000000" font-family="sans-serif" font-size="12" lengthAdjust="spacing" textLength="159.8262" x="412.2686" y="1228.0332">Generate Productivity Score</text><rect fill="#F1F1F1" height="34.1328" rx="12.5" ry="12.5" style="stroke:#181818;stroke-width:0.5;" width="111.8867" x="436.2383" y="1260.5645"/><text fill="#000000" font-family="sans-serif" font-size="12" lengthAdjust="spacing" textLength="91.8867" x="446.2383" y="1282.166">Store Prediction</text><rect fill="#F1F1F1" height="34.1328" rx="12.5" ry="12.5" style="stroke:#181818;stroke-width:0.5;" width="185.5918" x="399.3857" y="1314.6973"/><text fill="#000000" font-family="sans-serif" font-size="12" lengthAdjust="spacing" textLength="165.5918" x="409.3857" y="1336.2988">Display Analytics Dashboard</text><polygon fill="#F1F1F1" points="664.1575,476.2852,698.946,476.2852,710.946,488.2852,698.946,500.2852,664.1575,500.2852,652.1575,488.2852,664.1575,476.2852" style="stroke:#181818;stroke-width:0.5;stroke-linejoin:miter;stroke-miterlimit:10;"/><text fill="#000000" font-family="sans-serif" font-size="11" lengthAdjust="spacing" textLength="34.7886" x="664.1575" y="492.4424">Admin</text><rect fill="#F1F1F1" height="34.1328" rx="12.5" ry="12.5" style="stroke:#181818;stroke-width:0.5;" width="101.1465" x="630.9785" y="520.2852"/><text fill="#000000" font-family="sans-serif" font-size="12" lengthAdjust="spacing" textLength="81.1465" x="640.9785" y="541.8867">Manage Users</text><rect fill="#F1F1F1" height="34.1328" rx="12.5" ry="12.5" style="stroke:#181818;stroke-width:0.5;" width="100.2324" x="631.4355" y="587.373"/><text fill="#000000" font-family="sans-serif" font-size="12" lengthAdjust="spacing" textLength="80.2324" x="641.4355" y="608.9746">Manage Roles</text><rect fill="#F1F1F1" height="34.1328" rx="12.5" ry="12.5" style="stroke:#181818;stroke-width:0.5;" width="113.4453" x="624.8291" y="654.4609"/><text fill="#000000" font-family="sans-serif" font-size="12" lengthAdjust="spacing" textLength="93.4453" x="634.8291" y="676.0625">View Audit Logs</text><rect fill="#F1F1F1" height="34.1328" rx="12.5" ry="12.5" style="stroke:#181818;stroke-width:0.5;" width="145.2676" x="608.918" y="721.5488"/><text fill="#000000" font-family="sans-serif" font-size="12" lengthAdjust="spacing" textLength="125.2676" x="618.918" y="743.1504">System Configuration</text><rect fill="#F1F1F1" height="34.1328" rx="12.5" ry="12.5" style="stroke:#181818;stroke-width:0.5;" width="60.5586" x="374.8135" y="1388.8301"/><text fill="#000000" font-family="sans-serif" font-size="12" lengthAdjust="spacing" textLength="40.5586" x="384.8135" y="1410.4316">Logout</text><ellipse cx="405.0928" cy="1453.9629" fill="none" rx="11" ry="11" style="stroke:#222222;stroke-width:1;"/><ellipse cx="405.0928" cy="1453.9629" fill="#222222" rx="6" ry="6" style="stroke:#222222;stroke-width:1;"/><rect fill="#F1F1F1" height="34.1328" rx="12.5" ry="12.5" style="stroke:#181818;stroke-width:0.5;" width="136.4902" x="782.1855" y="343.0195"/><text fill="#000000" font-family="sans-serif" font-size="12" lengthAdjust="spacing" textLength="116.4902" x="792.1855" y="364.6211">Display Login Failed</text><rect fill="#F1F1F1" height="34.1328" rx="12.5" ry="12.5" style="stroke:#181818;stroke-width:0.5;" width="85.9063" x="807.4775" y="397.1523"/><text fill="#000000" font-family="sans-serif" font-size="12" lengthAdjust="spacing" textLength="65.9063" x="817.4775" y="418.7539">Retry Login</text><ellipse cx="850.4307" cy="462.2852" fill="none" rx="11" ry="11" style="stroke:#222222;stroke-width:1;"/><ellipse cx="850.4307" cy="462.2852" fill="#222222" rx="6" ry="6" style="stroke:#222222;stroke-width:1;"/><line style="stroke:#181818;stroke-width:1;" x1="648.7617" x2="648.7617" y1="72.4883" y2="92.4883"/><polygon fill="#181818" points="644.7617,82.4883,648.7617,92.4883,652.7617,82.4883,648.7617,86.4883" style="stroke:#181818;stroke-width:1;stroke-linejoin:miter;stroke-miterlimit:10;"/><line style="stroke:#181818;stroke-width:1;" x1="648.7617" x2="648.7617" y1="126.6211" y2="146.6211"/><polygon fill="#181818" points="644.7617,136.6211,648.7617,146.6211,652.7617,136.6211,648.7617,140.6211" style="stroke:#181818;stroke-width:1;stroke-linejoin:miter;stroke-miterlimit:10;"/><line style="stroke:#181818;stroke-width:1;" x1="648.7617" x2="648.7617" y1="180.7539" y2="200.7539"/><polygon fill="#181818" points="644.7617,190.7539,648.7617,200.7539,652.7617,190.7539,648.7617,194.7539" style="stroke:#181818;stroke-width:1;stroke-linejoin:miter;stroke-miterlimit:10;"/><line style="stroke:#181818;stroke-width:1;" x1="648.7617" x2="648.7617" y1="234.8867" y2="254.8867"/><polygon fill="#181818" points="644.7617,244.8867,648.7617,254.8867,652.7617,244.8867,648.7617,248.8867" style="stroke:#181818;stroke-width:1;stroke-linejoin:miter;stroke-miterlimit:10;"/><line style="stroke:#181818;stroke-width:1;" x1="405.0928" x2="405.0928" y1="377.1523" y2="397.1523"/><polygon fill="#181818" points="401.0928,387.1523,405.0928,397.1523,409.0928,387.1523,405.0928,391.1523" style="stroke:#181818;stroke-width:1;stroke-linejoin:miter;stroke-miterlimit:10;"/><line style="stroke:#181818;stroke-width:1;" x1="104.7676" x2="104.7676" y1="567.373" y2="600.3281"/><polygon fill="#181818" points="100.7676,590.3281,104.7676,600.3281,108.7676,590.3281,104.7676,594.3281" style="stroke:#181818;stroke-width:1;stroke-linejoin:miter;stroke-miterlimit:10;"/><line style="stroke:#181818;stroke-width:1;" x1="104.7676" x2="104.7676" y1="634.4609" y2="667.416"/><polygon fill="#181818" points="100.7676,657.416,104.7676,667.416,108.7676,657.416,104.7676,661.416" style="stroke:#181818;stroke-width:1;stroke-linejoin:miter;stroke-miterlimit:10;"/><line style="stroke:#181818;stroke-width:1;" x1="104.7676" x2="104.7676" y1="701.5488" y2="734.5039"/><polygon fill="#181818" points="100.7676,724.5039,104.7676,734.5039,108.7676,724.5039,104.7676,728.5039" style="stroke:#181818;stroke-width:1;stroke-linejoin:miter;stroke-miterlimit:10;"/><line style="stroke:#181818;stroke-width:1;" x1="104.7676" x2="104.7676" y1="768.6367" y2="801.5918"/><polygon fill="#181818" points="100.7676,791.5918,104.7676,801.5918,108.7676,791.5918,104.7676,795.5918" style="stroke:#181818;stroke-width:1;stroke-linejoin:miter;stroke-miterlimit:10;"/><line style="stroke:#181818;stroke-width:1;" x1="104.7676" x2="104.7676" y1="835.7246" y2="868.6797"/><polygon fill="#181818" points="100.7676,858.6797,104.7676,868.6797,108.7676,858.6797,104.7676,862.6797" style="stroke:#181818;stroke-width:1;stroke-linejoin:miter;stroke-miterlimit:10;"/><line style="stroke:#181818;stroke-width:1;" x1="104.7676" x2="104.7676" y1="902.8125" y2="935.7676"/><polygon fill="#181818" points="100.7676,925.7676,104.7676,935.7676,108.7676,925.7676,104.7676,929.7676" style="stroke:#181818;stroke-width:1;stroke-linejoin:miter;stroke-miterlimit:10;"/><line style="stroke:#181818;stroke-width:1;" x1="289.4902" x2="289.4902" y1="554.418" y2="587.373"/><polygon fill="#181818" points="285.4902,577.373,289.4902,587.373,293.4902,577.373,289.4902,581.373" style="stroke:#181818;stroke-width:1;stroke-linejoin:miter;stroke-miterlimit:10;"/><line style="stroke:#181818;stroke-width:1;" x1="289.4902" x2="289.4902" y1="621.5059" y2="654.4609"/><polygon fill="#181818" points="285.4902,644.4609,289.4902,654.4609,293.4902,644.4609,289.4902,648.4609" style="stroke:#181818;stroke-width:1;stroke-linejoin:miter;stroke-miterlimit:10;"/><line style="stroke:#181818;stroke-width:1;" x1="289.4902" x2="289.4902" y1="688.5938" y2="721.5488"/><polygon fill="#181818" points="285.4902,711.5488,289.4902,721.5488,293.4902,711.5488,289.4902,715.5488" style="stroke:#181818;stroke-width:1;stroke-linejoin:miter;stroke-miterlimit:10;"/><line style="stroke:#181818;stroke-width:1;" x1="289.4902" x2="289.4902" y1="755.6816" y2="788.6367"/><polygon fill="#181818" points="285.4902,778.6367,289.4902,788.6367,293.4902,778.6367,289.4902,782.6367" style="stroke:#181818;stroke-width:1;stroke-linejoin:miter;stroke-miterlimit:10;"/><line style="stroke:#181818;stroke-width:1;" x1="289.4902" x2="289.4902" y1="822.7695" y2="855.7246"/><polygon fill="#181818" points="285.4902,845.7246,289.4902,855.7246,293.4902,845.7246,289.4902,849.7246" style="stroke:#181818;stroke-width:1;stroke-linejoin:miter;stroke-miterlimit:10;"/><line style="stroke:#181818;stroke-width:1;" x1="289.4902" x2="289.4902" y1="889.8574" y2="922.8125"/><polygon fill="#181818" points="285.4902,912.8125,289.4902,922.8125,293.4902,912.8125,289.4902,916.8125" style="stroke:#181818;stroke-width:1;stroke-linejoin:miter;stroke-miterlimit:10;"/><line style="stroke:#181818;stroke-width:1;" x1="492.1816" x2="492.1816" y1="554.418" y2="587.373"/><polygon fill="#181818" points="488.1816,577.373,492.1816,587.373,496.1816,577.373,492.1816,581.373" style="stroke:#181818;stroke-width:1;stroke-linejoin:miter;stroke-miterlimit:10;"/><line style="stroke:#181818;stroke-width:1;" x1="492.1816" x2="492.1816" y1="621.5059" y2="654.4609"/><polygon fill="#181818" points="488.1816,644.4609,492.1816,654.4609,496.1816,644.4609,492.1816,648.4609" style="stroke:#181818;stroke-width:1;stroke-linejoin:miter;stroke-miterlimit:10;"/><line style="stroke:#181818;stroke-width:1;" x1="492.1816" x2="492.1816" y1="688.5938" y2="721.5488"/><polygon fill="#181818" points="488.1816,711.5488,492.1816,721.5488,496.1816,711.5488,492.1816,715.5488" style="stroke:#181818;stroke-width:1;stroke-linejoin:miter;stroke-miterlimit:10;"/><line style="stroke:#181818;stroke-width:1;" x1="492.1816" x2="492.1816" y1="755.6816" y2="788.6367"/><polygon fill="#181818" points="488.1816,778.6367,492.1816,788.6367,496.1816,778.6367,492.1816,782.6367" style="stroke:#181818;stroke-width:1;stroke-linejoin:miter;stroke-miterlimit:10;"/><line style="stroke:#181818;stroke-width:1;" x1="492.1816" x2="492.1816" y1="822.7695" y2="855.7246"/><polygon fill="#181818" points="488.1816,845.7246,492.1816,855.7246,496.1816,845.7246,492.1816,849.7246" style="stroke:#181818;stroke-width:1;stroke-linejoin:miter;stroke-miterlimit:10;"/><line style="stroke:#181818;stroke-width:1;" x1="492.1816" x2="492.1816" y1="889.8574" y2="922.8125"/><polygon fill="#181818" points="488.1816,912.8125,492.1816,922.8125,496.1816,912.8125,492.1816,916.8125" style="stroke:#181818;stroke-width:1;stroke-linejoin:miter;stroke-miterlimit:10;"/><line style="stroke:#181818;stroke-width:1;" x1="492.1816" x2="492.1816" y1="956.9453" y2="989.9004"/><polygon fill="#181818" points="488.1816,979.9004,492.1816,989.9004,496.1816,979.9004,492.1816,983.9004" style="stroke:#181818;stroke-width:1;stroke-linejoin:miter;stroke-miterlimit:10;"/><line style="stroke:#181818;stroke-width:1;" x1="492.1816" x2="492.1816" y1="1024.0332" y2="1044.0332"/><polygon fill="#181818" points="488.1816,1034.0332,492.1816,1044.0332,496.1816,1034.0332,492.1816,1038.0332" style="stroke:#181818;stroke-width:1;stroke-linejoin:miter;stroke-miterlimit:10;"/><line style="stroke:#181818;stroke-width:1;" x1="492.1816" x2="492.1816" y1="1078.166" y2="1098.166"/><polygon fill="#181818" points="488.1816,1088.166,492.1816,1098.166,496.1816,1088.166,492.1816,1092.166" style="stroke:#181818;stroke-width:1;stroke-linejoin:miter;stroke-miterlimit:10;"/><line style="stroke:#181818;stroke-width:1;" x1="492.1816" x2="492.1816" y1="1132.2988" y2="1152.2988"/><polygon fill="#181818" points="488.1816,1142.2988,492.1816,1152.2988,496.1816,1142.2988,492.1816,1146.2988" style="stroke:#181818;stroke-width:1;stroke-linejoin:miter;stroke-miterlimit:10;"/><line style="stroke:#181818;stroke-width:1;" x1="492.1816" x2="492.1816" y1="1186.4316" y2="1206.4316"/><polygon fill="#181818" points="488.1816,1196.4316,492.1816,1206.4316,496.1816,1196.4316,492.1816,1200.4316" style="stroke:#181818;stroke-width:1;stroke-linejoin:miter;stroke-miterlimit:10;"/><line style="stroke:#181818;stroke-width:1;" x1="492.1816" x2="492.1816" y1="1240.5645" y2="1260.5645"/><polygon fill="#181818" points="488.1816,1250.5645,492.1816,1260.5645,496.1816,1250.5645,492.1816,1254.5645" style="stroke:#181818;stroke-width:1;stroke-linejoin:miter;stroke-miterlimit:10;"/><line style="stroke:#181818;stroke-width:1;" x1="492.1816" x2="492.1816" y1="1294.6973" y2="1314.6973"/><polygon fill="#181818" points="488.1816,1304.6973,492.1816,1314.6973,496.1816,1304.6973,492.1816,1308.6973" style="stroke:#181818;stroke-width:1;stroke-linejoin:miter;stroke-miterlimit:10;"/><line style="stroke:#181818;stroke-width:1;" x1="681.5518" x2="681.5518" y1="554.418" y2="587.373"/><polygon fill="#181818" points="677.5518,577.373,681.5518,587.373,685.5518,577.373,681.5518,581.373" style="stroke:#181818;stroke-width:1;stroke-linejoin:miter;stroke-miterlimit:10;"/><line style="stroke:#181818;stroke-width:1;" x1="681.5518" x2="681.5518" y1="621.5059" y2="654.4609"/><polygon fill="#181818" points="677.5518,644.4609,681.5518,654.4609,685.5518,644.4609,681.5518,648.4609" style="stroke:#181818;stroke-width:1;stroke-linejoin:miter;stroke-miterlimit:10;"/><line style="stroke:#181818;stroke-width:1;" x1="681.5518" x2="681.5518" y1="688.5938" y2="721.5488"/><polygon fill="#181818" points="677.5518,711.5488,681.5518,721.5488,685.5518,711.5488,681.5518,715.5488" style="stroke:#181818;stroke-width:1;stroke-linejoin:miter;stroke-miterlimit:10;"/><line style="stroke:#181818;stroke-width:1;" x1="104.7676" x2="104.7676" y1="500.2852" y2="533.2402"/><polygon fill="#181818" points="100.7676,523.2402,104.7676,533.2402,108.7676,523.2402,104.7676,527.2402" style="stroke:#181818;stroke-width:1;stroke-linejoin:miter;stroke-miterlimit:10;"/><line style="stroke:#181818;stroke-width:1;" x1="104.7676" x2="104.7676" y1="969.9004" y2="1368.8301"/><polygon fill="#181818" points="100.7676,1358.8301,104.7676,1368.8301,108.7676,1358.8301,104.7676,1362.8301" style="stroke:#181818;stroke-width:1;stroke-linejoin:miter;stroke-miterlimit:10;"/><line style="stroke:#181818;stroke-width:1;" x1="289.4902" x2="289.4902" y1="500.2852" y2="520.2852"/><polygon fill="#181818" points="285.4902,510.2852,289.4902,520.2852,293.4902,510.2852,289.4902,514.2852" style="stroke:#181818;stroke-width:1;stroke-linejoin:miter;stroke-miterlimit:10;"/><line style="stroke:#181818;stroke-width:1;" x1="289.4902" x2="289.4902" y1="956.9453" y2="1368.8301"/><polygon fill="#181818" points="285.4902,1358.8301,289.4902,1368.8301,293.4902,1358.8301,289.4902,1362.8301" style="stroke:#181818;stroke-width:1;stroke-linejoin:miter;stroke-miterlimit:10;"/><line style="stroke:#181818;stroke-width:1;" x1="492.1816" x2="492.1816" y1="500.2852" y2="520.2852"/><polygon fill="#181818" points="488.1816,510.2852,492.1816,520.2852,496.1816,510.2852,492.1816,514.2852" style="stroke:#181818;stroke-width:1;stroke-linejoin:miter;stroke-miterlimit:10;"/><line style="stroke:#181818;stroke-width:1;" x1="492.1816" x2="492.1816" y1="1348.8301" y2="1368.8301"/><polygon fill="#181818" points="488.1816,1358.8301,492.1816,1368.8301,496.1816,1358.8301,492.1816,1362.8301" style="stroke:#181818;stroke-width:1;stroke-linejoin:miter;stroke-miterlimit:10;"/><line style="stroke:#181818;stroke-width:1;" x1="681.5518" x2="681.5518" y1="500.2852" y2="520.2852"/><polygon fill="#181818" points="677.5518,510.2852,681.5518,520.2852,685.5518,510.2852,681.5518,514.2852" style="stroke:#181818;stroke-width:1;stroke-linejoin:miter;stroke-miterlimit:10;"/><line style="stroke:#181818;stroke-width:1;" x1="681.5518" x2="681.5518" y1="755.6816" y2="1368.8301"/><polygon fill="#181818" points="677.5518,1358.8301,681.5518,1368.8301,685.5518,1358.8301,681.5518,1362.8301" style="stroke:#181818;stroke-width:1;stroke-linejoin:miter;stroke-miterlimit:10;"/><line style="stroke:#181818;stroke-width:1;" x1="144.2676" x2="254.5208" y1="488.2852" y2="488.2852"/><polygon fill="#181818" points="244.5208,484.2852,254.5208,488.2852,244.5208,492.2852,248.5208,488.2852" style="stroke:#181818;stroke-width:1;stroke-linejoin:miter;stroke-miterlimit:10;"/><line style="stroke:#181818;stroke-width:1;" x1="324.4597" x2="468.1816" y1="488.2852" y2="488.2852"/><polygon fill="#181818" points="458.1816,484.2852,468.1816,488.2852,458.1816,492.2852,462.1816,488.2852" style="stroke:#181818;stroke-width:1;stroke-linejoin:miter;stroke-miterlimit:10;"/><line style="stroke:#181818;stroke-width:1;" x1="516.1816" x2="652.1575" y1="488.2852" y2="488.2852"/><polygon fill="#181818" points="642.1575,484.2852,652.1575,488.2852,642.1575,492.2852,646.1575,488.2852" style="stroke:#181818;stroke-width:1;stroke-linejoin:miter;stroke-miterlimit:10;"/><line style="stroke:#181818;stroke-width:1;" x1="405.0928" x2="405.0928" y1="431.2852" y2="451.2852"/><line style="stroke:#181818;stroke-width:1;" x1="405.0928" x2="104.7676" y1="451.2852" y2="451.2852"/><line style="stroke:#181818;stroke-width:1;" x1="104.7676" x2="104.7676" y1="451.2852" y2="476.2852"/><polygon fill="#181818" points="100.7676,466.2852,104.7676,476.2852,108.7676,466.2852,104.7676,470.2852" style="stroke:#181818;stroke-width:1;stroke-linejoin:miter;stroke-miterlimit:10;"/><line style="stroke:#181818;stroke-width:1;" x1="710.946" x2="768.1855" y1="488.2852" y2="488.2852"/><line style="stroke:#181818;stroke-width:1;" x1="768.1855" x2="768.1855" y1="488.2852" y2="1368.8301"/><polygon fill="#181818" points="764.1855,1358.8301,768.1855,1368.8301,772.1855,1358.8301,768.1855,1362.8301" style="stroke:#181818;stroke-width:1;stroke-linejoin:miter;stroke-miterlimit:10;"/><line style="stroke:#181818;stroke-width:1;" x1="104.7676" x2="768.1855" y1="1368.8301" y2="1368.8301"/><line style="stroke:#181818;stroke-width:1;" x1="405.0928" x2="405.0928" y1="1368.8301" y2="1388.8301"/><polygon fill="#181818" points="401.0928,1378.8301,405.0928,1388.8301,409.0928,1378.8301,405.0928,1382.8301" style="stroke:#181818;stroke-width:1;stroke-linejoin:miter;stroke-miterlimit:10;"/><line style="stroke:#181818;stroke-width:1;" x1="405.0928" x2="405.0928" y1="1422.9629" y2="1442.9629"/><polygon fill="#181818" points="401.0928,1432.9629,405.0928,1442.9629,409.0928,1432.9629,405.0928,1436.9629" style="stroke:#181818;stroke-width:1;stroke-linejoin:miter;stroke-miterlimit:10;"/><line style="stroke:#181818;stroke-width:1;" x1="850.4307" x2="850.4307" y1="377.1523" y2="397.1523"/><polygon fill="#181818" points="846.4307,387.1523,850.4307,397.1523,854.4307,387.1523,850.4307,391.1523" style="stroke:#181818;stroke-width:1;stroke-linejoin:miter;stroke-miterlimit:10;"/><line style="stroke:#181818;stroke-width:1;" x1="850.4307" x2="850.4307" y1="431.2852" y2="451.2852"/><polygon fill="#181818" points="846.4307,441.2852,850.4307,451.2852,854.4307,441.2852,850.4307,445.2852" style="stroke:#181818;stroke-width:1;stroke-linejoin:miter;stroke-miterlimit:10;"/><line style="stroke:#181818;stroke-width:1;" x1="589.2893" x2="405.0928" y1="321.0195" y2="321.0195"/><line style="stroke:#181818;stroke-width:1;" x1="405.0928" x2="405.0928" y1="321.0195" y2="343.0195"/><polygon fill="#181818" points="401.0928,333.0195,405.0928,343.0195,409.0928,333.0195,405.0928,337.0195" style="stroke:#181818;stroke-width:1;stroke-linejoin:miter;stroke-miterlimit:10;"/><line style="stroke:#181818;stroke-width:1;" x1="708.2341" x2="850.4307" y1="321.0195" y2="321.0195"/><line style="stroke:#181818;stroke-width:1;" x1="850.4307" x2="850.4307" y1="321.0195" y2="343.0195"/><polygon fill="#181818" points="846.4307,333.0195,850.4307,343.0195,854.4307,333.0195,850.4307,337.0195" style="stroke:#181818;stroke-width:1;stroke-linejoin:miter;stroke-miterlimit:10;"/><line style="stroke:#181818;stroke-width:1;" x1="648.7617" x2="648.7617" y1="289.0195" y2="309.0195"/><polygon fill="#181818" points="644.7617,299.0195,648.7617,309.0195,652.7617,299.0195,648.7617,303.0195" style="stroke:#181818;stroke-width:1;stroke-linejoin:miter;stroke-miterlimit:10;"/><?plantuml-src RLFBZjim3BpdAtGguaD_OFTGkCa-K2HjuAIxw96n64UDBBaIdI1_NygoPHkxDtj8aSCXXnHf57b9wgheBjOAAWUr-2gUwaRREwBOEIlR8PuRq7TIfHTVnFVM6TiI9w1Kd62DsDyzORrO-8io3OH2_WpItfIfn0cqHmuHE5ei7durQ4JUD5gL4Du-ChPMlj5m5njRAIDsK650dmoX4xyzEWCrSkCTU7-pJeRWlZtMYleN1VvhqHFZwYIMA-Q5XXJt5M-WbVoM2Jfpr-KVz1c_VK633WZ5Z_U3EDWBTYGs5cJNBKn-KXhxSXrKM8sfp21HDeoJD5k3FnyjH8fl2c-JMWFbT-iksbOf8oT28y6KNL9GXeL0k6BAE82_1E6tYCIA-XJuk0aE8SiTU6_1i90kaUp_F-5uG5xO5kiZkgvsWTS4zsnzpytPAqPsW-WnuhsgJ2JQZLgUKRPyO5FAVTc1T86DTTtpWV5haSY-5dEUaNmIsa-mDVB5KSqRdw9pLNkGb_4NovYNZc3ayR17pU7K9K0hgsSOqo880TQS-_A46_6CGAt3VdBWiQT8qPhFBBEr4lMCoCnm-zAwU3N47_CD9x-ChfoADSYPorgPR9m-7F9Ked3JuotbhOn-YcDqXXOhQqwgQjtWL9PKdJglL3pEOt2rRM97iVnfimzUVWO-VXctJwv7ntTTkVy0?></g></svg>