<svg xmlns="http://www.w3.org/2000/svg" xmlns:xlink="http://www.w3.org/1999/xlink" width="938" height="1484" contentStyleType="text/css" data-diagram-type="ACTIVITY" style="width:938px;height:1484px;background:#fff" preserveAspectRatio="none" version="1.1" viewBox="0 0 938 1484" zoomAndPan="magnify"><?plantuml 1.2026.6?><g><g class="title" data-source-line="1"><text x="178.002" y="33.535" fill="#000" font-family="sans-serif" font-size="14" font-weight="700" lengthAdjust="spacing" textLength="580.672">Activity Diagram - Employee Productivity Analytics &amp; Burnout Prediction System</text></g><ellipse cx="648.762" cy="62.488" fill="#222" rx="10" ry="10" style="stroke:#222;stroke-width:1"/><rect style="stroke:#181818;stroke-width:.5" width="120.676" height="34.133" x="588.424" y="92.488" fill="#F1F1F1" rx="12.5" ry="12.5"/><text x="598.424" y="114.09" fill="#000" font-family="sans-serif" font-size="12" lengthAdjust="spacing" textLength="100.676">Open Application</text><rect style="stroke:#181818;stroke-width:.5" width="129.682" height="34.133" x="583.921" y="146.621" fill="#F1F1F1" rx="12.5" ry="12.5"/><text x="593.921" y="168.223" fill="#000" font-family="sans-serif" font-size="12" lengthAdjust="spacing" textLength="109.682">Display Login Page</text><rect style="stroke:#181818;stroke-width:.5" width="182.357" height="34.133" x="557.583" y="200.754" fill="#F1F1F1" rx="12.5" ry="12.5"/><text x="567.583" y="222.356" fill="#000" font-family="sans-serif" font-size="12" lengthAdjust="spacing" textLength="162.357">Enter Username &amp; Password</text><rect style="stroke:#181818;stroke-width:.5" width="146.949" height="34.133" x="575.287" y="254.887" fill="#F1F1F1" rx="12.5" ry="12.5"/><text x="585.287" y="276.488" fill="#000" font-family="sans-serif" font-size="12" lengthAdjust="spacing" textLength="126.949">Submit Login Request</text><polygon fill="#F1F1F1" points="601.289 309.019 696.234 309.019 708.234 321.019 696.234 333.019 601.289 333.019 589.289 321.019 601.289 309.019" style="stroke:#181818;stroke-width:.5;stroke-linejoin:miter;stroke-miterlimit:10"/><text x="601.289" y="325.177" fill="#000" font-family="sans-serif" font-size="11" lengthAdjust="spacing" textLength="94.945">Credentials Valid?</text><text x="570.7" y="318.699" fill="#000" font-family="sans-serif" font-size="11" lengthAdjust="spacing" textLength="18.589">Yes</text><text x="708.234" y="318.699" fill="#000" font-family="sans-serif" font-size="11" lengthAdjust="spacing" textLength="14.883">No</text><rect style="stroke:#181818;stroke-width:.5" width="137.486" height="34.133" x="336.35" y="343.019" fill="#F1F1F1" rx="12.5" ry="12.5"/><text x="346.35" y="364.621" fill="#000" font-family="sans-serif" font-size="12" lengthAdjust="spacing" textLength="117.486">Generate JWT Token</text><rect style="stroke:#181818;stroke-width:.5" width="118.519" height="34.133" x="345.833" y="397.152" fill="#F1F1F1" rx="12.5" ry="12.5"/><text x="355.833" y="418.754" fill="#000" font-family="sans-serif" font-size="12" lengthAdjust="spacing" textLength="98.519">Load User Profile</text><polygon fill="#F1F1F1" points="77.268 476.285 132.268 476.285 144.268 488.285 132.268 500.285 77.268 500.285 65.268 488.285 77.268 476.285" style="stroke:#181818;stroke-width:.5;stroke-linejoin:miter;stroke-miterlimit:10"/><text x="108.768" y="510.92" fill="#000" font-family="sans-serif" font-size="11" lengthAdjust="spacing" textLength="51.095">Employee</text><text x="77.268" y="492.442" fill="#000" font-family="sans-serif" font-size="11" lengthAdjust="spacing" textLength="55">User Role?</text><rect style="stroke:#181818;stroke-width:.5" width="177.535" height="34.133" x="16" y="533.24" fill="#F1F1F1" rx="12.5" ry="12.5"/><text x="26" y="554.842" fill="#000" font-family="sans-serif" font-size="12" lengthAdjust="spacing" textLength="157.535">Open Employee Dashboard</text><rect style="stroke:#181818;stroke-width:.5" width="87.992" height="34.133" x="60.772" y="600.328" fill="#F1F1F1" rx="12.5" ry="12.5"/><text x="70.772" y="621.93" fill="#000" font-family="sans-serif" font-size="12" lengthAdjust="spacing" textLength="67.992">View Profile</text><rect style="stroke:#181818;stroke-width:.5" width="112.303" height="34.133" x="48.616" y="667.416" fill="#F1F1F1" rx="12.5" ry="12.5"/><text x="58.616" y="689.018" fill="#000" font-family="sans-serif" font-size="12" lengthAdjust="spacing" textLength="92.303">Submit Worklog</text><rect style="stroke:#181818;stroke-width:.5" width="116.891" height="34.133" x="46.322" y="734.504" fill="#F1F1F1" rx="12.5" ry="12.5"/><text x="56.322" y="756.106" fill="#000" font-family="sans-serif" font-size="12" lengthAdjust="spacing" textLength="96.891">View Attendance</text><rect style="stroke:#181818;stroke-width:.5" width="89.527" height="34.133" x="60.004" y="801.592" fill="#F1F1F1" rx="12.5" ry="12.5"/><text x="70.004" y="823.193" fill="#000" font-family="sans-serif" font-size="12" lengthAdjust="spacing" textLength="69.527">Apply Leave</text><rect style="stroke:#181818;stroke-width:.5" width="153.178" height="34.133" x="28.179" y="868.68" fill="#F1F1F1" rx="12.5" ry="12.5"/><text x="38.179" y="890.281" fill="#000" font-family="sans-serif" font-size="12" lengthAdjust="spacing" textLength="133.178">View Tasks &amp; Meetings</text><rect style="stroke:#181818;stroke-width:.5" width="159.025" height="34.133" x="25.255" y="935.768" fill="#F1F1F1" rx="12.5" ry="12.5"/><text x="35.255" y="957.369" fill="#000" font-family="sans-serif" font-size="12" lengthAdjust="spacing" textLength="139.025">View Burnout Prediction</text><polygon fill="#F1F1F1" points="266.521 476.285 312.46 476.285 324.46 488.285 312.46 500.285 266.521 500.285 254.521 488.285 266.521 476.285" style="stroke:#181818;stroke-width:.5;stroke-linejoin:miter;stroke-miterlimit:10"/><text x="266.521" y="492.442" fill="#000" font-family="sans-serif" font-size="11" lengthAdjust="spacing" textLength="45.939">Manager</text><rect style="stroke:#181818;stroke-width:.5" width="171.91" height="34.133" x="203.535" y="520.285" fill="#F1F1F1" rx="12.5" ry="12.5"/><text x="213.535" y="541.887" fill="#000" font-family="sans-serif" font-size="12" lengthAdjust="spacing" textLength="151.91">Open Manager Dashboard</text><rect style="stroke:#181818;stroke-width:.5" width="140.434" height="34.133" x="219.273" y="587.373" fill="#F1F1F1" rx="12.5" ry="12.5"/><text x="229.273" y="608.975" fill="#000" font-family="sans-serif" font-size="12" lengthAdjust="spacing" textLength="120.434">View Team Members</text><rect style="stroke:#181818;stroke-width:.5" width="153.582" height="34.133" x="212.699" y="654.461" fill="#F1F1F1" rx="12.5" ry="12.5"/><text x="222.699" y="676.063" fill="#000" font-family="sans-serif" font-size="12" lengthAdjust="spacing" textLength="133.582">Review Team Worklogs</text><rect style="stroke:#181818;stroke-width:.5" width="161.445" height="34.133" x="208.768" y="721.549" fill="#F1F1F1" rx="12.5" ry="12.5"/><text x="218.768" y="743.15" fill="#000" font-family="sans-serif" font-size="12" lengthAdjust="spacing" textLength="141.445">Approve Leave Requests</text><rect style="stroke:#181818;stroke-width:.5" width="96.172" height="34.133" x="241.404" y="788.637" fill="#F1F1F1" rx="12.5" ry="12.5"/><text x="251.404" y="810.238" fill="#000" font-family="sans-serif" font-size="12" lengthAdjust="spacing" textLength="76.172">Assign Tasks</text><rect style="stroke:#181818;stroke-width:.5" width="128.404" height="34.133" x="225.288" y="855.725" fill="#F1F1F1" rx="12.5" ry="12.5"/><text x="235.288" y="877.326" fill="#000" font-family="sans-serif" font-size="12" lengthAdjust="spacing" textLength="108.404">Schedule Meetings</text><rect style="stroke:#181818;stroke-width:.5" width="158.205" height="34.133" x="210.388" y="922.813" fill="#F1F1F1" rx="12.5" ry="12.5"/><text x="220.388" y="944.414" fill="#000" font-family="sans-serif" font-size="12" lengthAdjust="spacing" textLength="138.205">Review Burnout Reports</text><polygon fill="#F1F1F1" points="480.182 476.285 504.182 476.285 516.182 488.285 504.182 500.285 480.182 500.285 468.182 488.285 480.182 476.285" style="stroke:#181818;stroke-width:.5;stroke-linejoin:miter;stroke-miterlimit:10"/><text x="484.662" y="492.442" fill="#000" font-family="sans-serif" font-size="11" lengthAdjust="spacing" textLength="15.039">HR</text><rect style="stroke:#181818;stroke-width:.5" width="138.201" height="34.133" x="423.081" y="520.285" fill="#F1F1F1" rx="12.5" ry="12.5"/><text x="433.081" y="541.887" fill="#000" font-family="sans-serif" font-size="12" lengthAdjust="spacing" textLength="118.201">Open HR Dashboard</text><rect style="stroke:#181818;stroke-width:.5" width="130.859" height="34.133" x="426.752" y="587.373" fill="#F1F1F1" rx="12.5" ry="12.5"/><text x="436.752" y="608.975" fill="#000" font-family="sans-serif" font-size="12" lengthAdjust="spacing" textLength="110.859">Manage Employees</text><rect style="stroke:#181818;stroke-width:.5" width="144.195" height="34.133" x="420.084" y="654.461" fill="#F1F1F1" rx="12.5" ry="12.5"/><text x="430.084" y="676.063" fill="#000" font-family="sans-serif" font-size="12" lengthAdjust="spacing" textLength="124.195">Manage Departments</text><rect style="stroke:#181818;stroke-width:.5" width="134.85" height="34.133" x="424.757" y="721.549" fill="#F1F1F1" rx="12.5" ry="12.5"/><text x="434.757" y="743.15" fill="#000" font-family="sans-serif" font-size="12" lengthAdjust="spacing" textLength="114.85">Manage Attendance</text><rect style="stroke:#181818;stroke-width:.5" width="115.004" height="34.133" x="434.68" y="788.637" fill="#F1F1F1" rx="12.5" ry="12.5"/><text x="444.68" y="810.238" fill="#000" font-family="sans-serif" font-size="12" lengthAdjust="spacing" textLength="95.004">Manage Projects</text><rect style="stroke:#181818;stroke-width:.5" width="120.711" height="34.133" x="431.826" y="855.725" fill="#F1F1F1" rx="12.5" ry="12.5"/><text x="441.826" y="877.326" fill="#000" font-family="sans-serif" font-size="12" lengthAdjust="spacing" textLength="100.711">Generate Reports</text><rect style="stroke:#181818;stroke-width:.5" width="113.475" height="34.133" x="435.444" y="922.813" fill="#F1F1F1" rx="12.5" ry="12.5"/><text x="445.444" y="944.414" fill="#000" font-family="sans-serif" font-size="12" lengthAdjust="spacing" textLength="93.475">Select Employee</text><rect style="stroke:#181818;stroke-width:.5" width="149.996" height="34.133" x="417.184" y="989.9" fill="#F1F1F1" rx="12.5" ry="12.5"/><text x="427.184" y="1011.502" fill="#000" font-family="sans-serif" font-size="12" lengthAdjust="spacing" textLength="129.996">Collect Employee Data</text><rect style="stroke:#181818;stroke-width:.5" width="137.727" height="34.133" x="423.318" y="1044.033" fill="#F1F1F1" rx="12.5" ry="12.5"/><text x="433.318" y="1065.635" fill="#000" font-family="sans-serif" font-size="12" lengthAdjust="spacing" textLength="117.727">Prepare ML Features</text><rect style="stroke:#181818;stroke-width:.5" width="102.582" height="34.133" x="440.891" y="1098.166" fill="#F1F1F1" rx="12.5" ry="12.5"/><text x="450.891" y="1119.768" fill="#000" font-family="sans-serif" font-size="12" lengthAdjust="spacing" textLength="82.582">Scale Features</text><rect style="stroke:#181818;stroke-width:.5" width="193.473" height="34.133" x="395.445" y="1152.299" fill="#F1F1F1" rx="12.5" ry="12.5"/><text x="405.445" y="1173.9" fill="#000" font-family="sans-serif" font-size="12" lengthAdjust="spacing" textLength="173.473">Run Burnout Prediction Model</text><rect style="stroke:#181818;stroke-width:.5" width="179.826" height="34.133" x="402.269" y="1206.432" fill="#F1F1F1" rx="12.5" ry="12.5"/><text x="412.269" y="1228.033" fill="#000" font-family="sans-serif" font-size="12" lengthAdjust="spacing" textLength="159.826">Generate Productivity Score</text><rect style="stroke:#181818;stroke-width:.5" width="111.887" height="34.133" x="436.238" y="1260.564" fill="#F1F1F1" rx="12.5" ry="12.5"/><text x="446.238" y="1282.166" fill="#000" font-family="sans-serif" font-size="12" lengthAdjust="spacing" textLength="91.887">Store Prediction</text><rect style="stroke:#181818;stroke-width:.5" width="185.592" height="34.133" x="399.386" y="1314.697" fill="#F1F1F1" rx="12.5" ry="12.5"/><text x="409.386" y="1336.299" fill="#000" font-family="sans-serif" font-size="12" lengthAdjust="spacing" textLength="165.592">Display Analytics Dashboard</text><polygon fill="#F1F1F1" points="664.158 476.285 698.946 476.285 710.946 488.285 698.946 500.285 664.158 500.285 652.158 488.285 664.158 476.285" style="stroke:#181818;stroke-width:.5;stroke-linejoin:miter;stroke-miterlimit:10"/><text x="664.158" y="492.442" fill="#000" font-family="sans-serif" font-size="11" lengthAdjust="spacing" textLength="34.789">Admin</text><rect style="stroke:#181818;stroke-width:.5" width="101.147" height="34.133" x="630.979" y="520.285" fill="#F1F1F1" rx="12.5" ry="12.5"/><text x="640.979" y="541.887" fill="#000" font-family="sans-serif" font-size="12" lengthAdjust="spacing" textLength="81.147">Manage Users</text><rect style="stroke:#181818;stroke-width:.5" width="100.232" height="34.133" x="631.436" y="587.373" fill="#F1F1F1" rx="12.5" ry="12.5"/><text x="641.436" y="608.975" fill="#000" font-family="sans-serif" font-size="12" lengthAdjust="spacing" textLength="80.232">Manage Roles</text><rect style="stroke:#181818;stroke-width:.5" width="113.445" height="34.133" x="624.829" y="654.461" fill="#F1F1F1" rx="12.5" ry="12.5"/><text x="634.829" y="676.063" fill="#000" font-family="sans-serif" font-size="12" lengthAdjust="spacing" textLength="93.445">View Audit Logs</text><rect style="stroke:#181818;stroke-width:.5" width="145.268" height="34.133" x="608.918" y="721.549" fill="#F1F1F1" rx="12.5" ry="12.5"/><text x="618.918" y="743.15" fill="#000" font-family="sans-serif" font-size="12" lengthAdjust="spacing" textLength="125.268">System Configuration</text><rect style="stroke:#181818;stroke-width:.5" width="60.559" height="34.133" x="374.813" y="1388.83" fill="#F1F1F1" rx="12.5" ry="12.5"/><text x="384.813" y="1410.432" fill="#000" font-family="sans-serif" font-size="12" lengthAdjust="spacing" textLength="40.559">Logout</text><ellipse cx="405.093" cy="1453.963" fill="none" rx="11" ry="11" style="stroke:#222;stroke-width:1"/><ellipse cx="405.093" cy="1453.963" fill="#222" rx="6" ry="6" style="stroke:#222;stroke-width:1"/><rect style="stroke:#181818;stroke-width:.5" width="136.49" height="34.133" x="782.186" y="343.019" fill="#F1F1F1" rx="12.5" ry="12.5"/><text x="792.186" y="364.621" fill="#000" font-family="sans-serif" font-size="12" lengthAdjust="spacing" textLength="116.49">Display Login Failed</text><rect style="stroke:#181818;stroke-width:.5" width="85.906" height="34.133" x="807.477" y="397.152" fill="#F1F1F1" rx="12.5" ry="12.5"/><text x="817.477" y="418.754" fill="#000" font-family="sans-serif" font-size="12" lengthAdjust="spacing" textLength="65.906">Retry Login</text><ellipse cx="850.431" cy="462.285" fill="none" rx="11" ry="11" style="stroke:#222;stroke-width:1"/><ellipse cx="850.431" cy="462.285" fill="#222" rx="6" ry="6" style="stroke:#222;stroke-width:1"/><line style="stroke:#181818;stroke-width:1" x1="648.762" x2="648.762" y1="72.488" y2="92.488"/><polygon fill="#181818" points="644.762 82.488 648.762 92.488 652.762 82.488 648.762 86.488" style="stroke:#181818;stroke-width:1;stroke-linejoin:miter;stroke-miterlimit:10"/><line style="stroke:#181818;stroke-width:1" x1="648.762" x2="648.762" y1="126.621" y2="146.621"/><polygon fill="#181818" points="644.762 136.621 648.762 146.621 652.762 136.621 648.762 140.621" style="stroke:#181818;stroke-width:1;stroke-linejoin:miter;stroke-miterlimit:10"/><line style="stroke:#181818;stroke-width:1" x1="648.762" x2="648.762" y1="180.754" y2="200.754"/><polygon fill="#181818" points="644.762 190.754 648.762 200.754 652.762 190.754 648.762 194.754" style="stroke:#181818;stroke-width:1;stroke-linejoin:miter;stroke-miterlimit:10"/><line style="stroke:#181818;stroke-width:1" x1="648.762" x2="648.762" y1="234.887" y2="254.887"/><polygon fill="#181818" points="644.762 244.887 648.762 254.887 652.762 244.887 648.762 248.887" style="stroke:#181818;stroke-width:1;stroke-linejoin:miter;stroke-miterlimit:10"/><line style="stroke:#181818;stroke-width:1" x1="405.093" x2="405.093" y1="377.152" y2="397.152"/><polygon fill="#181818" points="401.093 387.152 405.093 397.152 409.093 387.152 405.093 391.152" style="stroke:#181818;stroke-width:1;stroke-linejoin:miter;stroke-miterlimit:10"/><line style="stroke:#181818;stroke-width:1" x1="104.768" x2="104.768" y1="567.373" y2="600.328"/><polygon fill="#181818" points="100.768 590.328 104.768 600.328 108.768 590.328 104.768 594.328" style="stroke:#181818;stroke-width:1;stroke-linejoin:miter;stroke-miterlimit:10"/><line style="stroke:#181818;stroke-width:1" x1="104.768" x2="104.768" y1="634.461" y2="667.416"/><polygon fill="#181818" points="100.768 657.416 104.768 667.416 108.768 657.416 104.768 661.416" style="stroke:#181818;stroke-width:1;stroke-linejoin:miter;stroke-miterlimit:10"/><line style="stroke:#181818;stroke-width:1" x1="104.768" x2="104.768" y1="701.549" y2="734.504"/><polygon fill="#181818" points="100.768 724.504 104.768 734.504 108.768 724.504 104.768 728.504" style="stroke:#181818;stroke-width:1;stroke-linejoin:miter;stroke-miterlimit:10"/><line style="stroke:#181818;stroke-width:1" x1="104.768" x2="104.768" y1="768.637" y2="801.592"/><polygon fill="#181818" points="100.768 791.592 104.768 801.592 108.768 791.592 104.768 795.592" style="stroke:#181818;stroke-width:1;stroke-linejoin:miter;stroke-miterlimit:10"/><line style="stroke:#181818;stroke-width:1" x1="104.768" x2="104.768" y1="835.725" y2="868.68"/><polygon fill="#181818" points="100.768 858.68 104.768 868.68 108.768 858.68 104.768 862.68" style="stroke:#181818;stroke-width:1;stroke-linejoin:miter;stroke-miterlimit:10"/><line style="stroke:#181818;stroke-width:1" x1="104.768" x2="104.768" y1="902.813" y2="935.768"/><polygon fill="#181818" points="100.768 925.768 104.768 935.768 108.768 925.768 104.768 929.768" style="stroke:#181818;stroke-width:1;stroke-linejoin:miter;stroke-miterlimit:10"/><line style="stroke:#181818;stroke-width:1" x1="289.49" x2="289.49" y1="554.418" y2="587.373"/><polygon fill="#181818" points="285.49 577.373 289.49 587.373 293.49 577.373 289.49 581.373" style="stroke:#181818;stroke-width:1;stroke-linejoin:miter;stroke-miterlimit:10"/><line style="stroke:#181818;stroke-width:1" x1="289.49" x2="289.49" y1="621.506" y2="654.461"/><polygon fill="#181818" points="285.49 644.461 289.49 654.461 293.49 644.461 289.49 648.461" style="stroke:#181818;stroke-width:1;stroke-linejoin:miter;stroke-miterlimit:10"/><line style="stroke:#181818;stroke-width:1" x1="289.49" x2="289.49" y1="688.594" y2="721.549"/><polygon fill="#181818" points="285.49 711.549 289.49 721.549 293.49 711.549 289.49 715.549" style="stroke:#181818;stroke-width:1;stroke-linejoin:miter;stroke-miterlimit:10"/><line style="stroke:#181818;stroke-width:1" x1="289.49" x2="289.49" y1="755.682" y2="788.637"/><polygon fill="#181818" points="285.49 778.637 289.49 788.637 293.49 778.637 289.49 782.637" style="stroke:#181818;stroke-width:1;stroke-linejoin:miter;stroke-miterlimit:10"/><line style="stroke:#181818;stroke-width:1" x1="289.49" x2="289.49" y1="822.769" y2="855.725"/><polygon fill="#181818" points="285.49 845.725 289.49 855.725 293.49 845.725 289.49 849.725" style="stroke:#181818;stroke-width:1;stroke-linejoin:miter;stroke-miterlimit:10"/><line style="stroke:#181818;stroke-width:1" x1="289.49" x2="289.49" y1="889.857" y2="922.813"/><polygon fill="#181818" points="285.49 912.813 289.49 922.813 293.49 912.813 289.49 916.813" style="stroke:#181818;stroke-width:1;stroke-linejoin:miter;stroke-miterlimit:10"/><line style="stroke:#181818;stroke-width:1" x1="492.182" x2="492.182" y1="554.418" y2="587.373"/><polygon fill="#181818" points="488.182 577.373 492.182 587.373 496.182 577.373 492.182 581.373" style="stroke:#181818;stroke-width:1;stroke-linejoin:miter;stroke-miterlimit:10"/><line style="stroke:#181818;stroke-width:1" x1="492.182" x2="492.182" y1="621.506" y2="654.461"/><polygon fill="#181818" points="488.182 644.461 492.182 654.461 496.182 644.461 492.182 648.461" style="stroke:#181818;stroke-width:1;stroke-linejoin:miter;stroke-miterlimit:10"/><line style="stroke:#181818;stroke-width:1" x1="492.182" x2="492.182" y1="688.594" y2="721.549"/><polygon fill="#181818" points="488.182 711.549 492.182 721.549 496.182 711.549 492.182 715.549" style="stroke:#181818;stroke-width:1;stroke-linejoin:miter;stroke-miterlimit:10"/><line style="stroke:#181818;stroke-width:1" x1="492.182" x2="492.182" y1="755.682" y2="788.637"/><polygon fill="#181818" points="488.182 778.637 492.182 788.637 496.182 778.637 492.182 782.637" style="stroke:#181818;stroke-width:1;stroke-linejoin:miter;stroke-miterlimit:10"/><line style="stroke:#181818;stroke-width:1" x1="492.182" x2="492.182" y1="822.769" y2="855.725"/><polygon fill="#181818" points="488.182 845.725 492.182 855.725 496.182 845.725 492.182 849.725" style="stroke:#181818;stroke-width:1;stroke-linejoin:miter;stroke-miterlimit:10"/><line style="stroke:#181818;stroke-width:1" x1="492.182" x2="492.182" y1="889.857" y2="922.813"/><polygon fill="#181818" points="488.182 912.813 492.182 922.813 496.182 912.813 492.182 916.813" style="stroke:#181818;stroke-width:1;stroke-linejoin:miter;stroke-miterlimit:10"/><line style="stroke:#181818;stroke-width:1" x1="492.182" x2="492.182" y1="956.945" y2="989.9"/><polygon fill="#181818" points="488.182 979.9 492.182 989.9 496.182 979.9 492.182 983.9" style="stroke:#181818;stroke-width:1;stroke-linejoin:miter;stroke-miterlimit:10"/><line style="stroke:#181818;stroke-width:1" x1="492.182" x2="492.182" y1="1024.033" y2="1044.033"/><polygon fill="#181818" points="488.182 1034.033 492.182 1044.033 496.182 1034.033 492.182 1038.033" style="stroke:#181818;stroke-width:1;stroke-linejoin:miter;stroke-miterlimit:10"/><line style="stroke:#181818;stroke-width:1" x1="492.182" x2="492.182" y1="1078.166" y2="1098.166"/><polygon fill="#181818" points="488.182 1088.166 492.182 1098.166 496.182 1088.166 492.182 1092.166" style="stroke:#181818;stroke-width:1;stroke-linejoin:miter;stroke-miterlimit:10"/><line style="stroke:#181818;stroke-width:1" x1="492.182" x2="492.182" y1="1132.299" y2="1152.299"/><polygon fill="#181818" points="488.182 1142.299 492.182 1152.299 496.182 1142.299 492.182 1146.299" style="stroke:#181818;stroke-width:1;stroke-linejoin:miter;stroke-miterlimit:10"/><line style="stroke:#181818;stroke-width:1" x1="492.182" x2="492.182" y1="1186.432" y2="1206.432"/><polygon fill="#181818" points="488.182 1196.432 492.182 1206.432 496.182 1196.432 492.182 1200.432" style="stroke:#181818;stroke-width:1;stroke-linejoin:miter;stroke-miterlimit:10"/><line style="stroke:#181818;stroke-width:1" x1="492.182" x2="492.182" y1="1240.564" y2="1260.564"/><polygon fill="#181818" points="488.182 1250.564 492.182 1260.564 496.182 1250.564 492.182 1254.564" style="stroke:#181818;stroke-width:1;stroke-linejoin:miter;stroke-miterlimit:10"/><line style="stroke:#181818;stroke-width:1" x1="492.182" x2="492.182" y1="1294.697" y2="1314.697"/><polygon fill="#181818" points="488.182 1304.697 492.182 1314.697 496.182 1304.697 492.182 1308.697" style="stroke:#181818;stroke-width:1;stroke-linejoin:miter;stroke-miterlimit:10"/><line style="stroke:#181818;stroke-width:1" x1="681.552" x2="681.552" y1="554.418" y2="587.373"/><polygon fill="#181818" points="677.552 577.373 681.552 587.373 685.552 577.373 681.552 581.373" style="stroke:#181818;stroke-width:1;stroke-linejoin:miter;stroke-miterlimit:10"/><line style="stroke:#181818;stroke-width:1" x1="681.552" x2="681.552" y1="621.506" y2="654.461"/><polygon fill="#181818" points="677.552 644.461 681.552 654.461 685.552 644.461 681.552 648.461" style="stroke:#181818;stroke-width:1;stroke-linejoin:miter;stroke-miterlimit:10"/><line style="stroke:#181818;stroke-width:1" x1="681.552" x2="681.552" y1="688.594" y2="721.549"/><polygon fill="#181818" points="677.552 711.549 681.552 721.549 685.552 711.549 681.552 715.549" style="stroke:#181818;stroke-width:1;stroke-linejoin:miter;stroke-miterlimit:10"/><line style="stroke:#181818;stroke-width:1" x1="104.768" x2="104.768" y1="500.285" y2="533.24"/><polygon fill="#181818" points="100.768 523.24 104.768 533.24 108.768 523.24 104.768 527.24" style="stroke:#181818;stroke-width:1;stroke-linejoin:miter;stroke-miterlimit:10"/><line style="stroke:#181818;stroke-width:1" x1="104.768" x2="104.768" y1="969.9" y2="1368.83"/><polygon fill="#181818" points="100.768 1358.83 104.768 1368.83 108.768 1358.83 104.768 1362.83" style="stroke:#181818;stroke-width:1;stroke-linejoin:miter;stroke-miterlimit:10"/><line style="stroke:#181818;stroke-width:1" x1="289.49" x2="289.49" y1="500.285" y2="520.285"/><polygon fill="#181818" points="285.49 510.285 289.49 520.285 293.49 510.285 289.49 514.285" style="stroke:#181818;stroke-width:1;stroke-linejoin:miter;stroke-miterlimit:10"/><line style="stroke:#181818;stroke-width:1" x1="289.49" x2="289.49" y1="956.945" y2="1368.83"/><polygon fill="#181818" points="285.49 1358.83 289.49 1368.83 293.49 1358.83 289.49 1362.83" style="stroke:#181818;stroke-width:1;stroke-linejoin:miter;stroke-miterlimit:10"/><line style="stroke:#181818;stroke-width:1" x1="492.182" x2="492.182" y1="500.285" y2="520.285"/><polygon fill="#181818" points="488.182 510.285 492.182 520.285 496.182 510.285 492.182 514.285" style="stroke:#181818;stroke-width:1;stroke-linejoin:miter;stroke-miterlimit:10"/><line style="stroke:#181818;stroke-width:1" x1="492.182" x2="492.182" y1="1348.83" y2="1368.83"/><polygon fill="#181818" points="488.182 1358.83 492.182 1368.83 496.182 1358.83 492.182 1362.83" style="stroke:#181818;stroke-width:1;stroke-linejoin:miter;stroke-miterlimit:10"/><line style="stroke:#181818;stroke-width:1" x1="681.552" x2="681.552" y1="500.285" y2="520.285"/><polygon fill="#181818" points="677.552 510.285 681.552 520.285 685.552 510.285 681.552 514.285" style="stroke:#181818;stroke-width:1;stroke-linejoin:miter;stroke-miterlimit:10"/><line style="stroke:#181818;stroke-width:1" x1="681.552" x2="681.552" y1="755.682" y2="1368.83"/><polygon fill="#181818" points="677.552 1358.83 681.552 1368.83 685.552 1358.83 681.552 1362.83" style="stroke:#181818;stroke-width:1;stroke-linejoin:miter;stroke-miterlimit:10"/><line style="stroke:#181818;stroke-width:1" x1="144.268" x2="254.521" y1="488.285" y2="488.285"/><polygon fill="#181818" points="244.521 484.285 254.521 488.285 244.521 492.285 248.521 488.285" style="stroke:#181818;stroke-width:1;stroke-linejoin:miter;stroke-miterlimit:10"/><line style="stroke:#181818;stroke-width:1" x1="324.46" x2="468.182" y1="488.285" y2="488.285"/><polygon fill="#181818" points="458.182 484.285 468.182 488.285 458.182 492.285 462.182 488.285" style="stroke:#181818;stroke-width:1;stroke-linejoin:miter;stroke-miterlimit:10"/><line style="stroke:#181818;stroke-width:1" x1="516.182" x2="652.158" y1="488.285" y2="488.285"/><polygon fill="#181818" points="642.158 484.285 652.158 488.285 642.158 492.285 646.158 488.285" style="stroke:#181818;stroke-width:1;stroke-linejoin:miter;stroke-miterlimit:10"/><line style="stroke:#181818;stroke-width:1" x1="405.093" x2="405.093" y1="431.285" y2="451.285"/><line style="stroke:#181818;stroke-width:1" x1="405.093" x2="104.768" y1="451.285" y2="451.285"/><line style="stroke:#181818;stroke-width:1" x1="104.768" x2="104.768" y1="451.285" y2="476.285"/><polygon fill="#181818" points="100.768 466.285 104.768 476.285 108.768 466.285 104.768 470.285" style="stroke:#181818;stroke-width:1;stroke-linejoin:miter;stroke-miterlimit:10"/><line style="stroke:#181818;stroke-width:1" x1="710.946" x2="768.186" y1="488.285" y2="488.285"/><line style="stroke:#181818;stroke-width:1" x1="768.186" x2="768.186" y1="488.285" y2="1368.83"/><polygon fill="#181818" points="764.186 1358.83 768.186 1368.83 772.186 1358.83 768.186 1362.83" style="stroke:#181818;stroke-width:1;stroke-linejoin:miter;stroke-miterlimit:10"/><line style="stroke:#181818;stroke-width:1" x1="104.768" x2="768.186" y1="1368.83" y2="1368.83"/><line style="stroke:#181818;stroke-width:1" x1="405.093" x2="405.093" y1="1368.83" y2="1388.83"/><polygon fill="#181818" points="401.093 1378.83 405.093 1388.83 409.093 1378.83 405.093 1382.83" style="stroke:#181818;stroke-width:1;stroke-linejoin:miter;stroke-miterlimit:10"/><line style="stroke:#181818;stroke-width:1" x1="405.093" x2="405.093" y1="1422.963" y2="1442.963"/><polygon fill="#181818" points="401.093 1432.963 405.093 1442.963 409.093 1432.963 405.093 1436.963" style="stroke:#181818;stroke-width:1;stroke-linejoin:miter;stroke-miterlimit:10"/><line style="stroke:#181818;stroke-width:1" x1="850.431" x2="850.431" y1="377.152" y2="397.152"/><polygon fill="#181818" points="846.431 387.152 850.431 397.152 854.431 387.152 850.431 391.152" style="stroke:#181818;stroke-width:1;stroke-linejoin:miter;stroke-miterlimit:10"/><line style="stroke:#181818;stroke-width:1" x1="850.431" x2="850.431" y1="431.285" y2="451.285"/><polygon fill="#181818" points="846.431 441.285 850.431 451.285 854.431 441.285 850.431 445.285" style="stroke:#181818;stroke-width:1;stroke-linejoin:miter;stroke-miterlimit:10"/><line style="stroke:#181818;stroke-width:1" x1="589.289" x2="405.093" y1="321.019" y2="321.019"/><line style="stroke:#181818;stroke-width:1" x1="405.093" x2="405.093" y1="321.019" y2="343.019"/><polygon fill="#181818" points="401.093 333.019 405.093 343.019 409.093 333.019 405.093 337.019" style="stroke:#181818;stroke-width:1;stroke-linejoin:miter;stroke-miterlimit:10"/><line style="stroke:#181818;stroke-width:1" x1="708.234" x2="850.431" y1="321.019" y2="321.019"/><line style="stroke:#181818;stroke-width:1" x1="850.431" x2="850.431" y1="321.019" y2="343.019"/><polygon fill="#181818" points="846.431 333.019 850.431 343.019 854.431 333.019 850.431 337.019" style="stroke:#181818;stroke-width:1;stroke-linejoin:miter;stroke-miterlimit:10"/><line style="stroke:#181818;stroke-width:1" x1="648.762" x2="648.762" y1="289.019" y2="309.019"/><polygon fill="#181818" points="644.762 299.019 648.762 309.019 652.762 299.019 648.762 303.019" style="stroke:#181818;stroke-width:1;stroke-linejoin:miter;stroke-miterlimit:10"/><?plantuml-src RLFBZjim3BpdAtGguaD_OFTGkCa-K2HjuAIxw96n64UDBBaIdI1_NygoPHkxDtj8aSCXXnHf57b9wgheBjOAAWUr-2gUwaRREwBOEIlR8PuRq7TIfHTVnFVM6TiI9w1Kd62DsDyzORrO-8io3OH2_WpItfIfn0cqHmuHE5ei7durQ4JUD5gL4Du-ChPMlj5m5njRAIDsK650dmoX4xyzEWCrSkCTU7-pJeRWlZtMYleN1VvhqHFZwYIMA-Q5XXJt5M-WbVoM2Jfpr-KVz1c_VK633WZ5Z_U3EDWBTYGs5cJNBKn-KXhxSXrKM8sfp21HDeoJD5k3FnyjH8fl2c-JMWFbT-iksbOf8oT28y6KNL9GXeL0k6BAE82_1E6tYCIA-XJuk0aE8SiTU6_1i90kaUp_F-5uG5xO5kiZkgvsWTS4zsnzpytPAqPsW-WnuhsgJ2JQZLgUKRPyO5FAVTc1T86DTTtpWV5haSY-5dEUaNmIsa-mDVB5KSqRdw9pLNkGb_4NovYNZc3ayR17pU7K9K0hgsSOqo880TQS-_A46_6CGAt3VdBWiQT8qPhFBBEr4lMCoCnm-zAwU3N47_CD9x-ChfoADSYPorgPR9m-7F9Ked3JuotbhOn-YcDqXXOhQqwgQjtWL9PKdJglL3pEOt2rRM97iVnfimzUVWO-VXctJwv7ntTTkVy0?></g></svg>