<svg xmlns="http://www.w3.org/2000/svg" xmlns:xlink="http://www.w3.org/1999/xlink" contentStyleType="text/css" data-diagram-type="CLASS" height="843px" preserveAspectRatio="none" style="width:1873px;height:843px;background:#FFFFFF;" version="1.1" viewBox="0 0 1873 843" width="1873px" zoomAndPan="magnify"><?plantuml 1.2026.6?><defs/><g><g class="title" data-source-line="1"><text fill="#000000" font-family="sans-serif" font-size="14" font-weight="700" lengthAdjust="spacing" textLength="671.0156" x="597.5698" y="23.5352">Class Diagram - AI-Powered Employee Productivity Analytics and Burnout Prediction System</text></g><!--class User--><g class="entity" data-qualified-name="User" data-source-line="7" id="ent0001"><rect fill="#F1F1F1" height="146.9297" rx="2.5" ry="2.5" style="stroke:#181818;stroke-width:0.5;" width="196.584" x="526.05" y="44.4883"/><ellipse cx="604.9094" cy="60.4883" fill="#ADD1B2" rx="11" ry="11" style="stroke:#181818;stroke-width:1;"/><path d="M607.3825,66.6313 Q606.8015,66.9302 606.1623,67.0796 Q605.5231,67.229 604.8176,67.229 Q602.3107,67.229 600.9909,65.5771 Q599.6711,63.9253 599.6711,60.8042 Q599.6711,57.6748 600.9909,56.0229 Q602.3107,54.3711 604.8176,54.3711 Q605.5231,54.3711 606.1706,54.5205 Q606.8181,54.6699 607.3825,54.9688 L607.3825,57.6914 Q606.7517,57.1104 606.1582,56.8406 Q605.5646,56.5708 604.9338,56.5708 Q603.5891,56.5708 602.9042,57.6375 Q602.2194,58.7041 602.2194,60.8042 Q602.2194,62.896 602.9042,63.9626 Q603.5891,65.0293 604.9338,65.0293 Q605.5646,65.0293 606.1582,64.7595 Q606.7517,64.4897 607.3825,63.9087 Z " fill="#000000"/><text fill="#000000" font-family="sans-serif" font-size="14" lengthAdjust="spacing" textLength="30.3652" x="625.4094" y="65.7793">User</text><line style="stroke:#181818;stroke-width:0.5;" x1="527.05" x2="721.634" y1="76.4883" y2="76.4883"/><text fill="#000000" font-family="sans-serif" font-size="14" lengthAdjust="spacing" textLength="55.248" x="532.05" y="94.0234">+id : int</text><text fill="#000000" font-family="sans-serif" font-size="14" lengthAdjust="spacing" textLength="130.6279" x="532.05" y="110.5117">+username : string</text><text fill="#000000" font-family="sans-serif" font-size="14" lengthAdjust="spacing" textLength="100.6797" x="532.05" y="127">+email : string</text><text fill="#000000" font-family="sans-serif" font-size="14" lengthAdjust="spacing" textLength="184.584" x="532.05" y="143.4883">+hashed_password : string</text><text fill="#000000" font-family="sans-serif" font-size="14" lengthAdjust="spacing" textLength="111.8906" x="532.05" y="159.9766">+is_active : bool</text><text fill="#000000" font-family="sans-serif" font-size="14" lengthAdjust="spacing" textLength="154.3965" x="532.05" y="176.4648">+created_at : datetime</text><line style="stroke:#181818;stroke-width:0.5;" x1="527.05" x2="721.634" y1="183.418" y2="183.418"/></g><!--class Role--><g class="entity" data-qualified-name="Role" data-source-line="16" id="ent0002"><rect fill="#F1F1F1" height="97.4648" rx="2.5" ry="2.5" style="stroke:#181818;stroke-width:0.5;" width="152.0615" x="548.31" y="300.8883"/><ellipse cx="605.4413" cy="316.8883" fill="#ADD1B2" rx="11" ry="11" style="stroke:#181818;stroke-width:1;"/><path d="M607.9145,323.0313 Q607.3334,323.3302 606.6943,323.4796 Q606.0551,323.629 605.3496,323.629 Q602.8427,323.629 601.5229,321.9771 Q600.2031,320.3253 600.2031,317.2042 Q600.2031,314.0748 601.5229,312.4229 Q602.8427,310.7711 605.3496,310.7711 Q606.0551,310.7711 606.7026,310.9205 Q607.35,311.0699 607.9145,311.3688 L607.9145,314.0914 Q607.2836,313.5104 606.6901,313.2406 Q606.0966,312.9708 605.4658,312.9708 Q604.121,312.9708 603.4362,314.0375 Q602.7514,315.1041 602.7514,317.2042 Q602.7514,319.296 603.4362,320.3626 Q604.121,321.4293 605.4658,321.4293 Q606.0966,321.4293 606.6901,321.1595 Q607.2836,320.8897 607.9145,320.3087 Z " fill="#000000"/><text fill="#000000" font-family="sans-serif" font-size="14" lengthAdjust="spacing" textLength="29.2988" x="625.9413" y="322.1793">Role</text><line style="stroke:#181818;stroke-width:0.5;" x1="549.31" x2="699.3715" y1="332.8883" y2="332.8883"/><text fill="#000000" font-family="sans-serif" font-size="14" lengthAdjust="spacing" textLength="55.248" x="554.31" y="350.4234">+id : int</text><text fill="#000000" font-family="sans-serif" font-size="14" lengthAdjust="spacing" textLength="101.2744" x="554.31" y="366.9117">+name : string</text><text fill="#000000" font-family="sans-serif" font-size="14" lengthAdjust="spacing" textLength="140.0615" x="554.31" y="383.4">+description : string</text><line style="stroke:#181818;stroke-width:0.5;" x1="549.31" x2="699.3715" y1="390.3531" y2="390.3531"/></g><!--class Department--><g class="entity" data-qualified-name="Department" data-source-line="22" id="ent0003"><rect fill="#F1F1F1" height="97.4648" rx="2.5" ry="2.5" style="stroke:#181818;stroke-width:0.5;" width="152.0615" x="757.31" y="69.2283"/><ellipse cx="790.0727" cy="85.2283" fill="#ADD1B2" rx="11" ry="11" style="stroke:#181818;stroke-width:1;"/><path d="M792.5458,91.3713 Q791.9648,91.6702 791.3256,91.8196 Q790.6865,91.969 789.9809,91.969 Q787.4741,91.969 786.1542,90.3171 Q784.8344,88.6653 784.8344,85.5442 Q784.8344,82.4148 786.1542,80.7629 Q787.4741,79.1111 789.9809,79.1111 Q790.6865,79.1111 791.3339,79.2605 Q791.9814,79.4099 792.5458,79.7088 L792.5458,82.4314 Q791.915,81.8504 791.3215,81.5806 Q790.728,81.3108 790.0971,81.3108 Q788.7524,81.3108 788.0676,82.3775 Q787.3828,83.4441 787.3828,85.5442 Q787.3828,87.636 788.0676,88.7026 Q788.7524,89.7693 790.0971,89.7693 Q790.728,89.7693 791.3215,89.4995 Q791.915,89.2297 792.5458,88.6487 Z " fill="#000000"/><text fill="#000000" font-family="sans-serif" font-size="14" lengthAdjust="spacing" textLength="80.5889" x="808.02" y="90.5193">Department</text><line style="stroke:#181818;stroke-width:0.5;" x1="758.31" x2="908.3715" y1="101.2283" y2="101.2283"/><text fill="#000000" font-family="sans-serif" font-size="14" lengthAdjust="spacing" textLength="55.248" x="763.31" y="118.7634">+id : int</text><text fill="#000000" font-family="sans-serif" font-size="14" lengthAdjust="spacing" textLength="101.2744" x="763.31" y="135.2517">+name : string</text><text fill="#000000" font-family="sans-serif" font-size="14" lengthAdjust="spacing" textLength="140.0615" x="763.31" y="151.74">+description : string</text><line style="stroke:#181818;stroke-width:0.5;" x1="758.31" x2="908.3715" y1="158.6931" y2="158.6931"/></g><!--class Employee--><g class="entity" data-qualified-name="Employee" data-source-line="28" id="ent0004"><rect fill="#F1F1F1" height="196.3945" rx="2.5" ry="2.5" style="stroke:#181818;stroke-width:0.5;" width="180.6084" x="739.04" y="251.4183"/><ellipse cx="792.5791" cy="267.4183" fill="#ADD1B2" rx="11" ry="11" style="stroke:#181818;stroke-width:1;"/><path d="M795.0522,273.5613 Q794.4712,273.8602 793.832,274.0096 Q793.1928,274.159 792.4873,274.159 Q789.9804,274.159 788.6606,272.5071 Q787.3408,270.8553 787.3408,267.7342 Q787.3408,264.6048 788.6606,262.9529 Q789.9804,261.3011 792.4873,261.3011 Q793.1928,261.3011 793.8403,261.4505 Q794.4878,261.5999 795.0522,261.8988 L795.0522,264.6214 Q794.4213,264.0404 793.8278,263.7706 Q793.2343,263.5008 792.6035,263.5008 Q791.2588,263.5008 790.5739,264.5675 Q789.8891,265.6341 789.8891,267.7342 Q789.8891,269.826 790.5739,270.8926 Q791.2588,271.9593 792.6035,271.9593 Q793.2343,271.9593 793.8278,271.6895 Q794.4213,271.4197 795.0522,270.8387 Z " fill="#000000"/><text fill="#000000" font-family="sans-serif" font-size="14" lengthAdjust="spacing" textLength="65.0303" x="813.0791" y="272.7093">Employee</text><line style="stroke:#181818;stroke-width:0.5;" x1="740.04" x2="918.6484" y1="283.4183" y2="283.4183"/><text fill="#000000" font-family="sans-serif" font-size="14" lengthAdjust="spacing" textLength="55.248" x="745.04" y="300.9534">+id : int</text><text fill="#000000" font-family="sans-serif" font-size="14" lengthAdjust="spacing" textLength="168.6084" x="745.04" y="317.4417">+employee_code : string</text><text fill="#000000" font-family="sans-serif" font-size="14" lengthAdjust="spacing" textLength="135.5703" x="745.04" y="333.93">+first_name : string</text><text fill="#000000" font-family="sans-serif" font-size="14" lengthAdjust="spacing" textLength="132.4258" x="745.04" y="350.4183">+last_name : string</text><text fill="#000000" font-family="sans-serif" font-size="14" lengthAdjust="spacing" textLength="111.542" x="745.04" y="366.9066">+gender : string</text><text fill="#000000" font-family="sans-serif" font-size="14" lengthAdjust="spacing" textLength="143.5" x="745.04" y="383.3948">+designation : string</text><text fill="#000000" font-family="sans-serif" font-size="14" lengthAdjust="spacing" textLength="137.6348" x="745.04" y="399.8831">+joining_date : date</text><text fill="#000000" font-family="sans-serif" font-size="14" lengthAdjust="spacing" textLength="129.4111" x="745.04" y="416.3714">+experience : float</text><text fill="#000000" font-family="sans-serif" font-size="14" lengthAdjust="spacing" textLength="105.1504" x="745.04" y="432.8597">+status : string</text><line style="stroke:#181818;stroke-width:0.5;" x1="740.04" x2="918.6484" y1="439.8128" y2="439.8128"/></g><!--class Attendance--><g class="entity" data-qualified-name="Attendance" data-source-line="40" id="ent0005"><rect fill="#F1F1F1" height="130.4414" rx="2.5" ry="2.5" style="stroke:#181818;stroke-width:0.5;" width="164.6875" x="7" y="507.8183"/><ellipse cx="47.1394" cy="523.8183" fill="#ADD1B2" rx="11" ry="11" style="stroke:#181818;stroke-width:1;"/><path d="M49.6125,529.9613 Q49.0314,530.2602 48.3923,530.4096 Q47.7531,530.559 47.0476,530.559 Q44.5407,530.559 43.2209,528.9071 Q41.9011,527.2553 41.9011,524.1342 Q41.9011,521.0048 43.2209,519.3529 Q44.5407,517.7011 47.0476,517.7011 Q47.7531,517.7011 48.4006,517.8505 Q49.048,517.9999 49.6125,518.2988 L49.6125,521.0214 Q48.9816,520.4404 48.3881,520.1706 Q47.7946,519.9008 47.1638,519.9008 Q45.819,519.9008 45.1342,520.9675 Q44.4494,522.0341 44.4494,524.1342 Q44.4494,526.226 45.1342,527.2926 Q45.819,528.3593 47.1638,528.3593 Q47.7946,528.3593 48.3881,528.0895 Q48.9816,527.8197 49.6125,527.2387 Z " fill="#000000"/><text fill="#000000" font-family="sans-serif" font-size="14" lengthAdjust="spacing" textLength="76.8223" x="66.7259" y="529.1093">Attendance</text><line style="stroke:#181818;stroke-width:0.5;" x1="8" x2="170.6875" y1="539.8183" y2="539.8183"/><text fill="#000000" font-family="sans-serif" font-size="14" lengthAdjust="spacing" textLength="55.248" x="13" y="557.3534">+id : int</text><text fill="#000000" font-family="sans-serif" font-size="14" lengthAdjust="spacing" textLength="83.5762" x="13" y="573.8417">+date : date</text><text fill="#000000" font-family="sans-serif" font-size="14" lengthAdjust="spacing" textLength="142.8984" x="13" y="590.33">+check_in : datetime</text><text fill="#000000" font-family="sans-serif" font-size="14" lengthAdjust="spacing" textLength="152.6875" x="13" y="606.8183">+check_out : datetime</text><text fill="#000000" font-family="sans-serif" font-size="14" lengthAdjust="spacing" textLength="105.1504" x="13" y="623.3066">+status : string</text><line style="stroke:#181818;stroke-width:0.5;" x1="8" x2="170.6875" y1="630.2597" y2="630.2597"/></g><!--class LeaveType--><g class="entity" data-qualified-name="LeaveType" data-source-line="48" id="ent0006"><rect fill="#F1F1F1" height="97.4648" rx="2.5" ry="2.5" style="stroke:#181818;stroke-width:0.5;" width="152.0615" x="197.31" y="714.7483"/><ellipse cx="234.4685" cy="730.7483" fill="#ADD1B2" rx="11" ry="11" style="stroke:#181818;stroke-width:1;"/><path d="M236.9417,736.8913 Q236.3606,737.1902 235.7215,737.3396 Q235.0823,737.489 234.3767,737.489 Q231.8699,737.489 230.5501,735.8371 Q229.2303,734.1853 229.2303,731.0642 Q229.2303,727.9348 230.5501,726.2829 Q231.8699,724.6311 234.3767,724.6311 Q235.0823,724.6311 235.7298,724.7805 Q236.3772,724.9299 236.9417,725.2288 L236.9417,727.9514 Q236.3108,727.3704 235.7173,727.1006 Q235.1238,726.8308 234.493,726.8308 Q233.1482,726.8308 232.4634,727.8975 Q231.7786,728.9641 231.7786,731.0642 Q231.7786,733.156 232.4634,734.2226 Q233.1482,735.2893 234.493,735.2893 Q235.1238,735.2893 235.7173,735.0195 Q236.3108,734.7497 236.9417,734.1687 Z " fill="#000000"/><text fill="#000000" font-family="sans-serif" font-size="14" lengthAdjust="spacing" textLength="70.8203" x="253.3927" y="736.0393">LeaveType</text><line style="stroke:#181818;stroke-width:0.5;" x1="198.31" x2="348.3715" y1="746.7483" y2="746.7483"/><text fill="#000000" font-family="sans-serif" font-size="14" lengthAdjust="spacing" textLength="55.248" x="203.31" y="764.2834">+id : int</text><text fill="#000000" font-family="sans-serif" font-size="14" lengthAdjust="spacing" textLength="101.2744" x="203.31" y="780.7717">+name : string</text><text fill="#000000" font-family="sans-serif" font-size="14" lengthAdjust="spacing" textLength="140.0615" x="203.31" y="797.26">+description : string</text><line style="stroke:#181818;stroke-width:0.5;" x1="198.31" x2="348.3715" y1="804.2131" y2="804.2131"/></g><!--class LeaveRequest--><g class="entity" data-qualified-name="LeaveRequest" data-source-line="54" id="ent0007"><rect fill="#F1F1F1" height="113.9531" rx="2.5" ry="2.5" style="stroke:#181818;stroke-width:0.5;" width="133.6455" x="206.52" y="516.0583"/><ellipse cx="225.6952" cy="532.0583" fill="#ADD1B2" rx="11" ry="11" style="stroke:#181818;stroke-width:1;"/><path d="M228.1684,538.2013 Q227.5873,538.5002 226.9482,538.6496 Q226.309,538.799 225.6034,538.799 Q223.0966,538.799 221.7768,537.1471 Q220.457,535.4953 220.457,532.3742 Q220.457,529.2448 221.7768,527.5929 Q223.0966,525.9411 225.6034,525.9411 Q226.309,525.9411 226.9565,526.0905 Q227.6039,526.2399 228.1684,526.5388 L228.1684,529.2614 Q227.5375,528.6804 226.944,528.4106 Q226.3505,528.1408 225.7197,528.1408 Q224.3749,528.1408 223.6901,529.2075 Q223.0053,530.2741 223.0053,532.3742 Q223.0053,534.466 223.6901,535.5326 Q224.3749,536.5993 225.7197,536.5993 Q226.3505,536.5993 226.944,536.3295 Q227.5375,536.0597 228.1684,535.4787 Z " fill="#000000"/><text fill="#000000" font-family="sans-serif" font-size="14" lengthAdjust="spacing" textLength="92.3672" x="240.6231" y="537.3493">LeaveRequest</text><line style="stroke:#181818;stroke-width:0.5;" x1="207.52" x2="339.1655" y1="548.0583" y2="548.0583"/><text fill="#000000" font-family="sans-serif" font-size="14" lengthAdjust="spacing" textLength="55.248" x="212.52" y="565.5934">+id : int</text><text fill="#000000" font-family="sans-serif" font-size="14" lengthAdjust="spacing" textLength="121.6455" x="212.52" y="582.0817">+start_date : date</text><text fill="#000000" font-family="sans-serif" font-size="14" lengthAdjust="spacing" textLength="115.876" x="212.52" y="598.57">+end_date : date</text><text fill="#000000" font-family="sans-serif" font-size="14" lengthAdjust="spacing" textLength="105.1504" x="212.52" y="615.0583">+status : string</text><line style="stroke:#181818;stroke-width:0.5;" x1="207.52" x2="339.1655" y1="622.0114" y2="622.0114"/></g><!--class Project--><g class="entity" data-qualified-name="Project" data-source-line="61" id="ent0008"><rect fill="#F1F1F1" height="113.9531" rx="2.5" ry="2.5" style="stroke:#181818;stroke-width:0.5;" width="152.0615" x="375.31" y="516.0583"/><ellipse cx="423.8246" cy="532.0583" fill="#ADD1B2" rx="11" ry="11" style="stroke:#181818;stroke-width:1;"/><path d="M426.2978,538.2013 Q425.7167,538.5002 425.0776,538.6496 Q424.4384,538.799 423.7329,538.799 Q421.226,538.799 419.9062,537.1471 Q418.5864,535.4953 418.5864,532.3742 Q418.5864,529.2448 419.9062,527.5929 Q421.226,525.9411 423.7329,525.9411 Q424.4384,525.9411 425.0859,526.0905 Q425.7333,526.2399 426.2978,526.5388 L426.2978,529.2614 Q425.6669,528.6804 425.0734,528.4106 Q424.4799,528.1408 423.8491,528.1408 Q422.5043,528.1408 421.8195,529.2075 Q421.1347,530.2741 421.1347,532.3742 Q421.1347,534.466 421.8195,535.5326 Q422.5043,536.5993 423.8491,536.5993 Q424.4799,536.5993 425.0734,536.3295 Q425.6669,536.0597 426.2978,535.4787 Z " fill="#000000"/><text fill="#000000" font-family="sans-serif" font-size="14" lengthAdjust="spacing" textLength="46.5322" x="444.3246" y="537.3493">Project</text><line style="stroke:#181818;stroke-width:0.5;" x1="376.31" x2="526.3715" y1="548.0583" y2="548.0583"/><text fill="#000000" font-family="sans-serif" font-size="14" lengthAdjust="spacing" textLength="55.248" x="381.31" y="565.5934">+id : int</text><text fill="#000000" font-family="sans-serif" font-size="14" lengthAdjust="spacing" textLength="101.2744" x="381.31" y="582.0817">+name : string</text><text fill="#000000" font-family="sans-serif" font-size="14" lengthAdjust="spacing" textLength="140.0615" x="381.31" y="598.57">+description : string</text><text fill="#000000" font-family="sans-serif" font-size="14" lengthAdjust="spacing" textLength="105.1504" x="381.31" y="615.0583">+status : string</text><line style="stroke:#181818;stroke-width:0.5;" x1="376.31" x2="526.3715" y1="622.0114" y2="622.0114"/></g><!--class Task--><g class="entity" data-qualified-name="Task" data-source-line="68" id="ent0009"><rect fill="#F1F1F1" height="130.4414" rx="2.5" ry="2.5" style="stroke:#181818;stroke-width:0.5;" width="127.876" x="451.41" y="698.2583"/><ellipse cx="495.1977" cy="714.2583" fill="#ADD1B2" rx="11" ry="11" style="stroke:#181818;stroke-width:1;"/><path d="M497.6708,720.4013 Q497.0898,720.7002 496.4506,720.8496 Q495.8115,720.999 495.1059,720.999 Q492.5991,720.999 491.2792,719.3471 Q489.9594,717.6953 489.9594,714.5742 Q489.9594,711.4448 491.2792,709.7929 Q492.5991,708.1411 495.1059,708.1411 Q495.8115,708.1411 496.4589,708.2905 Q497.1064,708.4399 497.6708,708.7388 L497.6708,711.4614 Q497.04,710.8804 496.4465,710.6106 Q495.853,710.3408 495.2221,710.3408 Q493.8774,710.3408 493.1926,711.4075 Q492.5078,712.4741 492.5078,714.5742 Q492.5078,716.666 493.1926,717.7326 Q493.8774,718.7993 495.2221,718.7993 Q495.853,718.7993 496.4465,718.5295 Q497.04,718.2597 497.6708,717.6787 Z " fill="#000000"/><text fill="#000000" font-family="sans-serif" font-size="14" lengthAdjust="spacing" textLength="31.9033" x="515.595" y="719.5493">Task</text><line style="stroke:#181818;stroke-width:0.5;" x1="452.41" x2="578.286" y1="730.2583" y2="730.2583"/><text fill="#000000" font-family="sans-serif" font-size="14" lengthAdjust="spacing" textLength="55.248" x="457.41" y="747.7934">+id : int</text><text fill="#000000" font-family="sans-serif" font-size="14" lengthAdjust="spacing" textLength="90.3506" x="457.41" y="764.2817">+title : string</text><text fill="#000000" font-family="sans-serif" font-size="14" lengthAdjust="spacing" textLength="113.4971" x="457.41" y="780.77">+priority : string</text><text fill="#000000" font-family="sans-serif" font-size="14" lengthAdjust="spacing" textLength="105.1504" x="457.41" y="797.2583">+status : string</text><text fill="#000000" font-family="sans-serif" font-size="14" lengthAdjust="spacing" textLength="115.876" x="457.41" y="813.7466">+due_date : date</text><line style="stroke:#181818;stroke-width:0.5;" x1="452.41" x2="578.286" y1="820.6997" y2="820.6997"/></g><!--class Meeting--><g class="entity" data-qualified-name="Meeting" data-source-line="76" id="ent0010"><rect fill="#F1F1F1" height="113.9531" rx="2.5" ry="2.5" style="stroke:#181818;stroke-width:0.5;" width="188.6748" x="633.01" y="516.0583"/><ellipse cx="695.9177" cy="532.0583" fill="#ADD1B2" rx="11" ry="11" style="stroke:#181818;stroke-width:1;"/><path d="M698.3909,538.2013 Q697.8098,538.5002 697.1706,538.6496 Q696.5315,538.799 695.8259,538.799 Q693.3191,538.799 691.9993,537.1471 Q690.6794,535.4953 690.6794,532.3742 Q690.6794,529.2448 691.9993,527.5929 Q693.3191,525.9411 695.8259,525.9411 Q696.5315,525.9411 697.1789,526.0905 Q697.8264,526.2399 698.3909,526.5388 L698.3909,529.2614 Q697.76,528.6804 697.1665,528.4106 Q696.573,528.1408 695.9421,528.1408 Q694.5974,528.1408 693.9126,529.2075 Q693.2278,530.2741 693.2278,532.3742 Q693.2278,534.466 693.9126,535.5326 Q694.5974,536.5993 695.9421,536.5993 Q696.573,536.5993 697.1665,536.3295 Q697.76,536.0597 698.3909,535.4787 Z " fill="#000000"/><text fill="#000000" font-family="sans-serif" font-size="14" lengthAdjust="spacing" textLength="54.3594" x="716.4177" y="537.3493">Meeting</text><line style="stroke:#181818;stroke-width:0.5;" x1="634.01" x2="820.6848" y1="548.0583" y2="548.0583"/><text fill="#000000" font-family="sans-serif" font-size="14" lengthAdjust="spacing" textLength="55.248" x="639.01" y="565.5934">+id : int</text><text fill="#000000" font-family="sans-serif" font-size="14" lengthAdjust="spacing" textLength="90.3506" x="639.01" y="582.0817">+title : string</text><text fill="#000000" font-family="sans-serif" font-size="14" lengthAdjust="spacing" textLength="176.6748" x="639.01" y="598.57">+meeting_time : datetime</text><text fill="#000000" font-family="sans-serif" font-size="14" lengthAdjust="spacing" textLength="99.9209" x="639.01" y="615.0583">+duration : int</text><line style="stroke:#181818;stroke-width:0.5;" x1="634.01" x2="820.6848" y1="622.0114" y2="622.0114"/></g><!--class WorkLog--><g class="entity" data-qualified-name="WorkLog" data-source-line="83" id="ent0011"><rect fill="#F1F1F1" height="130.4414" rx="2.5" ry="2.5" style="stroke:#181818;stroke-width:0.5;" width="152.0615" x="856.31" y="507.8183"/><ellipse cx="898.6611" cy="523.8183" fill="#ADD1B2" rx="11" ry="11" style="stroke:#181818;stroke-width:1;"/><path d="M901.1343,529.9613 Q900.5532,530.2602 899.9141,530.4096 Q899.2749,530.559 898.5693,530.559 Q896.0625,530.559 894.7427,528.9071 Q893.4228,527.2553 893.4228,524.1342 Q893.4228,521.0048 894.7427,519.3529 Q896.0625,517.7011 898.5693,517.7011 Q899.2749,517.7011 899.9224,517.8505 Q900.5698,517.9999 901.1343,518.2988 L901.1343,521.0214 Q900.5034,520.4404 899.9099,520.1706 Q899.3164,519.9008 898.6855,519.9008 Q897.3408,519.9008 896.656,520.9675 Q895.9712,522.0341 895.9712,524.1342 Q895.9712,526.226 896.656,527.2926 Q897.3408,528.3593 898.6855,528.3593 Q899.3164,528.3593 899.9099,528.0895 Q900.5034,527.8197 901.1343,527.2387 Z " fill="#000000"/><text fill="#000000" font-family="sans-serif" font-size="14" lengthAdjust="spacing" textLength="59.2813" x="918.7392" y="529.1093">WorkLog</text><line style="stroke:#181818;stroke-width:0.5;" x1="857.31" x2="1007.3715" y1="539.8183" y2="539.8183"/><text fill="#000000" font-family="sans-serif" font-size="14" lengthAdjust="spacing" textLength="55.248" x="862.31" y="557.3534">+id : int</text><text fill="#000000" font-family="sans-serif" font-size="14" lengthAdjust="spacing" textLength="123.874" x="862.31" y="573.8417">+work_date : date</text><text fill="#000000" font-family="sans-serif" font-size="14" lengthAdjust="spacing" textLength="94.0215" x="862.31" y="590.33">+hours : float</text><text fill="#000000" font-family="sans-serif" font-size="14" lengthAdjust="spacing" textLength="92.2715" x="862.31" y="606.8183">+task : string</text><text fill="#000000" font-family="sans-serif" font-size="14" lengthAdjust="spacing" textLength="140.0615" x="862.31" y="623.3066">+description : string</text><line style="stroke:#181818;stroke-width:0.5;" x1="857.31" x2="1007.3715" y1="630.2597" y2="630.2597"/></g><!--class PerformanceReview--><g class="entity" data-qualified-name="PerformanceReview" data-source-line="91" id="ent0012"><rect fill="#F1F1F1" height="113.9531" rx="2.5" ry="2.5" style="stroke:#181818;stroke-width:0.5;" width="163.7354" x="1043.48" y="516.0583"/><ellipse cx="1058.48" cy="532.0583" fill="#ADD1B2" rx="11" ry="11" style="stroke:#181818;stroke-width:1;"/><path d="M1060.9531,538.2013 Q1060.3721,538.5002 1059.7329,538.6496 Q1059.0938,538.799 1058.3882,538.799 Q1055.8814,538.799 1054.5615,537.1471 Q1053.2417,535.4953 1053.2417,532.3742 Q1053.2417,529.2448 1054.5615,527.5929 Q1055.8814,525.9411 1058.3882,525.9411 Q1059.0938,525.9411 1059.7412,526.0905 Q1060.3887,526.2399 1060.9531,526.5388 L1060.9531,529.2614 Q1060.3223,528.6804 1059.7288,528.4106 Q1059.1353,528.1408 1058.5044,528.1408 Q1057.1597,528.1408 1056.4749,529.2075 Q1055.7901,530.2741 1055.7901,532.3742 Q1055.7901,534.466 1056.4749,535.5326 Q1057.1597,536.5993 1058.5044,536.5993 Q1059.1353,536.5993 1059.7288,536.3295 Q1060.3223,536.0597 1060.9531,535.4787 Z " fill="#000000"/><text fill="#000000" font-family="sans-serif" font-size="14" lengthAdjust="spacing" textLength="131.7354" x="1072.48" y="537.3493">PerformanceReview</text><line style="stroke:#181818;stroke-width:0.5;" x1="1044.48" x2="1206.2154" y1="548.0583" y2="548.0583"/><text fill="#000000" font-family="sans-serif" font-size="14" lengthAdjust="spacing" textLength="55.248" x="1049.48" y="565.5934">+id : int</text><text fill="#000000" font-family="sans-serif" font-size="14" lengthAdjust="spacing" textLength="95.3408" x="1049.48" y="582.0817">+rating : float</text><text fill="#000000" font-family="sans-serif" font-size="14" lengthAdjust="spacing" textLength="134.7568" x="1049.48" y="598.57">+comments : string</text><text fill="#000000" font-family="sans-serif" font-size="14" lengthAdjust="spacing" textLength="133.9844" x="1049.48" y="615.0583">+review_date : date</text><line style="stroke:#181818;stroke-width:0.5;" x1="1044.48" x2="1206.2154" y1="622.0114" y2="622.0114"/></g><!--class Prediction--><g class="entity" data-qualified-name="Prediction" data-source-line="98" id="ent0013"><rect fill="#F1F1F1" height="130.4414" rx="2.5" ry="2.5" style="stroke:#181818;stroke-width:0.5;" width="191.5527" x="1242.57" y="507.8183"/><ellipse cx="1300.1628" cy="523.8183" fill="#ADD1B2" rx="11" ry="11" style="stroke:#181818;stroke-width:1;"/><path d="M1302.6359,529.9613 Q1302.0549,530.2602 1301.4157,530.4096 Q1300.7765,530.559 1300.071,530.559 Q1297.5641,530.559 1296.2443,528.9071 Q1294.9245,527.2553 1294.9245,524.1342 Q1294.9245,521.0048 1296.2443,519.3529 Q1297.5641,517.7011 1300.071,517.7011 Q1300.7765,517.7011 1301.424,517.8505 Q1302.0715,517.9999 1302.6359,518.2988 L1302.6359,521.0214 Q1302.0051,520.4404 1301.4116,520.1706 Q1300.818,519.9008 1300.1872,519.9008 Q1298.8425,519.9008 1298.1576,520.9675 Q1297.4728,522.0341 1297.4728,524.1342 Q1297.4728,526.226 1298.1576,527.2926 Q1298.8425,528.3593 1300.1872,528.3593 Q1300.818,528.3593 1301.4116,528.0895 Q1302.0051,527.8197 1302.6359,527.2387 Z " fill="#000000"/><text fill="#000000" font-family="sans-serif" font-size="14" lengthAdjust="spacing" textLength="67.8672" x="1320.6628" y="529.1093">Prediction</text><line style="stroke:#181818;stroke-width:0.5;" x1="1243.57" x2="1433.1227" y1="539.8183" y2="539.8183"/><text fill="#000000" font-family="sans-serif" font-size="14" lengthAdjust="spacing" textLength="55.248" x="1248.57" y="557.3534">+id : int</text><text fill="#000000" font-family="sans-serif" font-size="14" lengthAdjust="spacing" textLength="153.0566" x="1248.57" y="573.8417">+burnout_score : float</text><text fill="#000000" font-family="sans-serif" font-size="14" lengthAdjust="spacing" textLength="150.5205" x="1248.57" y="590.33">+burnout_risk : string</text><text fill="#000000" font-family="sans-serif" font-size="14" lengthAdjust="spacing" textLength="179.5527" x="1248.57" y="606.8183">+productivity_score : float</text><text fill="#000000" font-family="sans-serif" font-size="14" lengthAdjust="spacing" textLength="172.6553" x="1248.57" y="623.3066">+predicted_on : datetime</text><line style="stroke:#181818;stroke-width:0.5;" x1="1243.57" x2="1433.1227" y1="630.2597" y2="630.2597"/></g><!--class Notification--><g class="entity" data-qualified-name="Notification" data-source-line="106" id="ent0014"><rect fill="#F1F1F1" height="113.9531" rx="2.5" ry="2.5" style="stroke:#181818;stroke-width:0.5;" width="166.3965" x="1469.15" y="516.0583"/><ellipse cx="1509.1263" cy="532.0583" fill="#ADD1B2" rx="11" ry="11" style="stroke:#181818;stroke-width:1;"/><path d="M1511.5995,538.2013 Q1511.0184,538.5002 1510.3792,538.6496 Q1509.7401,538.799 1509.0345,538.799 Q1506.5277,538.799 1505.2079,537.1471 Q1503.888,535.4953 1503.888,532.3742 Q1503.888,529.2448 1505.2079,527.5929 Q1506.5277,525.9411 1509.0345,525.9411 Q1509.7401,525.9411 1510.3875,526.0905 Q1511.035,526.2399 1511.5995,526.5388 L1511.5995,529.2614 Q1510.9686,528.6804 1510.3751,528.4106 Q1509.7816,528.1408 1509.1507,528.1408 Q1507.806,528.1408 1507.1212,529.2075 Q1506.4364,530.2741 1506.4364,532.3742 Q1506.4364,534.466 1507.1212,535.5326 Q1507.806,536.5993 1509.1507,536.5993 Q1509.7816,536.5993 1510.3751,536.3295 Q1510.9686,536.0597 1511.5995,535.4787 Z " fill="#000000"/><text fill="#000000" font-family="sans-serif" font-size="14" lengthAdjust="spacing" textLength="78.8936" x="1528.6766" y="537.3493">Notification</text><line style="stroke:#181818;stroke-width:0.5;" x1="1470.15" x2="1634.5465" y1="548.0583" y2="548.0583"/><text fill="#000000" font-family="sans-serif" font-size="14" lengthAdjust="spacing" textLength="55.248" x="1475.15" y="565.5934">+id : int</text><text fill="#000000" font-family="sans-serif" font-size="14" lengthAdjust="spacing" textLength="123.3887" x="1475.15" y="582.0817">+message : string</text><text fill="#000000" font-family="sans-serif" font-size="14" lengthAdjust="spacing" textLength="102.7305" x="1475.15" y="598.57">+is_read : bool</text><text fill="#000000" font-family="sans-serif" font-size="14" lengthAdjust="spacing" textLength="154.3965" x="1475.15" y="615.0583">+created_at : datetime</text><line style="stroke:#181818;stroke-width:0.5;" x1="1470.15" x2="1634.5465" y1="622.0114" y2="622.0114"/></g><!--class AuditLog--><g class="entity" data-qualified-name="AuditLog" data-source-line="113" id="ent0015"><rect fill="#F1F1F1" height="113.9531" rx="2.5" ry="2.5" style="stroke:#181818;stroke-width:0.5;" width="187.6152" x="1670.54" y="516.0583"/><ellipse cx="1729.4795" cy="532.0583" fill="#ADD1B2" rx="11" ry="11" style="stroke:#181818;stroke-width:1;"/><path d="M1731.9526,538.2013 Q1731.3715,538.5002 1730.7324,538.6496 Q1730.0932,538.799 1729.3877,538.799 Q1726.8808,538.799 1725.561,537.1471 Q1724.2412,535.4953 1724.2412,532.3742 Q1724.2412,529.2448 1725.561,527.5929 Q1726.8808,525.9411 1729.3877,525.9411 Q1730.0932,525.9411 1730.7407,526.0905 Q1731.3881,526.2399 1731.9526,526.5388 L1731.9526,529.2614 Q1731.3217,528.6804 1730.7282,528.4106 Q1730.1347,528.1408 1729.5039,528.1408 Q1728.1591,528.1408 1727.4743,529.2075 Q1726.7895,530.2741 1726.7895,532.3742 Q1726.7895,534.466 1727.4743,535.5326 Q1728.1591,536.5993 1729.5039,536.5993 Q1730.1347,536.5993 1730.7282,536.3295 Q1731.3217,536.0597 1731.9526,535.4787 Z " fill="#000000"/><text fill="#000000" font-family="sans-serif" font-size="14" lengthAdjust="spacing" textLength="61.2363" x="1749.9795" y="537.3493">AuditLog</text><line style="stroke:#181818;stroke-width:0.5;" x1="1671.54" x2="1857.1552" y1="548.0583" y2="548.0583"/><text fill="#000000" font-family="sans-serif" font-size="14" lengthAdjust="spacing" textLength="55.248" x="1676.54" y="565.5934">+id : int</text><text fill="#000000" font-family="sans-serif" font-size="14" lengthAdjust="spacing" textLength="105.458" x="1676.54" y="582.0817">+action : string</text><text fill="#000000" font-family="sans-serif" font-size="14" lengthAdjust="spacing" textLength="102.3066" x="1676.54" y="598.57">+entity : string</text><text fill="#000000" font-family="sans-serif" font-size="14" lengthAdjust="spacing" textLength="175.6152" x="1676.54" y="615.0583">+performed_at : datetime</text><line style="stroke:#181818;stroke-width:0.5;" x1="1671.54" x2="1857.1552" y1="622.0114" y2="622.0114"/></g><!--link User to Employee--><g class="link" data-entity-1="ent0001" data-entity-2="ent0004" data-link-type="dependency" data-source-line="120" id="lnk16"><path codeLine="120" d="M723.06,178.6983 C739.44,178.6983 751.22,178.6983 751.22,178.6983 C751.22,178.6983 751.22,208.1883 751.22,246.1883" fill="none" id="User-to-Employee" style="stroke:#181818;stroke-width:1;"/><polygon fill="#181818" points="751.22,251.1883,755.22,242.1883,751.22,246.1883,747.22,242.1883,751.22,251.1883" style="stroke:#181818;stroke-width:1;stroke-linejoin:miter;stroke-miterlimit:10;"/><text fill="#000000" font-family="sans-serif" font-size="13" lengthAdjust="spacing" textLength="8.2202" x="730.6114" y="180.1882">1</text><text fill="#000000" font-family="sans-serif" font-size="13" lengthAdjust="spacing" textLength="8.2202" x="745.5533" y="240.6585">1</text></g><!--link User to Role--><g class="link" data-entity-1="ent0001" data-entity-2="ent0002" data-link-type="dependency" data-source-line="121" id="lnk17"><path codeLine="121" d="M624.34,191.8883 C624.34,227.3783 624.34,263.9283 624.34,295.4783" fill="none" id="User-to-Role" style="stroke:#181818;stroke-width:1;"/><polygon fill="#181818" points="624.34,300.4783,628.34,291.4783,624.34,295.4783,620.34,291.4783,624.34,300.4783" style="stroke:#181818;stroke-width:1;stroke-linejoin:miter;stroke-miterlimit:10;"/><text fill="#000000" font-family="sans-serif" font-size="13" lengthAdjust="spacing" textLength="6.2651" x="618.0755" y="211.9783">*</text><text fill="#000000" font-family="sans-serif" font-size="13" lengthAdjust="spacing" textLength="8.2202" x="615.7929" y="290.1031">1</text></g><!--link Department to Employee--><g class="link" data-entity-1="ent0003" data-entity-2="ent0004" data-link-type="dependency" data-source-line="123" id="lnk18"><path codeLine="123" d="M833.34,167.0883 C833.34,191.5283 833.34,216.9683 833.34,245.9483" fill="none" id="Department-to-Employee" style="stroke:#181818;stroke-width:1;"/><polygon fill="#181818" points="833.34,250.9483,837.34,241.9483,833.34,245.9483,829.34,241.9483,833.34,250.9483" style="stroke:#181818;stroke-width:1;stroke-linejoin:miter;stroke-miterlimit:10;"/><text fill="#000000" font-family="sans-serif" font-size="13" lengthAdjust="spacing" textLength="8.2202" x="824.8172" y="187.2868">1</text><text fill="#000000" font-family="sans-serif" font-size="13" lengthAdjust="spacing" textLength="6.2651" x="827.4229" y="240.7314">*</text></g><!--link Employee to Attendance--><g class="link" data-entity-1="ent0004" data-entity-2="ent0005" data-link-type="dependency" data-source-line="125" id="lnk19"><path codeLine="125" d="M759.7,448.1083 C759.7,482.0483 759.7,511.6983 759.7,511.6983 C759.7,511.6983 356.06,511.6983 176.88,511.6983" fill="none" id="Employee-to-Attendance" style="stroke:#181818;stroke-width:1;"/><polygon fill="#181818" points="171.88,511.6983,180.88,515.6983,176.88,511.6983,180.88,507.6983,171.88,511.6983" style="stroke:#181818;stroke-width:1;stroke-linejoin:miter;stroke-miterlimit:10;"/><text fill="#000000" font-family="sans-serif" font-size="13" lengthAdjust="spacing" textLength="8.2202" x="746.2998" y="468.4719">1</text><text fill="#000000" font-family="sans-serif" font-size="13" lengthAdjust="spacing" textLength="6.2651" x="179.7776" y="502.9347">*</text></g><!--link Employee to LeaveRequest--><g class="link" data-entity-1="ent0004" data-entity-2="ent0007" data-link-type="dependency" data-source-line="126" id="lnk20"><path codeLine="126" d="M738.78,410.6983 C581.23,410.6983 273.34,410.6983 273.34,410.6983 C273.34,410.6983 273.34,464.0683 273.34,510.7983" fill="none" id="Employee-to-LeaveRequest" style="stroke:#181818;stroke-width:1;"/><polygon fill="#181818" points="273.34,515.7983,277.34,506.7983,273.34,510.7983,269.34,506.7983,273.34,515.7983" style="stroke:#181818;stroke-width:1;stroke-linejoin:miter;stroke-miterlimit:10;"/><text fill="#000000" font-family="sans-serif" font-size="13" lengthAdjust="spacing" textLength="8.2202" x="722.958" y="412.7168">1</text><text fill="#000000" font-family="sans-serif" font-size="13" lengthAdjust="spacing" textLength="6.2651" x="266.9902" y="505.4958">*</text></g><!--link Employee to WorkLog--><g class="link" data-entity-1="ent0004" data-entity-2="ent0011" data-link-type="dependency" data-source-line="127" id="lnk21"><path codeLine="127" d="M887.98,448.2583 C887.98,468.2483 887.98,483.8083 887.98,502.3183" fill="none" id="Employee-to-WorkLog" style="stroke:#181818;stroke-width:1;"/><polygon fill="#181818" points="887.98,507.3183,891.98,498.3183,887.98,502.3183,883.98,498.3183,887.98,507.3183" style="stroke:#181818;stroke-width:1;stroke-linejoin:miter;stroke-miterlimit:10;"/><text fill="#000000" font-family="sans-serif" font-size="13" lengthAdjust="spacing" textLength="8.2202" x="883.8293" y="468.3007">1</text><text fill="#000000" font-family="sans-serif" font-size="13" lengthAdjust="spacing" textLength="6.2651" x="876.8144" y="496.8951">*</text></g><!--link Employee to PerformanceReview--><g class="link" data-entity-1="ent0004" data-entity-2="ent0012" data-link-type="dependency" data-source-line="128" id="lnk22"><path codeLine="128" d="M919.76,408.6983 C1006.81,408.6983 1125.34,408.6983 1125.34,408.6983 C1125.34,408.6983 1125.34,463.5583 1125.34,511.0183" fill="none" id="Employee-to-PerformanceReview" style="stroke:#181818;stroke-width:1;"/><polygon fill="#181818" points="1125.34,516.0183,1129.34,507.0183,1125.34,511.0183,1121.34,507.0183,1125.34,516.0183" style="stroke:#181818;stroke-width:1;stroke-linejoin:miter;stroke-miterlimit:10;"/><text fill="#000000" font-family="sans-serif" font-size="13" lengthAdjust="spacing" textLength="8.2202" x="927.5879" y="410.5512">1</text><text fill="#000000" font-family="sans-serif" font-size="13" lengthAdjust="spacing" textLength="6.2651" x="1118.9716" y="505.3404">*</text></g><!--link Employee to Prediction--><g class="link" data-entity-1="ent0004" data-entity-2="ent0013" data-link-type="dependency" data-source-line="129" id="lnk23"><path codeLine="129" d="M920.05,369.6983 C1066.39,369.6983 1338.34,369.6983 1338.34,369.6983 C1338.34,369.6983 1338.34,443.1383 1338.34,502.5783" fill="none" id="Employee-to-Prediction" style="stroke:#181818;stroke-width:1;"/><polygon fill="#181818" points="1338.34,507.5783,1342.34,498.5783,1338.34,502.5783,1334.34,498.5783,1338.34,507.5783" style="stroke:#181818;stroke-width:1;stroke-linejoin:miter;stroke-miterlimit:10;"/><text fill="#000000" font-family="sans-serif" font-size="13" lengthAdjust="spacing" textLength="8.2202" x="927.6056" y="368.2817">1</text><text fill="#000000" font-family="sans-serif" font-size="13" lengthAdjust="spacing" textLength="6.2651" x="1332.0257" y="497.1835">*</text></g><!--link Employee to Notification--><g class="link" data-entity-1="ent0004" data-entity-2="ent0014" data-link-type="dependency" data-source-line="130" id="lnk24"><path codeLine="130" d="M919.81,329.6983 C1113.81,329.6983 1552.34,329.6983 1552.34,329.6983 C1552.34,329.6983 1552.34,438.7383 1552.34,510.6783" fill="none" id="Employee-to-Notification" style="stroke:#181818;stroke-width:1;"/><polygon fill="#181818" points="1552.34,515.6783,1556.34,506.6783,1552.34,510.6783,1548.34,506.6783,1552.34,515.6783" style="stroke:#181818;stroke-width:1;stroke-linejoin:miter;stroke-miterlimit:10;"/><text fill="#000000" font-family="sans-serif" font-size="13" lengthAdjust="spacing" textLength="8.2202" x="927.6421" y="325.009">1</text><text fill="#000000" font-family="sans-serif" font-size="13" lengthAdjust="spacing" textLength="6.2651" x="1545.9895" y="505.3612">*</text></g><!--link LeaveRequest to LeaveType--><g class="link" data-entity-1="ent0007" data-entity-2="ent0006" data-link-type="dependency" data-source-line="132" id="lnk25"><path codeLine="132" d="M273.34,630.4283 C273.34,657.1583 273.34,683.6283 273.34,709.2483" fill="none" id="LeaveRequest-to-LeaveType" style="stroke:#181818;stroke-width:1;"/><polygon fill="#181818" points="273.34,714.2483,277.34,705.2483,273.34,709.2483,269.34,705.2483,273.34,714.2483" style="stroke:#181818;stroke-width:1;stroke-linejoin:miter;stroke-miterlimit:10;"/><text fill="#000000" font-family="sans-serif" font-size="13" lengthAdjust="spacing" textLength="6.2651" x="267.0081" y="650.5179">*</text><text fill="#000000" font-family="sans-serif" font-size="13" lengthAdjust="spacing" textLength="8.2202" x="264.7929" y="703.8605">1</text></g><!--link Project to Task--><g class="link" data-entity-1="ent0008" data-entity-2="ent0009" data-link-type="dependency" data-source-line="134" id="lnk26"><path codeLine="134" d="M489.39,630.4283 C489.39,651.6783 489.39,670.9283 489.39,692.8483" fill="none" id="Project-to-Task" style="stroke:#181818;stroke-width:1;"/><polygon fill="#181818" points="489.39,697.8483,493.39,688.8483,489.39,692.8483,485.39,688.8483,489.39,697.8483" style="stroke:#181818;stroke-width:1;stroke-linejoin:miter;stroke-miterlimit:10;"/><text fill="#000000" font-family="sans-serif" font-size="13" lengthAdjust="spacing" textLength="8.2202" x="485.3397" y="650.5179">1</text><text fill="#000000" font-family="sans-serif" font-size="13" lengthAdjust="spacing" textLength="6.2651" x="480.2372" y="687.435">*</text></g><!--link Employee to Project--><g class="link" data-entity-1="ent0004" data-entity-2="ent0008" data-link-type="dependency" data-source-line="135" id="lnk27"><path codeLine="135" d="M738.64,422.6983 C626.62,422.6983 450.68,422.6983 450.68,422.6983 C450.68,422.6983 450.68,468.2883 450.68,510.7683" fill="none" id="Employee-to-Project" style="stroke:#181818;stroke-width:1;"/><polygon fill="#181818" points="450.68,515.7683,454.68,506.7683,450.68,510.7683,446.68,506.7683,450.68,515.7683" style="stroke:#181818;stroke-width:1;stroke-linejoin:miter;stroke-miterlimit:10;"/><text fill="#000000" font-family="sans-serif" font-size="13" lengthAdjust="spacing" textLength="6.2651" x="724.8911" y="441.9528">*</text><text fill="#000000" font-family="sans-serif" font-size="13" lengthAdjust="spacing" textLength="6.2651" x="444.25" y="505.4621">*</text></g><!--link Employee to Task--><g class="link" data-entity-1="ent0004" data-entity-2="ent0009" data-link-type="dependency" data-source-line="137" id="lnk28"><path codeLine="137" d="M738.7,435.6983 C661.77,435.6983 563.8,435.6983 563.8,435.6983 C563.8,435.6983 563.8,597.2783 563.8,692.9383" fill="none" id="Employee-to-Task" style="stroke:#181818;stroke-width:1;"/><polygon fill="#181818" points="563.8,697.9383,567.8,688.9383,563.8,692.9383,559.8,688.9383,563.8,697.9383" style="stroke:#181818;stroke-width:1;stroke-linejoin:miter;stroke-miterlimit:10;"/><text fill="#000000" font-family="sans-serif" font-size="13" lengthAdjust="spacing" textLength="8.2202" x="722.8714" y="456.0293">1</text><text fill="#000000" font-family="sans-serif" font-size="13" lengthAdjust="spacing" textLength="6.2651" x="562.7858" y="687.5348">*</text></g><!--link Employee to Meeting--><g class="link" data-entity-1="ent0004" data-entity-2="ent0010" data-link-type="dependency" data-source-line="138" id="lnk29"><path codeLine="138" d="M780.36,448.2583 C780.36,471.2883 780.36,490.0683 780.36,510.6183" fill="none" id="Employee-to-Meeting" style="stroke:#181818;stroke-width:1;"/><polygon fill="#181818" points="780.36,515.6183,784.36,506.6183,780.36,510.6183,776.36,506.6183,780.36,515.6183" style="stroke:#181818;stroke-width:1;stroke-linejoin:miter;stroke-miterlimit:10;"/><text fill="#000000" font-family="sans-serif" font-size="13" lengthAdjust="spacing" textLength="8.2202" x="768.6423" y="468.3007">1</text><text fill="#000000" font-family="sans-serif" font-size="13" lengthAdjust="spacing" textLength="6.2651" x="780.4714" y="505.2939">*</text></g><!--link Employee to AuditLog--><g class="link" data-entity-1="ent0004" data-entity-2="ent0015" data-link-type="dependency" data-source-line="140" id="lnk30"><path codeLine="140" d="M919.85,290.6983 C1154.49,290.6983 1764.34,290.6983 1764.34,290.6983 C1764.34,290.6983 1764.34,428.0083 1764.34,510.5583" fill="none" id="Employee-to-AuditLog" style="stroke:#181818;stroke-width:1;"/><polygon fill="#181818" points="1764.34,515.5583,1768.34,506.5583,1764.34,510.5583,1760.34,506.5583,1764.34,515.5583" style="stroke:#181818;stroke-width:1;stroke-linejoin:miter;stroke-miterlimit:10;"/><text fill="#000000" font-family="sans-serif" font-size="13" lengthAdjust="spacing" textLength="8.2202" x="927.6854" y="282.7793">1</text><text fill="#000000" font-family="sans-serif" font-size="13" lengthAdjust="spacing" textLength="6.2651" x="1757.9896" y="505.2265">*</text></g><!--link Employee to Employee--><g class="link" data-entity-1="ent0004" data-entity-2="ent0004" data-link-type="dependency" data-source-line="142" id="lnk31"><path codeLine="142" d="M745.13,251.0483 C745.13,234.0383 745.13,221.6983 745.13,221.6983 C745.13,221.6983 730.84,221.6983 730.84,221.6983 C730.84,221.6983 730.84,477.6983 730.84,477.6983 C730.84,477.6983 801.02,477.6983 801.02,477.6983 C801.02,477.6983 801.02,470.3483 801.02,453.3183" fill="none" id="Employee-to-Employee" style="stroke:#181818;stroke-width:1;"/><polygon fill="#181818" points="801.02,448.3183,797.02,457.3183,801.02,453.3183,805.02,457.3183,801.02,448.3183" style="stroke:#181818;stroke-width:1;stroke-linejoin:miter;stroke-miterlimit:10;"/><polygon fill="#000000" points="649.84,391.3136,658.8851,394.2525,658.8851,388.3746,649.84,391.3136" style="stroke:#000000;stroke-width:1;stroke-linejoin:miter;stroke-miterlimit:10;"/><text fill="#000000" font-family="sans-serif" font-size="13" lengthAdjust="spacing" textLength="56.5386" x="668.84" y="396.2266">manages</text><text fill="#000000" font-family="sans-serif" font-size="13" lengthAdjust="spacing" textLength="8.2202" x="730.6599" y="240.8387">1</text><text fill="#000000" font-family="sans-serif" font-size="13" lengthAdjust="spacing" textLength="6.2651" x="792.8268" y="468.3649">*</text></g><?plantuml-src fLLDRzim3BthLmWzPWYmNdieaAqx5EY68Esmew5AJCB6bZo9JfOD---ZdCILRQK8rbCCVZoIZzGB8PKWFvSg17c7QkLL9QToTZ-TknruCF9BLPTk3o3dtfb64swHzd9cLRadr44gQ-IdnblN48U0GGvnLZxk0q4bHDYWhLL4rR76ZCZZSqDmhvrznDyWFoOXOQsCsw5ToQKg0oIU4YtGlWRfFAsT42sO_1x0opz2oWzev8r4I_6xOQjL5R0bS3MxYaQe59Ozorg5DPYYPg2TywRdmr2eE6h4U7QkZ3RjGH4dA6AZuK_22iJVKoyBnpoEUXdrOI1eZtNBKMVlGEw0nwKABBqRgjlR20YEda8xqqTSeWzKZ0enNiQw0ckO_a57kBAgtn7RNnnQ_YmYQqVosaP-rU0Hh8x6PUbKsruWHKt8JCItmoLL31_DD43MQz2R0cswgSuSBxLlFrlo0TGMdkBTlNSTBT82VZOGChlb1ZoDwB5cQ3hRA3_E5z3_VJLlGJ-fi1dZKgiRAK3jqVce3M-XnWOQw8tL5VeAl11--nVKgWwXHLpWO9UcyQS3ZEaT-W_dDmykWywFVpFaUUqQ7zAZf4Z2vTkUWrywNyLRNS0MOJSk6xlaOPCQsbNnvVVPycrwdh14RaVmpmT9Be9sllUyJWwFWudgHD_7QVMX5kkVirdz--O8bwXLlfqAGb0h68eiIwgvN69dZK7Axb3fqJqpayDZh0zRoHLe_qckhg_aT7hR_fxay-YPl7gYq0kHA7MNDadIHAU_gVjLmlB-L2No4SSppZj7PtSchBkRl3zTfH0zvKg9wCHHY9Fyf2XHDnByILg_ZJx3qI0lyHm5uXotn-iuu-wCDv89ubiCybRy0m00?></g></svg>