<svg xmlns="http://www.w3.org/2000/svg" xmlns:xlink="http://www.w3.org/1999/xlink" contentStyleType="text/css" data-diagram-type="DESCRIPTION" height="891px" preserveAspectRatio="none" style="width:3310px;height:891px;background:#FFFFFF;" version="1.1" viewBox="0 0 3310 891" width="3310px" zoomAndPan="magnify"><?plantuml 1.2026.6?><defs/><g><g class="title" data-source-line="1"><text fill="#000000" font-family="sans-serif" font-size="14" font-weight="700" lengthAdjust="spacing" textLength="719.3115" x="1291.8442" y="23.5352">Deployment Diagram - AI-Powered Employee Productivity Analytics and Burnout Prediction System</text></g><!--cluster Client Machine--><g class="cluster" data-qualified-name="Client Machine" data-source-line="6" id="ent0001"><polygon fill="none" points="16,53.4883,26,43.4883,468,43.4883,468,415.9383,458,425.9383,16,425.9383,16,53.4883" style="stroke:#181818;stroke-width:1;stroke-linejoin:miter;stroke-miterlimit:10;"/><line style="stroke:#181818;stroke-width:1;" x1="458" x2="468" y1="53.4883" y2="43.4883"/><line style="stroke:#181818;stroke-width:1;" x1="16" x2="458" y1="53.4883" y2="53.4883"/><line style="stroke:#181818;stroke-width:1;" x1="458" x2="458" y1="53.4883" y2="425.9383"/><text fill="#000000" font-family="sans-serif" font-size="14" font-weight="700" lengthAdjust="spacing" textLength="106.2988" x="184.8506" y="70.0234">Client Machine</text></g><!--cluster Angular Application--><g class="cluster" data-qualified-name="Client Machine.Angular Application" data-source-line="10" id="ent0003"><polygon fill="none" points="40,169.4583,50,159.4583,444,159.4583,444,391.9383,434,401.9383,40,401.9383,40,169.4583" style="stroke:#181818;stroke-width:1;stroke-linejoin:miter;stroke-miterlimit:10;"/><line style="stroke:#181818;stroke-width:1;" x1="434" x2="444" y1="169.4583" y2="159.4583"/><line style="stroke:#181818;stroke-width:1;" x1="40" x2="434" y1="169.4583" y2="169.4583"/><line style="stroke:#181818;stroke-width:1;" x1="434" x2="434" y1="169.4583" y2="401.9383"/><text fill="#000000" font-family="sans-serif" font-size="14" font-weight="700" lengthAdjust="spacing" textLength="143.7051" x="166.1475" y="185.9934">Angular Application</text></g><!--cluster Application Server--><g class="cluster" data-qualified-name="Application Server" data-source-line="21" id="ent0010"><polygon fill="none" points="492,264.9483,502,254.9483,3285,254.9483,3285,774.3983,3275,784.3983,492,784.3983,492,264.9483" style="stroke:#181818;stroke-width:1;stroke-linejoin:miter;stroke-miterlimit:10;"/><line style="stroke:#181818;stroke-width:1;" x1="3275" x2="3285" y1="264.9483" y2="254.9483"/><line style="stroke:#181818;stroke-width:1;" x1="492" x2="3275" y1="264.9483" y2="264.9483"/><line style="stroke:#181818;stroke-width:1;" x1="3275" x2="3275" y1="264.9483" y2="784.3983"/><text fill="#000000" font-family="sans-serif" font-size="14" font-weight="700" lengthAdjust="spacing" textLength="132.0635" x="1818.4683" y="281.4834">Application Server</text></g><!--cluster FastAPI Backend--><g class="cluster" data-qualified-name="Application Server.FastAPI Backend" data-source-line="23" id="ent0011"><polygon fill="none" points="516,312.9483,526,302.9483,2495,302.9483,2495,750.3983,2485,760.3983,516,760.3983,516,312.9483" style="stroke:#181818;stroke-width:1;stroke-linejoin:miter;stroke-miterlimit:10;"/><line style="stroke:#181818;stroke-width:1;" x1="2485" x2="2495" y1="312.9483" y2="302.9483"/><line style="stroke:#181818;stroke-width:1;" x1="516" x2="2485" y1="312.9483" y2="312.9483"/><line style="stroke:#181818;stroke-width:1;" x1="2485" x2="2485" y1="312.9483" y2="760.3983"/><text fill="#000000" font-family="sans-serif" font-size="14" font-weight="700" lengthAdjust="spacing" textLength="118.043" x="1442.4785" y="329.4834">FastAPI Backend</text></g><!--cluster Machine Learning--><g class="cluster" data-qualified-name="Application Server.Machine Learning" data-source-line="45" id="ent0028"><path d="M2521.5,449.9383 L2649.7646,449.9383 A3.75,3.75 0 0 1 2652.2646,452.4383 L2659.2646,472.4266 L3258.5,472.4266 A2.5,2.5 0 0 1 3261,474.9266 L3261,647.9183 A2.5,2.5 0 0 1 3258.5,650.4183 L2521.5,650.4183 A2.5,2.5 0 0 1 2519,647.9183 L2519,452.4383 A2.5,2.5 0 0 1 2521.5,449.9383" fill="none" style="stroke:#000000;stroke-width:1.5;"/><line style="stroke:#000000;stroke-width:1.5;" x1="2519" x2="2659.2646" y1="472.4266" y2="472.4266"/><text fill="#000000" font-family="sans-serif" font-size="14" font-weight="700" lengthAdjust="spacing" textLength="127.2646" x="2523" y="465.4734">Machine Learning</text></g><!--entity Browser--><g class="entity" data-qualified-name="Client Machine.Browser" data-source-line="8" id="ent0002"><rect fill="#F1F1F1" height="55.9766" rx="2.5" ry="2.5" style="stroke:#181818;stroke-width:0.5;" width="205.4238" x="246.29" y="83.4883"/><polygon fill="#F1F1F1" points="434.7138,88.4883,434.7138,102.4883,446.7138,102.4883,446.7138,94.4883,440.7138,88.4883,434.7138,88.4883" style="stroke:#181818;stroke-width:0.5;stroke-linejoin:miter;stroke-miterlimit:10;"/><line style="stroke:#181818;stroke-width:0.5;" x1="440.7138" x2="440.7138" y1="88.4883" y2="94.4883"/><line style="stroke:#181818;stroke-width:0.5;" x1="446.7138" x2="440.7138" y1="94.4883" y2="94.4883"/><text fill="#000000" font-family="sans-serif" font-size="14" lengthAdjust="spacing" textLength="86.8506" x="256.29" y="110.0234">Web Browser</text><text fill="#000000" font-family="sans-serif" font-size="14" lengthAdjust="spacing" textLength="175.4238" x="256.29" y="126.5117">(Chrome / Edge / Firefox)</text></g><!--entity Angular UI--><g class="entity" data-qualified-name="Client Machine.Angular Application.Angular UI" data-source-line="11" id="ent0004"><rect fill="#F1F1F1" height="39.4883" rx="2.5" ry="2.5" style="stroke:#181818;stroke-width:0.5;" width="101.4355" x="326.28" y="199.4583"/><polygon fill="#F1F1F1" points="410.7155,204.4583,410.7155,218.4583,422.7155,218.4583,422.7155,210.4583,416.7155,204.4583,410.7155,204.4583" style="stroke:#181818;stroke-width:0.5;stroke-linejoin:miter;stroke-miterlimit:10;"/><line style="stroke:#181818;stroke-width:0.5;" x1="416.7155" x2="416.7155" y1="204.4583" y2="210.4583"/><line style="stroke:#181818;stroke-width:0.5;" x1="422.7155" x2="416.7155" y1="210.4583" y2="210.4583"/><text fill="#000000" font-family="sans-serif" font-size="14" lengthAdjust="spacing" textLength="71.4355" x="336.28" y="225.9934">Angular UI</text></g><!--entity Components--><g class="entity" data-qualified-name="Client Machine.Angular Application.Components" data-source-line="12" id="ent0005"><rect fill="#F1F1F1" height="39.4883" rx="2.5" ry="2.5" style="stroke:#181818;stroke-width:0.5;" width="116.3174" x="55.84" y="199.4583"/><polygon fill="#F1F1F1" points="155.1574,204.4583,155.1574,218.4583,167.1574,218.4583,167.1574,210.4583,161.1574,204.4583,155.1574,204.4583" style="stroke:#181818;stroke-width:0.5;stroke-linejoin:miter;stroke-miterlimit:10;"/><line style="stroke:#181818;stroke-width:0.5;" x1="161.1574" x2="161.1574" y1="204.4583" y2="210.4583"/><line style="stroke:#181818;stroke-width:0.5;" x1="167.1574" x2="161.1574" y1="210.4583" y2="210.4583"/><text fill="#000000" font-family="sans-serif" font-size="14" lengthAdjust="spacing" textLength="86.3174" x="65.84" y="225.9934">Components</text></g><!--entity Services--><g class="entity" data-qualified-name="Client Machine.Angular Application.Services" data-source-line="13" id="ent0006"><rect fill="#F1F1F1" height="39.4883" rx="2.5" ry="2.5" style="stroke:#181818;stroke-width:0.5;" width="84.4688" x="206.77" y="199.4583"/><polygon fill="#F1F1F1" points="274.2388,204.4583,274.2388,218.4583,286.2388,218.4583,286.2388,210.4583,280.2388,204.4583,274.2388,204.4583" style="stroke:#181818;stroke-width:0.5;stroke-linejoin:miter;stroke-miterlimit:10;"/><line style="stroke:#181818;stroke-width:0.5;" x1="280.2388" x2="280.2388" y1="204.4583" y2="210.4583"/><line style="stroke:#181818;stroke-width:0.5;" x1="286.2388" x2="280.2388" y1="210.4583" y2="210.4583"/><text fill="#000000" font-family="sans-serif" font-size="14" lengthAdjust="spacing" textLength="54.4688" x="216.77" y="225.9934">Services</text></g><!--entity Guards--><g class="entity" data-qualified-name="Client Machine.Angular Application.Guards" data-source-line="14" id="ent0007"><rect fill="#F1F1F1" height="39.4883" rx="2.5" ry="2.5" style="stroke:#181818;stroke-width:0.5;" width="78.2139" x="74.89" y="346.4483"/><polygon fill="#F1F1F1" points="136.1039,351.4483,136.1039,365.4483,148.1039,365.4483,148.1039,357.4483,142.1039,351.4483,136.1039,351.4483" style="stroke:#181818;stroke-width:0.5;stroke-linejoin:miter;stroke-miterlimit:10;"/><line style="stroke:#181818;stroke-width:0.5;" x1="142.1039" x2="142.1039" y1="351.4483" y2="357.4483"/><line style="stroke:#181818;stroke-width:0.5;" x1="148.1039" x2="142.1039" y1="357.4483" y2="357.4483"/><text fill="#000000" font-family="sans-serif" font-size="14" lengthAdjust="spacing" textLength="48.2139" x="84.89" y="372.9834">Guards</text></g><!--entity JWT Token Storage--><g class="entity" data-qualified-name="Client Machine.Angular Application.JWT Token Storage" data-source-line="15" id="ent0008"><rect fill="#F1F1F1" height="39.4883" rx="2.5" ry="2.5" style="stroke:#181818;stroke-width:0.5;" width="157.5313" x="188.23" y="346.4483"/><polygon fill="#F1F1F1" points="328.7613,351.4483,328.7613,365.4483,340.7613,365.4483,340.7613,357.4483,334.7613,351.4483,328.7613,351.4483" style="stroke:#181818;stroke-width:0.5;stroke-linejoin:miter;stroke-miterlimit:10;"/><line style="stroke:#181818;stroke-width:0.5;" x1="334.7613" x2="334.7613" y1="351.4483" y2="357.4483"/><line style="stroke:#181818;stroke-width:0.5;" x1="340.7613" x2="334.7613" y1="357.4483" y2="357.4483"/><text fill="#000000" font-family="sans-serif" font-size="14" lengthAdjust="spacing" textLength="127.5313" x="198.23" y="372.9834">JWT Token Storage</text></g><!--entity Authentication API--><g class="entity" data-qualified-name="Application Server.FastAPI Backend.Authentication API" data-source-line="25" id="ent0012"><rect fill="#F1F1F1" height="39.4883" rx="2.5" ry="2.5" style="stroke:#181818;stroke-width:0.5;" width="155.3779" x="532.31" y="346.4483"/><polygon fill="#F1F1F1" points="670.6879,351.4483,670.6879,365.4483,682.6879,365.4483,682.6879,357.4483,676.6879,351.4483,670.6879,351.4483" style="stroke:#181818;stroke-width:0.5;stroke-linejoin:miter;stroke-miterlimit:10;"/><line style="stroke:#181818;stroke-width:0.5;" x1="676.6879" x2="676.6879" y1="351.4483" y2="357.4483"/><line style="stroke:#181818;stroke-width:0.5;" x1="682.6879" x2="676.6879" y1="357.4483" y2="357.4483"/><text fill="#000000" font-family="sans-serif" font-size="14" lengthAdjust="spacing" textLength="125.3779" x="542.31" y="372.9834">Authentication API</text></g><!--entity Employee API--><g class="entity" data-qualified-name="Application Server.FastAPI Backend.Employee API" data-source-line="26" id="ent0013"><rect fill="#F1F1F1" height="39.4883" rx="2.5" ry="2.5" style="stroke:#181818;stroke-width:0.5;" width="120.8906" x="722.55" y="346.4483"/><polygon fill="#F1F1F1" points="826.4406,351.4483,826.4406,365.4483,838.4406,365.4483,838.4406,357.4483,832.4406,351.4483,826.4406,351.4483" style="stroke:#181818;stroke-width:0.5;stroke-linejoin:miter;stroke-miterlimit:10;"/><line style="stroke:#181818;stroke-width:0.5;" x1="832.4406" x2="832.4406" y1="351.4483" y2="357.4483"/><line style="stroke:#181818;stroke-width:0.5;" x1="838.4406" x2="832.4406" y1="357.4483" y2="357.4483"/><text fill="#000000" font-family="sans-serif" font-size="14" lengthAdjust="spacing" textLength="90.8906" x="732.55" y="372.9834">Employee API</text></g><!--entity Manager API--><g class="entity" data-qualified-name="Application Server.FastAPI Backend.Manager API" data-source-line="27" id="ent0014"><rect fill="#F1F1F1" height="39.4883" rx="2.5" ry="2.5" style="stroke:#181818;stroke-width:0.5;" width="114.3281" x="878.84" y="346.4483"/><polygon fill="#F1F1F1" points="976.1681,351.4483,976.1681,365.4483,988.1681,365.4483,988.1681,357.4483,982.1681,351.4483,976.1681,351.4483" style="stroke:#181818;stroke-width:0.5;stroke-linejoin:miter;stroke-miterlimit:10;"/><line style="stroke:#181818;stroke-width:0.5;" x1="982.1681" x2="982.1681" y1="351.4483" y2="357.4483"/><line style="stroke:#181818;stroke-width:0.5;" x1="988.1681" x2="982.1681" y1="357.4483" y2="357.4483"/><text fill="#000000" font-family="sans-serif" font-size="14" lengthAdjust="spacing" textLength="84.3281" x="888.84" y="372.9834">Manager API</text></g><!--entity HR API--><g class="entity" data-qualified-name="Application Server.FastAPI Backend.HR API" data-source-line="28" id="ent0015"><rect fill="#F1F1F1" height="39.4883" rx="2.5" ry="2.5" style="stroke:#181818;stroke-width:0.5;" width="75.001" x="1028.5" y="346.4483"/><polygon fill="#F1F1F1" points="1086.501,351.4483,1086.501,365.4483,1098.501,365.4483,1098.501,357.4483,1092.501,351.4483,1086.501,351.4483" style="stroke:#181818;stroke-width:0.5;stroke-linejoin:miter;stroke-miterlimit:10;"/><line style="stroke:#181818;stroke-width:0.5;" x1="1092.501" x2="1092.501" y1="351.4483" y2="357.4483"/><line style="stroke:#181818;stroke-width:0.5;" x1="1098.501" x2="1092.501" y1="357.4483" y2="357.4483"/><text fill="#000000" font-family="sans-serif" font-size="14" lengthAdjust="spacing" textLength="45.001" x="1038.5" y="372.9834">HR API</text></g><!--entity Attendance API--><g class="entity" data-qualified-name="Application Server.FastAPI Backend.Attendance API" data-source-line="29" id="ent0016"><rect fill="#F1F1F1" height="39.4883" rx="2.5" ry="2.5" style="stroke:#181818;stroke-width:0.5;" width="132.6826" x="1138.66" y="346.4483"/><polygon fill="#F1F1F1" points="1254.3426,351.4483,1254.3426,365.4483,1266.3426,365.4483,1266.3426,357.4483,1260.3426,351.4483,1254.3426,351.4483" style="stroke:#181818;stroke-width:0.5;stroke-linejoin:miter;stroke-miterlimit:10;"/><line style="stroke:#181818;stroke-width:0.5;" x1="1260.3426" x2="1260.3426" y1="351.4483" y2="357.4483"/><line style="stroke:#181818;stroke-width:0.5;" x1="1266.3426" x2="1260.3426" y1="357.4483" y2="357.4483"/><text fill="#000000" font-family="sans-serif" font-size="14" lengthAdjust="spacing" textLength="102.6826" x="1148.66" y="372.9834">Attendance API</text></g><!--entity Leave API--><g class="entity" data-qualified-name="Application Server.FastAPI Backend.Leave API" data-source-line="30" id="ent0017"><rect fill="#F1F1F1" height="39.4883" rx="2.5" ry="2.5" style="stroke:#181818;stroke-width:0.5;" width="93.9023" x="1306.05" y="346.4483"/><polygon fill="#F1F1F1" points="1382.9523,351.4483,1382.9523,365.4483,1394.9523,365.4483,1394.9523,357.4483,1388.9523,351.4483,1382.9523,351.4483" style="stroke:#181818;stroke-width:0.5;stroke-linejoin:miter;stroke-miterlimit:10;"/><line style="stroke:#181818;stroke-width:0.5;" x1="1388.9523" x2="1388.9523" y1="351.4483" y2="357.4483"/><line style="stroke:#181818;stroke-width:0.5;" x1="1394.9523" x2="1388.9523" y1="357.4483" y2="357.4483"/><text fill="#000000" font-family="sans-serif" font-size="14" lengthAdjust="spacing" textLength="63.9023" x="1316.05" y="372.9834">Leave API</text></g><!--entity Project API--><g class="entity" data-qualified-name="Application Server.FastAPI Backend.Project API" data-source-line="31" id="ent0018"><rect fill="#F1F1F1" height="39.4883" rx="2.5" ry="2.5" style="stroke:#181818;stroke-width:0.5;" width="102.3926" x="1434.8" y="346.4483"/><polygon fill="#F1F1F1" points="1520.1926,351.4483,1520.1926,365.4483,1532.1926,365.4483,1532.1926,357.4483,1526.1926,351.4483,1520.1926,351.4483" style="stroke:#181818;stroke-width:0.5;stroke-linejoin:miter;stroke-miterlimit:10;"/><line style="stroke:#181818;stroke-width:0.5;" x1="1526.1926" x2="1526.1926" y1="351.4483" y2="357.4483"/><line style="stroke:#181818;stroke-width:0.5;" x1="1532.1926" x2="1526.1926" y1="357.4483" y2="357.4483"/><text fill="#000000" font-family="sans-serif" font-size="14" lengthAdjust="spacing" textLength="72.3926" x="1444.8" y="372.9834">Project API</text></g><!--entity Task API--><g class="entity" data-qualified-name="Application Server.FastAPI Backend.Task API" data-source-line="32" id="ent0019"><rect fill="#F1F1F1" height="39.4883" rx="2.5" ry="2.5" style="stroke:#181818;stroke-width:0.5;" width="87.7637" x="1572.12" y="346.4483"/><polygon fill="#F1F1F1" points="1642.8837,351.4483,1642.8837,365.4483,1654.8837,365.4483,1654.8837,357.4483,1648.8837,351.4483,1642.8837,351.4483" style="stroke:#181818;stroke-width:0.5;stroke-linejoin:miter;stroke-miterlimit:10;"/><line style="stroke:#181818;stroke-width:0.5;" x1="1648.8837" x2="1648.8837" y1="351.4483" y2="357.4483"/><line style="stroke:#181818;stroke-width:0.5;" x1="1654.8837" x2="1648.8837" y1="357.4483" y2="357.4483"/><text fill="#000000" font-family="sans-serif" font-size="14" lengthAdjust="spacing" textLength="57.7637" x="1582.12" y="372.9834">Task API</text></g><!--entity Meeting API--><g class="entity" data-qualified-name="Application Server.FastAPI Backend.Meeting API" data-source-line="33" id="ent0020"><rect fill="#F1F1F1" height="39.4883" rx="2.5" ry="2.5" style="stroke:#181818;stroke-width:0.5;" width="110.2197" x="1694.89" y="346.4483"/><polygon fill="#F1F1F1" points="1788.1097,351.4483,1788.1097,365.4483,1800.1097,365.4483,1800.1097,357.4483,1794.1097,351.4483,1788.1097,351.4483" style="stroke:#181818;stroke-width:0.5;stroke-linejoin:miter;stroke-miterlimit:10;"/><line style="stroke:#181818;stroke-width:0.5;" x1="1794.1097" x2="1794.1097" y1="351.4483" y2="357.4483"/><line style="stroke:#181818;stroke-width:0.5;" x1="1800.1097" x2="1794.1097" y1="357.4483" y2="357.4483"/><text fill="#000000" font-family="sans-serif" font-size="14" lengthAdjust="spacing" textLength="80.2197" x="1704.89" y="372.9834">Meeting API</text></g><!--entity WorkLog API--><g class="entity" data-qualified-name="Application Server.FastAPI Backend.WorkLog API" data-source-line="34" id="ent0021"><rect fill="#F1F1F1" height="39.4883" rx="2.5" ry="2.5" style="stroke:#181818;stroke-width:0.5;" width="115.1416" x="1840.43" y="346.4483"/><polygon fill="#F1F1F1" points="1938.5716,351.4483,1938.5716,365.4483,1950.5716,365.4483,1950.5716,357.4483,1944.5716,351.4483,1938.5716,351.4483" style="stroke:#181818;stroke-width:0.5;stroke-linejoin:miter;stroke-miterlimit:10;"/><line style="stroke:#181818;stroke-width:0.5;" x1="1944.5716" x2="1944.5716" y1="351.4483" y2="357.4483"/><line style="stroke:#181818;stroke-width:0.5;" x1="1950.5716" x2="1944.5716" y1="357.4483" y2="357.4483"/><text fill="#000000" font-family="sans-serif" font-size="14" lengthAdjust="spacing" textLength="85.1416" x="1850.43" y="372.9834">WorkLog API</text></g><!--entity Prediction API--><g class="entity" data-qualified-name="Application Server.FastAPI Backend.Prediction API" data-source-line="35" id="ent0022"><rect fill="#F1F1F1" height="39.4883" rx="2.5" ry="2.5" style="stroke:#181818;stroke-width:0.5;" width="123.7275" x="1990.14" y="346.4483"/><polygon fill="#F1F1F1" points="2096.8675,351.4483,2096.8675,365.4483,2108.8675,365.4483,2108.8675,357.4483,2102.8675,351.4483,2096.8675,351.4483" style="stroke:#181818;stroke-width:0.5;stroke-linejoin:miter;stroke-miterlimit:10;"/><line style="stroke:#181818;stroke-width:0.5;" x1="2102.8675" x2="2102.8675" y1="351.4483" y2="357.4483"/><line style="stroke:#181818;stroke-width:0.5;" x1="2108.8675" x2="2102.8675" y1="357.4483" y2="357.4483"/><text fill="#000000" font-family="sans-serif" font-size="14" lengthAdjust="spacing" textLength="93.7275" x="2000.14" y="372.9834">Prediction API</text></g><!--entity Notification API--><g class="entity" data-qualified-name="Application Server.FastAPI Backend.Notification API" data-source-line="36" id="ent0023"><rect fill="#F1F1F1" height="39.4883" rx="2.5" ry="2.5" style="stroke:#181818;stroke-width:0.5;" width="134.7539" x="2148.62" y="346.4483"/><polygon fill="#F1F1F1" points="2266.3739,351.4483,2266.3739,365.4483,2278.3739,365.4483,2278.3739,357.4483,2272.3739,351.4483,2266.3739,351.4483" style="stroke:#181818;stroke-width:0.5;stroke-linejoin:miter;stroke-miterlimit:10;"/><line style="stroke:#181818;stroke-width:0.5;" x1="2272.3739" x2="2272.3739" y1="351.4483" y2="357.4483"/><line style="stroke:#181818;stroke-width:0.5;" x1="2278.3739" x2="2272.3739" y1="357.4483" y2="357.4483"/><text fill="#000000" font-family="sans-serif" font-size="14" lengthAdjust="spacing" textLength="104.7539" x="2158.62" y="372.9834">Notification API</text></g><!--entity Business Services--><g class="entity" data-qualified-name="Application Server.FastAPI Backend.Business Services" data-source-line="38" id="ent0024"><rect fill="#F1F1F1" height="46.4883" rx="2.5" ry="2.5" style="stroke:#181818;stroke-width:0.5;" width="157.585" x="1274.21" y="484.9383"/><rect fill="#F1F1F1" height="10" style="stroke:#181818;stroke-width:0.5;" width="15" x="1411.795" y="489.9383"/><rect fill="#F1F1F1" height="2" style="stroke:#181818;stroke-width:0.5;" width="4" x="1409.795" y="491.9383"/><rect fill="#F1F1F1" height="2" style="stroke:#181818;stroke-width:0.5;" width="4" x="1409.795" y="495.9383"/><text fill="#000000" font-family="sans-serif" font-size="14" lengthAdjust="spacing" textLength="117.585" x="1289.21" y="518.4734">Business Services</text></g><!--entity Repository Layer--><g class="entity" data-qualified-name="Application Server.FastAPI Backend.Repository Layer" data-source-line="39" id="ent0025"><rect fill="#F1F1F1" height="46.4883" rx="2.5" ry="2.5" style="stroke:#181818;stroke-width:0.5;" width="152.5947" x="1276.7" y="591.4283"/><rect fill="#F1F1F1" height="10" style="stroke:#181818;stroke-width:0.5;" width="15" x="1409.2947" y="596.4283"/><rect fill="#F1F1F1" height="2" style="stroke:#181818;stroke-width:0.5;" width="4" x="1407.2947" y="598.4283"/><rect fill="#F1F1F1" height="2" style="stroke:#181818;stroke-width:0.5;" width="4" x="1407.2947" y="602.4283"/><text fill="#000000" font-family="sans-serif" font-size="14" lengthAdjust="spacing" textLength="112.5947" x="1291.7" y="624.9634">Repository Layer</text></g><!--entity SQLAlchemy ORM--><g class="entity" data-qualified-name="Application Server.FastAPI Backend.SQLAlchemy ORM" data-source-line="40" id="ent0026"><rect fill="#F1F1F1" height="46.4883" rx="2.5" ry="2.5" style="stroke:#181818;stroke-width:0.5;" width="159.8477" x="1273.08" y="697.9183"/><rect fill="#F1F1F1" height="10" style="stroke:#181818;stroke-width:0.5;" width="15" x="1412.9277" y="702.9183"/><rect fill="#F1F1F1" height="2" style="stroke:#181818;stroke-width:0.5;" width="4" x="1410.9277" y="704.9183"/><rect fill="#F1F1F1" height="2" style="stroke:#181818;stroke-width:0.5;" width="4" x="1410.9277" y="708.9183"/><text fill="#000000" font-family="sans-serif" font-size="14" lengthAdjust="spacing" textLength="119.8477" x="1288.08" y="731.4534">SQLAlchemy ORM</text></g><!--entity Pydantic Schemas--><g class="entity" data-qualified-name="Application Server.FastAPI Backend.Pydantic Schemas" data-source-line="41" id="ent0027"><rect fill="#F1F1F1" height="46.4883" rx="2.5" ry="2.5" style="stroke:#181818;stroke-width:0.5;" width="160.3057" x="2318.85" y="342.9483"/><rect fill="#F1F1F1" height="10" style="stroke:#181818;stroke-width:0.5;" width="15" x="2459.1557" y="347.9483"/><rect fill="#F1F1F1" height="2" style="stroke:#181818;stroke-width:0.5;" width="4" x="2457.1557" y="349.9483"/><rect fill="#F1F1F1" height="2" style="stroke:#181818;stroke-width:0.5;" width="4" x="2457.1557" y="353.9483"/><text fill="#000000" font-family="sans-serif" font-size="14" lengthAdjust="spacing" textLength="120.3057" x="2333.85" y="376.4834">Pydantic Schemas</text></g><!--entity Feature Engineering--><g class="entity" data-qualified-name="Application Server.Machine Learning.Feature Engineering" data-source-line="47" id="ent0029"><rect fill="#F1F1F1" height="39.4883" rx="2.5" ry="2.5" style="stroke:#181818;stroke-width:0.5;" width="165.4541" x="2535.27" y="594.9283"/><polygon fill="#F1F1F1" points="2683.7241,599.9283,2683.7241,613.9283,2695.7241,613.9283,2695.7241,605.9283,2689.7241,599.9283,2683.7241,599.9283" style="stroke:#181818;stroke-width:0.5;stroke-linejoin:miter;stroke-miterlimit:10;"/><line style="stroke:#181818;stroke-width:0.5;" x1="2689.7241" x2="2689.7241" y1="599.9283" y2="605.9283"/><line style="stroke:#181818;stroke-width:0.5;" x1="2695.7241" x2="2689.7241" y1="605.9283" y2="605.9283"/><text fill="#000000" font-family="sans-serif" font-size="14" lengthAdjust="spacing" textLength="135.4541" x="2545.27" y="621.4634">Feature Engineering</text></g><!--entity burnout_model.pkl--><g class="entity" data-qualified-name="Application Server.Machine Learning.burnout_model.pkl" data-source-line="49" id="ent0030"><rect fill="#F1F1F1" height="39.4883" rx="2.5" ry="2.5" style="stroke:#181818;stroke-width:0.5;" width="159.2402" x="2735.38" y="594.9283"/><polygon fill="#F1F1F1" points="2877.6202,599.9283,2877.6202,613.9283,2889.6202,613.9283,2889.6202,605.9283,2883.6202,599.9283,2877.6202,599.9283" style="stroke:#181818;stroke-width:0.5;stroke-linejoin:miter;stroke-miterlimit:10;"/><line style="stroke:#181818;stroke-width:0.5;" x1="2883.6202" x2="2883.6202" y1="599.9283" y2="605.9283"/><line style="stroke:#181818;stroke-width:0.5;" x1="2889.6202" x2="2883.6202" y1="605.9283" y2="605.9283"/><text fill="#000000" font-family="sans-serif" font-size="14" lengthAdjust="spacing" textLength="129.2402" x="2745.38" y="621.4634">burnout_model.pkl</text></g><!--entity productivity_model.pkl--><g class="entity" data-qualified-name="Application Server.Machine Learning.productivity_model.pkl" data-source-line="51" id="ent0031"><rect fill="#F1F1F1" height="39.4883" rx="2.5" ry="2.5" style="stroke:#181818;stroke-width:0.5;" width="185.7363" x="2929.13" y="594.9283"/><polygon fill="#F1F1F1" points="3097.8663,599.9283,3097.8663,613.9283,3109.8663,613.9283,3109.8663,605.9283,3103.8663,599.9283,3097.8663,599.9283" style="stroke:#181818;stroke-width:0.5;stroke-linejoin:miter;stroke-miterlimit:10;"/><line style="stroke:#181818;stroke-width:0.5;" x1="3103.8663" x2="3103.8663" y1="599.9283" y2="605.9283"/><line style="stroke:#181818;stroke-width:0.5;" x1="3109.8663" x2="3103.8663" y1="605.9283" y2="605.9283"/><text fill="#000000" font-family="sans-serif" font-size="14" lengthAdjust="spacing" textLength="155.7363" x="2939.13" y="621.4634">productivity_model.pkl</text></g><!--entity scaler.pkl--><g class="entity" data-qualified-name="Application Server.Machine Learning.scaler.pkl" data-source-line="53" id="ent0032"><rect fill="#F1F1F1" height="39.4883" rx="2.5" ry="2.5" style="stroke:#181818;stroke-width:0.5;" width="95.085" x="3149.46" y="594.9283"/><polygon fill="#F1F1F1" points="3227.545,599.9283,3227.545,613.9283,3239.545,613.9283,3239.545,605.9283,3233.545,599.9283,3227.545,599.9283" style="stroke:#181818;stroke-width:0.5;stroke-linejoin:miter;stroke-miterlimit:10;"/><line style="stroke:#181818;stroke-width:0.5;" x1="3233.545" x2="3233.545" y1="599.9283" y2="605.9283"/><line style="stroke:#181818;stroke-width:0.5;" x1="3239.545" x2="3233.545" y1="605.9283" y2="605.9283"/><text fill="#000000" font-family="sans-serif" font-size="14" lengthAdjust="spacing" textLength="65.085" x="3159.46" y="621.4634">scaler.pkl</text></g><!--entity Prediction Engine--><g class="entity" data-qualified-name="Application Server.Machine Learning.Prediction Engine" data-source-line="55" id="ent0033"><rect fill="#F1F1F1" height="46.4883" rx="2.5" ry="2.5" style="stroke:#181818;stroke-width:0.5;" width="157.8379" x="2736.08" y="484.9383"/><rect fill="#F1F1F1" height="10" style="stroke:#181818;stroke-width:0.5;" width="15" x="2873.9179" y="489.9383"/><rect fill="#F1F1F1" height="2" style="stroke:#181818;stroke-width:0.5;" width="4" x="2871.9179" y="491.9383"/><rect fill="#F1F1F1" height="2" style="stroke:#181818;stroke-width:0.5;" width="4" x="2871.9179" y="495.9383"/><text fill="#000000" font-family="sans-serif" font-size="14" lengthAdjust="spacing" textLength="117.8379" x="2751.08" y="518.4734">Prediction Engine</text></g><!--entity HTTP / HTTPS--><g class="entity" data-qualified-name="HTTP . HTTPS" data-source-line="19" id="ent0009"><path d="M495.6917,96.6951 C499.7625,89.1502 505.0355,89.6404 509.6553,96.1496 C512.9233,90.3349 519.0879,90.1214 522.5349,95.9516 C525.8141,88.5232 531.2776,88.2116 535.937,94.6142 C540.3374,87.632 547.0161,86.7223 550.9321,95.0874 C553.8725,89.3112 559.4376,89.9903 562.6652,94.7681 C567.0329,87.4092 573.7355,89.259 577.4387,95.4904 C581.6426,90.2123 588.5185,90.1699 590.983,97.3772 C594.8507,91.4552 600.781,90.8487 605.0042,96.963 C613.567,98.0694 619.1037,105.0236 612.0925,113.0096 C615.9679,120.7629 614.87,125.9391 605.1845,126.9932 C602.2879,135.1854 597.7374,135.9056 591.6167,130.1236 C588.1645,137.4294 580.9172,136.2935 577.0659,130.5693 C572.4925,138.1228 567.8766,136.5828 563.246,130.6278 C559.5277,137.7371 554.3977,138.9021 549.2195,132.0998 C545.551,137.5366 540.5368,137.9536 536.4851,132.5498 C531.7157,137.3016 527.2783,137.8027 523.8936,131.0361 C518.9846,138.3894 511.2729,137.8193 508.3874,129.0855 C502.4964,135.3848 498.2907,133.1424 494.5179,126.7676 C486.5958,126.3755 481.898,121.4617 485.9644,113.3991 C481.017,104.2128 486.0601,97.3915 495.6917,96.6951" fill="#F1F1F1" style="stroke:#181818;stroke-width:0.5;"/><text fill="#000000" font-family="sans-serif" font-size="14" lengthAdjust="spacing" textLength="95.2041" x="501.4" y="116.7634">HTTP / HTTPS</text></g><!--entity DB--><g class="entity" data-qualified-name="DB" data-source-line="61" id="ent0034"><path d="M1287.97,814.3983 C1287.97,804.3983 1352.9993,804.3983 1352.9993,804.3983 C1352.9993,804.3983 1418.0286,804.3983 1418.0286,814.3983 L1418.0286,856.3748 C1418.0286,866.3748 1352.9993,866.3748 1352.9993,866.3748 C1352.9993,866.3748 1287.97,866.3748 1287.97,856.3748 L1287.97,814.3983" fill="#F1F1F1" style="stroke:#181818;stroke-width:0.5;"/><path d="M1287.97,814.3983 C1287.97,824.3983 1352.9993,824.3983 1352.9993,824.3983 C1352.9993,824.3983 1418.0286,824.3983 1418.0286,814.3983" fill="none" style="stroke:#181818;stroke-width:0.5;"/><text fill="#000000" font-family="sans-serif" font-size="14" lengthAdjust="spacing" textLength="110.0586" x="1297.97" y="841.9334">SQLite Database</text><text fill="#000000" font-family="sans-serif" font-size="14" lengthAdjust="spacing" textLength="55.0156" x="1297.97" y="858.4217">(dev.db)</text></g><!--link Browser to Angular UI--><g class="link" data-entity-1="ent0002" data-entity-2="ent0004" data-link-type="dependency" data-source-line="63" id="lnk35"><path d="M377,139.7783 C377,158.4783 377,177.5383 377,194.2483" fill="none" id="Browser-to-Angular UI" style="stroke:#181818;stroke-width:1;"/><polygon fill="#181818" points="377,199.2483,381,190.2483,377,194.2483,373,190.2483,377,199.2483" style="stroke:#181818;stroke-width:1;stroke-linejoin:miter;stroke-miterlimit:10;"/></g><!--link Angular UI to Authentication API--><g class="link" data-entity-1="ent0004" data-entity-2="ent0012" data-link-type="dependency" data-source-line="65" id="lnk36"><path d="M427.97,235.3783 C485.73,235.3783 571.96,235.3783 571.96,235.3783 C571.96,235.3783 571.96,304.3483 571.96,341.0383" fill="none" id="Angular UI-to-Authentication API" style="stroke:#181818;stroke-width:1;"/><polygon fill="#181818" points="571.96,346.0383,575.96,337.0383,571.96,341.0383,567.96,337.0383,571.96,346.0383" style="stroke:#181818;stroke-width:1;stroke-linejoin:miter;stroke-miterlimit:10;"/></g><!--link Angular UI to Employee API--><g class="link" data-entity-1="ent0004" data-entity-2="ent0013" data-link-type="dependency" data-source-line="66" id="lnk37"><path d="M428.01,232.3783 C537.05,232.3783 783,232.3783 783,232.3783 C783,232.3783 783,303.8283 783,341.1583" fill="none" id="Angular UI-to-Employee API" style="stroke:#181818;stroke-width:1;"/><polygon fill="#181818" points="783,346.1583,787,337.1583,783,341.1583,779,337.1583,783,346.1583" style="stroke:#181818;stroke-width:1;stroke-linejoin:miter;stroke-miterlimit:10;"/></g><!--link Angular UI to Manager API--><g class="link" data-entity-1="ent0004" data-entity-2="ent0014" data-link-type="dependency" data-source-line="67" id="lnk38"><path d="M428.09,229.3783 C566.09,229.3783 936,229.3783 936,229.3783 C936,229.3783 936,302.9483 936,341.0083" fill="none" id="Angular UI-to-Manager API" style="stroke:#181818;stroke-width:1;"/><polygon fill="#181818" points="936,346.0083,940,337.0083,936,341.0083,932,337.0083,936,346.0083" style="stroke:#181818;stroke-width:1;stroke-linejoin:miter;stroke-miterlimit:10;"/></g><!--link Angular UI to HR API--><g class="link" data-entity-1="ent0004" data-entity-2="ent0015" data-link-type="dependency" data-source-line="68" id="lnk39"><path d="M427.94,225.3783 C587.34,225.3783 1066,225.3783 1066,225.3783 C1066,225.3783 1066,302.0783 1066,341.0183" fill="none" id="Angular UI-to-HR API" style="stroke:#181818;stroke-width:1;"/><polygon fill="#181818" points="1066,346.0183,1070,337.0183,1066,341.0183,1062,337.0183,1066,346.0183" style="stroke:#181818;stroke-width:1;stroke-linejoin:miter;stroke-miterlimit:10;"/></g><!--link Angular UI to Attendance API--><g class="link" data-entity-1="ent0004" data-entity-2="ent0016" data-link-type="dependency" data-source-line="69" id="lnk40"><path d="M428.17,222.3783 C608.69,222.3783 1205,222.3783 1205,222.3783 C1205,222.3783 1205,301.6783 1205,341.1983" fill="none" id="Angular UI-to-Attendance API" style="stroke:#181818;stroke-width:1;"/><polygon fill="#181818" points="1205,346.1983,1209,337.1983,1205,341.1983,1201,337.1983,1205,346.1983" style="stroke:#181818;stroke-width:1;stroke-linejoin:miter;stroke-miterlimit:10;"/></g><!--link Angular UI to Leave API--><g class="link" data-entity-1="ent0004" data-entity-2="ent0017" data-link-type="dependency" data-source-line="70" id="lnk41"><path d="M428.1,219.3783 C628.92,219.3783 1353,219.3783 1353,219.3783 C1353,219.3783 1353,300.8783 1353,341.0883" fill="none" id="Angular UI-to-Leave API" style="stroke:#181818;stroke-width:1;"/><polygon fill="#181818" points="1353,346.0883,1357,337.0883,1353,341.0883,1349,337.0883,1353,346.0883" style="stroke:#181818;stroke-width:1;stroke-linejoin:miter;stroke-miterlimit:10;"/></g><!--link Angular UI to Project API--><g class="link" data-entity-1="ent0004" data-entity-2="ent0018" data-link-type="dependency" data-source-line="71" id="lnk42"><path d="M427.9,216.3783 C645.43,216.3783 1486,216.3783 1486,216.3783 C1486,216.3783 1486,300.0983 1486,340.9883" fill="none" id="Angular UI-to-Project API" style="stroke:#181818;stroke-width:1;"/><polygon fill="#181818" points="1486,345.9883,1490,336.9883,1486,340.9883,1482,336.9883,1486,345.9883" style="stroke:#181818;stroke-width:1;stroke-linejoin:miter;stroke-miterlimit:10;"/></g><!--link Angular UI to Task API--><g class="link" data-entity-1="ent0004" data-entity-2="ent0019" data-link-type="dependency" data-source-line="72" id="lnk43"><path d="M427.88,212.3783 C661.03,212.3783 1616,212.3783 1616,212.3783 C1616,212.3783 1616,299.3883 1616,341.0883" fill="none" id="Angular UI-to-Task API" style="stroke:#181818;stroke-width:1;"/><polygon fill="#181818" points="1616,346.0883,1620,337.0883,1616,341.0883,1612,337.0883,1616,346.0883" style="stroke:#181818;stroke-width:1;stroke-linejoin:miter;stroke-miterlimit:10;"/></g><!--link Angular UI to Meeting API--><g class="link" data-entity-1="ent0004" data-entity-2="ent0020" data-link-type="dependency" data-source-line="73" id="lnk44"><path d="M427.9,209.3783 C676.39,209.3783 1750,209.3783 1750,209.3783 C1750,209.3783 1750,298.6583 1750,341.0083" fill="none" id="Angular UI-to-Meeting API" style="stroke:#181818;stroke-width:1;"/><polygon fill="#181818" points="1750,346.0083,1754,337.0083,1750,341.0083,1746,337.0083,1750,346.0083" style="stroke:#181818;stroke-width:1;stroke-linejoin:miter;stroke-miterlimit:10;"/></g><!--link Angular UI to WorkLog API--><g class="link" data-entity-1="ent0004" data-entity-2="ent0021" data-link-type="dependency" data-source-line="74" id="lnk45"><path d="M428.04,206.3783 C692.85,206.3783 1898,206.3783 1898,206.3783 C1898,206.3783 1898,297.9483 1898,340.9483" fill="none" id="Angular UI-to-WorkLog API" style="stroke:#181818;stroke-width:1;"/><polygon fill="#181818" points="1898,345.9483,1902,336.9483,1898,340.9483,1894,336.9483,1898,345.9483" style="stroke:#181818;stroke-width:1;stroke-linejoin:miter;stroke-miterlimit:10;"/></g><!--link Angular UI to Prediction API--><g class="link" data-entity-1="ent0004" data-entity-2="ent0022" data-link-type="dependency" data-source-line="75" id="lnk46"><path d="M428.04,202.3783 C708.76,202.3783 2052,202.3783 2052,202.3783 C2052,202.3783 2052,297.3583 2052,341.1083" fill="none" id="Angular UI-to-Prediction API" style="stroke:#181818;stroke-width:1;"/><polygon fill="#181818" points="2052,346.1083,2056,337.1083,2052,341.1083,2048,337.1083,2052,346.1083" style="stroke:#181818;stroke-width:1;stroke-linejoin:miter;stroke-miterlimit:10;"/></g><!--link Authentication API to Business Services--><g class="link" data-entity-1="ent0012" data-entity-2="ent0024" data-link-type="dependency" data-source-line="77" id="lnk47"><path d="M610,386.2883 C610,428.4783 610,522.3783 610,522.3783 C610,522.3783 1077.39,522.3783 1268.84,522.3783" fill="none" id="Authentication API-to-Business Services" style="stroke:#181818;stroke-width:1;"/><polygon fill="#181818" points="1273.84,522.3783,1264.84,518.3783,1268.84,522.3783,1264.84,526.3783,1273.84,522.3783" style="stroke:#181818;stroke-width:1;stroke-linejoin:miter;stroke-miterlimit:10;"/></g><!--link Employee API to Business Services--><g class="link" data-entity-1="ent0013" data-entity-2="ent0024" data-link-type="dependency" data-source-line="78" id="lnk48"><path d="M783,386.2083 C783,426.2483 783,512.3783 783,512.3783 C783,512.3783 1112.12,512.3783 1268.74,512.3783" fill="none" id="Employee API-to-Business Services" style="stroke:#181818;stroke-width:1;"/><polygon fill="#181818" points="1273.74,512.3783,1264.74,508.3783,1268.74,512.3783,1264.74,516.3783,1273.74,512.3783" style="stroke:#181818;stroke-width:1;stroke-linejoin:miter;stroke-miterlimit:10;"/></g><!--link Manager API to Business Services--><g class="link" data-entity-1="ent0014" data-entity-2="ent0024" data-link-type="dependency" data-source-line="79" id="lnk49"><path d="M936,386.4383 C936,424.5983 936,503.3783 936,503.3783 C936,503.3783 1148.18,503.3783 1269.08,503.3783" fill="none" id="Manager API-to-Business Services" style="stroke:#181818;stroke-width:1;"/><polygon fill="#181818" points="1274.08,503.3783,1265.08,499.3783,1269.08,503.3783,1265.08,507.3783,1274.08,503.3783" style="stroke:#181818;stroke-width:1;stroke-linejoin:miter;stroke-miterlimit:10;"/></g><!--link HR API to Business Services--><g class="link" data-entity-1="ent0015" data-entity-2="ent0024" data-link-type="dependency" data-source-line="80" id="lnk50"><path d="M1066,386.2183 C1066,422.2783 1066,494.3783 1066,494.3783 C1066,494.3783 1183.87,494.3783 1268.82,494.3783" fill="none" id="HR API-to-Business Services" style="stroke:#181818;stroke-width:1;"/><polygon fill="#181818" points="1273.82,494.3783,1264.82,490.3783,1268.82,494.3783,1264.82,498.3783,1273.82,494.3783" style="stroke:#181818;stroke-width:1;stroke-linejoin:miter;stroke-miterlimit:10;"/></g><!--link Attendance API to Business Services--><g class="link" data-entity-1="ent0016" data-entity-2="ent0024" data-link-type="dependency" data-source-line="81" id="lnk51"><path d="M1271.66,366.3783 C1282.43,366.3783 1290.13,366.3783 1290.13,366.3783 C1290.13,366.3783 1290.13,439.0783 1290.13,479.4483" fill="none" id="Attendance API-to-Business Services" style="stroke:#181818;stroke-width:1;"/><polygon fill="#181818" points="1290.13,484.4483,1294.13,475.4483,1290.13,479.4483,1286.13,475.4483,1290.13,484.4483" style="stroke:#181818;stroke-width:1;stroke-linejoin:miter;stroke-miterlimit:10;"/></g><!--link Leave API to Business Services--><g class="link" data-entity-1="ent0017" data-entity-2="ent0024" data-link-type="dependency" data-source-line="82" id="lnk52"><path d="M1353,386.2383 C1353,412.0683 1353,451.9383 1353,479.4583" fill="none" id="Leave API-to-Business Services" style="stroke:#181818;stroke-width:1;"/><polygon fill="#181818" points="1353,484.4583,1357,475.4583,1353,479.4583,1349,475.4583,1353,484.4583" style="stroke:#181818;stroke-width:1;stroke-linejoin:miter;stroke-miterlimit:10;"/></g><!--link Project API to Business Services--><g class="link" data-entity-1="ent0018" data-entity-2="ent0024" data-link-type="dependency" data-source-line="83" id="lnk53"><path d="M1434.66,366.3783 C1423.97,366.3783 1415.87,366.3783 1415.87,366.3783 C1415.87,366.3783 1415.87,439.0783 1415.87,479.4483" fill="none" id="Project API-to-Business Services" style="stroke:#181818;stroke-width:1;"/><polygon fill="#181818" points="1415.87,484.4483,1419.87,475.4483,1415.87,479.4483,1411.87,475.4483,1415.87,484.4483" style="stroke:#181818;stroke-width:1;stroke-linejoin:miter;stroke-miterlimit:10;"/></g><!--link Task API to Business Services--><g class="link" data-entity-1="ent0019" data-entity-2="ent0024" data-link-type="dependency" data-source-line="84" id="lnk54"><path d="M1616,386.2683 C1616,423.2483 1616,498.3783 1616,498.3783 C1616,498.3783 1514.7,498.3783 1437.27,498.3783" fill="none" id="Task API-to-Business Services" style="stroke:#181818;stroke-width:1;"/><polygon fill="#181818" points="1432.27,498.3783,1441.27,502.3783,1437.27,498.3783,1441.27,494.3783,1432.27,498.3783" style="stroke:#181818;stroke-width:1;stroke-linejoin:miter;stroke-miterlimit:10;"/></g><!--link Meeting API to Business Services--><g class="link" data-entity-1="ent0020" data-entity-2="ent0024" data-link-type="dependency" data-source-line="85" id="lnk55"><path d="M1750,386.2883 C1750,424.6083 1750,504.3783 1750,504.3783 C1750,504.3783 1552.69,504.3783 1436.91,504.3783" fill="none" id="Meeting API-to-Business Services" style="stroke:#181818;stroke-width:1;"/><polygon fill="#181818" points="1431.91,504.3783,1440.91,508.3783,1436.91,504.3783,1440.91,500.3783,1431.91,504.3783" style="stroke:#181818;stroke-width:1;stroke-linejoin:miter;stroke-miterlimit:10;"/></g><!--link WorkLog API to Business Services--><g class="link" data-entity-1="ent0021" data-entity-2="ent0024" data-link-type="dependency" data-source-line="86" id="lnk56"><path d="M1898,386.3783 C1898,426.2683 1898,511.3783 1898,511.3783 C1898,511.3783 1588.4,511.3783 1437.25,511.3783" fill="none" id="WorkLog API-to-Business Services" style="stroke:#181818;stroke-width:1;"/><polygon fill="#181818" points="1432.25,511.3783,1441.25,515.3783,1437.25,511.3783,1441.25,507.3783,1432.25,511.3783" style="stroke:#181818;stroke-width:1;stroke-linejoin:miter;stroke-miterlimit:10;"/></g><!--link Prediction API to Business Services--><g class="link" data-entity-1="ent0022" data-entity-2="ent0024" data-link-type="dependency" data-source-line="87" id="lnk57"><path d="M2031.38,386.3983 C2031.38,427.7983 2031.38,518.3783 2031.38,518.3783 C2031.38,518.3783 1616.1,518.3783 1437.15,518.3783" fill="none" id="Prediction API-to-Business Services" style="stroke:#181818;stroke-width:1;"/><polygon fill="#181818" points="1432.15,518.3783,1441.15,522.3783,1437.15,518.3783,1441.15,514.3783,1432.15,518.3783" style="stroke:#181818;stroke-width:1;stroke-linejoin:miter;stroke-miterlimit:10;"/></g><!--link Business Services to Repository Layer--><g class="link" data-entity-1="ent0024" data-entity-2="ent0025" data-link-type="dependency" data-source-line="89" id="lnk58"><path d="M1353,531.8183 C1353,549.4583 1353,568.4683 1353,586.0983" fill="none" id="Business Services-to-Repository Layer" style="stroke:#181818;stroke-width:1;"/><polygon fill="#181818" points="1353,591.0983,1357,582.0983,1353,586.0983,1349,582.0983,1353,591.0983" style="stroke:#181818;stroke-width:1;stroke-linejoin:miter;stroke-miterlimit:10;"/></g><!--link Repository Layer to SQLAlchemy ORM--><g class="link" data-entity-1="ent0025" data-entity-2="ent0026" data-link-type="dependency" data-source-line="91" id="lnk59"><path d="M1353,638.2983 C1353,655.9483 1353,674.9583 1353,692.5883" fill="none" id="Repository Layer-to-SQLAlchemy ORM" style="stroke:#181818;stroke-width:1;"/><polygon fill="#181818" points="1353,697.5883,1357,688.5883,1353,692.5883,1349,688.5883,1353,697.5883" style="stroke:#181818;stroke-width:1;stroke-linejoin:miter;stroke-miterlimit:10;"/></g><!--link SQLAlchemy ORM to DB--><g class="link" data-entity-1="ent0026" data-entity-2="ent0034" data-link-type="dependency" data-source-line="93" id="lnk60"><path d="M1353,744.8283 C1353,761.9483 1353,780.2583 1353,798.9483" fill="none" id="SQLAlchemy ORM-to-DB" style="stroke:#181818;stroke-width:1;"/><polygon fill="#181818" points="1353,803.9483,1357,794.9483,1353,798.9483,1349,794.9483,1353,803.9483" style="stroke:#181818;stroke-width:1;stroke-linejoin:miter;stroke-miterlimit:10;"/></g><!--link Prediction API to Prediction Engine--><g class="link" data-entity-1="ent0022" data-entity-2="ent0033" data-link-type="dependency" data-source-line="95" id="lnk61"><path d="M2072.62,386.3083 C2072.62,421.6883 2072.62,491.3783 2072.62,491.3783 C2072.62,491.3783 2539.62,491.3783 2730.9,491.3783" fill="none" id="Prediction API-to-Prediction Engine" style="stroke:#181818;stroke-width:1;"/><polygon fill="#181818" points="2735.9,491.3783,2726.9,487.3783,2730.9,491.3783,2726.9,495.3783,2735.9,491.3783" style="stroke:#181818;stroke-width:1;stroke-linejoin:miter;stroke-miterlimit:10;"/></g><!--link Prediction Engine to Feature Engineering--><g class="link" data-entity-1="ent0033" data-entity-2="ent0029" data-link-type="dependency" data-source-line="97" id="lnk62"><path d="M2735.72,524.3783 C2680.98,524.3783 2618,524.3783 2618,524.3783 C2618,524.3783 2618,563.0283 2618,589.6283" fill="none" id="Prediction Engine-to-Feature Engineering" style="stroke:#181818;stroke-width:1;"/><polygon fill="#181818" points="2618,594.6283,2622,585.6283,2618,589.6283,2614,585.6283,2618,594.6283" style="stroke:#181818;stroke-width:1;stroke-linejoin:miter;stroke-miterlimit:10;"/></g><!--link Prediction Engine to burnout_model.pkl--><g class="link" data-entity-1="ent0033" data-entity-2="ent0030" data-link-type="dependency" data-source-line="99" id="lnk63"><path d="M2815,531.8183 C2815,550.6883 2815,571.8383 2815,589.6783" fill="none" id="Prediction Engine-to-burnout_model.pkl" style="stroke:#181818;stroke-width:1;"/><polygon fill="#181818" points="2815,594.6783,2819,585.6783,2815,589.6783,2811,585.6783,2815,594.6783" style="stroke:#181818;stroke-width:1;stroke-linejoin:miter;stroke-miterlimit:10;"/></g><!--link Prediction Engine to productivity_model.pkl--><g class="link" data-entity-1="ent0033" data-entity-2="ent0031" data-link-type="dependency" data-source-line="101" id="lnk64"><path d="M2894.14,516.3783 C2952.58,516.3783 3022,516.3783 3022,516.3783 C3022,516.3783 3022,561.0583 3022,589.7783" fill="none" id="Prediction Engine-to-productivity_model.pkl" style="stroke:#181818;stroke-width:1;"/><polygon fill="#181818" points="3022,594.7783,3026,585.7783,3022,589.7783,3018,585.7783,3022,594.7783" style="stroke:#181818;stroke-width:1;stroke-linejoin:miter;stroke-miterlimit:10;"/></g><!--link Prediction Engine to scaler.pkl--><g class="link" data-entity-1="ent0033" data-entity-2="ent0032" data-link-type="dependency" data-source-line="103" id="lnk65"><path d="M2894.15,500.3783 C3006.04,500.3783 3197,500.3783 3197,500.3783 C3197,500.3783 3197,556.6883 3197,589.4983" fill="none" id="Prediction Engine-to-scaler.pkl" style="stroke:#181818;stroke-width:1;"/><polygon fill="#181818" points="3197,594.4983,3201,585.4983,3197,589.4983,3193,585.4983,3197,594.4983" style="stroke:#181818;stroke-width:1;stroke-linejoin:miter;stroke-miterlimit:10;"/></g><?plantuml-src XPJTRjim38NlzHI4hxQBR6ymmEdFsY7TiYP3RmOCZCKuMcp9aEHqnj1t7rqxYHrBNH30ZiuNYJmYwPKl2AwfAanJalPmhJ2tMC8CqllPqZoJ9GatPQiJmT8QMMTU7PHl8DLOD5vb3b1BcDTMczepGb8nOZIi6kUf5CBjbQwmtTNjK9fdfNFOOk5ee1HAasyg0cFzpWYXZIH8hWhL1lM0sOxr1FuA0Vn1wzKMCm_94srWRisp8_jJlxlQMLCIV8GRcRUFMsLfQ_wyJm3T4UjswBPFTLuNQ26jga9bs0RTdW7zvtpC4VnndmJKArDMHdEWBgIko1vKHa7jSurM1fKlJsjOcpsnYzvOpAc3NiIB45bXQWd9tNgzv2JRnoevEZP81TgJoPvSwu1RT3vTtiCSCzvTdjIBX6k_uuIEE_4VGa6UwYAYFw3co6rCldkCAQdt71lgBBhrWl0G5RbCVnE_HEGrkdqqP2BVrcT4VZ9slp1v_E1JyKU8huRVHhQUeEnOHf3CQyVrxXnCYsT0FL9bdEBoQ6213Tzq25fzNwH5jgEoWM-F3q5asR3LVDUmQZbqVKmltMDh2ibtcFHD2EoyrMnHf79k2Nrj2MvqpZJPbWnncsvU_2gvAeiFrRu8KjLWuFm7THaMP2_aOPRdk-bYEwV9NuaUD-ZerJ3bUIRs2pnM91q-o4qtHQxdGlIJ16QpJ-FH88Q_UZdGI5Dgt4XJVTH8K_dOI87ZBnffIWmQQIgE6cagdnif4FAmaQRog9521uyRIOICxD10hupzZ6D3M-DKxsuSk30v3fwzZZD3o-FKoVataXjSG9mQtiDRGOsk8mgAm687JsULcAvrwEN44fShhrZRYE6uGeqUMEpWyBYAuPEX5KV3aolEdyUN-0S0?></g></svg>