<svg xmlns="http://www.w3.org/2000/svg" xmlns:xlink="http://www.w3.org/1999/xlink" width="3310" height="891" contentStyleType="text/css" data-diagram-type="DESCRIPTION" style="width:3310px;height:891px;background:#fff" preserveAspectRatio="none" version="1.1" viewBox="0 0 3310 891" zoomAndPan="magnify"><?plantuml 1.2026.6?><g><g class="title" data-source-line="1"><text x="1291.844" y="23.535" fill="#000" font-family="sans-serif" font-size="14" font-weight="700" lengthAdjust="spacing" textLength="719.312">Deployment Diagram - AI-Powered Employee Productivity Analytics and Burnout Prediction System</text></g><g id="ent0001" class="cluster" data-qualified-name="Client Machine" data-source-line="6"><polygon fill="none" points="16 53.488 26 43.488 468 43.488 468 415.938 458 425.938 16 425.938 16 53.488" style="stroke:#181818;stroke-width:1;stroke-linejoin:miter;stroke-miterlimit:10"/><line style="stroke:#181818;stroke-width:1" x1="458" x2="468" y1="53.488" y2="43.488"/><line style="stroke:#181818;stroke-width:1" x1="16" x2="458" y1="53.488" y2="53.488"/><line style="stroke:#181818;stroke-width:1" x1="458" x2="458" y1="53.488" y2="425.938"/><text x="184.851" y="70.023" fill="#000" font-family="sans-serif" font-size="14" font-weight="700" lengthAdjust="spacing" textLength="106.299">Client Machine</text></g><g id="ent0003" class="cluster" data-qualified-name="Client Machine.Angular Application" data-source-line="10"><polygon fill="none" points="40 169.458 50 159.458 444 159.458 444 391.938 434 401.938 40 401.938 40 169.458" style="stroke:#181818;stroke-width:1;stroke-linejoin:miter;stroke-miterlimit:10"/><line style="stroke:#181818;stroke-width:1" x1="434" x2="444" y1="169.458" y2="159.458"/><line style="stroke:#181818;stroke-width:1" x1="40" x2="434" y1="169.458" y2="169.458"/><line style="stroke:#181818;stroke-width:1" x1="434" x2="434" y1="169.458" y2="401.938"/><text x="166.148" y="185.993" fill="#000" font-family="sans-serif" font-size="14" font-weight="700" lengthAdjust="spacing" textLength="143.705">Angular Application</text></g><g id="ent0010" class="cluster" data-qualified-name="Application Server" data-source-line="21"><polygon fill="none" points="492 264.948 502 254.948 3285 254.948 3285 774.398 3275 784.398 492 784.398 492 264.948" style="stroke:#181818;stroke-width:1;stroke-linejoin:miter;stroke-miterlimit:10"/><line style="stroke:#181818;stroke-width:1" x1="3275" x2="3285" y1="264.948" y2="254.948"/><line style="stroke:#181818;stroke-width:1" x1="492" x2="3275" y1="264.948" y2="264.948"/><line style="stroke:#181818;stroke-width:1" x1="3275" x2="3275" y1="264.948" y2="784.398"/><text x="1818.468" y="281.483" fill="#000" font-family="sans-serif" font-size="14" font-weight="700" lengthAdjust="spacing" textLength="132.064">Application Server</text></g><g id="ent0011" class="cluster" data-qualified-name="Application Server.FastAPI Backend" data-source-line="23"><polygon fill="none" points="516 312.948 526 302.948 2495 302.948 2495 750.398 2485 760.398 516 760.398 516 312.948" style="stroke:#181818;stroke-width:1;stroke-linejoin:miter;stroke-miterlimit:10"/><line style="stroke:#181818;stroke-width:1" x1="2485" x2="2495" y1="312.948" y2="302.948"/><line style="stroke:#181818;stroke-width:1" x1="516" x2="2485" y1="312.948" y2="312.948"/><line style="stroke:#181818;stroke-width:1" x1="2485" x2="2485" y1="312.948" y2="760.398"/><text x="1442.478" y="329.483" fill="#000" font-family="sans-serif" font-size="14" font-weight="700" lengthAdjust="spacing" textLength="118.043">FastAPI Backend</text></g><g id="ent0028" class="cluster" data-qualified-name="Application Server.Machine Learning" data-source-line="45"><path fill="none" d="M2521.5,449.9383 L2649.7646,449.9383 A3.75,3.75 0 0 1 2652.2646,452.4383 L2659.2646,472.4266 L3258.5,472.4266 A2.5,2.5 0 0 1 3261,474.9266 L3261,647.9183 A2.5,2.5 0 0 1 3258.5,650.4183 L2521.5,650.4183 A2.5,2.5 0 0 1 2519,647.9183 L2519,452.4383 A2.5,2.5 0 0 1 2521.5,449.9383" style="stroke:#000;stroke-width:1.5"/><line style="stroke:#000;stroke-width:1.5" x1="2519" x2="2659.265" y1="472.427" y2="472.427"/><text x="2523" y="465.473" fill="#000" font-family="sans-serif" font-size="14" font-weight="700" lengthAdjust="spacing" textLength="127.265">Machine Learning</text></g><g id="ent0002" class="entity" data-qualified-name="Client Machine.Browser" data-source-line="8"><rect style="stroke:#181818;stroke-width:.5" width="205.424" height="55.977" x="246.29" y="83.488" fill="#F1F1F1" rx="2.5" ry="2.5"/><polygon fill="#F1F1F1" points="434.714 88.488 434.714 102.488 446.714 102.488 446.714 94.488 440.714 88.488 434.714 88.488" style="stroke:#181818;stroke-width:.5;stroke-linejoin:miter;stroke-miterlimit:10"/><line style="stroke:#181818;stroke-width:.5" x1="440.714" x2="440.714" y1="88.488" y2="94.488"/><line style="stroke:#181818;stroke-width:.5" x1="446.714" x2="440.714" y1="94.488" y2="94.488"/><text x="256.29" y="110.023" fill="#000" font-family="sans-serif" font-size="14" lengthAdjust="spacing" textLength="86.851">Web Browser</text><text x="256.29" y="126.512" fill="#000" font-family="sans-serif" font-size="14" lengthAdjust="spacing" textLength="175.424">(Chrome / Edge / Firefox)</text></g><g id="ent0004" class="entity" data-qualified-name="Client Machine.Angular Application.Angular UI" data-source-line="11"><rect style="stroke:#181818;stroke-width:.5" width="101.436" height="39.488" x="326.28" y="199.458" fill="#F1F1F1" rx="2.5" ry="2.5"/><polygon fill="#F1F1F1" points="410.716 204.458 410.716 218.458 422.716 218.458 422.716 210.458 416.716 204.458 410.716 204.458" style="stroke:#181818;stroke-width:.5;stroke-linejoin:miter;stroke-miterlimit:10"/><line style="stroke:#181818;stroke-width:.5" x1="416.716" x2="416.716" y1="204.458" y2="210.458"/><line style="stroke:#181818;stroke-width:.5" x1="422.716" x2="416.716" y1="210.458" y2="210.458"/><text x="336.28" y="225.993" fill="#000" font-family="sans-serif" font-size="14" lengthAdjust="spacing" textLength="71.436">Angular UI</text></g><g id="ent0005" class="entity" data-qualified-name="Client Machine.Angular Application.Components" data-source-line="12"><rect style="stroke:#181818;stroke-width:.5" width="116.317" height="39.488" x="55.84" y="199.458" fill="#F1F1F1" rx="2.5" ry="2.5"/><polygon fill="#F1F1F1" points="155.157 204.458 155.157 218.458 167.157 218.458 167.157 210.458 161.157 204.458 155.157 204.458" style="stroke:#181818;stroke-width:.5;stroke-linejoin:miter;stroke-miterlimit:10"/><line style="stroke:#181818;stroke-width:.5" x1="161.157" x2="161.157" y1="204.458" y2="210.458"/><line style="stroke:#181818;stroke-width:.5" x1="167.157" x2="161.157" y1="210.458" y2="210.458"/><text x="65.84" y="225.993" fill="#000" font-family="sans-serif" font-size="14" lengthAdjust="spacing" textLength="86.317">Components</text></g><g id="ent0006" class="entity" data-qualified-name="Client Machine.Angular Application.Services" data-source-line="13"><rect style="stroke:#181818;stroke-width:.5" width="84.469" height="39.488" x="206.77" y="199.458" fill="#F1F1F1" rx="2.5" ry="2.5"/><polygon fill="#F1F1F1" points="274.239 204.458 274.239 218.458 286.239 218.458 286.239 210.458 280.239 204.458 274.239 204.458" style="stroke:#181818;stroke-width:.5;stroke-linejoin:miter;stroke-miterlimit:10"/><line style="stroke:#181818;stroke-width:.5" x1="280.239" x2="280.239" y1="204.458" y2="210.458"/><line style="stroke:#181818;stroke-width:.5" x1="286.239" x2="280.239" y1="210.458" y2="210.458"/><text x="216.77" y="225.993" fill="#000" font-family="sans-serif" font-size="14" lengthAdjust="spacing" textLength="54.469">Services</text></g><g id="ent0007" class="entity" data-qualified-name="Client Machine.Angular Application.Guards" data-source-line="14"><rect style="stroke:#181818;stroke-width:.5" width="78.214" height="39.488" x="74.89" y="346.448" fill="#F1F1F1" rx="2.5" ry="2.5"/><polygon fill="#F1F1F1" points="136.104 351.448 136.104 365.448 148.104 365.448 148.104 357.448 142.104 351.448 136.104 351.448" style="stroke:#181818;stroke-width:.5;stroke-linejoin:miter;stroke-miterlimit:10"/><line style="stroke:#181818;stroke-width:.5" x1="142.104" x2="142.104" y1="351.448" y2="357.448"/><line style="stroke:#181818;stroke-width:.5" x1="148.104" x2="142.104" y1="357.448" y2="357.448"/><text x="84.89" y="372.983" fill="#000" font-family="sans-serif" font-size="14" lengthAdjust="spacing" textLength="48.214">Guards</text></g><g id="ent0008" class="entity" data-qualified-name="Client Machine.Angular Application.JWT Token Storage" data-source-line="15"><rect style="stroke:#181818;stroke-width:.5" width="157.531" height="39.488" x="188.23" y="346.448" fill="#F1F1F1" rx="2.5" ry="2.5"/><polygon fill="#F1F1F1" points="328.761 351.448 328.761 365.448 340.761 365.448 340.761 357.448 334.761 351.448 328.761 351.448" style="stroke:#181818;stroke-width:.5;stroke-linejoin:miter;stroke-miterlimit:10"/><line style="stroke:#181818;stroke-width:.5" x1="334.761" x2="334.761" y1="351.448" y2="357.448"/><line style="stroke:#181818;stroke-width:.5" x1="340.761" x2="334.761" y1="357.448" y2="357.448"/><text x="198.23" y="372.983" fill="#000" font-family="sans-serif" font-size="14" lengthAdjust="spacing" textLength="127.531">JWT Token Storage</text></g><g id="ent0012" class="entity" data-qualified-name="Application Server.FastAPI Backend.Authentication API" data-source-line="25"><rect style="stroke:#181818;stroke-width:.5" width="155.378" height="39.488" x="532.31" y="346.448" fill="#F1F1F1" rx="2.5" ry="2.5"/><polygon fill="#F1F1F1" points="670.688 351.448 670.688 365.448 682.688 365.448 682.688 357.448 676.688 351.448 670.688 351.448" style="stroke:#181818;stroke-width:.5;stroke-linejoin:miter;stroke-miterlimit:10"/><line style="stroke:#181818;stroke-width:.5" x1="676.688" x2="676.688" y1="351.448" y2="357.448"/><line style="stroke:#181818;stroke-width:.5" x1="682.688" x2="676.688" y1="357.448" y2="357.448"/><text x="542.31" y="372.983" fill="#000" font-family="sans-serif" font-size="14" lengthAdjust="spacing" textLength="125.378">Authentication API</text></g><g id="ent0013" class="entity" data-qualified-name="Application Server.FastAPI Backend.Employee API" data-source-line="26"><rect style="stroke:#181818;stroke-width:.5" width="120.891" height="39.488" x="722.55" y="346.448" fill="#F1F1F1" rx="2.5" ry="2.5"/><polygon fill="#F1F1F1" points="826.441 351.448 826.441 365.448 838.441 365.448 838.441 357.448 832.441 351.448 826.441 351.448" style="stroke:#181818;stroke-width:.5;stroke-linejoin:miter;stroke-miterlimit:10"/><line style="stroke:#181818;stroke-width:.5" x1="832.441" x2="832.441" y1="351.448" y2="357.448"/><line style="stroke:#181818;stroke-width:.5" x1="838.441" x2="832.441" y1="357.448" y2="357.448"/><text x="732.55" y="372.983" fill="#000" font-family="sans-serif" font-size="14" lengthAdjust="spacing" textLength="90.891">Employee API</text></g><g id="ent0014" class="entity" data-qualified-name="Application Server.FastAPI Backend.Manager API" data-source-line="27"><rect style="stroke:#181818;stroke-width:.5" width="114.328" height="39.488" x="878.84" y="346.448" fill="#F1F1F1" rx="2.5" ry="2.5"/><polygon fill="#F1F1F1" points="976.168 351.448 976.168 365.448 988.168 365.448 988.168 357.448 982.168 351.448 976.168 351.448" style="stroke:#181818;stroke-width:.5;stroke-linejoin:miter;stroke-miterlimit:10"/><line style="stroke:#181818;stroke-width:.5" x1="982.168" x2="982.168" y1="351.448" y2="357.448"/><line style="stroke:#181818;stroke-width:.5" x1="988.168" x2="982.168" y1="357.448" y2="357.448"/><text x="888.84" y="372.983" fill="#000" font-family="sans-serif" font-size="14" lengthAdjust="spacing" textLength="84.328">Manager API</text></g><g id="ent0015" class="entity" data-qualified-name="Application Server.FastAPI Backend.HR API" data-source-line="28"><rect style="stroke:#181818;stroke-width:.5" width="75.001" height="39.488" x="1028.5" y="346.448" fill="#F1F1F1" rx="2.5" ry="2.5"/><polygon fill="#F1F1F1" points="1086.501 351.448 1086.501 365.448 1098.501 365.448 1098.501 357.448 1092.501 351.448 1086.501 351.448" style="stroke:#181818;stroke-width:.5;stroke-linejoin:miter;stroke-miterlimit:10"/><line style="stroke:#181818;stroke-width:.5" x1="1092.501" x2="1092.501" y1="351.448" y2="357.448"/><line style="stroke:#181818;stroke-width:.5" x1="1098.501" x2="1092.501" y1="357.448" y2="357.448"/><text x="1038.5" y="372.983" fill="#000" font-family="sans-serif" font-size="14" lengthAdjust="spacing" textLength="45.001">HR API</text></g><g id="ent0016" class="entity" data-qualified-name="Application Server.FastAPI Backend.Attendance API" data-source-line="29"><rect style="stroke:#181818;stroke-width:.5" width="132.683" height="39.488" x="1138.66" y="346.448" fill="#F1F1F1" rx="2.5" ry="2.5"/><polygon fill="#F1F1F1" points="1254.343 351.448 1254.343 365.448 1266.343 365.448 1266.343 357.448 1260.343 351.448 1254.343 351.448" style="stroke:#181818;stroke-width:.5;stroke-linejoin:miter;stroke-miterlimit:10"/><line style="stroke:#181818;stroke-width:.5" x1="1260.343" x2="1260.343" y1="351.448" y2="357.448"/><line style="stroke:#181818;stroke-width:.5" x1="1266.343" x2="1260.343" y1="357.448" y2="357.448"/><text x="1148.66" y="372.983" fill="#000" font-family="sans-serif" font-size="14" lengthAdjust="spacing" textLength="102.683">Attendance API</text></g><g id="ent0017" class="entity" data-qualified-name="Application Server.FastAPI Backend.Leave API" data-source-line="30"><rect style="stroke:#181818;stroke-width:.5" width="93.902" height="39.488" x="1306.05" y="346.448" fill="#F1F1F1" rx="2.5" ry="2.5"/><polygon fill="#F1F1F1" points="1382.952 351.448 1382.952 365.448 1394.952 365.448 1394.952 357.448 1388.952 351.448 1382.952 351.448" style="stroke:#181818;stroke-width:.5;stroke-linejoin:miter;stroke-miterlimit:10"/><line style="stroke:#181818;stroke-width:.5" x1="1388.952" x2="1388.952" y1="351.448" y2="357.448"/><line style="stroke:#181818;stroke-width:.5" x1="1394.952" x2="1388.952" y1="357.448" y2="357.448"/><text x="1316.05" y="372.983" fill="#000" font-family="sans-serif" font-size="14" lengthAdjust="spacing" textLength="63.902">Leave API</text></g><g id="ent0018" class="entity" data-qualified-name="Application Server.FastAPI Backend.Project API" data-source-line="31"><rect style="stroke:#181818;stroke-width:.5" width="102.393" height="39.488" x="1434.8" y="346.448" fill="#F1F1F1" rx="2.5" ry="2.5"/><polygon fill="#F1F1F1" points="1520.193 351.448 1520.193 365.448 1532.193 365.448 1532.193 357.448 1526.193 351.448 1520.193 351.448" style="stroke:#181818;stroke-width:.5;stroke-linejoin:miter;stroke-miterlimit:10"/><line style="stroke:#181818;stroke-width:.5" x1="1526.193" x2="1526.193" y1="351.448" y2="357.448"/><line style="stroke:#181818;stroke-width:.5" x1="1532.193" x2="1526.193" y1="357.448" y2="357.448"/><text x="1444.8" y="372.983" fill="#000" font-family="sans-serif" font-size="14" lengthAdjust="spacing" textLength="72.393">Project API</text></g><g id="ent0019" class="entity" data-qualified-name="Application Server.FastAPI Backend.Task API" data-source-line="32"><rect style="stroke:#181818;stroke-width:.5" width="87.764" height="39.488" x="1572.12" y="346.448" fill="#F1F1F1" rx="2.5" ry="2.5"/><polygon fill="#F1F1F1" points="1642.884 351.448 1642.884 365.448 1654.884 365.448 1654.884 357.448 1648.884 351.448 1642.884 351.448" style="stroke:#181818;stroke-width:.5;stroke-linejoin:miter;stroke-miterlimit:10"/><line style="stroke:#181818;stroke-width:.5" x1="1648.884" x2="1648.884" y1="351.448" y2="357.448"/><line style="stroke:#181818;stroke-width:.5" x1="1654.884" x2="1648.884" y1="357.448" y2="357.448"/><text x="1582.12" y="372.983" fill="#000" font-family="sans-serif" font-size="14" lengthAdjust="spacing" textLength="57.764">Task API</text></g><g id="ent0020" class="entity" data-qualified-name="Application Server.FastAPI Backend.Meeting API" data-source-line="33"><rect style="stroke:#181818;stroke-width:.5" width="110.22" height="39.488" x="1694.89" y="346.448" fill="#F1F1F1" rx="2.5" ry="2.5"/><polygon fill="#F1F1F1" points="1788.11 351.448 1788.11 365.448 1800.11 365.448 1800.11 357.448 1794.11 351.448 1788.11 351.448" style="stroke:#181818;stroke-width:.5;stroke-linejoin:miter;stroke-miterlimit:10"/><line style="stroke:#181818;stroke-width:.5" x1="1794.11" x2="1794.11" y1="351.448" y2="357.448"/><line style="stroke:#181818;stroke-width:.5" x1="1800.11" x2="1794.11" y1="357.448" y2="357.448"/><text x="1704.89" y="372.983" fill="#000" font-family="sans-serif" font-size="14" lengthAdjust="spacing" textLength="80.22">Meeting API</text></g><g id="ent0021" class="entity" data-qualified-name="Application Server.FastAPI Backend.WorkLog API" data-source-line="34"><rect style="stroke:#181818;stroke-width:.5" width="115.142" height="39.488" x="1840.43" y="346.448" fill="#F1F1F1" rx="2.5" ry="2.5"/><polygon fill="#F1F1F1" points="1938.572 351.448 1938.572 365.448 1950.572 365.448 1950.572 357.448 1944.572 351.448 1938.572 351.448" style="stroke:#181818;stroke-width:.5;stroke-linejoin:miter;stroke-miterlimit:10"/><line style="stroke:#181818;stroke-width:.5" x1="1944.572" x2="1944.572" y1="351.448" y2="357.448"/><line style="stroke:#181818;stroke-width:.5" x1="1950.572" x2="1944.572" y1="357.448" y2="357.448"/><text x="1850.43" y="372.983" fill="#000" font-family="sans-serif" font-size="14" lengthAdjust="spacing" textLength="85.142">WorkLog API</text></g><g id="ent0022" class="entity" data-qualified-name="Application Server.FastAPI Backend.Prediction API" data-source-line="35"><rect style="stroke:#181818;stroke-width:.5" width="123.728" height="39.488" x="1990.14" y="346.448" fill="#F1F1F1" rx="2.5" ry="2.5"/><polygon fill="#F1F1F1" points="2096.867 351.448 2096.867 365.448 2108.867 365.448 2108.867 357.448 2102.867 351.448 2096.867 351.448" style="stroke:#181818;stroke-width:.5;stroke-linejoin:miter;stroke-miterlimit:10"/><line style="stroke:#181818;stroke-width:.5" x1="2102.867" x2="2102.867" y1="351.448" y2="357.448"/><line style="stroke:#181818;stroke-width:.5" x1="2108.867" x2="2102.867" y1="357.448" y2="357.448"/><text x="2000.14" y="372.983" fill="#000" font-family="sans-serif" font-size="14" lengthAdjust="spacing" textLength="93.728">Prediction API</text></g><g id="ent0023" class="entity" data-qualified-name="Application Server.FastAPI Backend.Notification API" data-source-line="36"><rect style="stroke:#181818;stroke-width:.5" width="134.754" height="39.488" x="2148.62" y="346.448" fill="#F1F1F1" rx="2.5" ry="2.5"/><polygon fill="#F1F1F1" points="2266.374 351.448 2266.374 365.448 2278.374 365.448 2278.374 357.448 2272.374 351.448 2266.374 351.448" style="stroke:#181818;stroke-width:.5;stroke-linejoin:miter;stroke-miterlimit:10"/><line style="stroke:#181818;stroke-width:.5" x1="2272.374" x2="2272.374" y1="351.448" y2="357.448"/><line style="stroke:#181818;stroke-width:.5" x1="2278.374" x2="2272.374" y1="357.448" y2="357.448"/><text x="2158.62" y="372.983" fill="#000" font-family="sans-serif" font-size="14" lengthAdjust="spacing" textLength="104.754">Notification API</text></g><g id="ent0024" class="entity" data-qualified-name="Application Server.FastAPI Backend.Business Services" data-source-line="38"><rect style="stroke:#181818;stroke-width:.5" width="157.585" height="46.488" x="1274.21" y="484.938" fill="#F1F1F1" rx="2.5" ry="2.5"/><rect style="stroke:#181818;stroke-width:.5" width="15" height="10" x="1411.795" y="489.938" fill="#F1F1F1"/><rect style="stroke:#181818;stroke-width:.5" width="4" height="2" x="1409.795" y="491.938" fill="#F1F1F1"/><rect style="stroke:#181818;stroke-width:.5" width="4" height="2" x="1409.795" y="495.938" fill="#F1F1F1"/><text x="1289.21" y="518.473" fill="#000" font-family="sans-serif" font-size="14" lengthAdjust="spacing" textLength="117.585">Business Services</text></g><g id="ent0025" class="entity" data-qualified-name="Application Server.FastAPI Backend.Repository Layer" data-source-line="39"><rect style="stroke:#181818;stroke-width:.5" width="152.595" height="46.488" x="1276.7" y="591.428" fill="#F1F1F1" rx="2.5" ry="2.5"/><rect style="stroke:#181818;stroke-width:.5" width="15" height="10" x="1409.295" y="596.428" fill="#F1F1F1"/><rect style="stroke:#181818;stroke-width:.5" width="4" height="2" x="1407.295" y="598.428" fill="#F1F1F1"/><rect style="stroke:#181818;stroke-width:.5" width="4" height="2" x="1407.295" y="602.428" fill="#F1F1F1"/><text x="1291.7" y="624.963" fill="#000" font-family="sans-serif" font-size="14" lengthAdjust="spacing" textLength="112.595">Repository Layer</text></g><g id="ent0026" class="entity" data-qualified-name="Application Server.FastAPI Backend.SQLAlchemy ORM" data-source-line="40"><rect style="stroke:#181818;stroke-width:.5" width="159.848" height="46.488" x="1273.08" y="697.918" fill="#F1F1F1" rx="2.5" ry="2.5"/><rect style="stroke:#181818;stroke-width:.5" width="15" height="10" x="1412.928" y="702.918" fill="#F1F1F1"/><rect style="stroke:#181818;stroke-width:.5" width="4" height="2" x="1410.928" y="704.918" fill="#F1F1F1"/><rect style="stroke:#181818;stroke-width:.5" width="4" height="2" x="1410.928" y="708.918" fill="#F1F1F1"/><text x="1288.08" y="731.453" fill="#000" font-family="sans-serif" font-size="14" lengthAdjust="spacing" textLength="119.848">SQLAlchemy ORM</text></g><g id="ent0027" class="entity" data-qualified-name="Application Server.FastAPI Backend.Pydantic Schemas" data-source-line="41"><rect style="stroke:#181818;stroke-width:.5" width="160.306" height="46.488" x="2318.85" y="342.948" fill="#F1F1F1" rx="2.5" ry="2.5"/><rect style="stroke:#181818;stroke-width:.5" width="15" height="10" x="2459.156" y="347.948" fill="#F1F1F1"/><rect style="stroke:#181818;stroke-width:.5" width="4" height="2" x="2457.156" y="349.948" fill="#F1F1F1"/><rect style="stroke:#181818;stroke-width:.5" width="4" height="2" x="2457.156" y="353.948" fill="#F1F1F1"/><text x="2333.85" y="376.483" fill="#000" font-family="sans-serif" font-size="14" lengthAdjust="spacing" textLength="120.306">Pydantic Schemas</text></g><g id="ent0029" class="entity" data-qualified-name="Application Server.Machine Learning.Feature Engineering" data-source-line="47"><rect style="stroke:#181818;stroke-width:.5" width="165.454" height="39.488" x="2535.27" y="594.928" fill="#F1F1F1" rx="2.5" ry="2.5"/><polygon fill="#F1F1F1" points="2683.724 599.928 2683.724 613.928 2695.724 613.928 2695.724 605.928 2689.724 599.928 2683.724 599.928" style="stroke:#181818;stroke-width:.5;stroke-linejoin:miter;stroke-miterlimit:10"/><line style="stroke:#181818;stroke-width:.5" x1="2689.724" x2="2689.724" y1="599.928" y2="605.928"/><line style="stroke:#181818;stroke-width:.5" x1="2695.724" x2="2689.724" y1="605.928" y2="605.928"/><text x="2545.27" y="621.463" fill="#000" font-family="sans-serif" font-size="14" lengthAdjust="spacing" textLength="135.454">Feature Engineering</text></g><g id="ent0030" class="entity" data-qualified-name="Application Server.Machine Learning.burnout_model.pkl" data-source-line="49"><rect style="stroke:#181818;stroke-width:.5" width="159.24" height="39.488" x="2735.38" y="594.928" fill="#F1F1F1" rx="2.5" ry="2.5"/><polygon fill="#F1F1F1" points="2877.62 599.928 2877.62 613.928 2889.62 613.928 2889.62 605.928 2883.62 599.928 2877.62 599.928" style="stroke:#181818;stroke-width:.5;stroke-linejoin:miter;stroke-miterlimit:10"/><line style="stroke:#181818;stroke-width:.5" x1="2883.62" x2="2883.62" y1="599.928" y2="605.928"/><line style="stroke:#181818;stroke-width:.5" x1="2889.62" x2="2883.62" y1="605.928" y2="605.928"/><text x="2745.38" y="621.463" fill="#000" font-family="sans-serif" font-size="14" lengthAdjust="spacing" textLength="129.24">burnout_model.pkl</text></g><g id="ent0031" class="entity" data-qualified-name="Application Server.Machine Learning.productivity_model.pkl" data-source-line="51"><rect style="stroke:#181818;stroke-width:.5" width="185.736" height="39.488" x="2929.13" y="594.928" fill="#F1F1F1" rx="2.5" ry="2.5"/><polygon fill="#F1F1F1" points="3097.866 599.928 3097.866 613.928 3109.866 613.928 3109.866 605.928 3103.866 599.928 3097.866 599.928" style="stroke:#181818;stroke-width:.5;stroke-linejoin:miter;stroke-miterlimit:10"/><line style="stroke:#181818;stroke-width:.5" x1="3103.866" x2="3103.866" y1="599.928" y2="605.928"/><line style="stroke:#181818;stroke-width:.5" x1="3109.866" x2="3103.866" y1="605.928" y2="605.928"/><text x="2939.13" y="621.463" fill="#000" font-family="sans-serif" font-size="14" lengthAdjust="spacing" textLength="155.736">productivity_model.pkl</text></g><g id="ent0032" class="entity" data-qualified-name="Application Server.Machine Learning.scaler.pkl" data-source-line="53"><rect style="stroke:#181818;stroke-width:.5" width="95.085" height="39.488" x="3149.46" y="594.928" fill="#F1F1F1" rx="2.5" ry="2.5"/><polygon fill="#F1F1F1" points="3227.545 599.928 3227.545 613.928 3239.545 613.928 3239.545 605.928 3233.545 599.928 3227.545 599.928" style="stroke:#181818;stroke-width:.5;stroke-linejoin:miter;stroke-miterlimit:10"/><line style="stroke:#181818;stroke-width:.5" x1="3233.545" x2="3233.545" y1="599.928" y2="605.928"/><line style="stroke:#181818;stroke-width:.5" x1="3239.545" x2="3233.545" y1="605.928" y2="605.928"/><text x="3159.46" y="621.463" fill="#000" font-family="sans-serif" font-size="14" lengthAdjust="spacing" textLength="65.085">scaler.pkl</text></g><g id="ent0033" class="entity" data-qualified-name="Application Server.Machine Learning.Prediction Engine" data-source-line="55"><rect style="stroke:#181818;stroke-width:.5" width="157.838" height="46.488" x="2736.08" y="484.938" fill="#F1F1F1" rx="2.5" ry="2.5"/><rect style="stroke:#181818;stroke-width:.5" width="15" height="10" x="2873.918" y="489.938" fill="#F1F1F1"/><rect style="stroke:#181818;stroke-width:.5" width="4" height="2" x="2871.918" y="491.938" fill="#F1F1F1"/><rect style="stroke:#181818;stroke-width:.5" width="4" height="2" x="2871.918" y="495.938" fill="#F1F1F1"/><text x="2751.08" y="518.473" fill="#000" font-family="sans-serif" font-size="14" lengthAdjust="spacing" textLength="117.838">Prediction Engine</text></g><g id="ent0009" class="entity" data-qualified-name="HTTP . HTTPS" data-source-line="19"><path fill="#F1F1F1" d="M495.6917,96.6951 C499.7625,89.1502 505.0355,89.6404 509.6553,96.1496 C512.9233,90.3349 519.0879,90.1214 522.5349,95.9516 C525.8141,88.5232 531.2776,88.2116 535.937,94.6142 C540.3374,87.632 547.0161,86.7223 550.9321,95.0874 C553.8725,89.3112 559.4376,89.9903 562.6652,94.7681 C567.0329,87.4092 573.7355,89.259 577.4387,95.4904 C581.6426,90.2123 588.5185,90.1699 590.983,97.3772 C594.8507,91.4552 600.781,90.8487 605.0042,96.963 C613.567,98.0694 619.1037,105.0236 612.0925,113.0096 C615.9679,120.7629 614.87,125.9391 605.1845,126.9932 C602.2879,135.1854 597.7374,135.9056 591.6167,130.1236 C588.1645,137.4294 580.9172,136.2935 577.0659,130.5693 C572.4925,138.1228 567.8766,136.5828 563.246,130.6278 C559.5277,137.7371 554.3977,138.9021 549.2195,132.0998 C545.551,137.5366 540.5368,137.9536 536.4851,132.5498 C531.7157,137.3016 527.2783,137.8027 523.8936,131.0361 C518.9846,138.3894 511.2729,137.8193 508.3874,129.0855 C502.4964,135.3848 498.2907,133.1424 494.5179,126.7676 C486.5958,126.3755 481.898,121.4617 485.9644,113.3991 C481.017,104.2128 486.0601,97.3915 495.6917,96.6951" style="stroke:#181818;stroke-width:.5"/><text x="501.4" y="116.763" fill="#000" font-family="sans-serif" font-size="14" lengthAdjust="spacing" textLength="95.204">HTTP / HTTPS</text></g><g id="ent0034" class="entity" data-qualified-name="DB" data-source-line="61"><path fill="#F1F1F1" d="M1287.97,814.3983 C1287.97,804.3983 1352.9993,804.3983 1352.9993,804.3983 C1352.9993,804.3983 1418.0286,804.3983 1418.0286,814.3983 L1418.0286,856.3748 C1418.0286,866.3748 1352.9993,866.3748 1352.9993,866.3748 C1352.9993,866.3748 1287.97,866.3748 1287.97,856.3748 L1287.97,814.3983" style="stroke:#181818;stroke-width:.5"/><path fill="none" d="M1287.97,814.3983 C1287.97,824.3983 1352.9993,824.3983 1352.9993,824.3983 C1352.9993,824.3983 1418.0286,824.3983 1418.0286,814.3983" style="stroke:#181818;stroke-width:.5"/><text x="1297.97" y="841.933" fill="#000" font-family="sans-serif" font-size="14" lengthAdjust="spacing" textLength="110.059">SQLite Database</text><text x="1297.97" y="858.422" fill="#000" font-family="sans-serif" font-size="14" lengthAdjust="spacing" textLength="55.016">(dev.db)</text></g><g id="lnk35" class="link" data-entity-1="ent0002" data-entity-2="ent0004" data-link-type="dependency" data-source-line="63"><path id="Browser-to-Angular UI" fill="none" d="M377,139.7783 C377,158.4783 377,177.5383 377,194.2483" style="stroke:#181818;stroke-width:1"/><polygon fill="#181818" points="377 199.248 381 190.248 377 194.248 373 190.248 377 199.248" style="stroke:#181818;stroke-width:1;stroke-linejoin:miter;stroke-miterlimit:10"/></g><g id="lnk36" class="link" data-entity-1="ent0004" data-entity-2="ent0012" data-link-type="dependency" data-source-line="65"><path id="Angular UI-to-Authentication API" fill="none" d="M427.97,235.3783 C485.73,235.3783 571.96,235.3783 571.96,235.3783 C571.96,235.3783 571.96,304.3483 571.96,341.0383" style="stroke:#181818;stroke-width:1"/><polygon fill="#181818" points="571.96 346.038 575.96 337.038 571.96 341.038 567.96 337.038 571.96 346.038" style="stroke:#181818;stroke-width:1;stroke-linejoin:miter;stroke-miterlimit:10"/></g><g id="lnk37" class="link" data-entity-1="ent0004" data-entity-2="ent0013" data-link-type="dependency" data-source-line="66"><path id="Angular UI-to-Employee API" fill="none" d="M428.01,232.3783 C537.05,232.3783 783,232.3783 783,232.3783 C783,232.3783 783,303.8283 783,341.1583" style="stroke:#181818;stroke-width:1"/><polygon fill="#181818" points="783 346.158 787 337.158 783 341.158 779 337.158 783 346.158" style="stroke:#181818;stroke-width:1;stroke-linejoin:miter;stroke-miterlimit:10"/></g><g id="lnk38" class="link" data-entity-1="ent0004" data-entity-2="ent0014" data-link-type="dependency" data-source-line="67"><path id="Angular UI-to-Manager API" fill="none" d="M428.09,229.3783 C566.09,229.3783 936,229.3783 936,229.3783 C936,229.3783 936,302.9483 936,341.0083" style="stroke:#181818;stroke-width:1"/><polygon fill="#181818" points="936 346.008 940 337.008 936 341.008 932 337.008 936 346.008" style="stroke:#181818;stroke-width:1;stroke-linejoin:miter;stroke-miterlimit:10"/></g><g id="lnk39" class="link" data-entity-1="ent0004" data-entity-2="ent0015" data-link-type="dependency" data-source-line="68"><path id="Angular UI-to-HR API" fill="none" d="M427.94,225.3783 C587.34,225.3783 1066,225.3783 1066,225.3783 C1066,225.3783 1066,302.0783 1066,341.0183" style="stroke:#181818;stroke-width:1"/><polygon fill="#181818" points="1066 346.018 1070 337.018 1066 341.018 1062 337.018 1066 346.018" style="stroke:#181818;stroke-width:1;stroke-linejoin:miter;stroke-miterlimit:10"/></g><g id="lnk40" class="link" data-entity-1="ent0004" data-entity-2="ent0016" data-link-type="dependency" data-source-line="69"><path id="Angular UI-to-Attendance API" fill="none" d="M428.17,222.3783 C608.69,222.3783 1205,222.3783 1205,222.3783 C1205,222.3783 1205,301.6783 1205,341.1983" style="stroke:#181818;stroke-width:1"/><polygon fill="#181818" points="1205 346.198 1209 337.198 1205 341.198 1201 337.198 1205 346.198" style="stroke:#181818;stroke-width:1;stroke-linejoin:miter;stroke-miterlimit:10"/></g><g id="lnk41" class="link" data-entity-1="ent0004" data-entity-2="ent0017" data-link-type="dependency" data-source-line="70"><path id="Angular UI-to-Leave API" fill="none" d="M428.1,219.3783 C628.92,219.3783 1353,219.3783 1353,219.3783 C1353,219.3783 1353,300.8783 1353,341.0883" style="stroke:#181818;stroke-width:1"/><polygon fill="#181818" points="1353 346.088 1357 337.088 1353 341.088 1349 337.088 1353 346.088" style="stroke:#181818;stroke-width:1;stroke-linejoin:miter;stroke-miterlimit:10"/></g><g id="lnk42" class="link" data-entity-1="ent0004" data-entity-2="ent0018" data-link-type="dependency" data-source-line="71"><path id="Angular UI-to-Project API" fill="none" d="M427.9,216.3783 C645.43,216.3783 1486,216.3783 1486,216.3783 C1486,216.3783 1486,300.0983 1486,340.9883" style="stroke:#181818;stroke-width:1"/><polygon fill="#181818" points="1486 345.988 1490 336.988 1486 340.988 1482 336.988 1486 345.988" style="stroke:#181818;stroke-width:1;stroke-linejoin:miter;stroke-miterlimit:10"/></g><g id="lnk43" class="link" data-entity-1="ent0004" data-entity-2="ent0019" data-link-type="dependency" data-source-line="72"><path id="Angular UI-to-Task API" fill="none" d="M427.88,212.3783 C661.03,212.3783 1616,212.3783 1616,212.3783 C1616,212.3783 1616,299.3883 1616,341.0883" style="stroke:#181818;stroke-width:1"/><polygon fill="#181818" points="1616 346.088 1620 337.088 1616 341.088 1612 337.088 1616 346.088" style="stroke:#181818;stroke-width:1;stroke-linejoin:miter;stroke-miterlimit:10"/></g><g id="lnk44" class="link" data-entity-1="ent0004" data-entity-2="ent0020" data-link-type="dependency" data-source-line="73"><path id="Angular UI-to-Meeting API" fill="none" d="M427.9,209.3783 C676.39,209.3783 1750,209.3783 1750,209.3783 C1750,209.3783 1750,298.6583 1750,341.0083" style="stroke:#181818;stroke-width:1"/><polygon fill="#181818" points="1750 346.008 1754 337.008 1750 341.008 1746 337.008 1750 346.008" style="stroke:#181818;stroke-width:1;stroke-linejoin:miter;stroke-miterlimit:10"/></g><g id="lnk45" class="link" data-entity-1="ent0004" data-entity-2="ent0021" data-link-type="dependency" data-source-line="74"><path id="Angular UI-to-WorkLog API" fill="none" d="M428.04,206.3783 C692.85,206.3783 1898,206.3783 1898,206.3783 C1898,206.3783 1898,297.9483 1898,340.9483" style="stroke:#181818;stroke-width:1"/><polygon fill="#181818" points="1898 345.948 1902 336.948 1898 340.948 1894 336.948 1898 345.948" style="stroke:#181818;stroke-width:1;stroke-linejoin:miter;stroke-miterlimit:10"/></g><g id="lnk46" class="link" data-entity-1="ent0004" data-entity-2="ent0022" data-link-type="dependency" data-source-line="75"><path id="Angular UI-to-Prediction API" fill="none" d="M428.04,202.3783 C708.76,202.3783 2052,202.3783 2052,202.3783 C2052,202.3783 2052,297.3583 2052,341.1083" style="stroke:#181818;stroke-width:1"/><polygon fill="#181818" points="2052 346.108 2056 337.108 2052 341.108 2048 337.108 2052 346.108" style="stroke:#181818;stroke-width:1;stroke-linejoin:miter;stroke-miterlimit:10"/></g><g id="lnk47" class="link" data-entity-1="ent0012" data-entity-2="ent0024" data-link-type="dependency" data-source-line="77"><path id="Authentication API-to-Business Services" fill="none" d="M610,386.2883 C610,428.4783 610,522.3783 610,522.3783 C610,522.3783 1077.39,522.3783 1268.84,522.3783" style="stroke:#181818;stroke-width:1"/><polygon fill="#181818" points="1273.84 522.378 1264.84 518.378 1268.84 522.378 1264.84 526.378 1273.84 522.378" style="stroke:#181818;stroke-width:1;stroke-linejoin:miter;stroke-miterlimit:10"/></g><g id="lnk48" class="link" data-entity-1="ent0013" data-entity-2="ent0024" data-link-type="dependency" data-source-line="78"><path id="Employee API-to-Business Services" fill="none" d="M783,386.2083 C783,426.2483 783,512.3783 783,512.3783 C783,512.3783 1112.12,512.3783 1268.74,512.3783" style="stroke:#181818;stroke-width:1"/><polygon fill="#181818" points="1273.74 512.378 1264.74 508.378 1268.74 512.378 1264.74 516.378 1273.74 512.378" style="stroke:#181818;stroke-width:1;stroke-linejoin:miter;stroke-miterlimit:10"/></g><g id="lnk49" class="link" data-entity-1="ent0014" data-entity-2="ent0024" data-link-type="dependency" data-source-line="79"><path id="Manager API-to-Business Services" fill="none" d="M936,386.4383 C936,424.5983 936,503.3783 936,503.3783 C936,503.3783 1148.18,503.3783 1269.08,503.3783" style="stroke:#181818;stroke-width:1"/><polygon fill="#181818" points="1274.08 503.378 1265.08 499.378 1269.08 503.378 1265.08 507.378 1274.08 503.378" style="stroke:#181818;stroke-width:1;stroke-linejoin:miter;stroke-miterlimit:10"/></g><g id="lnk50" class="link" data-entity-1="ent0015" data-entity-2="ent0024" data-link-type="dependency" data-source-line="80"><path id="HR API-to-Business Services" fill="none" d="M1066,386.2183 C1066,422.2783 1066,494.3783 1066,494.3783 C1066,494.3783 1183.87,494.3783 1268.82,494.3783" style="stroke:#181818;stroke-width:1"/><polygon fill="#181818" points="1273.82 494.378 1264.82 490.378 1268.82 494.378 1264.82 498.378 1273.82 494.378" style="stroke:#181818;stroke-width:1;stroke-linejoin:miter;stroke-miterlimit:10"/></g><g id="lnk51" class="link" data-entity-1="ent0016" data-entity-2="ent0024" data-link-type="dependency" data-source-line="81"><path id="Attendance API-to-Business Services" fill="none" d="M1271.66,366.3783 C1282.43,366.3783 1290.13,366.3783 1290.13,366.3783 C1290.13,366.3783 1290.13,439.0783 1290.13,479.4483" style="stroke:#181818;stroke-width:1"/><polygon fill="#181818" points="1290.13 484.448 1294.13 475.448 1290.13 479.448 1286.13 475.448 1290.13 484.448" style="stroke:#181818;stroke-width:1;stroke-linejoin:miter;stroke-miterlimit:10"/></g><g id="lnk52" class="link" data-entity-1="ent0017" data-entity-2="ent0024" data-link-type="dependency" data-source-line="82"><path id="Leave API-to-Business Services" fill="none" d="M1353,386.2383 C1353,412.0683 1353,451.9383 1353,479.4583" style="stroke:#181818;stroke-width:1"/><polygon fill="#181818" points="1353 484.458 1357 475.458 1353 479.458 1349 475.458 1353 484.458" style="stroke:#181818;stroke-width:1;stroke-linejoin:miter;stroke-miterlimit:10"/></g><g id="lnk53" class="link" data-entity-1="ent0018" data-entity-2="ent0024" data-link-type="dependency" data-source-line="83"><path id="Project API-to-Business Services" fill="none" d="M1434.66,366.3783 C1423.97,366.3783 1415.87,366.3783 1415.87,366.3783 C1415.87,366.3783 1415.87,439.0783 1415.87,479.4483" style="stroke:#181818;stroke-width:1"/><polygon fill="#181818" points="1415.87 484.448 1419.87 475.448 1415.87 479.448 1411.87 475.448 1415.87 484.448" style="stroke:#181818;stroke-width:1;stroke-linejoin:miter;stroke-miterlimit:10"/></g><g id="lnk54" class="link" data-entity-1="ent0019" data-entity-2="ent0024" data-link-type="dependency" data-source-line="84"><path id="Task API-to-Business Services" fill="none" d="M1616,386.2683 C1616,423.2483 1616,498.3783 1616,498.3783 C1616,498.3783 1514.7,498.3783 1437.27,498.3783" style="stroke:#181818;stroke-width:1"/><polygon fill="#181818" points="1432.27 498.378 1441.27 502.378 1437.27 498.378 1441.27 494.378 1432.27 498.378" style="stroke:#181818;stroke-width:1;stroke-linejoin:miter;stroke-miterlimit:10"/></g><g id="lnk55" class="link" data-entity-1="ent0020" data-entity-2="ent0024" data-link-type="dependency" data-source-line="85"><path id="Meeting API-to-Business Services" fill="none" d="M1750,386.2883 C1750,424.6083 1750,504.3783 1750,504.3783 C1750,504.3783 1552.69,504.3783 1436.91,504.3783" style="stroke:#181818;stroke-width:1"/><polygon fill="#181818" points="1431.91 504.378 1440.91 508.378 1436.91 504.378 1440.91 500.378 1431.91 504.378" style="stroke:#181818;stroke-width:1;stroke-linejoin:miter;stroke-miterlimit:10"/></g><g id="lnk56" class="link" data-entity-1="ent0021" data-entity-2="ent0024" data-link-type="dependency" data-source-line="86"><path id="WorkLog API-to-Business Services" fill="none" d="M1898,386.3783 C1898,426.2683 1898,511.3783 1898,511.3783 C1898,511.3783 1588.4,511.3783 1437.25,511.3783" style="stroke:#181818;stroke-width:1"/><polygon fill="#181818" points="1432.25 511.378 1441.25 515.378 1437.25 511.378 1441.25 507.378 1432.25 511.378" style="stroke:#181818;stroke-width:1;stroke-linejoin:miter;stroke-miterlimit:10"/></g><g id="lnk57" class="link" data-entity-1="ent0022" data-entity-2="ent0024" data-link-type="dependency" data-source-line="87"><path id="Prediction API-to-Business Services" fill="none" d="M2031.38,386.3983 C2031.38,427.7983 2031.38,518.3783 2031.38,518.3783 C2031.38,518.3783 1616.1,518.3783 1437.15,518.3783" style="stroke:#181818;stroke-width:1"/><polygon fill="#181818" points="1432.15 518.378 1441.15 522.378 1437.15 518.378 1441.15 514.378 1432.15 518.378" style="stroke:#181818;stroke-width:1;stroke-linejoin:miter;stroke-miterlimit:10"/></g><g id="lnk58" class="link" data-entity-1="ent0024" data-entity-2="ent0025" data-link-type="dependency" data-source-line="89"><path id="Business Services-to-Repository Layer" fill="none" d="M1353,531.8183 C1353,549.4583 1353,568.4683 1353,586.0983" style="stroke:#181818;stroke-width:1"/><polygon fill="#181818" points="1353 591.098 1357 582.098 1353 586.098 1349 582.098 1353 591.098" style="stroke:#181818;stroke-width:1;stroke-linejoin:miter;stroke-miterlimit:10"/></g><g id="lnk59" class="link" data-entity-1="ent0025" data-entity-2="ent0026" data-link-type="dependency" data-source-line="91"><path id="Repository Layer-to-SQLAlchemy ORM" fill="none" d="M1353,638.2983 C1353,655.9483 1353,674.9583 1353,692.5883" style="stroke:#181818;stroke-width:1"/><polygon fill="#181818" points="1353 697.588 1357 688.588 1353 692.588 1349 688.588 1353 697.588" style="stroke:#181818;stroke-width:1;stroke-linejoin:miter;stroke-miterlimit:10"/></g><g id="lnk60" class="link" data-entity-1="ent0026" data-entity-2="ent0034" data-link-type="dependency" data-source-line="93"><path id="SQLAlchemy ORM-to-DB" fill="none" d="M1353,744.8283 C1353,761.9483 1353,780.2583 1353,798.9483" style="stroke:#181818;stroke-width:1"/><polygon fill="#181818" points="1353 803.948 1357 794.948 1353 798.948 1349 794.948 1353 803.948" style="stroke:#181818;stroke-width:1;stroke-linejoin:miter;stroke-miterlimit:10"/></g><g id="lnk61" class="link" data-entity-1="ent0022" data-entity-2="ent0033" data-link-type="dependency" data-source-line="95"><path id="Prediction API-to-Prediction Engine" fill="none" d="M2072.62,386.3083 C2072.62,421.6883 2072.62,491.3783 2072.62,491.3783 C2072.62,491.3783 2539.62,491.3783 2730.9,491.3783" style="stroke:#181818;stroke-width:1"/><polygon fill="#181818" points="2735.9 491.378 2726.9 487.378 2730.9 491.378 2726.9 495.378 2735.9 491.378" style="stroke:#181818;stroke-width:1;stroke-linejoin:miter;stroke-miterlimit:10"/></g><g id="lnk62" class="link" data-entity-1="ent0033" data-entity-2="ent0029" data-link-type="dependency" data-source-line="97"><path id="Prediction Engine-to-Feature Engineering" fill="none" d="M2735.72,524.3783 C2680.98,524.3783 2618,524.3783 2618,524.3783 C2618,524.3783 2618,563.0283 2618,589.6283" style="stroke:#181818;stroke-width:1"/><polygon fill="#181818" points="2618 594.628 2622 585.628 2618 589.628 2614 585.628 2618 594.628" style="stroke:#181818;stroke-width:1;stroke-linejoin:miter;stroke-miterlimit:10"/></g><g id="lnk63" class="link" data-entity-1="ent0033" data-entity-2="ent0030" data-link-type="dependency" data-source-line="99"><path id="Prediction Engine-to-burnout_model.pkl" fill="none" d="M2815,531.8183 C2815,550.6883 2815,571.8383 2815,589.6783" style="stroke:#181818;stroke-width:1"/><polygon fill="#181818" points="2815 594.678 2819 585.678 2815 589.678 2811 585.678 2815 594.678" style="stroke:#181818;stroke-width:1;stroke-linejoin:miter;stroke-miterlimit:10"/></g><g id="lnk64" class="link" data-entity-1="ent0033" data-entity-2="ent0031" data-link-type="dependency" data-source-line="101"><path id="Prediction Engine-to-productivity_model.pkl" fill="none" d="M2894.14,516.3783 C2952.58,516.3783 3022,516.3783 3022,516.3783 C3022,516.3783 3022,561.0583 3022,589.7783" style="stroke:#181818;stroke-width:1"/><polygon fill="#181818" points="3022 594.778 3026 585.778 3022 589.778 3018 585.778 3022 594.778" style="stroke:#181818;stroke-width:1;stroke-linejoin:miter;stroke-miterlimit:10"/></g><g id="lnk65" class="link" data-entity-1="ent0033" data-entity-2="ent0032" data-link-type="dependency" data-source-line="103"><path id="Prediction Engine-to-scaler.pkl" fill="none" d="M2894.15,500.3783 C3006.04,500.3783 3197,500.3783 3197,500.3783 C3197,500.3783 3197,556.6883 3197,589.4983" style="stroke:#181818;stroke-width:1"/><polygon fill="#181818" points="3197 594.498 3201 585.498 3197 589.498 3193 585.498 3197 594.498" style="stroke:#181818;stroke-width:1;stroke-linejoin:miter;stroke-miterlimit:10"/></g><?plantuml-src XPJTRjim38NlzHI4hxQBR6ymmEdFsY7TiYP3RmOCZCKuMcp9aEHqnj1t7rqxYHrBNH30ZiuNYJmYwPKl2AwfAanJalPmhJ2tMC8CqllPqZoJ9GatPQiJmT8QMMTU7PHl8DLOD5vb3b1BcDTMczepGb8nOZIi6kUf5CBjbQwmtTNjK9fdfNFOOk5ee1HAasyg0cFzpWYXZIH8hWhL1lM0sOxr1FuA0Vn1wzKMCm_94srWRisp8_jJlxlQMLCIV8GRcRUFMsLfQ_wyJm3T4UjswBPFTLuNQ26jga9bs0RTdW7zvtpC4VnndmJKArDMHdEWBgIko1vKHa7jSurM1fKlJsjOcpsnYzvOpAc3NiIB45bXQWd9tNgzv2JRnoevEZP81TgJoPvSwu1RT3vTtiCSCzvTdjIBX6k_uuIEE_4VGa6UwYAYFw3co6rCldkCAQdt71lgBBhrWl0G5RbCVnE_HEGrkdqqP2BVrcT4VZ9slp1v_E1JyKU8huRVHhQUeEnOHf3CQyVrxXnCYsT0FL9bdEBoQ6213Tzq25fzNwH5jgEoWM-F3q5asR3LVDUmQZbqVKmltMDh2ibtcFHD2EoyrMnHf79k2Nrj2MvqpZJPbWnncsvU_2gvAeiFrRu8KjLWuFm7THaMP2_aOPRdk-bYEwV9NuaUD-ZerJ3bUIRs2pnM91q-o4qtHQxdGlIJ16QpJ-FH88Q_UZdGI5Dgt4XJVTH8K_dOI87ZBnffIWmQQIgE6cagdnif4FAmaQRog9521uyRIOICxD10hupzZ6D3M-DKxsuSk30v3fwzZZD3o-FKoVataXjSG9mQtiDRGOsk8mgAm687JsULcAvrwEN44fShhrZRYE6uGeqUMEpWyBYAuPEX5KV3aolEdyUN-0S0?></g></svg>