<svg xmlns="http://www.w3.org/2000/svg" xmlns:xlink="http://www.w3.org/1999/xlink" contentStyleType="text/css" data-diagram-type="DESCRIPTION" height="635px" preserveAspectRatio="none" style="width:897px;height:635px;background:#FFFFFF;" version="1.1" viewBox="0 0 897 635" width="897px" zoomAndPan="magnify"><?plantuml 1.2026.6?><defs/><g><g class="title" data-source-line="1"><text fill="#000000" font-family="sans-serif" font-size="14" font-weight="700" lengthAdjust="spacing" textLength="343.6221" x="273.3465" y="23.5352">Data Flow Diagram (Level 0) - Context Diagram</text></g><!--entity Employee--><g class="entity" data-qualified-name="Employee" data-source-line="9" id="ent0001"><ellipse cx="38.5151" cy="298.6605" fill="#F1F1F1" rx="8" ry="8" style="stroke:#181818;stroke-width:0.5;"/><path d="M38.5151,306.6605 L38.5151,333.6605 M25.5151,314.6605 L51.5151,314.6605 M38.5151,333.6605 L25.5151,348.6605 M38.5151,333.6605 L51.5151,348.6605" fill="none" style="stroke:#181818;stroke-width:0.5;"/><text fill="#000000" font-family="sans-serif" font-size="14" lengthAdjust="spacing" textLength="65.0303" x="6" y="363.6956">Employee</text></g><!--entity Manager--><g class="entity" data-qualified-name="Manager" data-source-line="10" id="ent0002"><ellipse cx="796.2539" cy="67.6605" fill="#F1F1F1" rx="8" ry="8" style="stroke:#181818;stroke-width:0.5;"/><path d="M796.2539,75.6605 L796.2539,102.6605 M783.2539,83.6605 L809.2539,83.6605 M796.2539,102.6605 L783.2539,117.6605 M796.2539,102.6605 L809.2539,117.6605" fill="none" style="stroke:#181818;stroke-width:0.5;"/><text fill="#000000" font-family="sans-serif" font-size="14" lengthAdjust="spacing" textLength="58.4678" x="767.02" y="132.6956">Manager</text></g><!--entity HR--><g class="entity" data-qualified-name="HR" data-source-line="11" id="ent0003"><ellipse cx="796.25" cy="226.6605" fill="#F1F1F1" rx="8" ry="8" style="stroke:#181818;stroke-width:0.5;"/><path d="M796.25,234.6605 L796.25,261.6605 M783.25,242.6605 L809.25,242.6605 M796.25,261.6605 L783.25,276.6605 M796.25,261.6605 L809.25,276.6605" fill="none" style="stroke:#181818;stroke-width:0.5;"/><text fill="#000000" font-family="sans-serif" font-size="14" lengthAdjust="spacing" textLength="19.1406" x="786.6797" y="291.6956">HR</text></g><!--entity Admin--><g class="entity" data-qualified-name="Admin" data-source-line="12" id="ent0004"><ellipse cx="796.2482" cy="382.6605" fill="#F1F1F1" rx="8" ry="8" style="stroke:#181818;stroke-width:0.5;"/><path d="M796.2482,390.6605 L796.2482,417.6605 M783.2482,398.6605 L809.2482,398.6605 M796.2482,417.6605 L783.2482,432.6605 M796.2482,417.6605 L809.2482,432.6605" fill="none" style="stroke:#181818;stroke-width:0.5;"/><text fill="#000000" font-family="sans-serif" font-size="14" lengthAdjust="spacing" textLength="44.2764" x="774.11" y="447.6956">Admin</text></g><!--entity System--><g class="entity" data-qualified-name="System" data-source-line="14" id="ent0005"><rect fill="#FFFFFF" height="52.9766" rx="2.5" ry="2.5" style="stroke:#181818;stroke-width:0.5;" width="278.1592" x="222.03" y="301.9105"/><text fill="#000000" font-family="sans-serif" font-size="14" lengthAdjust="spacing" textLength="232.8115" x="232.03" y="325.4456">AI-Powered Employee Productivity</text><text fill="#000000" font-family="sans-serif" font-size="14" lengthAdjust="spacing" textLength="258.1592" x="232.03" y="341.9339">Analytics &amp; Burnout Prediction System</text></g><!--entity DB--><g class="entity" data-qualified-name="DB" data-source-line="16" id="ent0006"><path d="M720.19,527.6605 C720.19,517.6605 796.2525,517.6605 796.2525,517.6605 C796.2525,517.6605 872.315,517.6605 872.315,527.6605 L872.315,553.1488 C872.315,563.1488 796.2525,563.1488 796.2525,563.1488 C796.2525,563.1488 720.19,563.1488 720.19,553.1488 L720.19,527.6605" fill="#F1F1F1" style="stroke:#181818;stroke-width:0.5;"/><path d="M720.19,527.6605 C720.19,537.6605 796.2525,537.6605 796.2525,537.6605 C796.2525,537.6605 872.315,537.6605 872.315,527.6605" fill="none" style="stroke:#181818;stroke-width:0.5;"/><text fill="#000000" font-family="sans-serif" font-size="14" lengthAdjust="spacing" textLength="132.125" x="730.19" y="555.1956">Employee Database</text></g><!--link Employee to System--><g class="link" data-entity-1="ent0001" data-entity-2="ent0005" data-link-type="dependency" data-source-line="18" id="lnk7"><path d="M71.41,325.3105 C80.93,324.5305 91.39,323.7905 101.03,323.4005 C140.14,321.8105 177.591,321.7792 216.591,322.5692" fill="none" id="Employee-to-System" style="stroke:#181818;stroke-width:1;"/><polygon fill="#181818" points="221.59,322.6705,212.6729,318.489,216.591,322.5692,212.5108,326.4874,221.59,322.6705" style="stroke:#181818;stroke-width:1;stroke-linejoin:miter;stroke-miterlimit:10;"/><text fill="#000000" font-family="sans-serif" font-size="13" lengthAdjust="spacing" textLength="34.8486" x="129.5471" y="272.6988">Login</text><text fill="#000000" font-family="sans-serif" font-size="13" lengthAdjust="spacing" textLength="58.5" x="117.7214" y="288.0094">Worklogs</text><text fill="#000000" font-family="sans-serif" font-size="13" lengthAdjust="spacing" textLength="71.335" x="111.3039" y="303.3199">Attendance</text><text fill="#000000" font-family="sans-serif" font-size="13" lengthAdjust="spacing" textLength="89.8828" x="102.03" y="318.6305">Leave Request</text></g><!--link System to Employee--><g class="link" data-entity-1="ent0005" data-entity-2="ent0001" data-link-type="dependency" data-source-line="19" id="lnk8"><path d="M305.52,355.3205 C252.2,377.8205 169.34,402.6605 101.03,378.4005 C90.4,374.6205 84.1661,371.2618 75.3061,364.1818" fill="none" id="System-to-Employee" style="stroke:#181818;stroke-width:1;"/><polygon fill="#181818" points="71.4,361.0605,75.9339,369.8037,75.3061,364.1818,80.928,363.554,71.4,361.0605" style="stroke:#181818;stroke-width:1;stroke-linejoin:miter;stroke-miterlimit:10;"/><text fill="#000000" font-family="sans-serif" font-size="13" lengthAdjust="spacing" textLength="68.4595" x="112.53" y="344.9688">Dashboard</text><text fill="#000000" font-family="sans-serif" font-size="13" lengthAdjust="spacing" textLength="63.0195" x="115.25" y="360.2794">Prediction</text><text fill="#000000" font-family="sans-serif" font-size="13" lengthAdjust="spacing" textLength="48.439" x="122.5403" y="375.5899">Reports</text></g><!--link Manager to System--><g class="link" data-entity-1="ent0002" data-entity-2="ent0005" data-link-type="dependency" data-source-line="21" id="lnk9"><path d="M766.75,108.1005 C745.64,115.9905 716.15,126.9605 690.19,136.4005 C619.25,162.2005 596.09,156.5905 530.19,193.4005 C475.79,223.7905 424.6876,268.33 393.0676,298.15" fill="none" id="Manager-to-System" style="stroke:#181818;stroke-width:1;"/><polygon fill="#181818" points="389.43,301.5805,398.722,298.3156,393.0676,298.15,393.2332,292.4956,389.43,301.5805" style="stroke:#181818;stroke-width:1;stroke-linejoin:miter;stroke-miterlimit:10;"/><text fill="#000000" font-family="sans-serif" font-size="13" lengthAdjust="spacing" textLength="120.1738" x="550.19" y="117.9688">Team Management</text><text fill="#000000" font-family="sans-serif" font-size="13" lengthAdjust="spacing" textLength="108.2021" x="556.1758" y="133.2794">Task Assignment</text></g><!--link System to Manager--><g class="link" data-entity-1="ent0005" data-entity-2="ent0002" data-link-type="dependency" data-source-line="22" id="lnk10"><path d="M372.29,301.6405 C393.08,251.2905 445.72,143.6805 530.19,100.4005 C607.81,60.6405 710.8784,76.9748 761.7284,88.7248" fill="none" id="System-to-Manager" style="stroke:#181818;stroke-width:1;"/><polygon fill="#181818" points="766.6,89.8505,758.7316,83.9269,761.7284,88.7248,756.9305,91.7215,766.6,89.8505" style="stroke:#181818;stroke-width:1;stroke-linejoin:miter;stroke-miterlimit:10;"/><text fill="#000000" font-family="sans-serif" font-size="13" lengthAdjust="spacing" textLength="87.3311" x="566.8943" y="57.2988">Team Reports</text><text fill="#000000" font-family="sans-serif" font-size="13" lengthAdjust="spacing" textLength="90.7397" x="565.19" y="72.6094">Burnout Alerts</text></g><!--link HR to System--><g class="link" data-entity-1="ent0003" data-entity-2="ent0005" data-link-type="dependency" data-source-line="24" id="lnk11"><path d="M782.32,262.4305 C762.81,271.2405 724.49,287.4505 690.19,295.4005 C628.85,309.6205 564.6349,317.3317 505.6549,321.9317" fill="none" id="HR-to-System" style="stroke:#181818;stroke-width:1;"/><polygon fill="#181818" points="500.67,322.3205,509.9538,325.6086,505.6549,321.9317,509.3317,317.6328,500.67,322.3205" style="stroke:#181818;stroke-width:1;stroke-linejoin:miter;stroke-miterlimit:10;"/><text fill="#000000" font-family="sans-serif" font-size="13" lengthAdjust="spacing" textLength="145.7803" x="537.69" y="276.9688">Employee Management</text><text fill="#000000" font-family="sans-serif" font-size="13" lengthAdjust="spacing" textLength="111.23" x="554.9651" y="292.2794">Analytics Request</text></g><!--link System to HR--><g class="link" data-entity-1="ent0005" data-entity-2="ent0003" data-link-type="dependency" data-source-line="25" id="lnk12"><path d="M413.12,301.5305 C445.64,285.9105 489.23,267.7205 530.19,259.4005 C625.35,240.0705 738.7403,250.0204 777.4103,254.3004" fill="none" id="System-to-HR" style="stroke:#181818;stroke-width:1;"/><polygon fill="#181818" points="782.38,254.8505,773.8747,249.8847,777.4103,254.3004,772.9946,257.8361,782.38,254.8505" style="stroke:#181818;stroke-width:1;stroke-linejoin:miter;stroke-miterlimit:10;"/><text fill="#000000" font-family="sans-serif" font-size="13" lengthAdjust="spacing" textLength="48.439" x="586.2938" y="214.7088">Reports</text><text fill="#000000" font-family="sans-serif" font-size="13" lengthAdjust="spacing" textLength="69.6465" x="575.69" y="230.0194">Predictions</text><text fill="#000000" font-family="sans-serif" font-size="13" lengthAdjust="spacing" textLength="56.6719" x="582.1773" y="245.3299">Analytics</text></g><!--link Admin to System--><g class="link" data-entity-1="ent0004" data-entity-2="ent0005" data-link-type="dependency" data-source-line="27" id="lnk13"><path d="M773.83,417.6505 C728.14,427.9305 618.12,447.7405 530.19,424.4005 C479.85,411.0405 432.9003,381.5923 400.4903,358.1323" fill="none" id="Admin-to-System" style="stroke:#181818;stroke-width:1;"/><polygon fill="#181818" points="396.44,355.2005,401.385,363.7179,400.4903,358.1323,406.0759,357.2375,396.44,355.2005" style="stroke:#181818;stroke-width:1;stroke-linejoin:miter;stroke-miterlimit:10;"/><text fill="#000000" font-family="sans-serif" font-size="13" lengthAdjust="spacing" textLength="158.0884" x="531.19" y="420.9688">User &amp; Role Management</text></g><!--link System to Admin--><g class="link" data-entity-1="ent0005" data-entity-2="ent0004" data-link-type="dependency" data-source-line="28" id="lnk14"><path d="M500.65,355.2705 C599.9,374.5205 719.4914,397.7088 768.8014,407.2688" fill="none" id="System-to-Admin" style="stroke:#181818;stroke-width:1;"/><polygon fill="#181818" points="773.71,408.2205,765.6358,402.5806,768.8014,407.2688,764.1132,410.4344,773.71,408.2205" style="stroke:#181818;stroke-width:1;stroke-linejoin:miter;stroke-miterlimit:10;"/><text fill="#000000" font-family="sans-serif" font-size="13" lengthAdjust="spacing" textLength="67.6025" x="576.8543" y="344.4488">Audit Logs</text><text fill="#000000" font-family="sans-serif" font-size="13" lengthAdjust="spacing" textLength="86.9312" x="567.19" y="359.7594">Configuration</text></g><!--link System to DB--><g class="link" data-entity-1="ent0005" data-entity-2="ent0006" data-link-type="dependency" data-source-line="30" id="lnk15"><path d="M389.56,355.3405 C421.09,384.9205 475.54,431.9905 530.19,460.4005 C563.3,477.6105 648.8987,502.0826 714.9587,519.6926" fill="none" id="System-to-DB" style="stroke:#181818;stroke-width:1;"/><polygon fill="#181818" points="719.79,520.9805,712.124,514.7972,714.9587,519.6926,710.0634,522.5273,719.79,520.9805" style="stroke:#181818;stroke-width:1;stroke-linejoin:miter;stroke-miterlimit:10;"/><text fill="#000000" font-family="sans-serif" font-size="13" lengthAdjust="spacing" textLength="131.1426" x="544.69" y="456.9688">Store / Retrieve Data</text></g><!--link DB to System--><g class="link" data-entity-1="ent0006" data-entity-2="ent0005" data-link-type="dependency" data-source-line="31" id="lnk16"><path d="M750.69,563.4705 C695.61,588.5205 600.58,620.2305 530.19,582.4005 C438.66,533.2205 390.2087,414.6314 371.8887,359.9614" fill="none" id="DB-to-System" style="stroke:#181818;stroke-width:1;"/><polygon fill="#181818" points="370.3,355.2205,369.3669,365.025,371.8887,359.9614,376.9523,362.4831,370.3,355.2205" style="stroke:#181818;stroke-width:1;stroke-linejoin:miter;stroke-miterlimit:10;"/><text fill="#000000" font-family="sans-serif" font-size="13" lengthAdjust="spacing" textLength="93.4565" x="563.69" y="532.9688">Employee Data</text><text fill="#000000" font-family="sans-serif" font-size="13" lengthAdjust="spacing" textLength="71.335" x="574.7508" y="548.2794">Attendance</text><text fill="#000000" font-family="sans-serif" font-size="13" lengthAdjust="spacing" textLength="58.5" x="581.1683" y="563.5899">Worklogs</text><text fill="#000000" font-family="sans-serif" font-size="13" lengthAdjust="spacing" textLength="69.6465" x="575.595" y="578.9005">Predictions</text></g><?plantuml-src RLB1Rjim3BthAuWUYkqGRESS1ZXrXmx8WCBjq8ilRCGuGcGga-XamR1_7-qejWDK9qdaUuzyf3Zn12KAmdSVJb0wR2Asy6bDH_BmzJCiu26mq1-vneodhO04YAxP2LWNQICki35fx_Y0FJpjq8QJumQsw1FD8dqoSgEYVmteMU5ctyJGiNq8FaHuspaXyyyOt8W-7zk33sUY_Fo9Z0t5_7ggygMmhLFzYVkk-B5u3YUAP4SAU8x1TbhgqScvveBHdyLj4jp3geiSEj4Cicve1bxEIQYz0qpvQenLbzunAVj8MUQl8QzS6JD65ejl6GXBM8V6SSrl8UvzQ9AAYn1Rv0tLl2Oy4bJqkwCa9cDw-CYrL9sqUmyORSrJZJLNT0XHaZ7PbrlLLrA_Bv6MM6f-nRI78YNNSFynrxeIP5GchldgJE5f47ggRZN66kSwaxKVTAKCoub_wYRDSCOC4xsL-fMqldkeWf-hpQale2KKdNNIcwwSkhnRrtGHBoiwoovNclgYwqFmHGkIw7JbXuaQ3NtSPH-zdTuqqrahvZy0?></g></svg>