<svg xmlns="http://www.w3.org/2000/svg" xmlns:xlink="http://www.w3.org/1999/xlink" width="897" height="635" contentStyleType="text/css" data-diagram-type="DESCRIPTION" style="width:897px;height:635px;background:#fff" preserveAspectRatio="none" version="1.1" viewBox="0 0 897 635" zoomAndPan="magnify"><?plantuml 1.2026.6?><g><g class="title" data-source-line="1"><text x="273.346" y="23.535" fill="#000" font-family="sans-serif" font-size="14" font-weight="700" lengthAdjust="spacing" textLength="343.622">Data Flow Diagram (Level 0) - Context Diagram</text></g><g id="ent0001" class="entity" data-qualified-name="Employee" data-source-line="9"><ellipse cx="38.515" cy="298.661" fill="#F1F1F1" rx="8" ry="8" style="stroke:#181818;stroke-width:.5"/><path fill="none" d="M38.5151,306.6605 L38.5151,333.6605 M25.5151,314.6605 L51.5151,314.6605 M38.5151,333.6605 L25.5151,348.6605 M38.5151,333.6605 L51.5151,348.6605" style="stroke:#181818;stroke-width:.5"/><text x="6" y="363.696" fill="#000" font-family="sans-serif" font-size="14" lengthAdjust="spacing" textLength="65.03">Employee</text></g><g id="ent0002" class="entity" data-qualified-name="Manager" data-source-line="10"><ellipse cx="796.254" cy="67.66" fill="#F1F1F1" rx="8" ry="8" style="stroke:#181818;stroke-width:.5"/><path fill="none" d="M796.2539,75.6605 L796.2539,102.6605 M783.2539,83.6605 L809.2539,83.6605 M796.2539,102.6605 L783.2539,117.6605 M796.2539,102.6605 L809.2539,117.6605" style="stroke:#181818;stroke-width:.5"/><text x="767.02" y="132.696" fill="#000" font-family="sans-serif" font-size="14" lengthAdjust="spacing" textLength="58.468">Manager</text></g><g id="ent0003" class="entity" data-qualified-name="HR" data-source-line="11"><ellipse cx="796.25" cy="226.661" fill="#F1F1F1" rx="8" ry="8" style="stroke:#181818;stroke-width:.5"/><path fill="none" d="M796.25,234.6605 L796.25,261.6605 M783.25,242.6605 L809.25,242.6605 M796.25,261.6605 L783.25,276.6605 M796.25,261.6605 L809.25,276.6605" style="stroke:#181818;stroke-width:.5"/><text x="786.68" y="291.696" fill="#000" font-family="sans-serif" font-size="14" lengthAdjust="spacing" textLength="19.141">HR</text></g><g id="ent0004" class="entity" data-qualified-name="Admin" data-source-line="12"><ellipse cx="796.248" cy="382.661" fill="#F1F1F1" rx="8" ry="8" style="stroke:#181818;stroke-width:.5"/><path fill="none" d="M796.2482,390.6605 L796.2482,417.6605 M783.2482,398.6605 L809.2482,398.6605 M796.2482,417.6605 L783.2482,432.6605 M796.2482,417.6605 L809.2482,432.6605" style="stroke:#181818;stroke-width:.5"/><text x="774.11" y="447.696" fill="#000" font-family="sans-serif" font-size="14" lengthAdjust="spacing" textLength="44.276">Admin</text></g><g id="ent0005" class="entity" data-qualified-name="System" data-source-line="14"><rect style="stroke:#181818;stroke-width:.5" width="278.159" height="52.977" x="222.03" y="301.911" fill="#FFF" rx="2.5" ry="2.5"/><text x="232.03" y="325.446" fill="#000" font-family="sans-serif" font-size="14" lengthAdjust="spacing" textLength="232.811">AI-Powered Employee Productivity</text><text x="232.03" y="341.934" fill="#000" font-family="sans-serif" font-size="14" lengthAdjust="spacing" textLength="258.159">Analytics &amp; Burnout Prediction System</text></g><g id="ent0006" class="entity" data-qualified-name="DB" data-source-line="16"><path fill="#F1F1F1" d="M720.19,527.6605 C720.19,517.6605 796.2525,517.6605 796.2525,517.6605 C796.2525,517.6605 872.315,517.6605 872.315,527.6605 L872.315,553.1488 C872.315,563.1488 796.2525,563.1488 796.2525,563.1488 C796.2525,563.1488 720.19,563.1488 720.19,553.1488 L720.19,527.6605" style="stroke:#181818;stroke-width:.5"/><path fill="none" d="M720.19,527.6605 C720.19,537.6605 796.2525,537.6605 796.2525,537.6605 C796.2525,537.6605 872.315,537.6605 872.315,527.6605" style="stroke:#181818;stroke-width:.5"/><text x="730.19" y="555.196" fill="#000" font-family="sans-serif" font-size="14" lengthAdjust="spacing" textLength="132.125">Employee Database</text></g><g id="lnk7" class="link" data-entity-1="ent0001" data-entity-2="ent0005" data-link-type="dependency" data-source-line="18"><path id="Employee-to-System" fill="none" d="M71.41,325.3105 C80.93,324.5305 91.39,323.7905 101.03,323.4005 C140.14,321.8105 177.591,321.7792 216.591,322.5692" style="stroke:#181818;stroke-width:1"/><polygon fill="#181818" points="221.59 322.671 212.673 318.489 216.591 322.569 212.511 326.487 221.59 322.671" style="stroke:#181818;stroke-width:1;stroke-linejoin:miter;stroke-miterlimit:10"/><text x="129.547" y="272.699" fill="#000" font-family="sans-serif" font-size="13" lengthAdjust="spacing" textLength="34.849">Login</text><text x="117.721" y="288.009" fill="#000" font-family="sans-serif" font-size="13" lengthAdjust="spacing" textLength="58.5">Worklogs</text><text x="111.304" y="303.32" fill="#000" font-family="sans-serif" font-size="13" lengthAdjust="spacing" textLength="71.335">Attendance</text><text x="102.03" y="318.63" fill="#000" font-family="sans-serif" font-size="13" lengthAdjust="spacing" textLength="89.883">Leave Request</text></g><g id="lnk8" class="link" data-entity-1="ent0005" data-entity-2="ent0001" data-link-type="dependency" data-source-line="19"><path id="System-to-Employee" fill="none" d="M305.52,355.3205 C252.2,377.8205 169.34,402.6605 101.03,378.4005 C90.4,374.6205 84.1661,371.2618 75.3061,364.1818" style="stroke:#181818;stroke-width:1"/><polygon fill="#181818" points="71.4 361.06 75.934 369.804 75.306 364.182 80.928 363.554 71.4 361.06" style="stroke:#181818;stroke-width:1;stroke-linejoin:miter;stroke-miterlimit:10"/><text x="112.53" y="344.969" fill="#000" font-family="sans-serif" font-size="13" lengthAdjust="spacing" textLength="68.46">Dashboard</text><text x="115.25" y="360.279" fill="#000" font-family="sans-serif" font-size="13" lengthAdjust="spacing" textLength="63.02">Prediction</text><text x="122.54" y="375.59" fill="#000" font-family="sans-serif" font-size="13" lengthAdjust="spacing" textLength="48.439">Reports</text></g><g id="lnk9" class="link" data-entity-1="ent0002" data-entity-2="ent0005" data-link-type="dependency" data-source-line="21"><path id="Manager-to-System" fill="none" d="M766.75,108.1005 C745.64,115.9905 716.15,126.9605 690.19,136.4005 C619.25,162.2005 596.09,156.5905 530.19,193.4005 C475.79,223.7905 424.6876,268.33 393.0676,298.15" style="stroke:#181818;stroke-width:1"/><polygon fill="#181818" points="389.43 301.58 398.722 298.316 393.068 298.15 393.233 292.496 389.43 301.58" style="stroke:#181818;stroke-width:1;stroke-linejoin:miter;stroke-miterlimit:10"/><text x="550.19" y="117.969" fill="#000" font-family="sans-serif" font-size="13" lengthAdjust="spacing" textLength="120.174">Team Management</text><text x="556.176" y="133.279" fill="#000" font-family="sans-serif" font-size="13" lengthAdjust="spacing" textLength="108.202">Task Assignment</text></g><g id="lnk10" class="link" data-entity-1="ent0005" data-entity-2="ent0002" data-link-type="dependency" data-source-line="22"><path id="System-to-Manager" fill="none" d="M372.29,301.6405 C393.08,251.2905 445.72,143.6805 530.19,100.4005 C607.81,60.6405 710.8784,76.9748 761.7284,88.7248" style="stroke:#181818;stroke-width:1"/><polygon fill="#181818" points="766.6 89.85 758.732 83.927 761.728 88.725 756.931 91.722 766.6 89.85" style="stroke:#181818;stroke-width:1;stroke-linejoin:miter;stroke-miterlimit:10"/><text x="566.894" y="57.299" fill="#000" font-family="sans-serif" font-size="13" lengthAdjust="spacing" textLength="87.331">Team Reports</text><text x="565.19" y="72.609" fill="#000" font-family="sans-serif" font-size="13" lengthAdjust="spacing" textLength="90.74">Burnout Alerts</text></g><g id="lnk11" class="link" data-entity-1="ent0003" data-entity-2="ent0005" data-link-type="dependency" data-source-line="24"><path id="HR-to-System" fill="none" d="M782.32,262.4305 C762.81,271.2405 724.49,287.4505 690.19,295.4005 C628.85,309.6205 564.6349,317.3317 505.6549,321.9317" style="stroke:#181818;stroke-width:1"/><polygon fill="#181818" points="500.67 322.32 509.954 325.609 505.655 321.932 509.332 317.633 500.67 322.32" style="stroke:#181818;stroke-width:1;stroke-linejoin:miter;stroke-miterlimit:10"/><text x="537.69" y="276.969" fill="#000" font-family="sans-serif" font-size="13" lengthAdjust="spacing" textLength="145.78">Employee Management</text><text x="554.965" y="292.279" fill="#000" font-family="sans-serif" font-size="13" lengthAdjust="spacing" textLength="111.23">Analytics Request</text></g><g id="lnk12" class="link" data-entity-1="ent0005" data-entity-2="ent0003" data-link-type="dependency" data-source-line="25"><path id="System-to-HR" fill="none" d="M413.12,301.5305 C445.64,285.9105 489.23,267.7205 530.19,259.4005 C625.35,240.0705 738.7403,250.0204 777.4103,254.3004" style="stroke:#181818;stroke-width:1"/><polygon fill="#181818" points="782.38 254.851 773.875 249.885 777.41 254.3 772.995 257.836 782.38 254.851" style="stroke:#181818;stroke-width:1;stroke-linejoin:miter;stroke-miterlimit:10"/><text x="586.294" y="214.709" fill="#000" font-family="sans-serif" font-size="13" lengthAdjust="spacing" textLength="48.439">Reports</text><text x="575.69" y="230.019" fill="#000" font-family="sans-serif" font-size="13" lengthAdjust="spacing" textLength="69.647">Predictions</text><text x="582.177" y="245.33" fill="#000" font-family="sans-serif" font-size="13" lengthAdjust="spacing" textLength="56.672">Analytics</text></g><g id="lnk13" class="link" data-entity-1="ent0004" data-entity-2="ent0005" data-link-type="dependency" data-source-line="27"><path id="Admin-to-System" fill="none" d="M773.83,417.6505 C728.14,427.9305 618.12,447.7405 530.19,424.4005 C479.85,411.0405 432.9003,381.5923 400.4903,358.1323" style="stroke:#181818;stroke-width:1"/><polygon fill="#181818" points="396.44 355.2 401.385 363.718 400.49 358.132 406.076 357.238 396.44 355.2" style="stroke:#181818;stroke-width:1;stroke-linejoin:miter;stroke-miterlimit:10"/><text x="531.19" y="420.969" fill="#000" font-family="sans-serif" font-size="13" lengthAdjust="spacing" textLength="158.088">User &amp; Role Management</text></g><g id="lnk14" class="link" data-entity-1="ent0005" data-entity-2="ent0004" data-link-type="dependency" data-source-line="28"><path id="System-to-Admin" fill="none" d="M500.65,355.2705 C599.9,374.5205 719.4914,397.7088 768.8014,407.2688" style="stroke:#181818;stroke-width:1"/><polygon fill="#181818" points="773.71 408.221 765.636 402.581 768.801 407.269 764.113 410.434 773.71 408.221" style="stroke:#181818;stroke-width:1;stroke-linejoin:miter;stroke-miterlimit:10"/><text x="576.854" y="344.449" fill="#000" font-family="sans-serif" font-size="13" lengthAdjust="spacing" textLength="67.603">Audit Logs</text><text x="567.19" y="359.759" fill="#000" font-family="sans-serif" font-size="13" lengthAdjust="spacing" textLength="86.931">Configuration</text></g><g id="lnk15" class="link" data-entity-1="ent0005" data-entity-2="ent0006" data-link-type="dependency" data-source-line="30"><path id="System-to-DB" fill="none" d="M389.56,355.3405 C421.09,384.9205 475.54,431.9905 530.19,460.4005 C563.3,477.6105 648.8987,502.0826 714.9587,519.6926" style="stroke:#181818;stroke-width:1"/><polygon fill="#181818" points="719.79 520.981 712.124 514.797 714.959 519.693 710.063 522.527 719.79 520.981" style="stroke:#181818;stroke-width:1;stroke-linejoin:miter;stroke-miterlimit:10"/><text x="544.69" y="456.969" fill="#000" font-family="sans-serif" font-size="13" lengthAdjust="spacing" textLength="131.143">Store / Retrieve Data</text></g><g id="lnk16" class="link" data-entity-1="ent0006" data-entity-2="ent0005" data-link-type="dependency" data-source-line="31"><path id="DB-to-System" fill="none" d="M750.69,563.4705 C695.61,588.5205 600.58,620.2305 530.19,582.4005 C438.66,533.2205 390.2087,414.6314 371.8887,359.9614" style="stroke:#181818;stroke-width:1"/><polygon fill="#181818" points="370.3 355.221 369.367 365.025 371.889 359.961 376.952 362.483 370.3 355.221" style="stroke:#181818;stroke-width:1;stroke-linejoin:miter;stroke-miterlimit:10"/><text x="563.69" y="532.969" fill="#000" font-family="sans-serif" font-size="13" lengthAdjust="spacing" textLength="93.457">Employee Data</text><text x="574.751" y="548.279" fill="#000" font-family="sans-serif" font-size="13" lengthAdjust="spacing" textLength="71.335">Attendance</text><text x="581.168" y="563.59" fill="#000" font-family="sans-serif" font-size="13" lengthAdjust="spacing" textLength="58.5">Worklogs</text><text x="575.595" y="578.9" fill="#000" font-family="sans-serif" font-size="13" lengthAdjust="spacing" textLength="69.647">Predictions</text></g><?plantuml-src RLB1Rjim3BthAuWUYkqGRESS1ZXrXmx8WCBjq8ilRCGuGcGga-XamR1_7-qejWDK9qdaUuzyf3Zn12KAmdSVJb0wR2Asy6bDH_BmzJCiu26mq1-vneodhO04YAxP2LWNQICki35fx_Y0FJpjq8QJumQsw1FD8dqoSgEYVmteMU5ctyJGiNq8FaHuspaXyyyOt8W-7zk33sUY_Fo9Z0t5_7ggygMmhLFzYVkk-B5u3YUAP4SAU8x1TbhgqScvveBHdyLj4jp3geiSEj4Cicve1bxEIQYz0qpvQenLbzunAVj8MUQl8QzS6JD65ejl6GXBM8V6SSrl8UvzQ9AAYn1Rv0tLl2Oy4bJqkwCa9cDw-CYrL9sqUmyORSrJZJLNT0XHaZ7PbrlLLrA_Bv6MM6f-nRI78YNNSFynrxeIP5GchldgJE5f47ggRZN66kSwaxKVTAKCoub_wYRDSCOC4xsL-fMqldkeWf-hpQale2KKdNNIcwwSkhnRrtGHBoiwoovNclgYwqFmHGkIw7JbXuaQ3NtSPH-zdTuqqrahvZy0?></g></svg>