<svg xmlns="http://www.w3.org/2000/svg" xmlns:xlink="http://www.w3.org/1999/xlink" width="2109" height="653" contentStyleType="text/css" data-diagram-type="CLASS" style="width:2109px;height:653px;background:#fff" preserveAspectRatio="none" version="1.1" viewBox="0 0 2109 653" zoomAndPan="magnify"><?plantuml 1.2026.6?><g><g class="title" data-source-line="1"><text x="780.196" y="23.535" fill="#000" font-family="sans-serif" font-size="14" font-weight="700" lengthAdjust="spacing" textLength="541.789">Entity Relationship Diagram - AI-Powered Employee Productivity Analytics</text></g><g id="ent0001" class="entity" data-qualified-name="Role" data-source-line="8"><rect style="stroke:#181818;stroke-width:.5" width="167.518" height="97.465" x="20.96" y="259.668" fill="#F1F1F1" rx="2.5" ry="2.5"/><ellipse cx="85.819" cy="275.668" fill="#ADD1B2" rx="11" ry="11" style="stroke:#181818;stroke-width:1"/><path fill="#000" d="M89.4336,282.1683 L81.7139,282.1683 L81.7139,269.7752 L89.4336,269.7752 L89.4336,271.9334 L84.1626,271.9334 L84.1626,274.6063 L88.9356,274.6063 L88.9356,276.7645 L84.1626,276.7645 L84.1626,280.0101 L89.4336,280.0101 Z"/><text x="106.319" y="280.959" fill="#000" font-family="sans-serif" font-size="14" lengthAdjust="spacing" textLength="29.299">Role</text><line style="stroke:#181818;stroke-width:.5" x1="21.96" x2="187.478" y1="291.668" y2="291.668"/><g data-visibility-modifier="IE_MANDATORY"><ellipse cx="31.96" cy="305.412" fill="#000" rx="3" ry="3" style="stroke:#000;stroke-width:1"/></g><text x="40.96" y="309.203" fill="#000" font-family="sans-serif" font-size="14" lengthAdjust="spacing" textLength="85.353">id : INT «PK»</text><line style="stroke:#181818;stroke-width:1" x1="21.96" x2="187.478" y1="316.157" y2="316.157"/><text x="26.96" y="333.692" fill="#000" font-family="sans-serif" font-size="14" lengthAdjust="spacing" textLength="116.731">name : VARCHAR</text><text x="26.96" y="350.18" fill="#000" font-family="sans-serif" font-size="14" lengthAdjust="spacing" textLength="155.518">description : VARCHAR</text></g><g id="ent0002" class="entity" data-qualified-name="User" data-source-line="15"><rect style="stroke:#181818;stroke-width:.5" width="195.429" height="163.418" x="7" y="474.838" fill="#F1F1F1" rx="2.5" ry="2.5"/><ellipse cx="85.282" cy="490.838" fill="#ADD1B2" rx="11" ry="11" style="stroke:#181818;stroke-width:1"/><path fill="#000" d="M88.896,497.3383 L81.1763,497.3383 L81.1763,484.9452 L88.896,484.9452 L88.896,487.1034 L83.625,487.1034 L83.625,489.7763 L88.3979,489.7763 L88.3979,491.9345 L83.625,491.9345 L83.625,495.1801 L88.896,495.1801 Z"/><text x="105.782" y="496.129" fill="#000" font-family="sans-serif" font-size="14" lengthAdjust="spacing" textLength="30.365">User</text><line style="stroke:#181818;stroke-width:.5" x1="8" x2="201.429" y1="506.838" y2="506.838"/><g data-visibility-modifier="IE_MANDATORY"><ellipse cx="18" cy="520.582" fill="#000" rx="3" ry="3" style="stroke:#000;stroke-width:1"/></g><text x="27" y="524.373" fill="#000" font-family="sans-serif" font-size="14" lengthAdjust="spacing" textLength="85.353">id : INT «PK»</text><line style="stroke:#181818;stroke-width:1" x1="8" x2="201.429" y1="531.327" y2="531.327"/><text x="13" y="548.862" fill="#000" font-family="sans-serif" font-size="14" lengthAdjust="spacing" textLength="146.084">username : VARCHAR</text><text x="13" y="565.35" fill="#000" font-family="sans-serif" font-size="14" lengthAdjust="spacing" textLength="116.136">email : VARCHAR</text><text x="13" y="581.838" fill="#000" font-family="sans-serif" font-size="14" lengthAdjust="spacing" textLength="183.429">password_hash : VARCHAR</text><text x="13" y="598.327" fill="#000" font-family="sans-serif" font-size="14" lengthAdjust="spacing" textLength="118.296">role_id : INT «FK»</text><text x="13" y="614.815" fill="#000" font-family="sans-serif" font-size="14" lengthAdjust="spacing" textLength="157.363">employee_id : INT «FK»</text><text x="13" y="631.303" fill="#000" font-family="sans-serif" font-size="14" lengthAdjust="spacing" textLength="135.564">is_active : BOOLEAN</text></g><g id="ent0003" class="entity" data-qualified-name="Department" data-source-line="26"><rect style="stroke:#181818;stroke-width:.5" width="167.518" height="97.465" x="963.96" y="44.488" fill="#F1F1F1" rx="2.5" ry="2.5"/><ellipse cx="1003.678" cy="60.488" fill="#ADD1B2" rx="11" ry="11" style="stroke:#181818;stroke-width:1"/><path fill="#000" d="M1007.2922,66.9883 L999.5725,66.9883 L999.5725,54.5952 L1007.2922,54.5952 L1007.2922,56.7534 L1002.0212,56.7534 L1002.0212,59.4263 L1006.7941,59.4263 L1006.7941,61.5845 L1002.0212,61.5845 L1002.0212,64.8301 L1007.2922,64.8301 Z"/><text x="1023.171" y="65.779" fill="#000" font-family="sans-serif" font-size="14" lengthAdjust="spacing" textLength="80.589">Department</text><line style="stroke:#181818;stroke-width:.5" x1="964.96" x2="1130.478" y1="76.488" y2="76.488"/><g data-visibility-modifier="IE_MANDATORY"><ellipse cx="974.96" cy="90.232" fill="#000" rx="3" ry="3" style="stroke:#000;stroke-width:1"/></g><text x="983.96" y="94.023" fill="#000" font-family="sans-serif" font-size="14" lengthAdjust="spacing" textLength="85.353">id : INT «PK»</text><line style="stroke:#181818;stroke-width:1" x1="964.96" x2="1130.478" y1="100.977" y2="100.977"/><text x="969.96" y="118.512" fill="#000" font-family="sans-serif" font-size="14" lengthAdjust="spacing" textLength="116.731">name : VARCHAR</text><text x="969.96" y="135" fill="#000" font-family="sans-serif" font-size="14" lengthAdjust="spacing" textLength="155.518">description : VARCHAR</text></g><g id="ent0004" class="entity" data-qualified-name="Employee" data-source-line="33"><rect style="stroke:#181818;stroke-width:.5" width="196.065" height="212.883" x="949.68" y="201.958" fill="#F1F1F1" rx="2.5" ry="2.5"/><ellipse cx="1010.947" cy="217.958" fill="#ADD1B2" rx="11" ry="11" style="stroke:#181818;stroke-width:1"/><path fill="#000" d="M1014.5613,224.4583 L1006.8416,224.4583 L1006.8416,212.0652 L1014.5613,212.0652 L1014.5613,214.2234 L1009.2904,214.2234 L1009.2904,216.8963 L1014.0633,216.8963 L1014.0633,219.0545 L1009.2904,219.0545 L1009.2904,222.3001 L1014.5613,222.3001 Z"/><text x="1031.447" y="223.249" fill="#000" font-family="sans-serif" font-size="14" lengthAdjust="spacing" textLength="65.03">Employee</text><line style="stroke:#181818;stroke-width:.5" x1="950.68" x2="1144.745" y1="233.958" y2="233.958"/><g data-visibility-modifier="IE_MANDATORY"><ellipse cx="960.68" cy="247.702" fill="#000" rx="3" ry="3" style="stroke:#000;stroke-width:1"/></g><text x="969.68" y="251.493" fill="#000" font-family="sans-serif" font-size="14" lengthAdjust="spacing" textLength="85.353">id : INT «PK»</text><line style="stroke:#181818;stroke-width:1" x1="950.68" x2="1144.745" y1="258.447" y2="258.447"/><text x="955.68" y="275.982" fill="#000" font-family="sans-serif" font-size="14" lengthAdjust="spacing" textLength="184.065">employee_code : VARCHAR</text><text x="955.68" y="292.47" fill="#000" font-family="sans-serif" font-size="14" lengthAdjust="spacing" textLength="151.026">first_name : VARCHAR</text><text x="955.68" y="308.958" fill="#000" font-family="sans-serif" font-size="14" lengthAdjust="spacing" textLength="147.882">last_name : VARCHAR</text><text x="955.68" y="325.447" fill="#000" font-family="sans-serif" font-size="14" lengthAdjust="spacing" textLength="126.998">gender : VARCHAR</text><text x="955.68" y="341.935" fill="#000" font-family="sans-serif" font-size="14" lengthAdjust="spacing" textLength="158.956">designation : VARCHAR</text><text x="955.68" y="358.423" fill="#000" font-family="sans-serif" font-size="14" lengthAdjust="spacing" textLength="133.513">joining_date : DATE</text><text x="955.68" y="374.911" fill="#000" font-family="sans-serif" font-size="14" lengthAdjust="spacing" textLength="131.879">experience : FLOAT</text><text x="955.68" y="391.4" fill="#000" font-family="sans-serif" font-size="14" lengthAdjust="spacing" textLength="151.601">manager_id : INT «FK»</text><text x="955.68" y="407.888" fill="#000" font-family="sans-serif" font-size="14" lengthAdjust="spacing" textLength="171.035">department_id : INT «FK»</text></g><g id="ent0005" class="entity" data-qualified-name="Attendance" data-source-line="47"><rect style="stroke:#181818;stroke-width:.5" width="169.363" height="146.93" x="1703.03" y="483.088" fill="#F1F1F1" rx="2.5" ry="2.5"/><ellipse cx="1745.274" cy="499.088" fill="#ADD1B2" rx="11" ry="11" style="stroke:#181818;stroke-width:1"/><path fill="#000" d="M1748.8877,505.5883 L1741.168,505.5883 L1741.168,493.1952 L1748.8877,493.1952 L1748.8877,495.3534 L1743.6167,495.3534 L1743.6167,498.0263 L1748.3897,498.0263 L1748.3897,500.1845 L1743.6167,500.1845 L1743.6167,503.4301 L1748.8877,503.4301 Z"/><text x="1765.328" y="504.379" fill="#000" font-family="sans-serif" font-size="14" lengthAdjust="spacing" textLength="76.822">Attendance</text><line style="stroke:#181818;stroke-width:.5" x1="1704.03" x2="1871.393" y1="515.088" y2="515.088"/><g data-visibility-modifier="IE_MANDATORY"><ellipse cx="1714.03" cy="528.832" fill="#000" rx="3" ry="3" style="stroke:#000;stroke-width:1"/></g><text x="1723.03" y="532.623" fill="#000" font-family="sans-serif" font-size="14" lengthAdjust="spacing" textLength="85.353">id : INT «PK»</text><line style="stroke:#181818;stroke-width:1" x1="1704.03" x2="1871.393" y1="539.577" y2="539.577"/><text x="1709.03" y="557.112" fill="#000" font-family="sans-serif" font-size="14" lengthAdjust="spacing" textLength="157.363">employee_id : INT «FK»</text><text x="1709.03" y="573.6" fill="#000" font-family="sans-serif" font-size="14" lengthAdjust="spacing" textLength="79.454">date : DATE</text><text x="1709.03" y="590.088" fill="#000" font-family="sans-serif" font-size="14" lengthAdjust="spacing" textLength="141.155">check_in : DATETIME</text><text x="1709.03" y="606.577" fill="#000" font-family="sans-serif" font-size="14" lengthAdjust="spacing" textLength="150.944">check_out : DATETIME</text><text x="1709.03" y="623.065" fill="#000" font-family="sans-serif" font-size="14" lengthAdjust="spacing" textLength="120.606">status : VARCHAR</text></g><g id="ent0006" class="entity" data-qualified-name="LeaveType" data-source-line="57"><rect style="stroke:#181818;stroke-width:.5" width="167.518" height="97.465" x="240.96" y="259.668" fill="#F1F1F1" rx="2.5" ry="2.5"/><ellipse cx="285.074" cy="275.668" fill="#ADD1B2" rx="11" ry="11" style="stroke:#181818;stroke-width:1"/><path fill="#000" d="M288.688,282.1683 L280.9683,282.1683 L280.9683,269.7752 L288.688,269.7752 L288.688,271.9334 L283.417,271.9334 L283.417,274.6063 L288.19,274.6063 L288.19,276.7645 L283.417,276.7645 L283.417,280.0101 L288.688,280.0101 Z"/><text x="305.543" y="280.959" fill="#000" font-family="sans-serif" font-size="14" lengthAdjust="spacing" textLength="70.82">LeaveType</text><line style="stroke:#181818;stroke-width:.5" x1="241.96" x2="407.478" y1="291.668" y2="291.668"/><g data-visibility-modifier="IE_MANDATORY"><ellipse cx="251.96" cy="305.412" fill="#000" rx="3" ry="3" style="stroke:#000;stroke-width:1"/></g><text x="260.96" y="309.203" fill="#000" font-family="sans-serif" font-size="14" lengthAdjust="spacing" textLength="85.353">id : INT «PK»</text><line style="stroke:#181818;stroke-width:1" x1="241.96" x2="407.478" y1="316.157" y2="316.157"/><text x="246.96" y="333.692" fill="#000" font-family="sans-serif" font-size="14" lengthAdjust="spacing" textLength="116.731">name : VARCHAR</text><text x="246.96" y="350.18" fill="#000" font-family="sans-serif" font-size="14" lengthAdjust="spacing" textLength="155.518">description : VARCHAR</text></g><g id="ent0007" class="entity" data-qualified-name="LeaveRequest" data-source-line="64"><rect style="stroke:#181818;stroke-width:.5" width="174.907" height="146.93" x="237.26" y="483.088" fill="#F1F1F1" rx="2.5" ry="2.5"/><ellipse cx="275.003" cy="499.088" fill="#ADD1B2" rx="11" ry="11" style="stroke:#181818;stroke-width:1"/><path fill="#000" d="M278.6173,505.5883 L270.8975,505.5883 L270.8975,493.1952 L278.6173,493.1952 L278.6173,495.3534 L273.3463,495.3534 L273.3463,498.0263 L278.1192,498.0263 L278.1192,500.1845 L273.3463,500.1845 L273.3463,503.4301 L278.6173,503.4301 Z"/><text x="294.057" y="504.379" fill="#000" font-family="sans-serif" font-size="14" lengthAdjust="spacing" textLength="92.367">LeaveRequest</text><line style="stroke:#181818;stroke-width:.5" x1="238.26" x2="411.167" y1="515.088" y2="515.088"/><g data-visibility-modifier="IE_MANDATORY"><ellipse cx="248.26" cy="528.832" fill="#000" rx="3" ry="3" style="stroke:#000;stroke-width:1"/></g><text x="257.26" y="532.623" fill="#000" font-family="sans-serif" font-size="14" lengthAdjust="spacing" textLength="85.353">id : INT «PK»</text><line style="stroke:#181818;stroke-width:1" x1="238.26" x2="411.167" y1="539.577" y2="539.577"/><text x="243.26" y="557.112" fill="#000" font-family="sans-serif" font-size="14" lengthAdjust="spacing" textLength="157.363">employee_id : INT «FK»</text><text x="243.26" y="573.6" fill="#000" font-family="sans-serif" font-size="14" lengthAdjust="spacing" textLength="162.907">leave_type_id : INT «FK»</text><text x="243.26" y="590.088" fill="#000" font-family="sans-serif" font-size="14" lengthAdjust="spacing" textLength="117.523">start_date : DATE</text><text x="243.26" y="606.577" fill="#000" font-family="sans-serif" font-size="14" lengthAdjust="spacing" textLength="111.754">end_date : DATE</text><text x="243.26" y="623.065" fill="#000" font-family="sans-serif" font-size="14" lengthAdjust="spacing" textLength="120.606">status : VARCHAR</text></g><g id="ent0008" class="entity" data-qualified-name="Project" data-source-line="74"><rect style="stroke:#181818;stroke-width:.5" width="167.518" height="113.953" x="447.96" y="251.418" fill="#F1F1F1" rx="2.5" ry="2.5"/><ellipse cx="504.203" cy="267.418" fill="#ADD1B2" rx="11" ry="11" style="stroke:#181818;stroke-width:1"/><path fill="#000" d="M507.8169,273.9183 L500.0972,273.9183 L500.0972,261.5252 L507.8169,261.5252 L507.8169,263.6834 L502.5459,263.6834 L502.5459,266.3563 L507.3189,266.3563 L507.3189,268.5145 L502.5459,268.5145 L502.5459,271.7601 L507.8169,271.7601 Z"/><text x="524.703" y="272.709" fill="#000" font-family="sans-serif" font-size="14" lengthAdjust="spacing" textLength="46.532">Project</text><line style="stroke:#181818;stroke-width:.5" x1="448.96" x2="614.478" y1="283.418" y2="283.418"/><g data-visibility-modifier="IE_MANDATORY"><ellipse cx="458.96" cy="297.162" fill="#000" rx="3" ry="3" style="stroke:#000;stroke-width:1"/></g><text x="467.96" y="300.953" fill="#000" font-family="sans-serif" font-size="14" lengthAdjust="spacing" textLength="85.353">id : INT «PK»</text><line style="stroke:#181818;stroke-width:1" x1="448.96" x2="614.478" y1="307.907" y2="307.907"/><text x="453.96" y="325.442" fill="#000" font-family="sans-serif" font-size="14" lengthAdjust="spacing" textLength="116.731">name : VARCHAR</text><text x="453.96" y="341.93" fill="#000" font-family="sans-serif" font-size="14" lengthAdjust="spacing" textLength="155.518">description : VARCHAR</text><text x="453.96" y="358.418" fill="#000" font-family="sans-serif" font-size="14" lengthAdjust="spacing" textLength="120.606">status : VARCHAR</text></g><g id="ent0009" class="entity" data-qualified-name="Task" data-source-line="82"><rect style="stroke:#181818;stroke-width:.5" width="169.363" height="163.418" x="447.03" y="474.838" fill="#F1F1F1" rx="2.5" ry="2.5"/><ellipse cx="511.51" cy="490.838" fill="#ADD1B2" rx="11" ry="11" style="stroke:#181818;stroke-width:1"/><path fill="#000" d="M515.1242,497.3383 L507.4045,497.3383 L507.4045,484.9452 L515.1242,484.9452 L515.1242,487.1034 L509.8532,487.1034 L509.8532,489.7763 L514.6262,489.7763 L514.6262,491.9345 L509.8532,491.9345 L509.8532,495.1801 L515.1242,495.1801 Z"/><text x="532.01" y="496.129" fill="#000" font-family="sans-serif" font-size="14" lengthAdjust="spacing" textLength="31.903">Task</text><line style="stroke:#181818;stroke-width:.5" x1="448.03" x2="615.393" y1="506.838" y2="506.838"/><g data-visibility-modifier="IE_MANDATORY"><ellipse cx="458.03" cy="520.582" fill="#000" rx="3" ry="3" style="stroke:#000;stroke-width:1"/></g><text x="467.03" y="524.373" fill="#000" font-family="sans-serif" font-size="14" lengthAdjust="spacing" textLength="85.353">id : INT «PK»</text><line style="stroke:#181818;stroke-width:1" x1="448.03" x2="615.393" y1="531.327" y2="531.327"/><text x="453.03" y="548.862" fill="#000" font-family="sans-serif" font-size="14" lengthAdjust="spacing" textLength="139.727">project_id : INT «FK»</text><text x="453.03" y="565.35" fill="#000" font-family="sans-serif" font-size="14" lengthAdjust="spacing" textLength="157.363">employee_id : INT «FK»</text><text x="453.03" y="581.838" fill="#000" font-family="sans-serif" font-size="14" lengthAdjust="spacing" textLength="105.807">title : VARCHAR</text><text x="453.03" y="598.327" fill="#000" font-family="sans-serif" font-size="14" lengthAdjust="spacing" textLength="128.953">priority : VARCHAR</text><text x="453.03" y="614.815" fill="#000" font-family="sans-serif" font-size="14" lengthAdjust="spacing" textLength="120.606">status : VARCHAR</text><text x="453.03" y="631.303" fill="#000" font-family="sans-serif" font-size="14" lengthAdjust="spacing" textLength="111.754">due_date : DATE</text></g><g id="ent0010" class="entity" data-qualified-name="Meeting" data-source-line="93"><rect style="stroke:#181818;stroke-width:.5" width="186.932" height="130.441" x="1907.25" y="491.328" fill="#F1F1F1" rx="2.5" ry="2.5"/><ellipse cx="1969.286" cy="507.328" fill="#ADD1B2" rx="11" ry="11" style="stroke:#181818;stroke-width:1"/><path fill="#000" d="M1972.9004,513.8283 L1965.1807,513.8283 L1965.1807,501.4352 L1972.9004,501.4352 L1972.9004,503.5934 L1967.6294,503.5934 L1967.6294,506.2663 L1972.4023,506.2663 L1972.4023,508.4245 L1967.6294,508.4245 L1967.6294,511.6701 L1972.9004,511.6701 Z"/><text x="1989.786" y="512.619" fill="#000" font-family="sans-serif" font-size="14" lengthAdjust="spacing" textLength="54.359">Meeting</text><line style="stroke:#181818;stroke-width:.5" x1="1908.25" x2="2093.182" y1="523.328" y2="523.328"/><g data-visibility-modifier="IE_MANDATORY"><ellipse cx="1918.25" cy="537.072" fill="#000" rx="3" ry="3" style="stroke:#000;stroke-width:1"/></g><text x="1927.25" y="540.863" fill="#000" font-family="sans-serif" font-size="14" lengthAdjust="spacing" textLength="85.353">id : INT «PK»</text><line style="stroke:#181818;stroke-width:1" x1="1908.25" x2="2093.182" y1="547.817" y2="547.817"/><text x="1913.25" y="565.352" fill="#000" font-family="sans-serif" font-size="14" lengthAdjust="spacing" textLength="157.363">employee_id : INT «FK»</text><text x="1913.25" y="581.84" fill="#000" font-family="sans-serif" font-size="14" lengthAdjust="spacing" textLength="105.807">title : VARCHAR</text><text x="1913.25" y="598.328" fill="#000" font-family="sans-serif" font-size="14" lengthAdjust="spacing" textLength="174.932">meeting_time : DATETIME</text><text x="1913.25" y="614.817" fill="#000" font-family="sans-serif" font-size="14" lengthAdjust="spacing" textLength="94.049">duration : INT</text></g><g id="ent0011" class="entity" data-qualified-name="WorkLog" data-source-line="102"><rect style="stroke:#181818;stroke-width:.5" width="169.363" height="130.441" x="651.03" y="491.328" fill="#F1F1F1" rx="2.5" ry="2.5"/><ellipse cx="701.821" cy="507.328" fill="#ADD1B2" rx="11" ry="11" style="stroke:#181818;stroke-width:1"/><path fill="#000" d="M705.4353,513.8283 L697.7155,513.8283 L697.7155,501.4352 L705.4353,501.4352 L705.4353,503.5934 L700.1643,503.5934 L700.1643,506.2663 L704.9372,506.2663 L704.9372,508.4245 L700.1643,508.4245 L700.1643,511.6701 L705.4353,511.6701 Z"/><text x="722.321" y="512.619" fill="#000" font-family="sans-serif" font-size="14" lengthAdjust="spacing" textLength="59.281">WorkLog</text><line style="stroke:#181818;stroke-width:.5" x1="652.03" x2="819.393" y1="523.328" y2="523.328"/><g data-visibility-modifier="IE_MANDATORY"><ellipse cx="662.03" cy="537.072" fill="#000" rx="3" ry="3" style="stroke:#000;stroke-width:1"/></g><text x="671.03" y="540.863" fill="#000" font-family="sans-serif" font-size="14" lengthAdjust="spacing" textLength="85.353">id : INT «PK»</text><line style="stroke:#181818;stroke-width:1" x1="652.03" x2="819.393" y1="547.817" y2="547.817"/><text x="657.03" y="565.352" fill="#000" font-family="sans-serif" font-size="14" lengthAdjust="spacing" textLength="157.363">employee_id : INT «FK»</text><text x="657.03" y="581.84" fill="#000" font-family="sans-serif" font-size="14" lengthAdjust="spacing" textLength="119.752">work_date : DATE</text><text x="657.03" y="598.328" fill="#000" font-family="sans-serif" font-size="14" lengthAdjust="spacing" textLength="96.489">hours : FLOAT</text><text x="657.03" y="614.817" fill="#000" font-family="sans-serif" font-size="14" lengthAdjust="spacing" textLength="123.423">description : TEXT</text></g><g id="ent0012" class="entity" data-qualified-name="PerformanceReview" data-source-line="111"><rect style="stroke:#181818;stroke-width:.5" width="169.363" height="130.441" x="855.03" y="491.328" fill="#F1F1F1" rx="2.5" ry="2.5"/><ellipse cx="872.563" cy="507.328" fill="#ADD1B2" rx="11" ry="11" style="stroke:#181818;stroke-width:1"/><path fill="#000" d="M876.1768,513.8283 L868.4571,513.8283 L868.4571,501.4352 L876.1768,501.4352 L876.1768,503.5934 L870.9058,503.5934 L870.9058,506.2663 L875.6788,506.2663 L875.6788,508.4245 L870.9058,508.4245 L870.9058,511.6701 L876.1768,511.6701 Z"/><text x="887.125" y="512.619" fill="#000" font-family="sans-serif" font-size="14" lengthAdjust="spacing" textLength="131.735">PerformanceReview</text><line style="stroke:#181818;stroke-width:.5" x1="856.03" x2="1023.393" y1="523.328" y2="523.328"/><g data-visibility-modifier="IE_MANDATORY"><ellipse cx="866.03" cy="537.072" fill="#000" rx="3" ry="3" style="stroke:#000;stroke-width:1"/></g><text x="875.03" y="540.863" fill="#000" font-family="sans-serif" font-size="14" lengthAdjust="spacing" textLength="85.353">id : INT «PK»</text><line style="stroke:#181818;stroke-width:1" x1="856.03" x2="1023.393" y1="547.817" y2="547.817"/><text x="861.03" y="565.352" fill="#000" font-family="sans-serif" font-size="14" lengthAdjust="spacing" textLength="157.363">employee_id : INT «FK»</text><text x="861.03" y="581.84" fill="#000" font-family="sans-serif" font-size="14" lengthAdjust="spacing" textLength="97.809">rating : FLOAT</text><text x="861.03" y="598.328" fill="#000" font-family="sans-serif" font-size="14" lengthAdjust="spacing" textLength="118.118">comments : TEXT</text><text x="861.03" y="614.817" fill="#000" font-family="sans-serif" font-size="14" lengthAdjust="spacing" textLength="129.862">review_date : DATE</text></g><g id="ent0013" class="entity" data-qualified-name="Prediction" data-source-line="120"><rect style="stroke:#181818;stroke-width:.5" width="194.02" height="146.93" x="1059.7" y="483.088" fill="#F1F1F1" rx="2.5" ry="2.5"/><ellipse cx="1118.527" cy="499.088" fill="#ADD1B2" rx="11" ry="11" style="stroke:#181818;stroke-width:1"/><path fill="#000" d="M1122.1409,505.5883 L1114.4212,505.5883 L1114.4212,493.1952 L1122.1409,493.1952 L1122.1409,495.3534 L1116.8699,495.3534 L1116.8699,498.0263 L1121.6429,498.0263 L1121.6429,500.1845 L1116.8699,500.1845 L1116.8699,503.4301 L1122.1409,503.4301 Z"/><text x="1139.027" y="504.379" fill="#000" font-family="sans-serif" font-size="14" lengthAdjust="spacing" textLength="67.867">Prediction</text><line style="stroke:#181818;stroke-width:.5" x1="1060.7" x2="1252.72" y1="515.088" y2="515.088"/><g data-visibility-modifier="IE_MANDATORY"><ellipse cx="1070.7" cy="528.832" fill="#000" rx="3" ry="3" style="stroke:#000;stroke-width:1"/></g><text x="1079.7" y="532.623" fill="#000" font-family="sans-serif" font-size="14" lengthAdjust="spacing" textLength="85.353">id : INT «PK»</text><line style="stroke:#181818;stroke-width:1" x1="1060.7" x2="1252.72" y1="539.577" y2="539.577"/><text x="1065.7" y="557.112" fill="#000" font-family="sans-serif" font-size="14" lengthAdjust="spacing" textLength="157.363">employee_id : INT «FK»</text><text x="1065.7" y="573.6" fill="#000" font-family="sans-serif" font-size="14" lengthAdjust="spacing" textLength="155.524">burnout_score : FLOAT</text><text x="1065.7" y="590.088" fill="#000" font-family="sans-serif" font-size="14" lengthAdjust="spacing" textLength="165.977">burnout_risk : VARCHAR</text><text x="1065.7" y="606.577" fill="#000" font-family="sans-serif" font-size="14" lengthAdjust="spacing" textLength="182.02">productivity_score : FLOAT</text><text x="1065.7" y="623.065" fill="#000" font-family="sans-serif" font-size="14" lengthAdjust="spacing" textLength="170.912">predicted_on : DATETIME</text></g><g id="ent0014" class="entity" data-qualified-name="Notification" data-source-line="130"><rect style="stroke:#181818;stroke-width:.5" width="169.363" height="130.441" x="1289.03" y="491.328" fill="#F1F1F1" rx="2.5" ry="2.5"/><ellipse cx="1330.341" cy="507.328" fill="#ADD1B2" rx="11" ry="11" style="stroke:#181818;stroke-width:1"/><path fill="#000" d="M1333.9556,513.8283 L1326.2359,513.8283 L1326.2359,501.4352 L1333.9556,501.4352 L1333.9556,503.5934 L1328.6846,503.5934 L1328.6846,506.2663 L1333.4576,506.2663 L1333.4576,508.4245 L1328.6846,508.4245 L1328.6846,511.6701 L1333.9556,511.6701 Z"/><text x="1350.188" y="512.619" fill="#000" font-family="sans-serif" font-size="14" lengthAdjust="spacing" textLength="78.894">Notification</text><line style="stroke:#181818;stroke-width:.5" x1="1290.03" x2="1457.393" y1="523.328" y2="523.328"/><g data-visibility-modifier="IE_MANDATORY"><ellipse cx="1300.03" cy="537.072" fill="#000" rx="3" ry="3" style="stroke:#000;stroke-width:1"/></g><text x="1309.03" y="540.863" fill="#000" font-family="sans-serif" font-size="14" lengthAdjust="spacing" textLength="85.353">id : INT «PK»</text><line style="stroke:#181818;stroke-width:1" x1="1290.03" x2="1457.393" y1="547.817" y2="547.817"/><text x="1295.03" y="565.352" fill="#000" font-family="sans-serif" font-size="14" lengthAdjust="spacing" textLength="157.363">employee_id : INT «FK»</text><text x="1295.03" y="581.84" fill="#000" font-family="sans-serif" font-size="14" lengthAdjust="spacing" textLength="106.75">message : TEXT</text><text x="1295.03" y="598.328" fill="#000" font-family="sans-serif" font-size="14" lengthAdjust="spacing" textLength="126.403">is_read : BOOLEAN</text><text x="1295.03" y="614.817" fill="#000" font-family="sans-serif" font-size="14" lengthAdjust="spacing" textLength="152.653">created_at : DATETIME</text></g><g id="ent0015" class="entity" data-qualified-name="AuditLog" data-source-line="139"><rect style="stroke:#181818;stroke-width:.5" width="174.053" height="130.441" x="1493.69" y="491.328" fill="#F1F1F1" rx="2.5" ry="2.5"/><ellipse cx="1545.848" cy="507.328" fill="#ADD1B2" rx="11" ry="11" style="stroke:#181818;stroke-width:1"/><path fill="#000" d="M1549.4625,513.8283 L1541.7427,513.8283 L1541.7427,501.4352 L1549.4625,501.4352 L1549.4625,503.5934 L1544.1915,503.5934 L1544.1915,506.2663 L1548.9644,506.2663 L1548.9644,508.4245 L1544.1915,508.4245 L1544.1915,511.6701 L1549.4625,511.6701 Z"/><text x="1566.348" y="512.619" fill="#000" font-family="sans-serif" font-size="14" lengthAdjust="spacing" textLength="61.236">AuditLog</text><line style="stroke:#181818;stroke-width:.5" x1="1494.69" x2="1666.743" y1="523.328" y2="523.328"/><g data-visibility-modifier="IE_MANDATORY"><ellipse cx="1504.69" cy="537.072" fill="#000" rx="3" ry="3" style="stroke:#000;stroke-width:1"/></g><text x="1513.69" y="540.863" fill="#000" font-family="sans-serif" font-size="14" lengthAdjust="spacing" textLength="85.353">id : INT «PK»</text><line style="stroke:#181818;stroke-width:1" x1="1494.69" x2="1666.743" y1="547.817" y2="547.817"/><text x="1499.69" y="565.352" fill="#000" font-family="sans-serif" font-size="14" lengthAdjust="spacing" textLength="157.363">employee_id : INT «FK»</text><text x="1499.69" y="581.84" fill="#000" font-family="sans-serif" font-size="14" lengthAdjust="spacing" textLength="120.914">action : VARCHAR</text><text x="1499.69" y="598.328" fill="#000" font-family="sans-serif" font-size="14" lengthAdjust="spacing" textLength="162.053">entity_name : VARCHAR</text><text x="1499.69" y="614.817" fill="#000" font-family="sans-serif" font-size="14" lengthAdjust="spacing" textLength="154.547">timestamp : DATETIME</text></g><g id="lnk16" class="link" data-entity-1="ent0001" data-entity-2="ent0002" data-link-type="crowfoot" data-source-line="148"><path id="Role-User" fill="none" d="M104.71,365.4283 C104.71,398.7583 104.71,417.6683 104.71,456.4083" codeLine="148" style="stroke:#181818;stroke-width:1"/><line style="stroke:#181818;stroke-width:1" x1="100.71" x2="108.71" y1="361.428" y2="361.428"/><line style="stroke:#181818;stroke-width:1" x1="100.71" x2="108.71" y1="364.428" y2="364.428"/><line style="stroke:#181818;stroke-width:1" x1="104.71" x2="104.71" y1="365.428" y2="357.428"/><line style="stroke:#181818;stroke-width:1" x1="104.71" x2="110.71" y1="466.408" y2="474.408"/><line style="stroke:#181818;stroke-width:1" x1="104.71" x2="98.71" y1="466.408" y2="474.408"/><line style="stroke:#181818;stroke-width:1" x1="104.71" x2="104.71" y1="466.408" y2="474.408"/><ellipse cx="104.71" cy="460.408" fill="none" rx="4" ry="4" style="stroke:#181818;stroke-width:1"/></g><g id="lnk17" class="link" data-entity-1="ent0003" data-entity-2="ent0004" data-link-type="crowfoot" data-source-line="150"><path id="Department-Employee" fill="none" d="M1047.71,150.3183 C1047.71,168.0583 1047.71,162.8383 1047.71,183.5883" codeLine="150" style="stroke:#181818;stroke-width:1"/><line style="stroke:#181818;stroke-width:1" x1="1043.71" x2="1051.71" y1="146.318" y2="146.318"/><line style="stroke:#181818;stroke-width:1" x1="1043.71" x2="1051.71" y1="149.318" y2="149.318"/><line style="stroke:#181818;stroke-width:1" x1="1047.71" x2="1047.71" y1="150.318" y2="142.318"/><line style="stroke:#181818;stroke-width:1" x1="1047.71" x2="1053.71" y1="193.588" y2="201.588"/><line style="stroke:#181818;stroke-width:1" x1="1047.71" x2="1041.71" y1="193.588" y2="201.588"/><line style="stroke:#181818;stroke-width:1" x1="1047.71" x2="1047.71" y1="193.588" y2="201.588"/><ellipse cx="1047.71" cy="187.588" fill="none" rx="4" ry="4" style="stroke:#181818;stroke-width:1"/></g><g id="lnk18" class="link" data-entity-1="ent0004" data-entity-2="ent0002" data-link-type="association" data-source-line="152"><path id="Employee-User" fill="none" d="M941.53,377.2583 C717.43,377.2583 195.45,377.2583 195.45,377.2583 C195.45,377.2583 195.45,419.2983 195.45,466.5083" codeLine="152" style="stroke:#181818;stroke-width:1"/><line style="stroke:#181818;stroke-width:1" x1="945.53" x2="945.53" y1="373.258" y2="381.258"/><line style="stroke:#181818;stroke-width:1" x1="942.53" x2="942.53" y1="373.258" y2="381.258"/><line style="stroke:#181818;stroke-width:1" x1="941.53" x2="949.53" y1="377.258" y2="377.258"/><line style="stroke:#181818;stroke-width:1" x1="199.45" x2="191.45" y1="470.508" y2="470.508"/><line style="stroke:#181818;stroke-width:1" x1="199.45" x2="191.45" y1="467.508" y2="467.508"/><line style="stroke:#181818;stroke-width:1" x1="195.45" x2="195.45" y1="466.508" y2="474.508"/></g><g id="lnk19" class="link" data-entity-1="ent0004" data-entity-2="ent0005" data-link-type="crowfoot" data-source-line="154"><path id="Employee-Attendance" fill="none" d="M1153.98,287.2583 C1355.28,287.2583 1787.71,287.2583 1787.71,287.2583 C1787.71,287.2583 1787.71,384.8883 1787.71,464.6083" codeLine="154" style="stroke:#181818;stroke-width:1"/><line style="stroke:#181818;stroke-width:1" x1="1149.98" x2="1149.98" y1="291.258" y2="283.258"/><line style="stroke:#181818;stroke-width:1" x1="1152.98" x2="1152.98" y1="291.258" y2="283.258"/><line style="stroke:#181818;stroke-width:1" x1="1153.98" x2="1145.98" y1="287.258" y2="287.258"/><line style="stroke:#181818;stroke-width:1" x1="1787.71" x2="1793.71" y1="474.608" y2="482.608"/><line style="stroke:#181818;stroke-width:1" x1="1787.71" x2="1781.71" y1="474.608" y2="482.608"/><line style="stroke:#181818;stroke-width:1" x1="1787.71" x2="1787.71" y1="474.608" y2="482.608"/><ellipse cx="1787.71" cy="468.608" fill="none" rx="4" ry="4" style="stroke:#181818;stroke-width:1"/></g><g id="lnk20" class="link" data-entity-1="ent0004" data-entity-2="ent0007" data-link-type="crowfoot" data-source-line="155"><path id="Employee-LeaveRequest" fill="none" d="M941.23,390.2583 C749.48,390.2583 352.63,390.2583 352.63,390.2583 C352.63,390.2583 352.63,420.2283 352.63,464.6383" codeLine="155" style="stroke:#181818;stroke-width:1"/><line style="stroke:#181818;stroke-width:1" x1="945.23" x2="945.23" y1="386.258" y2="394.258"/><line style="stroke:#181818;stroke-width:1" x1="942.23" x2="942.23" y1="386.258" y2="394.258"/><line style="stroke:#181818;stroke-width:1" x1="941.23" x2="949.23" y1="390.258" y2="390.258"/><line style="stroke:#181818;stroke-width:1" x1="352.63" x2="358.63" y1="474.638" y2="482.638"/><line style="stroke:#181818;stroke-width:1" x1="352.63" x2="346.63" y1="474.638" y2="482.638"/><line style="stroke:#181818;stroke-width:1" x1="352.63" x2="352.63" y1="474.638" y2="482.638"/><ellipse cx="352.63" cy="468.638" fill="none" rx="4" ry="4" style="stroke:#181818;stroke-width:1"/></g><g id="lnk21" class="link" data-entity-1="ent0004" data-entity-2="ent0011" data-link-type="crowfoot" data-source-line="156"><path id="Employee-WorkLog" fill="none" d="M941.42,402.2583 C849.97,402.2583 735.71,402.2583 735.71,402.2583 C735.71,402.2583 735.71,431.0683 735.71,473.1183" codeLine="156" style="stroke:#181818;stroke-width:1"/><line style="stroke:#181818;stroke-width:1" x1="945.42" x2="945.42" y1="398.258" y2="406.258"/><line style="stroke:#181818;stroke-width:1" x1="942.42" x2="942.42" y1="398.258" y2="406.258"/><line style="stroke:#181818;stroke-width:1" x1="941.42" x2="949.42" y1="402.258" y2="402.258"/><line style="stroke:#181818;stroke-width:1" x1="735.71" x2="741.71" y1="483.118" y2="491.118"/><line style="stroke:#181818;stroke-width:1" x1="735.71" x2="729.71" y1="483.118" y2="491.118"/><line style="stroke:#181818;stroke-width:1" x1="735.71" x2="735.71" y1="483.118" y2="491.118"/><ellipse cx="735.71" cy="477.118" fill="none" rx="4" ry="4" style="stroke:#181818;stroke-width:1"/></g><g id="lnk22" class="link" data-entity-1="ent0004" data-entity-2="ent0012" data-link-type="crowfoot" data-source-line="157"><path id="Employee-PerformanceReview" fill="none" d="M987.04,423.0783 C987.04,448.9583 987.04,449.8683 987.04,473.1783" codeLine="157" style="stroke:#181818;stroke-width:1"/><line style="stroke:#181818;stroke-width:1" x1="983.04" x2="991.04" y1="419.078" y2="419.078"/><line style="stroke:#181818;stroke-width:1" x1="983.04" x2="991.04" y1="422.078" y2="422.078"/><line style="stroke:#181818;stroke-width:1" x1="987.04" x2="987.04" y1="423.078" y2="415.078"/><line style="stroke:#181818;stroke-width:1" x1="987.04" x2="993.04" y1="483.178" y2="491.178"/><line style="stroke:#181818;stroke-width:1" x1="987.04" x2="981.04" y1="483.178" y2="491.178"/><line style="stroke:#181818;stroke-width:1" x1="987.04" x2="987.04" y1="483.178" y2="491.178"/><ellipse cx="987.04" cy="477.178" fill="none" rx="4" ry="4" style="stroke:#181818;stroke-width:1"/></g><g id="lnk23" class="link" data-entity-1="ent0004" data-entity-2="ent0013" data-link-type="crowfoot" data-source-line="158"><path id="Employee-Prediction" fill="none" d="M1102.73,423.0783 C1102.73,445.9383 1102.73,443.5983 1102.73,464.8683" codeLine="158" style="stroke:#181818;stroke-width:1"/><line style="stroke:#181818;stroke-width:1" x1="1098.73" x2="1106.73" y1="419.078" y2="419.078"/><line style="stroke:#181818;stroke-width:1" x1="1098.73" x2="1106.73" y1="422.078" y2="422.078"/><line style="stroke:#181818;stroke-width:1" x1="1102.73" x2="1102.73" y1="423.078" y2="415.078"/><line style="stroke:#181818;stroke-width:1" x1="1102.73" x2="1108.73" y1="474.868" y2="482.868"/><line style="stroke:#181818;stroke-width:1" x1="1102.73" x2="1096.73" y1="474.868" y2="482.868"/><line style="stroke:#181818;stroke-width:1" x1="1102.73" x2="1102.73" y1="474.868" y2="482.868"/><ellipse cx="1102.73" cy="468.868" fill="none" rx="4" ry="4" style="stroke:#181818;stroke-width:1"/></g><g id="lnk24" class="link" data-entity-1="ent0004" data-entity-2="ent0014" data-link-type="crowfoot" data-source-line="159"><path id="Employee-Notification" fill="none" d="M1153.97,372.2583 C1249.96,372.2583 1373.71,372.2583 1373.71,372.2583 C1373.71,372.2583 1373.71,420.0883 1373.71,473.0583" codeLine="159" style="stroke:#181818;stroke-width:1"/><line style="stroke:#181818;stroke-width:1" x1="1149.97" x2="1149.97" y1="376.258" y2="368.258"/><line style="stroke:#181818;stroke-width:1" x1="1152.97" x2="1152.97" y1="376.258" y2="368.258"/><line style="stroke:#181818;stroke-width:1" x1="1153.97" x2="1145.97" y1="372.258" y2="372.258"/><line style="stroke:#181818;stroke-width:1" x1="1373.71" x2="1379.71" y1="483.058" y2="491.058"/><line style="stroke:#181818;stroke-width:1" x1="1373.71" x2="1367.71" y1="483.058" y2="491.058"/><line style="stroke:#181818;stroke-width:1" x1="1373.71" x2="1373.71" y1="483.058" y2="491.058"/><ellipse cx="1373.71" cy="477.058" fill="none" rx="4" ry="4" style="stroke:#181818;stroke-width:1"/></g><g id="lnk25" class="link" data-entity-1="ent0004" data-entity-2="ent0015" data-link-type="crowfoot" data-source-line="160"><path id="Employee-AuditLog" fill="none" d="M1154.1,329.2583 C1308.1,329.2583 1580.71,329.2583 1580.71,329.2583 C1580.71,329.2583 1580.71,405.9683 1580.71,473.1083" codeLine="160" style="stroke:#181818;stroke-width:1"/><line style="stroke:#181818;stroke-width:1" x1="1150.1" x2="1150.1" y1="333.258" y2="325.258"/><line style="stroke:#181818;stroke-width:1" x1="1153.1" x2="1153.1" y1="333.258" y2="325.258"/><line style="stroke:#181818;stroke-width:1" x1="1154.1" x2="1146.1" y1="329.258" y2="329.258"/><line style="stroke:#181818;stroke-width:1" x1="1580.71" x2="1586.71" y1="483.108" y2="491.108"/><line style="stroke:#181818;stroke-width:1" x1="1580.71" x2="1574.71" y1="483.108" y2="491.108"/><line style="stroke:#181818;stroke-width:1" x1="1580.71" x2="1580.71" y1="483.108" y2="491.108"/><ellipse cx="1580.71" cy="477.108" fill="none" rx="4" ry="4" style="stroke:#181818;stroke-width:1"/></g><g id="lnk26" class="link" data-entity-1="ent0004" data-entity-2="ent0010" data-link-type="crowfoot" data-source-line="161"><path id="Employee-Meeting" fill="none" d="M1154.11,244.2583 C1397.6,244.2583 2000.71,244.2583 2000.71,244.2583 C2000.71,244.2583 2000.71,381.5083 2000.71,473.0783" codeLine="161" style="stroke:#181818;stroke-width:1"/><line style="stroke:#181818;stroke-width:1" x1="1150.11" x2="1150.11" y1="248.258" y2="240.258"/><line style="stroke:#181818;stroke-width:1" x1="1153.11" x2="1153.11" y1="248.258" y2="240.258"/><line style="stroke:#181818;stroke-width:1" x1="1154.11" x2="1146.11" y1="244.258" y2="244.258"/><line style="stroke:#181818;stroke-width:1" x1="2000.71" x2="2006.71" y1="483.078" y2="491.078"/><line style="stroke:#181818;stroke-width:1" x1="2000.71" x2="1994.71" y1="483.078" y2="491.078"/><line style="stroke:#181818;stroke-width:1" x1="2000.71" x2="2000.71" y1="483.078" y2="491.078"/><ellipse cx="2000.71" cy="477.078" fill="none" rx="4" ry="4" style="stroke:#181818;stroke-width:1"/></g><g id="lnk27" class="link" data-entity-1="ent0004" data-entity-2="ent0009" data-link-type="crowfoot" data-source-line="162"><path id="Employee-Task" fill="none" d="M968.36,423.1483 C968.36,457.6883 968.36,479.2583 968.36,479.2583 C968.36,479.2583 761.71,479.2583 634.68,479.2583" codeLine="162" style="stroke:#181818;stroke-width:1"/><line style="stroke:#181818;stroke-width:1" x1="964.36" x2="972.36" y1="419.148" y2="419.148"/><line style="stroke:#181818;stroke-width:1" x1="964.36" x2="972.36" y1="422.148" y2="422.148"/><line style="stroke:#181818;stroke-width:1" x1="968.36" x2="968.36" y1="423.148" y2="415.148"/><line style="stroke:#181818;stroke-width:1" x1="624.68" x2="616.68" y1="479.258" y2="485.258"/><line style="stroke:#181818;stroke-width:1" x1="624.68" x2="616.68" y1="479.258" y2="473.258"/><line style="stroke:#181818;stroke-width:1" x1="624.68" x2="616.68" y1="479.258" y2="479.258"/><ellipse cx="630.68" cy="479.258" fill="none" rx="4" ry="4" style="stroke:#181818;stroke-width:1"/></g><g id="lnk28" class="link" data-entity-1="ent0006" data-entity-2="ent0007" data-link-type="crowfoot" data-source-line="164"><path id="LeaveType-LeaveRequest" fill="none" d="M296.79,365.4283 C296.79,401.1583 296.79,424.1983 296.79,464.6683" codeLine="164" style="stroke:#181818;stroke-width:1"/><line style="stroke:#181818;stroke-width:1" x1="292.79" x2="300.79" y1="361.428" y2="361.428"/><line style="stroke:#181818;stroke-width:1" x1="292.79" x2="300.79" y1="364.428" y2="364.428"/><line style="stroke:#181818;stroke-width:1" x1="296.79" x2="296.79" y1="365.428" y2="357.428"/><line style="stroke:#181818;stroke-width:1" x1="296.79" x2="302.79" y1="474.668" y2="482.668"/><line style="stroke:#181818;stroke-width:1" x1="296.79" x2="290.79" y1="474.668" y2="482.668"/><line style="stroke:#181818;stroke-width:1" x1="296.79" x2="296.79" y1="474.668" y2="482.668"/><ellipse cx="296.79" cy="468.668" fill="none" rx="4" ry="4" style="stroke:#181818;stroke-width:1"/></g><g id="lnk29" class="link" data-entity-1="ent0008" data-entity-2="ent0009" data-link-type="crowfoot" data-source-line="166"><path id="Project-Task" fill="none" d="M531.71,373.6383 C531.71,405.9883 531.71,420.9783 531.71,456.6783" codeLine="166" style="stroke:#181818;stroke-width:1"/><line style="stroke:#181818;stroke-width:1" x1="527.71" x2="535.71" y1="369.638" y2="369.638"/><line style="stroke:#181818;stroke-width:1" x1="527.71" x2="535.71" y1="372.638" y2="372.638"/><line style="stroke:#181818;stroke-width:1" x1="531.71" x2="531.71" y1="373.638" y2="365.638"/><line style="stroke:#181818;stroke-width:1" x1="531.71" x2="537.71" y1="466.678" y2="474.678"/><line style="stroke:#181818;stroke-width:1" x1="531.71" x2="525.71" y1="466.678" y2="474.678"/><line style="stroke:#181818;stroke-width:1" x1="531.71" x2="531.71" y1="466.678" y2="474.678"/><ellipse cx="531.71" cy="460.678" fill="none" rx="4" ry="4" style="stroke:#181818;stroke-width:1"/></g><g id="lnk30" class="link" data-entity-1="ent0004" data-entity-2="ent0004" data-link-type="crowfoot" data-source-line="168"><path id="Employee-Employee" fill="none" d="M956.82,193.4683 C956.82,176.4183 956.82,172.2583 956.82,172.2583 C956.82,172.2583 902.36,172.2583 902.36,172.2583 C902.36,172.2583 902.36,445.2583 902.36,445.2583 C902.36,445.2583 1005.72,445.2583 1005.72,445.2583 C1005.72,445.2583 1005.72,450.7183 1005.72,433.2283" codeLine="168" style="stroke:#181818;stroke-width:1"/><line style="stroke:#181818;stroke-width:1" x1="960.82" x2="952.82" y1="197.468" y2="197.468"/><line style="stroke:#181818;stroke-width:1" x1="960.82" x2="952.82" y1="194.468" y2="194.468"/><line style="stroke:#181818;stroke-width:1" x1="956.82" x2="956.82" y1="193.468" y2="201.468"/><line style="stroke:#181818;stroke-width:1" x1="1005.72" x2="999.72" y1="423.228" y2="415.228"/><line style="stroke:#181818;stroke-width:1" x1="1005.72" x2="1011.72" y1="423.228" y2="415.228"/><line style="stroke:#181818;stroke-width:1" x1="1005.72" x2="1005.72" y1="423.228" y2="415.228"/><ellipse cx="1005.72" cy="429.228" fill="none" rx="4" ry="4" style="stroke:#181818;stroke-width:1"/><text x="840.36" y="325.187" fill="#000" font-family="sans-serif" font-size="13" lengthAdjust="spacing" textLength="56.539">manages</text></g><?plantuml-src jLPTRziW57tdLw0-JieVgAfAtffgrT8sYhoFDukPcvZ61WzmiwZPVn_WBspSjPNNl0JEDPnpBvVBrKpdW9TSCtt46yY9PeAhZ9NuYf6T90LUuEXciHO7a43niYXpSGJ0QobebMhsQDT5dEH7pLA5KCOeu09q9gYg9qgRbK8VIr18xHalYTqrPnmiXeKqtte6bH4g3eply9Ra2X22MjlPHkHmXed2Te2V43Q_3vXHV8vlxc9ySR7-SddfqCN2_N5IW35-YpQVFaSR1r5GgMIbzT6p_Eb9lYgGZiGENaDIcUycYA0WB1zX9L7g82HDCgAoaKqQdnAFvhgbWIRWaqQc4cBFmB9_lBzVBQCxtvahC27LXPawb_hfUqMlpGv7rwNAAyWwBrD1nwnR9fLE9kJaP1hV0QVcy0BjRCV9IBkrF0Z6JRebb6YxqrKKBsjDlqkG37XgqUlLVHGxk22Sx41EdWVj8XoOlIX5MXk5n6piujHFtnIfIVwH2sa6wJvXlC7YcriV5vKU6vGckbBJXxi2yWYnkR9ETJTxhrno11luLO7IFMC3p8vKRZTBR06QD9iuI1rc1AS1zg-8cHhv06cjlXd_rsYzn1yJjNVaTl0Qvh8M-VP2fDqhCYftaWbfTRmWsFbNmI2odXEt0DfSJ-T7Cvvz-bDoYthlHBC2njU2LhAj76OdNzrt8VShKQjhnhFLcJTY7-HP9Ygf1eLec1FnyiT0s1haLiZ2bfKDF38ur5auHcUBjO4n9-8BIqLXIw1gLRdF7DjpPxmshGLBhIVDNMcdi-Nzh2GtTIvHgP33EjvQ93DtOvovVMypiRAivG5DnA2oUWxT2SssB2MTIpumswa2b39la1zVqmb88DJh0zn96Cpg9FePdL55cMxpjvtCraVIYK9LKqwzr_R6cQfGb2EHhiyxdHOByUJQCOIy3gR1soO3eQxTi9RJgLanGCtt_MCRcFpt9J0sTpl0WmiLVj4bSs3oao9Ksfn6O6YAO83R8ezG_ovFkONQPsYmPhnJDpzlkXs5_W80?></g></svg>