<svg xmlns="http://www.w3.org/2000/svg" xmlns:xlink="http://www.w3.org/1999/xlink" contentStyleType="text/css" data-diagram-type="CLASS" height="653px" preserveAspectRatio="none" style="width:2109px;height:653px;background:#FFFFFF;" version="1.1" viewBox="0 0 2109 653" width="2109px" zoomAndPan="magnify"><?plantuml 1.2026.6?><defs/><g><g class="title" data-source-line="1"><text fill="#000000" font-family="sans-serif" font-size="14" font-weight="700" lengthAdjust="spacing" textLength="541.7891" x="780.1963" y="23.5352">Entity Relationship Diagram - AI-Powered Employee Productivity Analytics</text></g><!--class Role--><g class="entity" data-qualified-name="Role" data-source-line="8" id="ent0001"><rect fill="#F1F1F1" height="97.4648" rx="2.5" ry="2.5" style="stroke:#181818;stroke-width:0.5;" width="167.5176" x="20.96" y="259.6683"/><ellipse cx="85.8194" cy="275.6683" fill="#ADD1B2" rx="11" ry="11" style="stroke:#181818;stroke-width:1;"/><path d="M89.4336,282.1683 L81.7139,282.1683 L81.7139,269.7752 L89.4336,269.7752 L89.4336,271.9334 L84.1626,271.9334 L84.1626,274.6063 L88.9356,274.6063 L88.9356,276.7645 L84.1626,276.7645 L84.1626,280.0101 L89.4336,280.0101 Z " fill="#000000"/><text fill="#000000" font-family="sans-serif" font-size="14" lengthAdjust="spacing" textLength="29.2988" x="106.3194" y="280.9593">Role</text><line style="stroke:#181818;stroke-width:0.5;" x1="21.96" x2="187.4776" y1="291.6683" y2="291.6683"/><g data-visibility-modifier="IE_MANDATORY"><ellipse cx="31.96" cy="305.4124" fill="#000000" rx="3" ry="3" style="stroke:#000000;stroke-width:1;"/></g><text fill="#000000" font-family="sans-serif" font-size="14" lengthAdjust="spacing" textLength="85.3535" x="40.96" y="309.2034">id : INT &#171;PK&#187;</text><line style="stroke:#181818;stroke-width:1;" x1="21.96" x2="187.4776" y1="316.1566" y2="316.1566"/><text fill="#000000" font-family="sans-serif" font-size="14" lengthAdjust="spacing" textLength="116.7305" x="26.96" y="333.6917">name : VARCHAR</text><text fill="#000000" font-family="sans-serif" font-size="14" lengthAdjust="spacing" textLength="155.5176" x="26.96" y="350.18">description : VARCHAR</text></g><!--class User--><g class="entity" data-qualified-name="User" data-source-line="15" id="ent0002"><rect fill="#F1F1F1" height="163.418" rx="2.5" ry="2.5" style="stroke:#181818;stroke-width:0.5;" width="195.4287" x="7" y="474.8383"/><ellipse cx="85.2817" cy="490.8383" fill="#ADD1B2" rx="11" ry="11" style="stroke:#181818;stroke-width:1;"/><path d="M88.896,497.3383 L81.1763,497.3383 L81.1763,484.9452 L88.896,484.9452 L88.896,487.1034 L83.625,487.1034 L83.625,489.7763 L88.3979,489.7763 L88.3979,491.9345 L83.625,491.9345 L83.625,495.1801 L88.896,495.1801 Z " fill="#000000"/><text fill="#000000" font-family="sans-serif" font-size="14" lengthAdjust="spacing" textLength="30.3652" x="105.7817" y="496.1293">User</text><line style="stroke:#181818;stroke-width:0.5;" x1="8" x2="201.4287" y1="506.8383" y2="506.8383"/><g data-visibility-modifier="IE_MANDATORY"><ellipse cx="18" cy="520.5824" fill="#000000" rx="3" ry="3" style="stroke:#000000;stroke-width:1;"/></g><text fill="#000000" font-family="sans-serif" font-size="14" lengthAdjust="spacing" textLength="85.3535" x="27" y="524.3734">id : INT &#171;PK&#187;</text><line style="stroke:#181818;stroke-width:1;" x1="8" x2="201.4287" y1="531.3266" y2="531.3266"/><text fill="#000000" font-family="sans-serif" font-size="14" lengthAdjust="spacing" textLength="146.084" x="13" y="548.8617">username : VARCHAR</text><text fill="#000000" font-family="sans-serif" font-size="14" lengthAdjust="spacing" textLength="116.1357" x="13" y="565.35">email : VARCHAR</text><text fill="#000000" font-family="sans-serif" font-size="14" lengthAdjust="spacing" textLength="183.4287" x="13" y="581.8383">password_hash : VARCHAR</text><text fill="#000000" font-family="sans-serif" font-size="14" lengthAdjust="spacing" textLength="118.2959" x="13" y="598.3266">role_id : INT &#171;FK&#187;</text><text fill="#000000" font-family="sans-serif" font-size="14" lengthAdjust="spacing" textLength="157.3633" x="13" y="614.8148">employee_id : INT &#171;FK&#187;</text><text fill="#000000" font-family="sans-serif" font-size="14" lengthAdjust="spacing" textLength="135.5635" x="13" y="631.3031">is_active : BOOLEAN</text></g><!--class Department--><g class="entity" data-qualified-name="Department" data-source-line="26" id="ent0003"><rect fill="#F1F1F1" height="97.4648" rx="2.5" ry="2.5" style="stroke:#181818;stroke-width:0.5;" width="167.5176" x="963.96" y="44.4883"/><ellipse cx="1003.6779" cy="60.4883" fill="#ADD1B2" rx="11" ry="11" style="stroke:#181818;stroke-width:1;"/><path d="M1007.2922,66.9883 L999.5725,66.9883 L999.5725,54.5952 L1007.2922,54.5952 L1007.2922,56.7534 L1002.0212,56.7534 L1002.0212,59.4263 L1006.7941,59.4263 L1006.7941,61.5845 L1002.0212,61.5845 L1002.0212,64.8301 L1007.2922,64.8301 Z " fill="#000000"/><text fill="#000000" font-family="sans-serif" font-size="14" lengthAdjust="spacing" textLength="80.5889" x="1023.1708" y="65.7793">Department</text><line style="stroke:#181818;stroke-width:0.5;" x1="964.96" x2="1130.4776" y1="76.4883" y2="76.4883"/><g data-visibility-modifier="IE_MANDATORY"><ellipse cx="974.96" cy="90.2324" fill="#000000" rx="3" ry="3" style="stroke:#000000;stroke-width:1;"/></g><text fill="#000000" font-family="sans-serif" font-size="14" lengthAdjust="spacing" textLength="85.3535" x="983.96" y="94.0234">id : INT &#171;PK&#187;</text><line style="stroke:#181818;stroke-width:1;" x1="964.96" x2="1130.4776" y1="100.9766" y2="100.9766"/><text fill="#000000" font-family="sans-serif" font-size="14" lengthAdjust="spacing" textLength="116.7305" x="969.96" y="118.5117">name : VARCHAR</text><text fill="#000000" font-family="sans-serif" font-size="14" lengthAdjust="spacing" textLength="155.5176" x="969.96" y="135">description : VARCHAR</text></g><!--class Employee--><g class="entity" data-qualified-name="Employee" data-source-line="33" id="ent0004"><rect fill="#F1F1F1" height="212.8828" rx="2.5" ry="2.5" style="stroke:#181818;stroke-width:0.5;" width="196.0645" x="949.68" y="201.9583"/><ellipse cx="1010.9471" cy="217.9583" fill="#ADD1B2" rx="11" ry="11" style="stroke:#181818;stroke-width:1;"/><path d="M1014.5613,224.4583 L1006.8416,224.4583 L1006.8416,212.0652 L1014.5613,212.0652 L1014.5613,214.2234 L1009.2904,214.2234 L1009.2904,216.8963 L1014.0633,216.8963 L1014.0633,219.0545 L1009.2904,219.0545 L1009.2904,222.3001 L1014.5613,222.3001 Z " fill="#000000"/><text fill="#000000" font-family="sans-serif" font-size="14" lengthAdjust="spacing" textLength="65.0303" x="1031.4471" y="223.2493">Employee</text><line style="stroke:#181818;stroke-width:0.5;" x1="950.68" x2="1144.7445" y1="233.9583" y2="233.9583"/><g data-visibility-modifier="IE_MANDATORY"><ellipse cx="960.68" cy="247.7024" fill="#000000" rx="3" ry="3" style="stroke:#000000;stroke-width:1;"/></g><text fill="#000000" font-family="sans-serif" font-size="14" lengthAdjust="spacing" textLength="85.3535" x="969.68" y="251.4934">id : INT &#171;PK&#187;</text><line style="stroke:#181818;stroke-width:1;" x1="950.68" x2="1144.7445" y1="258.4466" y2="258.4466"/><text fill="#000000" font-family="sans-serif" font-size="14" lengthAdjust="spacing" textLength="184.0645" x="955.68" y="275.9817">employee_code : VARCHAR</text><text fill="#000000" font-family="sans-serif" font-size="14" lengthAdjust="spacing" textLength="151.0264" x="955.68" y="292.47">first_name : VARCHAR</text><text fill="#000000" font-family="sans-serif" font-size="14" lengthAdjust="spacing" textLength="147.8818" x="955.68" y="308.9583">last_name : VARCHAR</text><text fill="#000000" font-family="sans-serif" font-size="14" lengthAdjust="spacing" textLength="126.998" x="955.68" y="325.4466">gender : VARCHAR</text><text fill="#000000" font-family="sans-serif" font-size="14" lengthAdjust="spacing" textLength="158.9561" x="955.68" y="341.9348">designation : VARCHAR</text><text fill="#000000" font-family="sans-serif" font-size="14" lengthAdjust="spacing" textLength="133.5127" x="955.68" y="358.4231">joining_date : DATE</text><text fill="#000000" font-family="sans-serif" font-size="14" lengthAdjust="spacing" textLength="131.8789" x="955.68" y="374.9114">experience : FLOAT</text><text fill="#000000" font-family="sans-serif" font-size="14" lengthAdjust="spacing" textLength="151.6006" x="955.68" y="391.3997">manager_id : INT &#171;FK&#187;</text><text fill="#000000" font-family="sans-serif" font-size="14" lengthAdjust="spacing" textLength="171.0352" x="955.68" y="407.888">department_id : INT &#171;FK&#187;</text></g><!--class Attendance--><g class="entity" data-qualified-name="Attendance" data-source-line="47" id="ent0005"><rect fill="#F1F1F1" height="146.9297" rx="2.5" ry="2.5" style="stroke:#181818;stroke-width:0.5;" width="169.3633" x="1703.03" y="483.0883"/><ellipse cx="1745.2735" cy="499.0883" fill="#ADD1B2" rx="11" ry="11" style="stroke:#181818;stroke-width:1;"/><path d="M1748.8877,505.5883 L1741.168,505.5883 L1741.168,493.1952 L1748.8877,493.1952 L1748.8877,495.3534 L1743.6167,495.3534 L1743.6167,498.0263 L1748.3897,498.0263 L1748.3897,500.1845 L1743.6167,500.1845 L1743.6167,503.4301 L1748.8877,503.4301 Z " fill="#000000"/><text fill="#000000" font-family="sans-serif" font-size="14" lengthAdjust="spacing" textLength="76.8223" x="1765.3276" y="504.3793">Attendance</text><line style="stroke:#181818;stroke-width:0.5;" x1="1704.03" x2="1871.3933" y1="515.0883" y2="515.0883"/><g data-visibility-modifier="IE_MANDATORY"><ellipse cx="1714.03" cy="528.8324" fill="#000000" rx="3" ry="3" style="stroke:#000000;stroke-width:1;"/></g><text fill="#000000" font-family="sans-serif" font-size="14" lengthAdjust="spacing" textLength="85.3535" x="1723.03" y="532.6234">id : INT &#171;PK&#187;</text><line style="stroke:#181818;stroke-width:1;" x1="1704.03" x2="1871.3933" y1="539.5766" y2="539.5766"/><text fill="#000000" font-family="sans-serif" font-size="14" lengthAdjust="spacing" textLength="157.3633" x="1709.03" y="557.1117">employee_id : INT &#171;FK&#187;</text><text fill="#000000" font-family="sans-serif" font-size="14" lengthAdjust="spacing" textLength="79.4541" x="1709.03" y="573.6">date : DATE</text><text fill="#000000" font-family="sans-serif" font-size="14" lengthAdjust="spacing" textLength="141.1553" x="1709.03" y="590.0883">check_in : DATETIME</text><text fill="#000000" font-family="sans-serif" font-size="14" lengthAdjust="spacing" textLength="150.9443" x="1709.03" y="606.5766">check_out : DATETIME</text><text fill="#000000" font-family="sans-serif" font-size="14" lengthAdjust="spacing" textLength="120.6064" x="1709.03" y="623.0648">status : VARCHAR</text></g><!--class LeaveType--><g class="entity" data-qualified-name="LeaveType" data-source-line="57" id="ent0006"><rect fill="#F1F1F1" height="97.4648" rx="2.5" ry="2.5" style="stroke:#181818;stroke-width:0.5;" width="167.5176" x="240.96" y="259.6683"/><ellipse cx="285.0738" cy="275.6683" fill="#ADD1B2" rx="11" ry="11" style="stroke:#181818;stroke-width:1;"/><path d="M288.688,282.1683 L280.9683,282.1683 L280.9683,269.7752 L288.688,269.7752 L288.688,271.9334 L283.417,271.9334 L283.417,274.6063 L288.19,274.6063 L288.19,276.7645 L283.417,276.7645 L283.417,280.0101 L288.688,280.0101 Z " fill="#000000"/><text fill="#000000" font-family="sans-serif" font-size="14" lengthAdjust="spacing" textLength="70.8203" x="305.5435" y="280.9593">LeaveType</text><line style="stroke:#181818;stroke-width:0.5;" x1="241.96" x2="407.4776" y1="291.6683" y2="291.6683"/><g data-visibility-modifier="IE_MANDATORY"><ellipse cx="251.96" cy="305.4124" fill="#000000" rx="3" ry="3" style="stroke:#000000;stroke-width:1;"/></g><text fill="#000000" font-family="sans-serif" font-size="14" lengthAdjust="spacing" textLength="85.3535" x="260.96" y="309.2034">id : INT &#171;PK&#187;</text><line style="stroke:#181818;stroke-width:1;" x1="241.96" x2="407.4776" y1="316.1566" y2="316.1566"/><text fill="#000000" font-family="sans-serif" font-size="14" lengthAdjust="spacing" textLength="116.7305" x="246.96" y="333.6917">name : VARCHAR</text><text fill="#000000" font-family="sans-serif" font-size="14" lengthAdjust="spacing" textLength="155.5176" x="246.96" y="350.18">description : VARCHAR</text></g><!--class LeaveRequest--><g class="entity" data-qualified-name="LeaveRequest" data-source-line="64" id="ent0007"><rect fill="#F1F1F1" height="146.9297" rx="2.5" ry="2.5" style="stroke:#181818;stroke-width:0.5;" width="174.9072" x="237.26" y="483.0883"/><ellipse cx="275.003" cy="499.0883" fill="#ADD1B2" rx="11" ry="11" style="stroke:#181818;stroke-width:1;"/><path d="M278.6173,505.5883 L270.8975,505.5883 L270.8975,493.1952 L278.6173,493.1952 L278.6173,495.3534 L273.3463,495.3534 L273.3463,498.0263 L278.1192,498.0263 L278.1192,500.1845 L273.3463,500.1845 L273.3463,503.4301 L278.6173,503.4301 Z " fill="#000000"/><text fill="#000000" font-family="sans-serif" font-size="14" lengthAdjust="spacing" textLength="92.3672" x="294.057" y="504.3793">LeaveRequest</text><line style="stroke:#181818;stroke-width:0.5;" x1="238.26" x2="411.1672" y1="515.0883" y2="515.0883"/><g data-visibility-modifier="IE_MANDATORY"><ellipse cx="248.26" cy="528.8324" fill="#000000" rx="3" ry="3" style="stroke:#000000;stroke-width:1;"/></g><text fill="#000000" font-family="sans-serif" font-size="14" lengthAdjust="spacing" textLength="85.3535" x="257.26" y="532.6234">id : INT &#171;PK&#187;</text><line style="stroke:#181818;stroke-width:1;" x1="238.26" x2="411.1672" y1="539.5766" y2="539.5766"/><text fill="#000000" font-family="sans-serif" font-size="14" lengthAdjust="spacing" textLength="157.3633" x="243.26" y="557.1117">employee_id : INT &#171;FK&#187;</text><text fill="#000000" font-family="sans-serif" font-size="14" lengthAdjust="spacing" textLength="162.9072" x="243.26" y="573.6">leave_type_id : INT &#171;FK&#187;</text><text fill="#000000" font-family="sans-serif" font-size="14" lengthAdjust="spacing" textLength="117.5234" x="243.26" y="590.0883">start_date : DATE</text><text fill="#000000" font-family="sans-serif" font-size="14" lengthAdjust="spacing" textLength="111.7539" x="243.26" y="606.5766">end_date : DATE</text><text fill="#000000" font-family="sans-serif" font-size="14" lengthAdjust="spacing" textLength="120.6064" x="243.26" y="623.0648">status : VARCHAR</text></g><!--class Project--><g class="entity" data-qualified-name="Project" data-source-line="74" id="ent0008"><rect fill="#F1F1F1" height="113.9531" rx="2.5" ry="2.5" style="stroke:#181818;stroke-width:0.5;" width="167.5176" x="447.96" y="251.4183"/><ellipse cx="504.2027" cy="267.4183" fill="#ADD1B2" rx="11" ry="11" style="stroke:#181818;stroke-width:1;"/><path d="M507.8169,273.9183 L500.0972,273.9183 L500.0972,261.5252 L507.8169,261.5252 L507.8169,263.6834 L502.5459,263.6834 L502.5459,266.3563 L507.3189,266.3563 L507.3189,268.5145 L502.5459,268.5145 L502.5459,271.7601 L507.8169,271.7601 Z " fill="#000000"/><text fill="#000000" font-family="sans-serif" font-size="14" lengthAdjust="spacing" textLength="46.5322" x="524.7027" y="272.7093">Project</text><line style="stroke:#181818;stroke-width:0.5;" x1="448.96" x2="614.4776" y1="283.4183" y2="283.4183"/><g data-visibility-modifier="IE_MANDATORY"><ellipse cx="458.96" cy="297.1624" fill="#000000" rx="3" ry="3" style="stroke:#000000;stroke-width:1;"/></g><text fill="#000000" font-family="sans-serif" font-size="14" lengthAdjust="spacing" textLength="85.3535" x="467.96" y="300.9534">id : INT &#171;PK&#187;</text><line style="stroke:#181818;stroke-width:1;" x1="448.96" x2="614.4776" y1="307.9066" y2="307.9066"/><text fill="#000000" font-family="sans-serif" font-size="14" lengthAdjust="spacing" textLength="116.7305" x="453.96" y="325.4417">name : VARCHAR</text><text fill="#000000" font-family="sans-serif" font-size="14" lengthAdjust="spacing" textLength="155.5176" x="453.96" y="341.93">description : VARCHAR</text><text fill="#000000" font-family="sans-serif" font-size="14" lengthAdjust="spacing" textLength="120.6064" x="453.96" y="358.4183">status : VARCHAR</text></g><!--class Task--><g class="entity" data-qualified-name="Task" data-source-line="82" id="ent0009"><rect fill="#F1F1F1" height="163.418" rx="2.5" ry="2.5" style="stroke:#181818;stroke-width:0.5;" width="169.3633" x="447.03" y="474.8383"/><ellipse cx="511.51" cy="490.8383" fill="#ADD1B2" rx="11" ry="11" style="stroke:#181818;stroke-width:1;"/><path d="M515.1242,497.3383 L507.4045,497.3383 L507.4045,484.9452 L515.1242,484.9452 L515.1242,487.1034 L509.8532,487.1034 L509.8532,489.7763 L514.6262,489.7763 L514.6262,491.9345 L509.8532,491.9345 L509.8532,495.1801 L515.1242,495.1801 Z " fill="#000000"/><text fill="#000000" font-family="sans-serif" font-size="14" lengthAdjust="spacing" textLength="31.9033" x="532.01" y="496.1293">Task</text><line style="stroke:#181818;stroke-width:0.5;" x1="448.03" x2="615.3933" y1="506.8383" y2="506.8383"/><g data-visibility-modifier="IE_MANDATORY"><ellipse cx="458.03" cy="520.5824" fill="#000000" rx="3" ry="3" style="stroke:#000000;stroke-width:1;"/></g><text fill="#000000" font-family="sans-serif" font-size="14" lengthAdjust="spacing" textLength="85.3535" x="467.03" y="524.3734">id : INT &#171;PK&#187;</text><line style="stroke:#181818;stroke-width:1;" x1="448.03" x2="615.3933" y1="531.3266" y2="531.3266"/><text fill="#000000" font-family="sans-serif" font-size="14" lengthAdjust="spacing" textLength="139.7266" x="453.03" y="548.8617">project_id : INT &#171;FK&#187;</text><text fill="#000000" font-family="sans-serif" font-size="14" lengthAdjust="spacing" textLength="157.3633" x="453.03" y="565.35">employee_id : INT &#171;FK&#187;</text><text fill="#000000" font-family="sans-serif" font-size="14" lengthAdjust="spacing" textLength="105.8066" x="453.03" y="581.8383">title : VARCHAR</text><text fill="#000000" font-family="sans-serif" font-size="14" lengthAdjust="spacing" textLength="128.9531" x="453.03" y="598.3266">priority : VARCHAR</text><text fill="#000000" font-family="sans-serif" font-size="14" lengthAdjust="spacing" textLength="120.6064" x="453.03" y="614.8148">status : VARCHAR</text><text fill="#000000" font-family="sans-serif" font-size="14" lengthAdjust="spacing" textLength="111.7539" x="453.03" y="631.3031">due_date : DATE</text></g><!--class Meeting--><g class="entity" data-qualified-name="Meeting" data-source-line="93" id="ent0010"><rect fill="#F1F1F1" height="130.4414" rx="2.5" ry="2.5" style="stroke:#181818;stroke-width:0.5;" width="186.9316" x="1907.25" y="491.3283"/><ellipse cx="1969.2861" cy="507.3283" fill="#ADD1B2" rx="11" ry="11" style="stroke:#181818;stroke-width:1;"/><path d="M1972.9004,513.8283 L1965.1807,513.8283 L1965.1807,501.4352 L1972.9004,501.4352 L1972.9004,503.5934 L1967.6294,503.5934 L1967.6294,506.2663 L1972.4023,506.2663 L1972.4023,508.4245 L1967.6294,508.4245 L1967.6294,511.6701 L1972.9004,511.6701 Z " fill="#000000"/><text fill="#000000" font-family="sans-serif" font-size="14" lengthAdjust="spacing" textLength="54.3594" x="1989.7861" y="512.6193">Meeting</text><line style="stroke:#181818;stroke-width:0.5;" x1="1908.25" x2="2093.1816" y1="523.3283" y2="523.3283"/><g data-visibility-modifier="IE_MANDATORY"><ellipse cx="1918.25" cy="537.0724" fill="#000000" rx="3" ry="3" style="stroke:#000000;stroke-width:1;"/></g><text fill="#000000" font-family="sans-serif" font-size="14" lengthAdjust="spacing" textLength="85.3535" x="1927.25" y="540.8634">id : INT &#171;PK&#187;</text><line style="stroke:#181818;stroke-width:1;" x1="1908.25" x2="2093.1816" y1="547.8166" y2="547.8166"/><text fill="#000000" font-family="sans-serif" font-size="14" lengthAdjust="spacing" textLength="157.3633" x="1913.25" y="565.3517">employee_id : INT &#171;FK&#187;</text><text fill="#000000" font-family="sans-serif" font-size="14" lengthAdjust="spacing" textLength="105.8066" x="1913.25" y="581.84">title : VARCHAR</text><text fill="#000000" font-family="sans-serif" font-size="14" lengthAdjust="spacing" textLength="174.9316" x="1913.25" y="598.3283">meeting_time : DATETIME</text><text fill="#000000" font-family="sans-serif" font-size="14" lengthAdjust="spacing" textLength="94.0488" x="1913.25" y="614.8166">duration : INT</text></g><!--class WorkLog--><g class="entity" data-qualified-name="WorkLog" data-source-line="102" id="ent0011"><rect fill="#F1F1F1" height="130.4414" rx="2.5" ry="2.5" style="stroke:#181818;stroke-width:0.5;" width="169.3633" x="651.03" y="491.3283"/><ellipse cx="701.821" cy="507.3283" fill="#ADD1B2" rx="11" ry="11" style="stroke:#181818;stroke-width:1;"/><path d="M705.4353,513.8283 L697.7155,513.8283 L697.7155,501.4352 L705.4353,501.4352 L705.4353,503.5934 L700.1643,503.5934 L700.1643,506.2663 L704.9372,506.2663 L704.9372,508.4245 L700.1643,508.4245 L700.1643,511.6701 L705.4353,511.6701 Z " fill="#000000"/><text fill="#000000" font-family="sans-serif" font-size="14" lengthAdjust="spacing" textLength="59.2813" x="722.321" y="512.6193">WorkLog</text><line style="stroke:#181818;stroke-width:0.5;" x1="652.03" x2="819.3933" y1="523.3283" y2="523.3283"/><g data-visibility-modifier="IE_MANDATORY"><ellipse cx="662.03" cy="537.0724" fill="#000000" rx="3" ry="3" style="stroke:#000000;stroke-width:1;"/></g><text fill="#000000" font-family="sans-serif" font-size="14" lengthAdjust="spacing" textLength="85.3535" x="671.03" y="540.8634">id : INT &#171;PK&#187;</text><line style="stroke:#181818;stroke-width:1;" x1="652.03" x2="819.3933" y1="547.8166" y2="547.8166"/><text fill="#000000" font-family="sans-serif" font-size="14" lengthAdjust="spacing" textLength="157.3633" x="657.03" y="565.3517">employee_id : INT &#171;FK&#187;</text><text fill="#000000" font-family="sans-serif" font-size="14" lengthAdjust="spacing" textLength="119.752" x="657.03" y="581.84">work_date : DATE</text><text fill="#000000" font-family="sans-serif" font-size="14" lengthAdjust="spacing" textLength="96.4893" x="657.03" y="598.3283">hours : FLOAT</text><text fill="#000000" font-family="sans-serif" font-size="14" lengthAdjust="spacing" textLength="123.4229" x="657.03" y="614.8166">description : TEXT</text></g><!--class PerformanceReview--><g class="entity" data-qualified-name="PerformanceReview" data-source-line="111" id="ent0012"><rect fill="#F1F1F1" height="130.4414" rx="2.5" ry="2.5" style="stroke:#181818;stroke-width:0.5;" width="169.3633" x="855.03" y="491.3283"/><ellipse cx="872.5626" cy="507.3283" fill="#ADD1B2" rx="11" ry="11" style="stroke:#181818;stroke-width:1;"/><path d="M876.1768,513.8283 L868.4571,513.8283 L868.4571,501.4352 L876.1768,501.4352 L876.1768,503.5934 L870.9058,503.5934 L870.9058,506.2663 L875.6788,506.2663 L875.6788,508.4245 L870.9058,508.4245 L870.9058,511.6701 L876.1768,511.6701 Z " fill="#000000"/><text fill="#000000" font-family="sans-serif" font-size="14" lengthAdjust="spacing" textLength="131.7354" x="887.1254" y="512.6193">PerformanceReview</text><line style="stroke:#181818;stroke-width:0.5;" x1="856.03" x2="1023.3933" y1="523.3283" y2="523.3283"/><g data-visibility-modifier="IE_MANDATORY"><ellipse cx="866.03" cy="537.0724" fill="#000000" rx="3" ry="3" style="stroke:#000000;stroke-width:1;"/></g><text fill="#000000" font-family="sans-serif" font-size="14" lengthAdjust="spacing" textLength="85.3535" x="875.03" y="540.8634">id : INT &#171;PK&#187;</text><line style="stroke:#181818;stroke-width:1;" x1="856.03" x2="1023.3933" y1="547.8166" y2="547.8166"/><text fill="#000000" font-family="sans-serif" font-size="14" lengthAdjust="spacing" textLength="157.3633" x="861.03" y="565.3517">employee_id : INT &#171;FK&#187;</text><text fill="#000000" font-family="sans-serif" font-size="14" lengthAdjust="spacing" textLength="97.8086" x="861.03" y="581.84">rating : FLOAT</text><text fill="#000000" font-family="sans-serif" font-size="14" lengthAdjust="spacing" textLength="118.1182" x="861.03" y="598.3283">comments : TEXT</text><text fill="#000000" font-family="sans-serif" font-size="14" lengthAdjust="spacing" textLength="129.8623" x="861.03" y="614.8166">review_date : DATE</text></g><!--class Prediction--><g class="entity" data-qualified-name="Prediction" data-source-line="120" id="ent0013"><rect fill="#F1F1F1" height="146.9297" rx="2.5" ry="2.5" style="stroke:#181818;stroke-width:0.5;" width="194.0205" x="1059.7" y="483.0883"/><ellipse cx="1118.5267" cy="499.0883" fill="#ADD1B2" rx="11" ry="11" style="stroke:#181818;stroke-width:1;"/><path d="M1122.1409,505.5883 L1114.4212,505.5883 L1114.4212,493.1952 L1122.1409,493.1952 L1122.1409,495.3534 L1116.8699,495.3534 L1116.8699,498.0263 L1121.6429,498.0263 L1121.6429,500.1845 L1116.8699,500.1845 L1116.8699,503.4301 L1122.1409,503.4301 Z " fill="#000000"/><text fill="#000000" font-family="sans-serif" font-size="14" lengthAdjust="spacing" textLength="67.8672" x="1139.0267" y="504.3793">Prediction</text><line style="stroke:#181818;stroke-width:0.5;" x1="1060.7" x2="1252.7205" y1="515.0883" y2="515.0883"/><g data-visibility-modifier="IE_MANDATORY"><ellipse cx="1070.7" cy="528.8324" fill="#000000" rx="3" ry="3" style="stroke:#000000;stroke-width:1;"/></g><text fill="#000000" font-family="sans-serif" font-size="14" lengthAdjust="spacing" textLength="85.3535" x="1079.7" y="532.6234">id : INT &#171;PK&#187;</text><line style="stroke:#181818;stroke-width:1;" x1="1060.7" x2="1252.7205" y1="539.5766" y2="539.5766"/><text fill="#000000" font-family="sans-serif" font-size="14" lengthAdjust="spacing" textLength="157.3633" x="1065.7" y="557.1117">employee_id : INT &#171;FK&#187;</text><text fill="#000000" font-family="sans-serif" font-size="14" lengthAdjust="spacing" textLength="155.5244" x="1065.7" y="573.6">burnout_score : FLOAT</text><text fill="#000000" font-family="sans-serif" font-size="14" lengthAdjust="spacing" textLength="165.9766" x="1065.7" y="590.0883">burnout_risk : VARCHAR</text><text fill="#000000" font-family="sans-serif" font-size="14" lengthAdjust="spacing" textLength="182.0205" x="1065.7" y="606.5766">productivity_score : FLOAT</text><text fill="#000000" font-family="sans-serif" font-size="14" lengthAdjust="spacing" textLength="170.9121" x="1065.7" y="623.0648">predicted_on : DATETIME</text></g><!--class Notification--><g class="entity" data-qualified-name="Notification" data-source-line="130" id="ent0014"><rect fill="#F1F1F1" height="130.4414" rx="2.5" ry="2.5" style="stroke:#181818;stroke-width:0.5;" width="169.3633" x="1289.03" y="491.3283"/><ellipse cx="1330.3414" cy="507.3283" fill="#ADD1B2" rx="11" ry="11" style="stroke:#181818;stroke-width:1;"/><path d="M1333.9556,513.8283 L1326.2359,513.8283 L1326.2359,501.4352 L1333.9556,501.4352 L1333.9556,503.5934 L1328.6846,503.5934 L1328.6846,506.2663 L1333.4576,506.2663 L1333.4576,508.4245 L1328.6846,508.4245 L1328.6846,511.6701 L1333.9556,511.6701 Z " fill="#000000"/><text fill="#000000" font-family="sans-serif" font-size="14" lengthAdjust="spacing" textLength="78.8936" x="1350.1883" y="512.6193">Notification</text><line style="stroke:#181818;stroke-width:0.5;" x1="1290.03" x2="1457.3933" y1="523.3283" y2="523.3283"/><g data-visibility-modifier="IE_MANDATORY"><ellipse cx="1300.03" cy="537.0724" fill="#000000" rx="3" ry="3" style="stroke:#000000;stroke-width:1;"/></g><text fill="#000000" font-family="sans-serif" font-size="14" lengthAdjust="spacing" textLength="85.3535" x="1309.03" y="540.8634">id : INT &#171;PK&#187;</text><line style="stroke:#181818;stroke-width:1;" x1="1290.03" x2="1457.3933" y1="547.8166" y2="547.8166"/><text fill="#000000" font-family="sans-serif" font-size="14" lengthAdjust="spacing" textLength="157.3633" x="1295.03" y="565.3517">employee_id : INT &#171;FK&#187;</text><text fill="#000000" font-family="sans-serif" font-size="14" lengthAdjust="spacing" textLength="106.75" x="1295.03" y="581.84">message : TEXT</text><text fill="#000000" font-family="sans-serif" font-size="14" lengthAdjust="spacing" textLength="126.4033" x="1295.03" y="598.3283">is_read : BOOLEAN</text><text fill="#000000" font-family="sans-serif" font-size="14" lengthAdjust="spacing" textLength="152.6533" x="1295.03" y="614.8166">created_at : DATETIME</text></g><!--class AuditLog--><g class="entity" data-qualified-name="AuditLog" data-source-line="139" id="ent0015"><rect fill="#F1F1F1" height="130.4414" rx="2.5" ry="2.5" style="stroke:#181818;stroke-width:0.5;" width="174.0527" x="1493.69" y="491.3283"/><ellipse cx="1545.8482" cy="507.3283" fill="#ADD1B2" rx="11" ry="11" style="stroke:#181818;stroke-width:1;"/><path d="M1549.4625,513.8283 L1541.7427,513.8283 L1541.7427,501.4352 L1549.4625,501.4352 L1549.4625,503.5934 L1544.1915,503.5934 L1544.1915,506.2663 L1548.9644,506.2663 L1548.9644,508.4245 L1544.1915,508.4245 L1544.1915,511.6701 L1549.4625,511.6701 Z " fill="#000000"/><text fill="#000000" font-family="sans-serif" font-size="14" lengthAdjust="spacing" textLength="61.2363" x="1566.3482" y="512.6193">AuditLog</text><line style="stroke:#181818;stroke-width:0.5;" x1="1494.69" x2="1666.7427" y1="523.3283" y2="523.3283"/><g data-visibility-modifier="IE_MANDATORY"><ellipse cx="1504.69" cy="537.0724" fill="#000000" rx="3" ry="3" style="stroke:#000000;stroke-width:1;"/></g><text fill="#000000" font-family="sans-serif" font-size="14" lengthAdjust="spacing" textLength="85.3535" x="1513.69" y="540.8634">id : INT &#171;PK&#187;</text><line style="stroke:#181818;stroke-width:1;" x1="1494.69" x2="1666.7427" y1="547.8166" y2="547.8166"/><text fill="#000000" font-family="sans-serif" font-size="14" lengthAdjust="spacing" textLength="157.3633" x="1499.69" y="565.3517">employee_id : INT &#171;FK&#187;</text><text fill="#000000" font-family="sans-serif" font-size="14" lengthAdjust="spacing" textLength="120.9141" x="1499.69" y="581.84">action : VARCHAR</text><text fill="#000000" font-family="sans-serif" font-size="14" lengthAdjust="spacing" textLength="162.0527" x="1499.69" y="598.3283">entity_name : VARCHAR</text><text fill="#000000" font-family="sans-serif" font-size="14" lengthAdjust="spacing" textLength="154.5469" x="1499.69" y="614.8166">timestamp : DATETIME</text></g><!--link Role to User--><g class="link" data-entity-1="ent0001" data-entity-2="ent0002" data-link-type="crowfoot" data-source-line="148" id="lnk16"><path codeLine="148" d="M104.71,365.4283 C104.71,398.7583 104.71,417.6683 104.71,456.4083" fill="none" id="Role-User" style="stroke:#181818;stroke-width:1;"/><line style="stroke:#181818;stroke-width:1;" x1="100.71" x2="108.71" y1="361.4283" y2="361.4283"/><line style="stroke:#181818;stroke-width:1;" x1="100.71" x2="108.71" y1="364.4283" y2="364.4283"/><line style="stroke:#181818;stroke-width:1;" x1="104.71" x2="104.71" y1="365.4283" y2="357.4283"/><line style="stroke:#181818;stroke-width:1;" x1="104.71" x2="110.71" y1="466.4083" y2="474.4083"/><line style="stroke:#181818;stroke-width:1;" x1="104.71" x2="98.71" y1="466.4083" y2="474.4083"/><line style="stroke:#181818;stroke-width:1;" x1="104.71" x2="104.71" y1="466.4083" y2="474.4083"/><ellipse cx="104.71" cy="460.4083" fill="none" rx="4" ry="4" style="stroke:#181818;stroke-width:1;"/></g><!--link Department to Employee--><g class="link" data-entity-1="ent0003" data-entity-2="ent0004" data-link-type="crowfoot" data-source-line="150" id="lnk17"><path codeLine="150" d="M1047.71,150.3183 C1047.71,168.0583 1047.71,162.8383 1047.71,183.5883" fill="none" id="Department-Employee" style="stroke:#181818;stroke-width:1;"/><line style="stroke:#181818;stroke-width:1;" x1="1043.71" x2="1051.71" y1="146.3183" y2="146.3183"/><line style="stroke:#181818;stroke-width:1;" x1="1043.71" x2="1051.71" y1="149.3183" y2="149.3183"/><line style="stroke:#181818;stroke-width:1;" x1="1047.71" x2="1047.71" y1="150.3183" y2="142.3183"/><line style="stroke:#181818;stroke-width:1;" x1="1047.71" x2="1053.71" y1="193.5883" y2="201.5883"/><line style="stroke:#181818;stroke-width:1;" x1="1047.71" x2="1041.71" y1="193.5883" y2="201.5883"/><line style="stroke:#181818;stroke-width:1;" x1="1047.71" x2="1047.71" y1="193.5883" y2="201.5883"/><ellipse cx="1047.71" cy="187.5883" fill="none" rx="4" ry="4" style="stroke:#181818;stroke-width:1;"/></g><!--link Employee to User--><g class="link" data-entity-1="ent0004" data-entity-2="ent0002" data-link-type="association" data-source-line="152" id="lnk18"><path codeLine="152" d="M941.53,377.2583 C717.43,377.2583 195.45,377.2583 195.45,377.2583 C195.45,377.2583 195.45,419.2983 195.45,466.5083" fill="none" id="Employee-User" style="stroke:#181818;stroke-width:1;"/><line style="stroke:#181818;stroke-width:1;" x1="945.53" x2="945.53" y1="373.2583" y2="381.2583"/><line style="stroke:#181818;stroke-width:1;" x1="942.53" x2="942.53" y1="373.2583" y2="381.2583"/><line style="stroke:#181818;stroke-width:1;" x1="941.53" x2="949.53" y1="377.2583" y2="377.2583"/><line style="stroke:#181818;stroke-width:1;" x1="199.45" x2="191.45" y1="470.5083" y2="470.5083"/><line style="stroke:#181818;stroke-width:1;" x1="199.45" x2="191.45" y1="467.5083" y2="467.5083"/><line style="stroke:#181818;stroke-width:1;" x1="195.45" x2="195.45" y1="466.5083" y2="474.5083"/></g><!--link Employee to Attendance--><g class="link" data-entity-1="ent0004" data-entity-2="ent0005" data-link-type="crowfoot" data-source-line="154" id="lnk19"><path codeLine="154" d="M1153.98,287.2583 C1355.28,287.2583 1787.71,287.2583 1787.71,287.2583 C1787.71,287.2583 1787.71,384.8883 1787.71,464.6083" fill="none" id="Employee-Attendance" style="stroke:#181818;stroke-width:1;"/><line style="stroke:#181818;stroke-width:1;" x1="1149.98" x2="1149.98" y1="291.2583" y2="283.2583"/><line style="stroke:#181818;stroke-width:1;" x1="1152.98" x2="1152.98" y1="291.2583" y2="283.2583"/><line style="stroke:#181818;stroke-width:1;" x1="1153.98" x2="1145.98" y1="287.2583" y2="287.2583"/><line style="stroke:#181818;stroke-width:1;" x1="1787.71" x2="1793.71" y1="474.6083" y2="482.6083"/><line style="stroke:#181818;stroke-width:1;" x1="1787.71" x2="1781.71" y1="474.6083" y2="482.6083"/><line style="stroke:#181818;stroke-width:1;" x1="1787.71" x2="1787.71" y1="474.6083" y2="482.6083"/><ellipse cx="1787.71" cy="468.6083" fill="none" rx="4" ry="4" style="stroke:#181818;stroke-width:1;"/></g><!--link Employee to LeaveRequest--><g class="link" data-entity-1="ent0004" data-entity-2="ent0007" data-link-type="crowfoot" data-source-line="155" id="lnk20"><path codeLine="155" d="M941.23,390.2583 C749.48,390.2583 352.63,390.2583 352.63,390.2583 C352.63,390.2583 352.63,420.2283 352.63,464.6383" fill="none" id="Employee-LeaveRequest" style="stroke:#181818;stroke-width:1;"/><line style="stroke:#181818;stroke-width:1;" x1="945.23" x2="945.23" y1="386.2583" y2="394.2583"/><line style="stroke:#181818;stroke-width:1;" x1="942.23" x2="942.23" y1="386.2583" y2="394.2583"/><line style="stroke:#181818;stroke-width:1;" x1="941.23" x2="949.23" y1="390.2583" y2="390.2583"/><line style="stroke:#181818;stroke-width:1;" x1="352.63" x2="358.63" y1="474.6383" y2="482.6383"/><line style="stroke:#181818;stroke-width:1;" x1="352.63" x2="346.63" y1="474.6383" y2="482.6383"/><line style="stroke:#181818;stroke-width:1;" x1="352.63" x2="352.63" y1="474.6383" y2="482.6383"/><ellipse cx="352.63" cy="468.6383" fill="none" rx="4" ry="4" style="stroke:#181818;stroke-width:1;"/></g><!--link Employee to WorkLog--><g class="link" data-entity-1="ent0004" data-entity-2="ent0011" data-link-type="crowfoot" data-source-line="156" id="lnk21"><path codeLine="156" d="M941.42,402.2583 C849.97,402.2583 735.71,402.2583 735.71,402.2583 C735.71,402.2583 735.71,431.0683 735.71,473.1183" fill="none" id="Employee-WorkLog" style="stroke:#181818;stroke-width:1;"/><line style="stroke:#181818;stroke-width:1;" x1="945.42" x2="945.42" y1="398.2583" y2="406.2583"/><line style="stroke:#181818;stroke-width:1;" x1="942.42" x2="942.42" y1="398.2583" y2="406.2583"/><line style="stroke:#181818;stroke-width:1;" x1="941.42" x2="949.42" y1="402.2583" y2="402.2583"/><line style="stroke:#181818;stroke-width:1;" x1="735.71" x2="741.71" y1="483.1183" y2="491.1183"/><line style="stroke:#181818;stroke-width:1;" x1="735.71" x2="729.71" y1="483.1183" y2="491.1183"/><line style="stroke:#181818;stroke-width:1;" x1="735.71" x2="735.71" y1="483.1183" y2="491.1183"/><ellipse cx="735.71" cy="477.1183" fill="none" rx="4" ry="4" style="stroke:#181818;stroke-width:1;"/></g><!--link Employee to PerformanceReview--><g class="link" data-entity-1="ent0004" data-entity-2="ent0012" data-link-type="crowfoot" data-source-line="157" id="lnk22"><path codeLine="157" d="M987.04,423.0783 C987.04,448.9583 987.04,449.8683 987.04,473.1783" fill="none" id="Employee-PerformanceReview" style="stroke:#181818;stroke-width:1;"/><line style="stroke:#181818;stroke-width:1;" x1="983.04" x2="991.04" y1="419.0783" y2="419.0783"/><line style="stroke:#181818;stroke-width:1;" x1="983.04" x2="991.04" y1="422.0783" y2="422.0783"/><line style="stroke:#181818;stroke-width:1;" x1="987.04" x2="987.04" y1="423.0783" y2="415.0783"/><line style="stroke:#181818;stroke-width:1;" x1="987.04" x2="993.04" y1="483.1783" y2="491.1783"/><line style="stroke:#181818;stroke-width:1;" x1="987.04" x2="981.04" y1="483.1783" y2="491.1783"/><line style="stroke:#181818;stroke-width:1;" x1="987.04" x2="987.04" y1="483.1783" y2="491.1783"/><ellipse cx="987.04" cy="477.1783" fill="none" rx="4" ry="4" style="stroke:#181818;stroke-width:1;"/></g><!--link Employee to Prediction--><g class="link" data-entity-1="ent0004" data-entity-2="ent0013" data-link-type="crowfoot" data-source-line="158" id="lnk23"><path codeLine="158" d="M1102.73,423.0783 C1102.73,445.9383 1102.73,443.5983 1102.73,464.8683" fill="none" id="Employee-Prediction" style="stroke:#181818;stroke-width:1;"/><line style="stroke:#181818;stroke-width:1;" x1="1098.73" x2="1106.73" y1="419.0783" y2="419.0783"/><line style="stroke:#181818;stroke-width:1;" x1="1098.73" x2="1106.73" y1="422.0783" y2="422.0783"/><line style="stroke:#181818;stroke-width:1;" x1="1102.73" x2="1102.73" y1="423.0783" y2="415.0783"/><line style="stroke:#181818;stroke-width:1;" x1="1102.73" x2="1108.73" y1="474.8683" y2="482.8683"/><line style="stroke:#181818;stroke-width:1;" x1="1102.73" x2="1096.73" y1="474.8683" y2="482.8683"/><line style="stroke:#181818;stroke-width:1;" x1="1102.73" x2="1102.73" y1="474.8683" y2="482.8683"/><ellipse cx="1102.73" cy="468.8683" fill="none" rx="4" ry="4" style="stroke:#181818;stroke-width:1;"/></g><!--link Employee to Notification--><g class="link" data-entity-1="ent0004" data-entity-2="ent0014" data-link-type="crowfoot" data-source-line="159" id="lnk24"><path codeLine="159" d="M1153.97,372.2583 C1249.96,372.2583 1373.71,372.2583 1373.71,372.2583 C1373.71,372.2583 1373.71,420.0883 1373.71,473.0583" fill="none" id="Employee-Notification" style="stroke:#181818;stroke-width:1;"/><line style="stroke:#181818;stroke-width:1;" x1="1149.97" x2="1149.97" y1="376.2583" y2="368.2583"/><line style="stroke:#181818;stroke-width:1;" x1="1152.97" x2="1152.97" y1="376.2583" y2="368.2583"/><line style="stroke:#181818;stroke-width:1;" x1="1153.97" x2="1145.97" y1="372.2583" y2="372.2583"/><line style="stroke:#181818;stroke-width:1;" x1="1373.71" x2="1379.71" y1="483.0583" y2="491.0583"/><line style="stroke:#181818;stroke-width:1;" x1="1373.71" x2="1367.71" y1="483.0583" y2="491.0583"/><line style="stroke:#181818;stroke-width:1;" x1="1373.71" x2="1373.71" y1="483.0583" y2="491.0583"/><ellipse cx="1373.71" cy="477.0583" fill="none" rx="4" ry="4" style="stroke:#181818;stroke-width:1;"/></g><!--link Employee to AuditLog--><g class="link" data-entity-1="ent0004" data-entity-2="ent0015" data-link-type="crowfoot" data-source-line="160" id="lnk25"><path codeLine="160" d="M1154.1,329.2583 C1308.1,329.2583 1580.71,329.2583 1580.71,329.2583 C1580.71,329.2583 1580.71,405.9683 1580.71,473.1083" fill="none" id="Employee-AuditLog" style="stroke:#181818;stroke-width:1;"/><line style="stroke:#181818;stroke-width:1;" x1="1150.1" x2="1150.1" y1="333.2583" y2="325.2583"/><line style="stroke:#181818;stroke-width:1;" x1="1153.1" x2="1153.1" y1="333.2583" y2="325.2583"/><line style="stroke:#181818;stroke-width:1;" x1="1154.1" x2="1146.1" y1="329.2583" y2="329.2583"/><line style="stroke:#181818;stroke-width:1;" x1="1580.71" x2="1586.71" y1="483.1083" y2="491.1083"/><line style="stroke:#181818;stroke-width:1;" x1="1580.71" x2="1574.71" y1="483.1083" y2="491.1083"/><line style="stroke:#181818;stroke-width:1;" x1="1580.71" x2="1580.71" y1="483.1083" y2="491.1083"/><ellipse cx="1580.71" cy="477.1083" fill="none" rx="4" ry="4" style="stroke:#181818;stroke-width:1;"/></g><!--link Employee to Meeting--><g class="link" data-entity-1="ent0004" data-entity-2="ent0010" data-link-type="crowfoot" data-source-line="161" id="lnk26"><path codeLine="161" d="M1154.11,244.2583 C1397.6,244.2583 2000.71,244.2583 2000.71,244.2583 C2000.71,244.2583 2000.71,381.5083 2000.71,473.0783" fill="none" id="Employee-Meeting" style="stroke:#181818;stroke-width:1;"/><line style="stroke:#181818;stroke-width:1;" x1="1150.11" x2="1150.11" y1="248.2583" y2="240.2583"/><line style="stroke:#181818;stroke-width:1;" x1="1153.11" x2="1153.11" y1="248.2583" y2="240.2583"/><line style="stroke:#181818;stroke-width:1;" x1="1154.11" x2="1146.11" y1="244.2583" y2="244.2583"/><line style="stroke:#181818;stroke-width:1;" x1="2000.71" x2="2006.71" y1="483.0783" y2="491.0783"/><line style="stroke:#181818;stroke-width:1;" x1="2000.71" x2="1994.71" y1="483.0783" y2="491.0783"/><line style="stroke:#181818;stroke-width:1;" x1="2000.71" x2="2000.71" y1="483.0783" y2="491.0783"/><ellipse cx="2000.71" cy="477.0783" fill="none" rx="4" ry="4" style="stroke:#181818;stroke-width:1;"/></g><!--link Employee to Task--><g class="link" data-entity-1="ent0004" data-entity-2="ent0009" data-link-type="crowfoot" data-source-line="162" id="lnk27"><path codeLine="162" d="M968.36,423.1483 C968.36,457.6883 968.36,479.2583 968.36,479.2583 C968.36,479.2583 761.71,479.2583 634.68,479.2583" fill="none" id="Employee-Task" style="stroke:#181818;stroke-width:1;"/><line style="stroke:#181818;stroke-width:1;" x1="964.36" x2="972.36" y1="419.1483" y2="419.1483"/><line style="stroke:#181818;stroke-width:1;" x1="964.36" x2="972.36" y1="422.1483" y2="422.1483"/><line style="stroke:#181818;stroke-width:1;" x1="968.36" x2="968.36" y1="423.1483" y2="415.1483"/><line style="stroke:#181818;stroke-width:1;" x1="624.68" x2="616.68" y1="479.2583" y2="485.2583"/><line style="stroke:#181818;stroke-width:1;" x1="624.68" x2="616.68" y1="479.2583" y2="473.2583"/><line style="stroke:#181818;stroke-width:1;" x1="624.68" x2="616.68" y1="479.2583" y2="479.2583"/><ellipse cx="630.68" cy="479.2583" fill="none" rx="4" ry="4" style="stroke:#181818;stroke-width:1;"/></g><!--link LeaveType to LeaveRequest--><g class="link" data-entity-1="ent0006" data-entity-2="ent0007" data-link-type="crowfoot" data-source-line="164" id="lnk28"><path codeLine="164" d="M296.79,365.4283 C296.79,401.1583 296.79,424.1983 296.79,464.6683" fill="none" id="LeaveType-LeaveRequest" style="stroke:#181818;stroke-width:1;"/><line style="stroke:#181818;stroke-width:1;" x1="292.79" x2="300.79" y1="361.4283" y2="361.4283"/><line style="stroke:#181818;stroke-width:1;" x1="292.79" x2="300.79" y1="364.4283" y2="364.4283"/><line style="stroke:#181818;stroke-width:1;" x1="296.79" x2="296.79" y1="365.4283" y2="357.4283"/><line style="stroke:#181818;stroke-width:1;" x1="296.79" x2="302.79" y1="474.6683" y2="482.6683"/><line style="stroke:#181818;stroke-width:1;" x1="296.79" x2="290.79" y1="474.6683" y2="482.6683"/><line style="stroke:#181818;stroke-width:1;" x1="296.79" x2="296.79" y1="474.6683" y2="482.6683"/><ellipse cx="296.79" cy="468.6683" fill="none" rx="4" ry="4" style="stroke:#181818;stroke-width:1;"/></g><!--link Project to Task--><g class="link" data-entity-1="ent0008" data-entity-2="ent0009" data-link-type="crowfoot" data-source-line="166" id="lnk29"><path codeLine="166" d="M531.71,373.6383 C531.71,405.9883 531.71,420.9783 531.71,456.6783" fill="none" id="Project-Task" style="stroke:#181818;stroke-width:1;"/><line style="stroke:#181818;stroke-width:1;" x1="527.71" x2="535.71" y1="369.6383" y2="369.6383"/><line style="stroke:#181818;stroke-width:1;" x1="527.71" x2="535.71" y1="372.6383" y2="372.6383"/><line style="stroke:#181818;stroke-width:1;" x1="531.71" x2="531.71" y1="373.6383" y2="365.6383"/><line style="stroke:#181818;stroke-width:1;" x1="531.71" x2="537.71" y1="466.6783" y2="474.6783"/><line style="stroke:#181818;stroke-width:1;" x1="531.71" x2="525.71" y1="466.6783" y2="474.6783"/><line style="stroke:#181818;stroke-width:1;" x1="531.71" x2="531.71" y1="466.6783" y2="474.6783"/><ellipse cx="531.71" cy="460.6783" fill="none" rx="4" ry="4" style="stroke:#181818;stroke-width:1;"/></g><!--link Employee to Employee--><g class="link" data-entity-1="ent0004" data-entity-2="ent0004" data-link-type="crowfoot" data-source-line="168" id="lnk30"><path codeLine="168" d="M956.82,193.4683 C956.82,176.4183 956.82,172.2583 956.82,172.2583 C956.82,172.2583 902.36,172.2583 902.36,172.2583 C902.36,172.2583 902.36,445.2583 902.36,445.2583 C902.36,445.2583 1005.72,445.2583 1005.72,445.2583 C1005.72,445.2583 1005.72,450.7183 1005.72,433.2283" fill="none" id="Employee-Employee" style="stroke:#181818;stroke-width:1;"/><line style="stroke:#181818;stroke-width:1;" x1="960.82" x2="952.82" y1="197.4683" y2="197.4683"/><line style="stroke:#181818;stroke-width:1;" x1="960.82" x2="952.82" y1="194.4683" y2="194.4683"/><line style="stroke:#181818;stroke-width:1;" x1="956.82" x2="956.82" y1="193.4683" y2="201.4683"/><line style="stroke:#181818;stroke-width:1;" x1="1005.72" x2="999.72" y1="423.2283" y2="415.2283"/><line style="stroke:#181818;stroke-width:1;" x1="1005.72" x2="1011.72" y1="423.2283" y2="415.2283"/><line style="stroke:#181818;stroke-width:1;" x1="1005.72" x2="1005.72" y1="423.2283" y2="415.2283"/><ellipse cx="1005.72" cy="429.2283" fill="none" rx="4" ry="4" style="stroke:#181818;stroke-width:1;"/><text fill="#000000" font-family="sans-serif" font-size="13" lengthAdjust="spacing" textLength="56.5386" x="840.36" y="325.1866">manages</text></g><?plantuml-src jLPTRziW57tdLw0-JieVgAfAtffgrT8sYhoFDukPcvZ61WzmiwZPVn_WBspSjPNNl0JEDPnpBvVBrKpdW9TSCtt46yY9PeAhZ9NuYf6T90LUuEXciHO7a43niYXpSGJ0QobebMhsQDT5dEH7pLA5KCOeu09q9gYg9qgRbK8VIr18xHalYTqrPnmiXeKqtte6bH4g3eply9Ra2X22MjlPHkHmXed2Te2V43Q_3vXHV8vlxc9ySR7-SddfqCN2_N5IW35-YpQVFaSR1r5GgMIbzT6p_Eb9lYgGZiGENaDIcUycYA0WB1zX9L7g82HDCgAoaKqQdnAFvhgbWIRWaqQc4cBFmB9_lBzVBQCxtvahC27LXPawb_hfUqMlpGv7rwNAAyWwBrD1nwnR9fLE9kJaP1hV0QVcy0BjRCV9IBkrF0Z6JRebb6YxqrKKBsjDlqkG37XgqUlLVHGxk22Sx41EdWVj8XoOlIX5MXk5n6piujHFtnIfIVwH2sa6wJvXlC7YcriV5vKU6vGckbBJXxi2yWYnkR9ETJTxhrno11luLO7IFMC3p8vKRZTBR06QD9iuI1rc1AS1zg-8cHhv06cjlXd_rsYzn1yJjNVaTl0Qvh8M-VP2fDqhCYftaWbfTRmWsFbNmI2odXEt0DfSJ-T7Cvvz-bDoYthlHBC2njU2LhAj76OdNzrt8VShKQjhnhFLcJTY7-HP9Ygf1eLec1FnyiT0s1haLiZ2bfKDF38ur5auHcUBjO4n9-8BIqLXIw1gLRdF7DjpPxmshGLBhIVDNMcdi-Nzh2GtTIvHgP33EjvQ93DtOvovVMypiRAivG5DnA2oUWxT2SssB2MTIpumswa2b39la1zVqmb88DJh0zn96Cpg9FePdL55cMxpjvtCraVIYK9LKqwzr_R6cQfGb2EHhiyxdHOByUJQCOIy3gR1soO3eQxTi9RJgLanGCtt_MCRcFpt9J0sTpl0WmiLVj4bSs3oao9Ksfn6O6YAO83R8ezG_ovFkONQPsYmPhnJDpzlkXs5_W80?></g></svg>