<svg xmlns="http://www.w3.org/2000/svg" xmlns:xlink="http://www.w3.org/1999/xlink" width="740" height="2317" contentStyleType="text/css" data-diagram-type="DESCRIPTION" style="width:740px;height:2317px;background:#fff" preserveAspectRatio="none" version="1.1" viewBox="0 0 740 2317" zoomAndPan="magnify"><?plantuml 1.2026.6?><g><g class="title" data-source-line="1"><text x="92.339" y="23.535" fill="#000" font-family="sans-serif" font-size="14" font-weight="700" lengthAdjust="spacing" textLength="548.352">AI-Powered Employee Productivity Analytics and Burnout Prediction System</text></g><g id="ent0005" class="cluster" data-qualified-name="AI-Powered Employee Productivity Analytics . Burnout Prediction System" data-source-line="16"><rect style="stroke:#181818;stroke-width:1" width="548" height="2259" x="178.03" y="44.488" fill="none" rx="2.5" ry="2.5"/><text x="185.992" y="60.023" fill="#000" font-family="sans-serif" font-size="14" font-weight="700" lengthAdjust="spacing" textLength="532.075">AI-Powered Employee Productivity Analytics &amp; Burnout Prediction System</text></g><g id="ent0006" class="entity" data-qualified-name="AI-Powered Employee Productivity Analytics . Burnout Prediction System.UC1" data-source-line="18"><ellipse cx="451.527" cy="1257.487" fill="#FFF" rx="29.537" ry="14.659" style="stroke:#000;stroke-width:.5"/><text x="432.763" y="1262.231" fill="#000" font-family="sans-serif" font-size="14" lengthAdjust="spacing" textLength="37.529">Login</text></g><g id="ent0007" class="entity" data-qualified-name="AI-Powered Employee Productivity Analytics . Burnout Prediction System.UC2" data-source-line="19"><ellipse cx="451.529" cy="1321.487" fill="#FFF" rx="36.459" ry="14.659" style="stroke:#000;stroke-width:.5"/><text x="427.87" y="1326.231" fill="#000" font-family="sans-serif" font-size="14" lengthAdjust="spacing" textLength="47.318">Logout</text></g><g id="ent0008" class="entity" data-qualified-name="AI-Powered Employee Productivity Analytics . Burnout Prediction System.UC3" data-source-line="20"><ellipse cx="451.529" cy="1113.49" fill="#FFF" rx="71.709" ry="16.742" style="stroke:#000;stroke-width:.5"/><text x="396.558" y="1118.234" fill="#000" font-family="sans-serif" font-size="14" lengthAdjust="spacing" textLength="109.942">View Dashboard</text></g><g id="ent0009" class="entity" data-qualified-name="AI-Powered Employee Productivity Analytics . Burnout Prediction System.UC4" data-source-line="21"><ellipse cx="451.529" cy="257.484" fill="#FFF" rx="66.129" ry="15.626" style="stroke:#000;stroke-width:.5"/><text x="403.715" y="262.228" fill="#000" font-family="sans-serif" font-size="14" lengthAdjust="spacing" textLength="95.628">Update Profile</text></g><g id="ent0010" class="entity" data-qualified-name="AI-Powered Employee Productivity Analytics . Burnout Prediction System.UC5" data-source-line="23"><ellipse cx="451.53" cy="96.49" fill="#FFF" rx="70.81" ry="16.562" style="stroke:#000;stroke-width:.5"/><text x="397.687" y="101.234" fill="#000" font-family="sans-serif" font-size="14" lengthAdjust="spacing" textLength="107.686">Submit Worklog</text></g><g id="ent0011" class="entity" data-qualified-name="AI-Powered Employee Productivity Analytics . Burnout Prediction System.UC6" data-source-line="24"><ellipse cx="451.535" cy="325.487" fill="#FFF" rx="77.045" ry="17.809" style="stroke:#000;stroke-width:.5"/><text x="390.025" y="330.231" fill="#000" font-family="sans-serif" font-size="14" lengthAdjust="spacing" textLength="123.019">View My Worklogs</text></g><g id="ent0012" class="entity" data-qualified-name="AI-Powered Employee Productivity Analytics . Burnout Prediction System.UC7" data-source-line="25"><ellipse cx="451.528" cy="397.484" fill="#FFF" rx="82.878" ry="18.976" style="stroke:#000;stroke-width:.5"/><text x="383.108" y="402.228" fill="#000" font-family="sans-serif" font-size="14" lengthAdjust="spacing" textLength="136.842">View My Attendance</text></g><g id="ent0013" class="entity" data-qualified-name="AI-Powered Employee Productivity Analytics . Burnout Prediction System.UC8" data-source-line="26"><ellipse cx="451.527" cy="466.487" fill="#FFF" rx="60.357" ry="14.659" style="stroke:#000;stroke-width:.5"/><text x="410.969" y="471.231" fill="#000" font-family="sans-serif" font-size="14" lengthAdjust="spacing" textLength="81.115">Apply Leave</text></g><g id="ent0014" class="entity" data-qualified-name="AI-Powered Employee Productivity Analytics . Burnout Prediction System.UC9" data-source-line="27"><ellipse cx="451.529" cy="532.486" fill="#FFF" rx="67.439" ry="15.888" style="stroke:#000;stroke-width:.5"/><text x="401.999" y="537.23" fill="#000" font-family="sans-serif" font-size="14" lengthAdjust="spacing" textLength="99.06">View My Tasks</text></g><g id="ent0015" class="entity" data-qualified-name="AI-Powered Employee Productivity Analytics . Burnout Prediction System.UC10" data-source-line="28"><ellipse cx="451.531" cy="601.492" fill="#FFF" rx="76.421" ry="17.684" style="stroke:#000;stroke-width:.5"/><text x="390.773" y="606.237" fill="#000" font-family="sans-serif" font-size="14" lengthAdjust="spacing" textLength="121.516">View My Meetings</text></g><g id="ent0016" class="entity" data-qualified-name="AI-Powered Employee Productivity Analytics . Burnout Prediction System.UC11" data-source-line="29"><ellipse cx="451.532" cy="676.493" fill="#FFF" rx="101.772" ry="22.754" style="stroke:#000;stroke-width:.5"/><text x="361.773" y="681.237" fill="#000" font-family="sans-serif" font-size="14" lengthAdjust="spacing" textLength="179.519">View Performance Reviews</text></g><g id="ent0017" class="entity" data-qualified-name="AI-Powered Employee Productivity Analytics . Burnout Prediction System.UC12" data-source-line="30"><ellipse cx="451.533" cy="185.493" fill="#FFF" rx="93.973" ry="21.195" style="stroke:#000;stroke-width:.5"/><text x="370.435" y="190.237" fill="#000" font-family="sans-serif" font-size="14" lengthAdjust="spacing" textLength="162.196">View Burnout Prediction</text></g><g id="ent0018" class="entity" data-qualified-name="AI-Powered Employee Productivity Analytics . Burnout Prediction System.UC13" data-source-line="32"><ellipse cx="451.533" cy="1042.489" fill="#FFF" rx="84.453" ry="19.291" style="stroke:#000;stroke-width:.5"/><text x="381.28" y="1047.233" fill="#000" font-family="sans-serif" font-size="14" lengthAdjust="spacing" textLength="140.506">View Team Members</text></g><g id="ent0019" class="entity" data-qualified-name="AI-Powered Employee Productivity Analytics . Burnout Prediction System.UC14" data-source-line="33"><ellipse cx="451.533" cy="1186.485" fill="#FFF" rx="95.233" ry="21.447" style="stroke:#000;stroke-width:.5"/><text x="369.024" y="1191.229" fill="#000" font-family="sans-serif" font-size="14" lengthAdjust="spacing" textLength="165.019">Approve Leave Requests</text></g><g id="ent0020" class="entity" data-qualified-name="AI-Powered Employee Productivity Analytics . Burnout Prediction System.UC15" data-source-line="34"><ellipse cx="451.534" cy="754.489" fill="#FFF" rx="91.154" ry="20.631" style="stroke:#000;stroke-width:.5"/><text x="373.611" y="759.233" fill="#000" font-family="sans-serif" font-size="14" lengthAdjust="spacing" textLength="155.846">Review Team Worklogs</text></g><g id="ent0021" class="entity" data-qualified-name="AI-Powered Employee Productivity Analytics . Burnout Prediction System.UC16" data-source-line="35"><ellipse cx="451.529" cy="825.49" fill="#FFF" rx="63.609" ry="15.122" style="stroke:#000;stroke-width:.5"/><text x="407.096" y="830.234" fill="#000" font-family="sans-serif" font-size="14" lengthAdjust="spacing" textLength="88.867">Assign Tasks</text></g><g id="ent0022" class="entity" data-qualified-name="AI-Powered Employee Productivity Analytics . Burnout Prediction System.UC17" data-source-line="36"><ellipse cx="451.535" cy="893.485" fill="#FFF" rx="78.485" ry="18.097" style="stroke:#000;stroke-width:.5"/><text x="388.299" y="898.229" fill="#000" font-family="sans-serif" font-size="14" lengthAdjust="spacing" textLength="126.472">Schedule Meetings</text></g><g id="ent0023" class="entity" data-qualified-name="AI-Powered Employee Productivity Analytics . Burnout Prediction System.UC18" data-source-line="37"><ellipse cx="451.526" cy="967.488" fill="#FFF" rx="93.546" ry="21.109" style="stroke:#000;stroke-width:.5"/><text x="370.907" y="972.232" fill="#000" font-family="sans-serif" font-size="14" lengthAdjust="spacing" textLength="161.239">Review Burnout Reports</text></g><g id="ent0024" class="entity" data-qualified-name="AI-Powered Employee Productivity Analytics . Burnout Prediction System.UC19" data-source-line="39"><ellipse cx="451.528" cy="1925.486" fill="#FFF" rx="79.688" ry="18.338" style="stroke:#000;stroke-width:.5"/><text x="386.86" y="1930.23" fill="#000" font-family="sans-serif" font-size="14" lengthAdjust="spacing" textLength="129.336">Manage Employees</text></g><g id="ent0025" class="entity" data-qualified-name="AI-Powered Employee Productivity Analytics . Burnout Prediction System.UC20" data-source-line="40"><ellipse cx="451.533" cy="1852.489" fill="#FFF" rx="86.353" ry="19.671" style="stroke:#000;stroke-width:.5"/><text x="379.086" y="1857.233" fill="#000" font-family="sans-serif" font-size="14" lengthAdjust="spacing" textLength="144.894">Manage Departments</text></g><g id="ent0026" class="entity" data-qualified-name="AI-Powered Employee Productivity Analytics . Burnout Prediction System.UC21" data-source-line="41"><ellipse cx="451.531" cy="1705.491" fill="#FFF" rx="81.661" ry="18.732" style="stroke:#000;stroke-width:.5"/><text x="384.535" y="1710.235" fill="#000" font-family="sans-serif" font-size="14" lengthAdjust="spacing" textLength="133.991">Manage Attendance</text></g><g id="ent0027" class="entity" data-qualified-name="AI-Powered Employee Productivity Analytics . Burnout Prediction System.UC22" data-source-line="42"><ellipse cx="451.534" cy="1778.487" fill="#FFF" rx="84.044" ry="19.209" style="stroke:#000;stroke-width:.5"/><text x="381.756" y="1783.231" fill="#000" font-family="sans-serif" font-size="14" lengthAdjust="spacing" textLength="139.556">Manage Leave Types</text></g><g id="ent0028" class="entity" data-qualified-name="AI-Powered Employee Productivity Analytics . Burnout Prediction System.UC23" data-source-line="43"><ellipse cx="451.528" cy="1995.492" fill="#FFF" rx="72.068" ry="16.814" style="stroke:#000;stroke-width:.5"/><text x="396.109" y="2000.236" fill="#000" font-family="sans-serif" font-size="14" lengthAdjust="spacing" textLength="110.838">Manage Projects</text></g><g id="ent0029" class="entity" data-qualified-name="AI-Powered Employee Productivity Analytics . Burnout Prediction System.UC24" data-source-line="44"><ellipse cx="451.527" cy="1388.492" fill="#FFF" rx="74.767" ry="17.353" style="stroke:#000;stroke-width:.5"/><text x="392.779" y="1393.236" fill="#000" font-family="sans-serif" font-size="14" lengthAdjust="spacing" textLength="117.496">Generate Reports</text></g><g id="ent0030" class="entity" data-qualified-name="AI-Powered Employee Productivity Analytics . Burnout Prediction System.UC25" data-source-line="45"><ellipse cx="451.535" cy="1631.489" fill="#FFF" rx="91.505" ry="20.701" style="stroke:#000;stroke-width:.5"/><text x="373.215" y="1636.233" fill="#000" font-family="sans-serif" font-size="14" lengthAdjust="spacing" textLength="156.639">Run Burnout Prediction</text></g><g id="ent0031" class="entity" data-qualified-name="AI-Powered Employee Productivity Analytics . Burnout Prediction System.UC26" data-source-line="46"><ellipse cx="451.526" cy="1479.489" fill="#FFF" rx="99.906" ry="22.381" style="stroke:#000;stroke-width:.5"/><text x="363.824" y="1484.234" fill="#000" font-family="sans-serif" font-size="14" lengthAdjust="spacing" textLength="175.403">View Analytics Dashboard</text></g><g id="ent0032" class="entity" data-qualified-name="AI-Powered Employee Productivity Analytics . Burnout Prediction System.UC27" data-source-line="47"><ellipse cx="451.527" cy="1556.492" fill="#FFF" rx="85.618" ry="19.523" style="stroke:#000;stroke-width:.5"/><text x="379.928" y="1561.236" fill="#000" font-family="sans-serif" font-size="14" lengthAdjust="spacing" textLength="143.199">Manage Notifications</text></g><g id="ent0033" class="entity" data-qualified-name="AI-Powered Employee Productivity Analytics . Burnout Prediction System.UC28" data-source-line="49"><ellipse cx="451.528" cy="2137.492" fill="#FFF" rx="65.768" ry="15.554" style="stroke:#000;stroke-width:.5"/><text x="404.192" y="2142.236" fill="#000" font-family="sans-serif" font-size="14" lengthAdjust="spacing" textLength="94.671">Manage Users</text></g><g id="ent0034" class="entity" data-qualified-name="AI-Powered Employee Productivity Analytics . Burnout Prediction System.UC29" data-source-line="50"><ellipse cx="451.527" cy="2203.492" fill="#FFF" rx="65.367" ry="15.473" style="stroke:#000;stroke-width:.5"/><text x="404.724" y="2208.236" fill="#000" font-family="sans-serif" font-size="14" lengthAdjust="spacing" textLength="93.605">Manage Roles</text></g><g id="ent0035" class="entity" data-qualified-name="AI-Powered Employee Productivity Analytics . Burnout Prediction System.UC30" data-source-line="51"><ellipse cx="451.531" cy="2270.486" fill="#FFF" rx="71.341" ry="16.668" style="stroke:#000;stroke-width:.5"/><text x="397.021" y="2275.231" fill="#000" font-family="sans-serif" font-size="14" lengthAdjust="spacing" textLength="109.019">View Audit Logs</text></g><g id="ent0036" class="entity" data-qualified-name="AI-Powered Employee Productivity Analytics . Burnout Prediction System.UC31" data-source-line="52"><ellipse cx="451.527" cy="2067.488" fill="#FFF" rx="86.897" ry="19.779" style="stroke:#000;stroke-width:.5"/><text x="378.455" y="2072.232" fill="#000" font-family="sans-serif" font-size="14" lengthAdjust="spacing" textLength="146.145">System Configuration</text></g><g id="ent0001" class="entity" data-qualified-name="Employee" data-source-line="11"><ellipse cx="38.515" cy="470.748" fill="#F1F1F1" rx="8" ry="8" style="stroke:#181818;stroke-width:.5"/><path fill="none" d="M38.5151,478.7483 L38.5151,505.7483 M25.5151,486.7483 L51.5151,486.7483 M38.5151,505.7483 L25.5151,520.7483 M38.5151,505.7483 L51.5151,520.7483" style="stroke:#181818;stroke-width:.5"/><text x="6" y="535.783" fill="#000" font-family="sans-serif" font-size="14" lengthAdjust="spacing" textLength="65.03">Employee</text></g><g id="ent0002" class="entity" data-qualified-name="Manager" data-source-line="12"><ellipse cx="38.514" cy="1037.748" fill="#F1F1F1" rx="8" ry="8" style="stroke:#181818;stroke-width:.5"/><path fill="none" d="M38.5139,1045.7483 L38.5139,1072.7483 M25.5139,1053.7483 L51.5139,1053.7483 M38.5139,1072.7483 L25.5139,1087.7483 M38.5139,1072.7483 L51.5139,1087.7483" style="stroke:#181818;stroke-width:.5"/><text x="9.28" y="1102.783" fill="#000" font-family="sans-serif" font-size="14" lengthAdjust="spacing" textLength="58.468">Manager</text></g><g id="ent0003" class="entity" data-qualified-name="HR" data-source-line="13"><ellipse cx="38.52" cy="1491.748" fill="#F1F1F1" rx="8" ry="8" style="stroke:#181818;stroke-width:.5"/><path fill="none" d="M38.52,1499.7483 L38.52,1526.7483 M25.52,1507.7483 L51.52,1507.7483 M38.52,1526.7483 L25.52,1541.7483 M38.52,1526.7483 L51.52,1541.7483" style="stroke:#181818;stroke-width:.5"/><text x="28.95" y="1556.783" fill="#000" font-family="sans-serif" font-size="14" lengthAdjust="spacing" textLength="19.141">HR</text></g><g id="ent0004" class="entity" data-qualified-name="Admin" data-source-line="14"><ellipse cx="38.518" cy="1962.748" fill="#F1F1F1" rx="8" ry="8" style="stroke:#181818;stroke-width:.5"/><path fill="none" d="M38.5182,1970.7483 L38.5182,1997.7483 M25.5182,1978.7483 L51.5182,1978.7483 M38.5182,1997.7483 L25.5182,2012.7483 M38.5182,1997.7483 L51.5182,2012.7483" style="stroke:#181818;stroke-width:.5"/><text x="16.38" y="2027.783" fill="#000" font-family="sans-serif" font-size="14" lengthAdjust="spacing" textLength="44.276">Admin</text></g><g id="lnk37" class="link" data-entity-1="ent0001" data-entity-2="ent0006" data-link-type="dependency" data-source-line="56"><path id="Employee-to-UC1" fill="none" d="M40.76,539.0883 C44.52,636.9283 58.26,891.9783 101.03,963.4883 C118.19,992.1783 146.26,978.0183 162.03,1007.4883 C173.47,1028.8583 153.56,1207.6983 170.03,1225.4883 C236.3,1297.0583 364.1631,1277.8009 419.9831,1265.1809" style="stroke:#181818;stroke-width:1"/><polygon fill="#181818" points="424.86 1264.078 415.2 1262.161 419.983 1265.181 416.964 1269.965 424.86 1264.078" style="stroke:#181818;stroke-width:1;stroke-linejoin:miter;stroke-miterlimit:10"/></g><g id="lnk38" class="link" data-entity-1="ent0001" data-entity-2="ent0007" data-link-type="dependency" data-source-line="57"><path id="Employee-to-UC2" fill="none" d="M41.94,539.1183 C47.77,624.0383 64.84,833.0683 101.03,1004.4883 C120.31,1095.8283 143.96,1113.8983 162.03,1205.4883 C165.66,1223.8883 156.9,1276.1083 170.03,1289.4883 C236.12,1356.8283 356.5234,1341.9996 414.6234,1329.9996" style="stroke:#181818;stroke-width:1"/><polygon fill="#181818" points="419.52 1328.988 409.897 1326.891 414.623 1330 411.515 1334.726 419.52 1328.988" style="stroke:#181818;stroke-width:1;stroke-linejoin:miter;stroke-miterlimit:10"/></g><g id="lnk39" class="link" data-entity-1="ent0001" data-entity-2="ent0008" data-link-type="dependency" data-source-line="58"><path id="Employee-to-UC3" fill="none" d="M52.34,539.2283 C77.97,618.4583 135.35,805.1383 162.03,966.4883 C164.08,978.9083 161.35,1070.3683 170.03,1079.4883 C227.84,1140.2683 328.6424,1135.8056 392.4824,1125.6256" style="stroke:#181818;stroke-width:1"/><polygon fill="#181818" points="397.42 1124.838 387.902 1122.305 392.482 1125.626 389.162 1130.206 397.42 1124.838" style="stroke:#181818;stroke-width:1;stroke-linejoin:miter;stroke-miterlimit:10"/></g><g id="lnk40" class="link" data-entity-1="ent0001" data-entity-2="ent0009" data-link-type="dependency" data-source-line="59"><path id="Employee-to-UC4" fill="none" d="M49.83,462.0783 C65.86,411.2783 102.21,324.2483 170.03,290.4883 C238.73,256.2883 323.2616,251.4417 382.4816,252.9417" style="stroke:#181818;stroke-width:1"/><polygon fill="#181818" points="387.48 253.068 378.584 248.842 382.482 252.942 378.382 256.839 387.48 253.068" style="stroke:#181818;stroke-width:1;stroke-linejoin:miter;stroke-miterlimit:10"/></g><g id="lnk41" class="link" data-entity-1="ent0001" data-entity-2="ent0010" data-link-type="dependency" data-source-line="60"><path id="Employee-to-UC5" fill="none" d="M39.48,461.7683 C41.82,384.2683 59.76,211.9183 170.03,146.4883 C234.37,108.3083 315.6034,97.973 375.3934,95.763" style="stroke:#181818;stroke-width:1"/><polygon fill="#181818" points="380.39 95.578 371.248 91.913 375.393 95.763 371.544 99.908 380.39 95.578" style="stroke:#181818;stroke-width:1;stroke-linejoin:miter;stroke-miterlimit:10"/></g><g id="lnk42" class="link" data-entity-1="ent0001" data-entity-2="ent0011" data-link-type="dependency" data-source-line="61"><path id="Employee-to-UC6" fill="none" d="M63.36,461.7583 C86.19,428.5683 123.92,382.8483 170.03,361.4883 C234.74,331.5083 311.3206,324.0478 369.7906,323.1178" style="stroke:#181818;stroke-width:1"/><polygon fill="#181818" points="374.79 323.038 365.728 319.182 369.791 323.118 365.855 327.181 374.79 323.038" style="stroke:#181818;stroke-width:1;stroke-linejoin:miter;stroke-miterlimit:10"/></g><g id="lnk43" class="link" data-entity-1="ent0001" data-entity-2="ent0012" data-link-type="dependency" data-source-line="62"><path id="Employee-to-UC7" fill="none" d="M71.38,480.1283 C96.99,464.8383 134.43,444.8283 170.03,434.4883 C235.95,415.3383 308.5054,406.4603 365.3354,401.9903" style="stroke:#181818;stroke-width:1"/><polygon fill="#181818" points="370.32 401.598 361.034 398.316 365.335 401.99 361.661 406.292 370.32 401.598" style="stroke:#181818;stroke-width:1;stroke-linejoin:miter;stroke-miterlimit:10"/></g><g id="lnk44" class="link" data-entity-1="ent0001" data-entity-2="ent0013" data-link-type="dependency" data-source-line="63"><path id="Employee-to-UC8" fill="none" d="M71.42,497.8483 C140.83,492.1083 301.327,478.8307 388.927,471.5807" style="stroke:#181818;stroke-width:1"/><polygon fill="#181818" points="393.91 471.168 384.611 467.924 388.927 471.581 385.271 475.897 393.91 471.168" style="stroke:#181818;stroke-width:1;stroke-linejoin:miter;stroke-miterlimit:10"/></g><g id="lnk45" class="link" data-entity-1="ent0001" data-entity-2="ent0014" data-link-type="dependency" data-source-line="64"><path id="Employee-to-UC9" fill="none" d="M71.42,502.9683 C139.04,508.2383 292.8451,520.2102 381.9851,527.1502" style="stroke:#181818;stroke-width:1"/><polygon fill="#181818" points="386.97 527.538 378.308 522.852 381.985 527.15 377.687 530.828 386.97 527.538" style="stroke:#181818;stroke-width:1;stroke-linejoin:miter;stroke-miterlimit:10"/></g><g id="lnk46" class="link" data-entity-1="ent0001" data-entity-2="ent0015" data-link-type="dependency" data-source-line="65"><path id="Employee-to-UC10" fill="none" d="M71.51,520.2283 C97.19,535.1183 134.67,554.7483 170.03,565.4883 C237.8,586.0683 313.2608,594.5602 370.5908,598.3302" style="stroke:#181818;stroke-width:1"/><polygon fill="#181818" points="375.58 598.658 366.862 594.076 370.591 598.33 366.337 602.059 375.58 598.658" style="stroke:#181818;stroke-width:1;stroke-linejoin:miter;stroke-miterlimit:10"/></g><g id="lnk47" class="link" data-entity-1="ent0001" data-entity-2="ent0016" data-link-type="dependency" data-source-line="66"><path id="Employee-to-UC11" fill="none" d="M64.75,539.0583 C87.98,571.0283 125.52,614.6483 170.03,636.4883 C225.45,663.6783 288.9587,673.5338 344.3887,676.8038" style="stroke:#181818;stroke-width:1"/><polygon fill="#181818" points="349.38 677.098 340.631 672.575 344.389 676.804 340.16 680.561 349.38 677.098" style="stroke:#181818;stroke-width:1;stroke-linejoin:miter;stroke-miterlimit:10"/></g><g id="lnk48" class="link" data-entity-1="ent0001" data-entity-2="ent0017" data-link-type="dependency" data-source-line="67"><path id="Employee-to-UC12" fill="none" d="M43.57,461.8783 C52.75,397.4083 81.73,270.3783 170.03,224.4883 C227.73,194.5083 295.6734,185.2714 352.7134,183.1814" style="stroke:#181818;stroke-width:1"/><polygon fill="#181818" points="357.71 182.998 348.57 179.331 352.713 183.181 348.863 187.325 357.71 182.998" style="stroke:#181818;stroke-width:1;stroke-linejoin:miter;stroke-miterlimit:10"/></g><g id="lnk49" class="link" data-entity-1="ent0002" data-entity-2="ent0006" data-link-type="dependency" data-source-line="69"><path id="Manager-to-UC1" fill="none" d="M42.27,1105.8883 C47.28,1144.6183 61.38,1202.8083 101.03,1232.4883 C200.13,1306.6783 357.6511,1279.8558 420.1011,1265.2658" style="stroke:#181818;stroke-width:1"/><polygon fill="#181818" points="424.97 1264.128 415.296 1262.281 420.101 1265.266 417.116 1270.071 424.97 1264.128" style="stroke:#181818;stroke-width:1;stroke-linejoin:miter;stroke-miterlimit:10"/></g><g id="lnk50" class="link" data-entity-1="ent0002" data-entity-2="ent0007" data-link-type="dependency" data-source-line="70"><path id="Manager-to-UC2" fill="none" d="M40.5,1106.0283 C43.78,1151.6083 56.2,1226.7883 101.03,1270.4883 C187.97,1355.2383 344.5689,1340.2255 413.2989,1328.6955" style="stroke:#181818;stroke-width:1"/><polygon fill="#181818" points="418.23 1327.868 408.692 1325.412 413.299 1328.696 410.016 1333.302 418.23 1327.868" style="stroke:#181818;stroke-width:1;stroke-linejoin:miter;stroke-miterlimit:10"/></g><g id="lnk51" class="link" data-entity-1="ent0002" data-entity-2="ent0008" data-link-type="dependency" data-source-line="71"><path id="Manager-to-UC3" fill="none" d="M68.09,1070.6883 C133.45,1077.9983 290.2011,1095.5419 381.0311,1105.7119" style="stroke:#181818;stroke-width:1"/><polygon fill="#181818" points="386 1106.268 377.501 1101.292 381.031 1105.712 376.611 1109.242 386 1106.268" style="stroke:#181818;stroke-width:1;stroke-linejoin:miter;stroke-miterlimit:10"/></g><g id="lnk52" class="link" data-entity-1="ent0002" data-entity-2="ent0018" data-link-type="dependency" data-source-line="72"><path id="Manager-to-UC13" fill="none" d="M68.09,1065.7483 C129.62,1062.0083 271.5892,1053.3717 364.3692,1047.7317" style="stroke:#181818;stroke-width:1"/><polygon fill="#181818" points="369.36 1047.428 360.134 1043.982 364.369 1047.732 360.619 1051.967 369.36 1047.428" style="stroke:#181818;stroke-width:1;stroke-linejoin:miter;stroke-miterlimit:10"/></g><g id="lnk53" class="link" data-entity-1="ent0002" data-entity-2="ent0019" data-link-type="dependency" data-source-line="73"><path id="Manager-to-UC14" fill="none" d="M68.06,1089.8083 C93.38,1108.3883 132.13,1133.9083 170.03,1147.4883 C230.09,1169.0083 296.3353,1178.3377 351.9853,1182.6977" style="stroke:#181818;stroke-width:1"/><polygon fill="#181818" points="356.97 1183.088 348.31 1178.398 351.985 1182.698 347.685 1186.373 356.97 1183.088" style="stroke:#181818;stroke-width:1;stroke-linejoin:miter;stroke-miterlimit:10"/></g><g id="lnk54" class="link" data-entity-1="ent0002" data-entity-2="ent0020" data-link-type="dependency" data-source-line="74"><path id="Manager-to-UC15" fill="none" d="M43.58,1028.9283 C52.76,964.5583 81.75,837.7883 170.03,792.4883 C228.95,762.2583 298.5621,753.4644 356.0121,751.7844" style="stroke:#181818;stroke-width:1"/><polygon fill="#181818" points="361.01 751.638 351.897 747.903 356.012 751.784 352.131 755.9 361.01 751.638" style="stroke:#181818;stroke-width:1;stroke-linejoin:miter;stroke-miterlimit:10"/></g><g id="lnk55" class="link" data-entity-1="ent0002" data-entity-2="ent0021" data-link-type="dependency" data-source-line="75"><path id="Manager-to-UC16" fill="none" d="M49.82,1029.0483 C65.83,978.2083 102.15,891.1283 170.03,857.4883 C239.86,822.8783 326.1528,818.7519 385.3128,820.7219" style="stroke:#181818;stroke-width:1"/><polygon fill="#181818" points="390.31 820.888 381.448 816.591 385.313 820.722 381.182 824.587 390.31 820.888" style="stroke:#181818;stroke-width:1;stroke-linejoin:miter;stroke-miterlimit:10"/></g><g id="lnk56" class="link" data-entity-1="ent0002" data-entity-2="ent0022" data-link-type="dependency" data-source-line="76"><path id="Manager-to-UC17" fill="none" d="M63.46,1028.9683 C86.36,995.9283 124.14,950.2983 170.03,928.4883 C234.19,897.9983 310.4702,890.841 369.0002,890.341" style="stroke:#181818;stroke-width:1"/><polygon fill="#181818" points="374 890.298 364.966 886.375 369 890.341 365.034 894.375 374 890.298" style="stroke:#181818;stroke-width:1;stroke-linejoin:miter;stroke-miterlimit:10"/></g><g id="lnk57" class="link" data-entity-1="ent0002" data-entity-2="ent0023" data-link-type="dependency" data-source-line="77"><path id="Manager-to-UC18" fill="none" d="M68.2,1050.3283 C93.92,1035.8083 133.19,1015.7783 170.03,1005.4883 C232.63,988.0083 300.4312,978.8984 356.1612,973.7484" style="stroke:#181818;stroke-width:1"/><polygon fill="#181818" points="361.14 973.288 351.81 970.133 356.161 973.748 352.546 978.1 361.14 973.288" style="stroke:#181818;stroke-width:1;stroke-linejoin:miter;stroke-miterlimit:10"/></g><g id="lnk58" class="link" data-entity-1="ent0003" data-entity-2="ent0006" data-link-type="dependency" data-source-line="79"><path id="HR-to-UC1" fill="none" d="M47.01,1483.1683 C60.38,1427.1583 94.35,1325.6583 170.03,1289.4883 C254.72,1249.0183 364.6721,1250.8409 417.2221,1254.5009" style="stroke:#181818;stroke-width:1"/><polygon fill="#181818" points="422.21 1254.848 413.51 1250.233 417.222 1254.501 412.954 1258.213 422.21 1254.848" style="stroke:#181818;stroke-width:1;stroke-linejoin:miter;stroke-miterlimit:10"/></g><g id="lnk59" class="link" data-entity-1="ent0003" data-entity-2="ent0007" data-link-type="dependency" data-source-line="80"><path id="HR-to-UC2" fill="none" d="M52.5,1491.1983 C71.59,1451.0683 111.42,1382.0283 170.03,1353.4883 C251.12,1314.0083 355.5603,1314.4279 410.7003,1317.9679" style="stroke:#181818;stroke-width:1"/><polygon fill="#181818" points="415.69 1318.288 406.965 1313.72 410.7 1317.968 406.452 1321.703 415.69 1318.288" style="stroke:#181818;stroke-width:1;stroke-linejoin:miter;stroke-miterlimit:10"/></g><g id="lnk60" class="link" data-entity-1="ent0003" data-entity-2="ent0008" data-link-type="dependency" data-source-line="81"><path id="HR-to-UC3" fill="none" d="M38.98,1482.8683 C39.79,1420.2783 48.51,1294.7183 101.03,1205.4883 C156.89,1110.5883 295.4265,1102.3125 380.1665,1106.6525" style="stroke:#181818;stroke-width:1"/><polygon fill="#181818" points="385.16 1106.908 376.376 1102.453 380.166 1106.652 375.967 1110.443 385.16 1106.908" style="stroke:#181818;stroke-width:1;stroke-linejoin:miter;stroke-miterlimit:10"/></g><g id="lnk61" class="link" data-entity-1="ent0003" data-entity-2="ent0024" data-link-type="dependency" data-source-line="82"><path id="HR-to-UC19" fill="none" d="M41.14,1560.1783 C44.98,1618.3883 57.86,1730.6083 101.03,1814.4883 C121.76,1854.7583 129.8,1868.6783 170.03,1889.4883 C233.15,1922.1383 309.57,1929.3681 368.42,1929.4881" style="stroke:#181818;stroke-width:1"/><polygon fill="#181818" points="373.42 1929.498 364.428 1925.48 368.42 1929.488 364.412 1933.48 373.42 1929.498" style="stroke:#181818;stroke-width:1;stroke-linejoin:miter;stroke-miterlimit:10"/></g><g id="lnk62" class="link" data-entity-1="ent0003" data-entity-2="ent0025" data-link-type="dependency" data-source-line="83"><path id="HR-to-UC20" fill="none" d="M42.23,1560.0783 C49.43,1628.1183 75.58,1766.8283 170.03,1815.4883 C230.62,1846.6983 302.9308,1854.8614 361.0308,1855.8714" style="stroke:#181818;stroke-width:1"/><polygon fill="#181818" points="366.03 1855.958 357.101 1851.803 361.031 1855.871 356.962 1859.801 366.03 1855.958" style="stroke:#181818;stroke-width:1;stroke-linejoin:miter;stroke-miterlimit:10"/></g><g id="lnk63" class="link" data-entity-1="ent0003" data-entity-2="ent0026" data-link-type="dependency" data-source-line="84"><path id="HR-to-UC21" fill="none" d="M52.2,1529.6783 C82.84,1549.5083 158.61,1598.8983 162.03,1604.4883 C177.22,1629.3183 149.5,1648.8583 170.03,1669.4883 C225.95,1725.6983 317.9881,1725.9347 381.9781,1717.9847" style="stroke:#181818;stroke-width:1"/><polygon fill="#181818" points="386.94 1717.368 377.515 1714.508 381.978 1717.985 378.502 1722.447 386.94 1717.368" style="stroke:#181818;stroke-width:1;stroke-linejoin:miter;stroke-miterlimit:10"/></g><g id="lnk64" class="link" data-entity-1="ent0003" data-entity-2="ent0027" data-link-type="dependency" data-source-line="85"><path id="HR-to-UC22" fill="none" d="M50.67,1559.8983 C67.57,1610.5983 104.79,1698.4383 170.03,1741.4883 C229.99,1781.0483 307.9921,1787.6345 368.1321,1785.8745" style="stroke:#181818;stroke-width:1"/><polygon fill="#181818" points="373.13 1785.728 364.017 1781.993 368.132 1785.874 364.251 1789.99 373.13 1785.728" style="stroke:#181818;stroke-width:1;stroke-linejoin:miter;stroke-miterlimit:10"/></g><g id="lnk65" class="link" data-entity-1="ent0003" data-entity-2="ent0028" data-link-type="dependency" data-source-line="86"><path id="HR-to-UC23" fill="none" d="M38.77,1560.1783 C38.95,1629.6583 46.35,1778.5883 101.03,1888.4883 C120.92,1928.4583 130.17,1941.3883 170.03,1961.4883 C236.28,1994.8983 317.1605,2000.7701 376.3505,1999.9201" style="stroke:#181818;stroke-width:1"/><polygon fill="#181818" points="381.35 1999.848 372.293 1995.978 376.351 1999.92 372.408 2003.977 381.35 1999.848" style="stroke:#181818;stroke-width:1;stroke-linejoin:miter;stroke-miterlimit:10"/></g><g id="lnk66" class="link" data-entity-1="ent0003" data-entity-2="ent0029" data-link-type="dependency" data-source-line="87"><path id="HR-to-UC24" fill="none" d="M52.37,1506.6183 C63.99,1493.9383 82.13,1476.0083 101.03,1464.4883 C186.39,1412.4483 297.6321,1396.1557 372.1421,1390.9657" style="stroke:#181818;stroke-width:1"/><polygon fill="#181818" points="377.13 1390.618 367.874 1387.253 372.142 1390.966 368.43 1395.234 377.13 1390.618" style="stroke:#181818;stroke-width:1;stroke-linejoin:miter;stroke-miterlimit:10"/></g><g id="lnk67" class="link" data-entity-1="ent0003" data-entity-2="ent0030" data-link-type="dependency" data-source-line="88"><path id="HR-to-UC25" fill="none" d="M52.36,1522.0683 C77.26,1523.9183 132.28,1531.5883 162.03,1563.4883 C171.44,1573.5783 159.68,1584.3683 170.03,1593.4883 C224.87,1641.8183 305.6919,1647.1627 367.9719,1642.8627" style="stroke:#181818;stroke-width:1"/><polygon fill="#181818" points="372.96 1642.518 363.706 1639.148 367.972 1642.863 364.257 1647.129 372.96 1642.518" style="stroke:#181818;stroke-width:1;stroke-linejoin:miter;stroke-miterlimit:10"/></g><g id="lnk68" class="link" data-entity-1="ent0003" data-entity-2="ent0031" data-link-type="dependency" data-source-line="89"><path id="HR-to-UC26" fill="none" d="M52.27,1514.5183 C64.41,1508.2683 83.39,1499.4883 101.03,1495.4883 C184.71,1476.5283 277.4407,1473.5336 348.2507,1474.7336" style="stroke:#181818;stroke-width:1"/><polygon fill="#181818" points="353.25 1474.818 344.319 1470.666 348.251 1474.734 344.183 1478.665 353.25 1474.818" style="stroke:#181818;stroke-width:1;stroke-linejoin:miter;stroke-miterlimit:10"/></g><g id="lnk69" class="link" data-entity-1="ent0003" data-entity-2="ent0032" data-link-type="dependency" data-source-line="90"><path id="HR-to-UC27" fill="none" d="M52.41,1521.1283 C74.75,1520.6183 122.12,1519.9783 162.03,1522.4883 C236.15,1527.1483 315.498,1536.9971 373.748,1545.1271" style="stroke:#181818;stroke-width:1"/><polygon fill="#181818" points="378.7 1545.818 370.339 1540.613 373.748 1545.127 369.233 1548.536 378.7 1545.818" style="stroke:#181818;stroke-width:1;stroke-linejoin:miter;stroke-miterlimit:10"/></g><g id="lnk70" class="link" data-entity-1="ent0004" data-entity-2="ent0006" data-link-type="dependency" data-source-line="92"><path id="Admin-to-UC1" fill="none" d="M47.35,1953.9883 C71.44,1835.3383 143.86,1476.2083 162.03,1358.4883 C164.39,1343.2283 159.11,1300.3883 170.03,1289.4883 C238.72,1220.9283 364.0601,1238.2349 419.5501,1250.0749" style="stroke:#181818;stroke-width:1"/><polygon fill="#181818" points="424.44 1251.118 416.473 1245.328 419.55 1250.075 414.803 1253.152 424.44 1251.118" style="stroke:#181818;stroke-width:1;stroke-linejoin:miter;stroke-miterlimit:10"/></g><g id="lnk71" class="link" data-entity-1="ent0004" data-entity-2="ent0007" data-link-type="dependency" data-source-line="93"><path id="Admin-to-UC2" fill="none" d="M43.29,1954.1483 C49.48,1904.3883 64.93,1816.0483 101.03,1749.4883 C120.07,1714.3783 147.02,1720.5083 162.03,1683.4883 C168.92,1666.4883 157.65,1367.0183 170.03,1353.4883 C234.03,1283.4983 356.6547,1299.9633 415.0947,1312.7033" style="stroke:#181818;stroke-width:1"/><polygon fill="#181818" points="419.98 1313.768 412.038 1307.943 415.095 1312.703 410.334 1315.759 419.98 1313.768" style="stroke:#181818;stroke-width:1;stroke-linejoin:miter;stroke-miterlimit:10"/></g><g id="lnk72" class="link" data-entity-1="ent0004" data-entity-2="ent0033" data-link-type="dependency" data-source-line="94"><path id="Admin-to-UC28" fill="none" d="M60.92,2018.5983 C84.54,2045.3283 125.19,2085.5583 170.03,2104.4883 C239.82,2133.9483 322.54,2139.8623 381.13,2139.9323" style="stroke:#181818;stroke-width:1"/><polygon fill="#181818" points="386.13 2139.938 377.135 2135.927 381.13 2139.932 377.125 2143.927 386.13 2139.938" style="stroke:#181818;stroke-width:1;stroke-linejoin:miter;stroke-miterlimit:10"/></g><g id="lnk73" class="link" data-entity-1="ent0004" data-entity-2="ent0034" data-link-type="dependency" data-source-line="95"><path id="Admin-to-UC29" fill="none" d="M54.04,2030.9483 C73.04,2074.7883 111.02,2143.8083 170.03,2170.4883 C239.62,2201.9483 323.3603,2207.3893 382.1903,2206.7893" style="stroke:#181818;stroke-width:1"/><polygon fill="#181818" points="387.19 2206.738 378.15 2202.83 382.19 2206.789 378.231 2210.83 387.19 2206.738" style="stroke:#181818;stroke-width:1;stroke-linejoin:miter;stroke-miterlimit:10"/></g><g id="lnk74" class="link" data-entity-1="ent0004" data-entity-2="ent0035" data-link-type="dependency" data-source-line="96"><path id="Admin-to-UC30" fill="none" d="M45.62,2030.7883 C57.42,2089.6983 89.69,2199.6183 170.03,2236.4883 C237.13,2267.2883 317.28,2273.6183 376.07,2273.6183" style="stroke:#181818;stroke-width:1"/><polygon fill="#181818" points="381.07 2273.618 372.07 2269.618 376.07 2273.618 372.07 2277.618 381.07 2273.618" style="stroke:#181818;stroke-width:1;stroke-linejoin:miter;stroke-miterlimit:10"/></g><g id="lnk75" class="link" data-entity-1="ent0004" data-entity-2="ent0036" data-link-type="dependency" data-source-line="97"><path id="Admin-to-UC31" fill="none" d="M61.13,2006.6583 C72.54,2013.4583 87.05,2021.0683 101.03,2025.4883 C188.15,2053.0083 287.7153,2062.4784 359.6353,2065.7884" style="stroke:#181818;stroke-width:1"/><polygon fill="#181818" points="364.63 2066.018 355.823 2061.609 359.635 2065.788 355.456 2069.6 364.63 2066.018" style="stroke:#181818;stroke-width:1;stroke-linejoin:miter;stroke-miterlimit:10"/></g><g id="lnk76" class="link" data-entity-1="ent0004" data-entity-2="ent0024" data-link-type="dependency" data-source-line="98"><path id="Admin-to-UC19" fill="none" d="M60.86,1992.7883 C86.47,1992.2583 129.98,1988.4483 162.03,1970.4883 C166.7,1967.8683 165.3,1963.9883 170.03,1961.4883 C232.98,1928.2383 309.61,1921.1032 368.56,1921.1632" style="stroke:#181818;stroke-width:1"/><polygon fill="#181818" points="373.56 1921.168 364.564 1917.159 368.56 1921.163 364.556 1925.159 373.56 1921.168" style="stroke:#181818;stroke-width:1;stroke-linejoin:miter;stroke-miterlimit:10"/></g><g id="lnk77" class="link" data-entity-1="ent0004" data-entity-2="ent0025" data-link-type="dependency" data-source-line="99"><path id="Admin-to-UC20" fill="none" d="M61.07,1969.2783 C85.12,1944.9983 126.42,1907.9083 170.03,1889.4883 C231.91,1863.3583 302.7248,1854.7966 359.9248,1852.2966" style="stroke:#181818;stroke-width:1"/><polygon fill="#181818" points="364.92 1852.078 355.754 1848.475 359.925 1852.297 356.103 1856.467 364.92 1852.078" style="stroke:#181818;stroke-width:1;stroke-linejoin:miter;stroke-miterlimit:10"/></g><g id="lnk78" class="link" data-entity-1="ent0004" data-entity-2="ent0026" data-link-type="dependency" data-source-line="100"><path id="Admin-to-UC21" fill="none" d="M45.89,1953.7683 C58.01,1894.6283 90.65,1784.1683 170.03,1741.4883 C232.19,1708.0583 307.99,1700.8215 366.89,1700.9015" style="stroke:#181818;stroke-width:1"/><polygon fill="#181818" points="371.89 1700.908 362.895 1696.896 366.89 1700.901 362.885 1704.896 371.89 1700.908" style="stroke:#181818;stroke-width:1;stroke-linejoin:miter;stroke-miterlimit:10"/></g><g id="lnk79" class="link" data-entity-1="ent0004" data-entity-2="ent0027" data-link-type="dependency" data-source-line="101"><path id="Admin-to-UC22" fill="none" d="M55.03,1953.9483 C74.64,1911.1083 112.88,1844.1883 170.03,1815.4883 C231.59,1784.5683 304.8908,1776.5184 363.1108,1775.4684" style="stroke:#181818;stroke-width:1"/><polygon fill="#181818" points="368.11 1775.378 359.039 1771.541 363.111 1775.468 359.184 1779.54 368.11 1775.378" style="stroke:#181818;stroke-width:1;stroke-linejoin:miter;stroke-miterlimit:10"/></g><g id="lnk80" class="link" data-entity-1="ent0004" data-entity-2="ent0028" data-link-type="dependency" data-source-line="102"><path id="Admin-to-UC23" fill="none" d="M61.07,2000.8883 C72.7,2004.9683 87.44,2009.4383 101.03,2011.4883 C202.23,2026.7583 316.6789,2015.6957 386.4689,2005.8657" style="stroke:#181818;stroke-width:1"/><polygon fill="#181818" points="391.42 2005.168 381.95 2002.463 386.469 2005.866 383.066 2010.384 391.42 2005.168" style="stroke:#181818;stroke-width:1;stroke-linejoin:miter;stroke-miterlimit:10"/></g><g id="lnk81" class="link" data-entity-1="ent0030" data-entity-2="ent0023" data-link-type="dependency" data-source-line="104"><path id="UC25-to-UC18" fill="none" d="M379.66,1644.6583 C314.8,1651.9683 221.83,1650.1983 170.03,1593.4883 C56.18,1468.8383 147.8,1382.6783 154.2,1213.9883 C157.72,1121.1183 106.26,1073.0883 170.03,1005.4883 C221.89,950.5083 307.5663,947.2263 371.9763,953.8563" style="stroke:#181818;stroke-width:1;stroke-dasharray:7,7"/><polygon fill="#181818" points="376.95 954.368 368.407 949.468 371.976 953.856 367.588 957.426 376.95 954.368" style="stroke:#181818;stroke-width:1;stroke-linejoin:miter;stroke-miterlimit:10"/><text x="102.03" y="1227.557" fill="#000" font-family="sans-serif" font-size="13" lengthAdjust="spacing" textLength="59.357">«include»</text></g><g id="lnk82" class="link" data-entity-1="ent0029" data-entity-2="ent0031" data-link-type="dependency" data-source-line="105"><path id="UC24-to-UC26" fill="none" d="M451.53,1406.1683 C451.53,1420.6783 451.53,1436.3083 451.53,1451.9983" style="stroke:#181818;stroke-width:1;stroke-dasharray:7,7"/><polygon fill="#181818" points="451.53 1456.998 455.53 1447.998 451.53 1451.998 447.53 1447.998 451.53 1456.998" style="stroke:#181818;stroke-width:1;stroke-linejoin:miter;stroke-miterlimit:10"/><text x="410.53" y="1436.547" fill="#000" font-family="sans-serif" font-size="13" lengthAdjust="spacing" textLength="59.357">«include»</text></g><g id="lnk83" class="link" data-entity-1="ent0010" data-entity-2="ent0017" data-link-type="dependency" data-source-line="106"><path id="UC5-to-UC12" fill="none" d="M451.53,113.3783 C451.53,127.7283 451.53,143.4083 451.53,158.9483" style="stroke:#181818;stroke-width:1;stroke-dasharray:7,7"/><polygon fill="#181818" points="451.53 163.948 455.53 154.948 451.53 158.948 447.53 154.948 451.53 163.948" style="stroke:#181818;stroke-width:1;stroke-linejoin:miter;stroke-miterlimit:10"/><text x="411.53" y="143.737" fill="#000" font-family="sans-serif" font-size="13" lengthAdjust="spacing" textLength="57.192">«extend»</text></g><?plantuml-src bPNTRvim4C3V-IkiFEojKp3vdAfAQJjjavgfIjhrsOKByG8siqqwDEr_dmbWR4CVbYVVtO_xyfsZgCe0RRvTFV8t492WptcHyGe0FGgUbB6YPwegj64agnID9I8iGRUbOBnK6e64QeGpjA-aWZp8uA2GuaZGzAXGGWLSp44WJvGLH90S5IG-aHJsgjA1QpjXQGOM88yauM-KfUX0CcbRIWanaO3-14Z_RhMZLF2I9NSyumAz7Ac2ni950gBHtcOQ2_u60OcL5hloMd5BcCv5jDBNNNlO93dLIPliqEG_ElJX_VvCTEewmwwEoGDFAPiW8j7pNUWPj8FMWctB3mflw9x8uoid8cc9o2QUYuIeItO7ca5Bp9ou-_8rfmgzS77AUDeYyq6ORTKXicKMOyn6AM09ON4NR6bJcwB8AlG0vDoPLsDEdeWyTL7MOy0MGEcXw9XmEe0UGHouoEj4q0xEMcNWS00FxwXZSJ20dq1FtnRoLn36PUGLAVWPcZ9ry5ybI6NGcOqscJKklUw6pXLifAGfSneJEltVnqT8IZsTVckM8_6wUdTGSD6djdAARTR1JBYXrYFGFUYbL3amumnFHx31SE1mX6hwzbGL9YR68vYUwPzw9mtZtC4NO23goNTBn6xtI_R-rUFX2lHhxUySNema-9qhUg0ngPsQ19PZFNwM_IpXrGYmurdVZE56RCf4R_13FpoHq_tclK5td1reMWfYLHc5GVqUccViwkhcylnu2kmh8bynynLpNx7m5KjViV8Lwq5Yqu5ca6kzi-rJRifnPUp9aSyF53DVCVSL2r-nz1LwkxxkJ4RcYFjZP05hYvXQP_jBwrDiVQk7l3_FhVF2EkivlFoncOHi2RlIoXNNZgX7pH5TJw4BOnV6NbWlRXG4TGNeOzC_z0bTNrCMPsK2DpUrQTQOy69WwZx25mlyhjyTRVW7?></g></svg>