<svg xmlns="http://www.w3.org/2000/svg" xmlns:xlink="http://www.w3.org/1999/xlink" contentStyleType="text/css" data-diagram-type="DESCRIPTION" height="2317px" preserveAspectRatio="none" style="width:740px;height:2317px;background:#FFFFFF;" version="1.1" viewBox="0 0 740 2317" width="740px" zoomAndPan="magnify"><?plantuml 1.2026.6?><defs/><g><g class="title" data-source-line="1"><text fill="#000000" font-family="sans-serif" font-size="14" font-weight="700" lengthAdjust="spacing" textLength="548.3516" x="92.3392" y="23.5352">AI-Powered Employee Productivity Analytics and Burnout Prediction System</text></g><!--cluster AI-Powered Employee Productivity Analytics & Burnout Prediction System--><g class="cluster" data-qualified-name="AI-Powered Employee Productivity Analytics . Burnout Prediction System" data-source-line="16" id="ent0005"><rect fill="none" height="2259" rx="2.5" ry="2.5" style="stroke:#181818;stroke-width:1;" width="548" x="178.03" y="44.4883"/><text fill="#000000" font-family="sans-serif" font-size="14" font-weight="700" lengthAdjust="spacing" textLength="532.0752" x="185.9924" y="60.0234">AI-Powered Employee Productivity Analytics &amp; Burnout Prediction System</text></g><!--entity UC1--><g class="entity" data-qualified-name="AI-Powered Employee Productivity Analytics . Burnout Prediction System.UC1" data-source-line="18" id="ent0006"><ellipse cx="451.5272" cy="1257.4873" fill="#FFFFFF" rx="29.5372" ry="14.659" style="stroke:#000000;stroke-width:0.5;"/><text fill="#000000" font-family="sans-serif" font-size="14" lengthAdjust="spacing" textLength="37.5293" x="432.7626" y="1262.2314">Login</text></g><!--entity UC2--><g class="entity" data-qualified-name="AI-Powered Employee Productivity Analytics . Burnout Prediction System.UC2" data-source-line="19" id="ent0007"><ellipse cx="451.5291" cy="1321.4873" fill="#FFFFFF" rx="36.4591" ry="14.659" style="stroke:#000000;stroke-width:0.5;"/><text fill="#000000" font-family="sans-serif" font-size="14" lengthAdjust="spacing" textLength="47.3184" x="427.87" y="1326.2314">Logout</text></g><!--entity UC3--><g class="entity" data-qualified-name="AI-Powered Employee Productivity Analytics . Burnout Prediction System.UC3" data-source-line="20" id="ent0008"><ellipse cx="451.5294" cy="1113.4902" fill="#FFFFFF" rx="71.7094" ry="16.7419" style="stroke:#000000;stroke-width:0.5;"/><text fill="#000000" font-family="sans-serif" font-size="14" lengthAdjust="spacing" textLength="109.9424" x="396.5582" y="1118.2343">View Dashboard</text></g><!--entity UC4--><g class="entity" data-qualified-name="AI-Powered Employee Productivity Analytics . Burnout Prediction System.UC4" data-source-line="21" id="ent0009"><ellipse cx="451.5294" cy="257.4842" fill="#FFFFFF" rx="66.1294" ry="15.6259" style="stroke:#000000;stroke-width:0.5;"/><text fill="#000000" font-family="sans-serif" font-size="14" lengthAdjust="spacing" textLength="95.6279" x="403.7154" y="262.2283">Update Profile</text></g><!--entity UC5--><g class="entity" data-qualified-name="AI-Powered Employee Productivity Analytics . Burnout Prediction System.UC5" data-source-line="23" id="ent0010"><ellipse cx="451.5303" cy="96.4904" fill="#FFFFFF" rx="70.8103" ry="16.5621" style="stroke:#000000;stroke-width:0.5;"/><text fill="#000000" font-family="sans-serif" font-size="14" lengthAdjust="spacing" textLength="107.6865" x="397.6871" y="101.2345">Submit Worklog</text></g><!--entity UC6--><g class="entity" data-qualified-name="AI-Powered Employee Productivity Analytics . Burnout Prediction System.UC6" data-source-line="24" id="ent0011"><ellipse cx="451.5346" cy="325.4872" fill="#FFFFFF" rx="77.0446" ry="17.8089" style="stroke:#000000;stroke-width:0.5;"/><text fill="#000000" font-family="sans-serif" font-size="14" lengthAdjust="spacing" textLength="123.0195" x="390.0248" y="330.2313">View My Worklogs</text></g><!--entity UC7--><g class="entity" data-qualified-name="AI-Powered Employee Productivity Analytics . Burnout Prediction System.UC7" data-source-line="25" id="ent0012"><ellipse cx="451.5284" cy="397.484" fill="#FFFFFF" rx="82.8784" ry="18.9757" style="stroke:#000000;stroke-width:0.5;"/><text fill="#000000" font-family="sans-serif" font-size="14" lengthAdjust="spacing" textLength="136.8418" x="383.1075" y="402.2281">View My Attendance</text></g><!--entity UC8--><g class="entity" data-qualified-name="AI-Powered Employee Productivity Analytics . Burnout Prediction System.UC8" data-source-line="26" id="ent0013"><ellipse cx="451.5271" cy="466.4873" fill="#FFFFFF" rx="60.3571" ry="14.659" style="stroke:#000000;stroke-width:0.5;"/><text fill="#000000" font-family="sans-serif" font-size="14" lengthAdjust="spacing" textLength="81.1152" x="410.9695" y="471.2314">Apply Leave</text></g><!--entity UC9--><g class="entity" data-qualified-name="AI-Powered Employee Productivity Analytics . Burnout Prediction System.UC9" data-source-line="27" id="ent0014"><ellipse cx="451.5287" cy="532.486" fill="#FFFFFF" rx="67.4387" ry="15.8877" style="stroke:#000000;stroke-width:0.5;"/><text fill="#000000" font-family="sans-serif" font-size="14" lengthAdjust="spacing" textLength="99.0596" x="401.9989" y="537.2302">View My Tasks</text></g><!--entity UC10--><g class="entity" data-qualified-name="AI-Powered Employee Productivity Analytics . Burnout Prediction System.UC10" data-source-line="28" id="ent0015"><ellipse cx="451.5311" cy="601.4925" fill="#FFFFFF" rx="76.4211" ry="17.6842" style="stroke:#000000;stroke-width:0.5;"/><text fill="#000000" font-family="sans-serif" font-size="14" lengthAdjust="spacing" textLength="121.5156" x="390.7733" y="606.2366">View My Meetings</text></g><!--entity UC11--><g class="entity" data-qualified-name="AI-Powered Employee Productivity Analytics . Burnout Prediction System.UC11" data-source-line="29" id="ent0016"><ellipse cx="451.5318" cy="676.4926" fill="#FFFFFF" rx="101.7718" ry="22.7544" style="stroke:#000000;stroke-width:0.5;"/><text fill="#000000" font-family="sans-serif" font-size="14" lengthAdjust="spacing" textLength="179.5186" x="361.7726" y="681.2368">View Performance Reviews</text></g><!--entity UC12--><g class="entity" data-qualified-name="AI-Powered Employee Productivity Analytics . Burnout Prediction System.UC12" data-source-line="30" id="ent0017"><ellipse cx="451.5328" cy="185.4928" fill="#FFFFFF" rx="93.9728" ry="21.1946" style="stroke:#000000;stroke-width:0.5;"/><text fill="#000000" font-family="sans-serif" font-size="14" lengthAdjust="spacing" textLength="162.1963" x="370.4347" y="190.237">View Burnout Prediction</text></g><!--entity UC13--><g class="entity" data-qualified-name="AI-Powered Employee Productivity Analytics . Burnout Prediction System.UC13" data-source-line="32" id="ent0018"><ellipse cx="451.5332" cy="1042.4889" fill="#FFFFFF" rx="84.4532" ry="19.2906" style="stroke:#000000;stroke-width:0.5;"/><text fill="#000000" font-family="sans-serif" font-size="14" lengthAdjust="spacing" textLength="140.5059" x="381.2803" y="1047.2331">View Team Members</text></g><!--entity UC14--><g class="entity" data-qualified-name="AI-Powered Employee Productivity Analytics . Burnout Prediction System.UC14" data-source-line="33" id="ent0019"><ellipse cx="451.5334" cy="1186.485" fill="#FFFFFF" rx="95.2334" ry="21.4467" style="stroke:#000000;stroke-width:0.5;"/><text fill="#000000" font-family="sans-serif" font-size="14" lengthAdjust="spacing" textLength="165.0195" x="369.0237" y="1191.2291">Approve Leave Requests</text></g><!--entity UC15--><g class="entity" data-qualified-name="AI-Powered Employee Productivity Analytics . Burnout Prediction System.UC15" data-source-line="34" id="ent0020"><ellipse cx="451.5339" cy="754.4891" fill="#FFFFFF" rx="91.1539" ry="20.6308" style="stroke:#000000;stroke-width:0.5;"/><text fill="#000000" font-family="sans-serif" font-size="14" lengthAdjust="spacing" textLength="155.8457" x="373.6111" y="759.2332">Review Team Worklogs</text></g><!--entity UC16--><g class="entity" data-qualified-name="AI-Powered Employee Productivity Analytics . Burnout Prediction System.UC16" data-source-line="35" id="ent0021"><ellipse cx="451.5293" cy="825.4901" fill="#FFFFFF" rx="63.6093" ry="15.1219" style="stroke:#000000;stroke-width:0.5;"/><text fill="#000000" font-family="sans-serif" font-size="14" lengthAdjust="spacing" textLength="88.8672" x="407.0957" y="830.2343">Assign Tasks</text></g><!--entity UC17--><g class="entity" data-qualified-name="AI-Powered Employee Productivity Analytics . Burnout Prediction System.UC17" data-source-line="36" id="ent0022"><ellipse cx="451.5346" cy="893.4852" fill="#FFFFFF" rx="78.4846" ry="18.0969" style="stroke:#000000;stroke-width:0.5;"/><text fill="#000000" font-family="sans-serif" font-size="14" lengthAdjust="spacing" textLength="126.4717" x="388.2987" y="898.2293">Schedule Meetings</text></g><!--entity UC18--><g class="entity" data-qualified-name="AI-Powered Employee Productivity Analytics . Burnout Prediction System.UC18" data-source-line="37" id="ent0023"><ellipse cx="451.5265" cy="967.4876" fill="#FFFFFF" rx="93.5465" ry="21.1093" style="stroke:#000000;stroke-width:0.5;"/><text fill="#000000" font-family="sans-serif" font-size="14" lengthAdjust="spacing" textLength="161.2393" x="370.9069" y="972.2317">Review Burnout Reports</text></g><!--entity UC19--><g class="entity" data-qualified-name="AI-Powered Employee Productivity Analytics . Burnout Prediction System.UC19" data-source-line="39" id="ent0024"><ellipse cx="451.5283" cy="1925.4859" fill="#FFFFFF" rx="79.6883" ry="18.3377" style="stroke:#000000;stroke-width:0.5;"/><text fill="#000000" font-family="sans-serif" font-size="14" lengthAdjust="spacing" textLength="129.3359" x="386.8603" y="1930.2301">Manage Employees</text></g><!--entity UC20--><g class="entity" data-qualified-name="AI-Powered Employee Productivity Analytics . Burnout Prediction System.UC20" data-source-line="40" id="ent0025"><ellipse cx="451.5332" cy="1852.4889" fill="#FFFFFF" rx="86.3532" ry="19.6706" style="stroke:#000000;stroke-width:0.5;"/><text fill="#000000" font-family="sans-serif" font-size="14" lengthAdjust="spacing" textLength="144.8945" x="379.0859" y="1857.2331">Manage Departments</text></g><!--entity UC21--><g class="entity" data-qualified-name="AI-Powered Employee Productivity Analytics . Burnout Prediction System.UC21" data-source-line="41" id="ent0026"><ellipse cx="451.531" cy="1705.4905" fill="#FFFFFF" rx="81.661" ry="18.7322" style="stroke:#000000;stroke-width:0.5;"/><text fill="#000000" font-family="sans-serif" font-size="14" lengthAdjust="spacing" textLength="133.9912" x="384.5354" y="1710.2346">Manage Attendance</text></g><!--entity UC22--><g class="entity" data-qualified-name="AI-Powered Employee Productivity Analytics . Burnout Prediction System.UC22" data-source-line="42" id="ent0027"><ellipse cx="451.5338" cy="1778.487" fill="#FFFFFF" rx="84.0438" ry="19.2088" style="stroke:#000000;stroke-width:0.5;"/><text fill="#000000" font-family="sans-serif" font-size="14" lengthAdjust="spacing" textLength="139.5557" x="381.7559" y="1783.2312">Manage Leave Types</text></g><!--entity UC23--><g class="entity" data-qualified-name="AI-Powered Employee Productivity Analytics . Burnout Prediction System.UC23" data-source-line="43" id="ent0028"><ellipse cx="451.5281" cy="1995.4919" fill="#FFFFFF" rx="72.0681" ry="16.8136" style="stroke:#000000;stroke-width:0.5;"/><text fill="#000000" font-family="sans-serif" font-size="14" lengthAdjust="spacing" textLength="110.8379" x="396.1092" y="2000.236">Manage Projects</text></g><!--entity UC24--><g class="entity" data-qualified-name="AI-Powered Employee Productivity Analytics . Burnout Prediction System.UC24" data-source-line="44" id="ent0029"><ellipse cx="451.5268" cy="1388.4916" fill="#FFFFFF" rx="74.7668" ry="17.3534" style="stroke:#000000;stroke-width:0.5;"/><text fill="#000000" font-family="sans-serif" font-size="14" lengthAdjust="spacing" textLength="117.4961" x="392.7788" y="1393.2358">Generate Reports</text></g><!--entity UC25--><g class="entity" data-qualified-name="AI-Powered Employee Productivity Analytics . Burnout Prediction System.UC25" data-source-line="45" id="ent0030"><ellipse cx="451.5346" cy="1631.4892" fill="#FFFFFF" rx="91.5046" ry="20.7009" style="stroke:#000000;stroke-width:0.5;"/><text fill="#000000" font-family="sans-serif" font-size="14" lengthAdjust="spacing" textLength="156.6387" x="373.2153" y="1636.2333">Run Burnout Prediction</text></g><!--entity UC26--><g class="entity" data-qualified-name="AI-Powered Employee Productivity Analytics . Burnout Prediction System.UC26" data-source-line="46" id="ent0031"><ellipse cx="451.5258" cy="1479.4894" fill="#FFFFFF" rx="99.9058" ry="22.3812" style="stroke:#000000;stroke-width:0.5;"/><text fill="#000000" font-family="sans-serif" font-size="14" lengthAdjust="spacing" textLength="175.4033" x="363.8241" y="1484.2336">View Analytics Dashboard</text></g><!--entity UC27--><g class="entity" data-qualified-name="AI-Powered Employee Productivity Analytics . Burnout Prediction System.UC27" data-source-line="47" id="ent0032"><ellipse cx="451.5275" cy="1556.4918" fill="#FFFFFF" rx="85.6175" ry="19.5235" style="stroke:#000000;stroke-width:0.5;"/><text fill="#000000" font-family="sans-serif" font-size="14" lengthAdjust="spacing" textLength="143.1992" x="379.9279" y="1561.2359">Manage Notifications</text></g><!--entity UC28--><g class="entity" data-qualified-name="AI-Powered Employee Productivity Analytics . Burnout Prediction System.UC28" data-source-line="49" id="ent0033"><ellipse cx="451.5278" cy="2137.4918" fill="#FFFFFF" rx="65.7678" ry="15.5536" style="stroke:#000000;stroke-width:0.5;"/><text fill="#000000" font-family="sans-serif" font-size="14" lengthAdjust="spacing" textLength="94.6709" x="404.1923" y="2142.236">Manage Users</text></g><!--entity UC29--><g class="entity" data-qualified-name="AI-Powered Employee Productivity Analytics . Burnout Prediction System.UC29" data-source-line="50" id="ent0034"><ellipse cx="451.5266" cy="2203.4916" fill="#FFFFFF" rx="65.3666" ry="15.4733" style="stroke:#000000;stroke-width:0.5;"/><text fill="#000000" font-family="sans-serif" font-size="14" lengthAdjust="spacing" textLength="93.6045" x="404.7244" y="2208.2357">Manage Roles</text></g><!--entity UC30--><g class="entity" data-qualified-name="AI-Powered Employee Productivity Analytics . Burnout Prediction System.UC30" data-source-line="51" id="ent0035"><ellipse cx="451.5308" cy="2270.4864" fill="#FFFFFF" rx="71.3408" ry="16.6682" style="stroke:#000000;stroke-width:0.5;"/><text fill="#000000" font-family="sans-serif" font-size="14" lengthAdjust="spacing" textLength="109.0195" x="397.021" y="2275.2306">View Audit Logs</text></g><!--entity UC31--><g class="entity" data-qualified-name="AI-Powered Employee Productivity Analytics . Burnout Prediction System.UC31" data-source-line="52" id="ent0036"><ellipse cx="451.5274" cy="2067.4878" fill="#FFFFFF" rx="86.8974" ry="19.7795" style="stroke:#000000;stroke-width:0.5;"/><text fill="#000000" font-family="sans-serif" font-size="14" lengthAdjust="spacing" textLength="146.1455" x="378.4546" y="2072.2319">System Configuration</text></g><!--entity Employee--><g class="entity" data-qualified-name="Employee" data-source-line="11" id="ent0001"><ellipse cx="38.5151" cy="470.7483" fill="#F1F1F1" rx="8" ry="8" style="stroke:#181818;stroke-width:0.5;"/><path d="M38.5151,478.7483 L38.5151,505.7483 M25.5151,486.7483 L51.5151,486.7483 M38.5151,505.7483 L25.5151,520.7483 M38.5151,505.7483 L51.5151,520.7483" fill="none" style="stroke:#181818;stroke-width:0.5;"/><text fill="#000000" font-family="sans-serif" font-size="14" lengthAdjust="spacing" textLength="65.0303" x="6" y="535.7834">Employee</text></g><!--entity Manager--><g class="entity" data-qualified-name="Manager" data-source-line="12" id="ent0002"><ellipse cx="38.5139" cy="1037.7483" fill="#F1F1F1" rx="8" ry="8" style="stroke:#181818;stroke-width:0.5;"/><path d="M38.5139,1045.7483 L38.5139,1072.7483 M25.5139,1053.7483 L51.5139,1053.7483 M38.5139,1072.7483 L25.5139,1087.7483 M38.5139,1072.7483 L51.5139,1087.7483" fill="none" style="stroke:#181818;stroke-width:0.5;"/><text fill="#000000" font-family="sans-serif" font-size="14" lengthAdjust="spacing" textLength="58.4678" x="9.28" y="1102.7834">Manager</text></g><!--entity HR--><g class="entity" data-qualified-name="HR" data-source-line="13" id="ent0003"><ellipse cx="38.52" cy="1491.7483" fill="#F1F1F1" rx="8" ry="8" style="stroke:#181818;stroke-width:0.5;"/><path d="M38.52,1499.7483 L38.52,1526.7483 M25.52,1507.7483 L51.52,1507.7483 M38.52,1526.7483 L25.52,1541.7483 M38.52,1526.7483 L51.52,1541.7483" fill="none" style="stroke:#181818;stroke-width:0.5;"/><text fill="#000000" font-family="sans-serif" font-size="14" lengthAdjust="spacing" textLength="19.1406" x="28.9497" y="1556.7834">HR</text></g><!--entity Admin--><g class="entity" data-qualified-name="Admin" data-source-line="14" id="ent0004"><ellipse cx="38.5182" cy="1962.7483" fill="#F1F1F1" rx="8" ry="8" style="stroke:#181818;stroke-width:0.5;"/><path d="M38.5182,1970.7483 L38.5182,1997.7483 M25.5182,1978.7483 L51.5182,1978.7483 M38.5182,1997.7483 L25.5182,2012.7483 M38.5182,1997.7483 L51.5182,2012.7483" fill="none" style="stroke:#181818;stroke-width:0.5;"/><text fill="#000000" font-family="sans-serif" font-size="14" lengthAdjust="spacing" textLength="44.2764" x="16.38" y="2027.7834">Admin</text></g><!--link Employee to UC1--><g class="link" data-entity-1="ent0001" data-entity-2="ent0006" data-link-type="dependency" data-source-line="56" id="lnk37"><path d="M40.76,539.0883 C44.52,636.9283 58.26,891.9783 101.03,963.4883 C118.19,992.1783 146.26,978.0183 162.03,1007.4883 C173.47,1028.8583 153.56,1207.6983 170.03,1225.4883 C236.3,1297.0583 364.1631,1277.8009 419.9831,1265.1809" fill="none" id="Employee-to-UC1" style="stroke:#181818;stroke-width:1;"/><polygon fill="#181818" points="424.86,1264.0783,415.1995,1262.1614,419.9831,1265.1809,416.9636,1269.9645,424.86,1264.0783" style="stroke:#181818;stroke-width:1;stroke-linejoin:miter;stroke-miterlimit:10;"/></g><!--link Employee to UC2--><g class="link" data-entity-1="ent0001" data-entity-2="ent0007" data-link-type="dependency" data-source-line="57" id="lnk38"><path d="M41.94,539.1183 C47.77,624.0383 64.84,833.0683 101.03,1004.4883 C120.31,1095.8283 143.96,1113.8983 162.03,1205.4883 C165.66,1223.8883 156.9,1276.1083 170.03,1289.4883 C236.12,1356.8283 356.5234,1341.9996 414.6234,1329.9996" fill="none" id="Employee-to-UC2" style="stroke:#181818;stroke-width:1;"/><polygon fill="#181818" points="419.52,1328.9883,409.8969,1326.8914,414.6234,1329.9996,411.5151,1334.726,419.52,1328.9883" style="stroke:#181818;stroke-width:1;stroke-linejoin:miter;stroke-miterlimit:10;"/></g><!--link Employee to UC3--><g class="link" data-entity-1="ent0001" data-entity-2="ent0008" data-link-type="dependency" data-source-line="58" id="lnk39"><path d="M52.34,539.2283 C77.97,618.4583 135.35,805.1383 162.03,966.4883 C164.08,978.9083 161.35,1070.3683 170.03,1079.4883 C227.84,1140.2683 328.6424,1135.8056 392.4824,1125.6256" fill="none" id="Employee-to-UC3" style="stroke:#181818;stroke-width:1;"/><polygon fill="#181818" points="397.42,1124.8383,387.9024,1122.3054,392.4824,1125.6256,389.1622,1130.2056,397.42,1124.8383" style="stroke:#181818;stroke-width:1;stroke-linejoin:miter;stroke-miterlimit:10;"/></g><!--link Employee to UC4--><g class="link" data-entity-1="ent0001" data-entity-2="ent0009" data-link-type="dependency" data-source-line="59" id="lnk40"><path d="M49.83,462.0783 C65.86,411.2783 102.21,324.2483 170.03,290.4883 C238.73,256.2883 323.2616,251.4417 382.4816,252.9417" fill="none" id="Employee-to-UC4" style="stroke:#181818;stroke-width:1;"/><polygon fill="#181818" points="387.48,253.0683,378.5842,248.8417,382.4816,252.9417,378.3816,256.8391,387.48,253.0683" style="stroke:#181818;stroke-width:1;stroke-linejoin:miter;stroke-miterlimit:10;"/></g><!--link Employee to UC5--><g class="link" data-entity-1="ent0001" data-entity-2="ent0010" data-link-type="dependency" data-source-line="60" id="lnk41"><path d="M39.48,461.7683 C41.82,384.2683 59.76,211.9183 170.03,146.4883 C234.37,108.3083 315.6034,97.973 375.3934,95.763" fill="none" id="Employee-to-UC5" style="stroke:#181818;stroke-width:1;"/><polygon fill="#181818" points="380.39,95.5783,371.2484,91.9134,375.3934,95.763,371.5439,99.908,380.39,95.5783" style="stroke:#181818;stroke-width:1;stroke-linejoin:miter;stroke-miterlimit:10;"/></g><!--link Employee to UC6--><g class="link" data-entity-1="ent0001" data-entity-2="ent0011" data-link-type="dependency" data-source-line="61" id="lnk42"><path d="M63.36,461.7583 C86.19,428.5683 123.92,382.8483 170.03,361.4883 C234.74,331.5083 311.3206,324.0478 369.7906,323.1178" fill="none" id="Employee-to-UC6" style="stroke:#181818;stroke-width:1;"/><polygon fill="#181818" points="374.79,323.0383,365.7275,319.1819,369.7906,323.1178,365.8548,327.1809,374.79,323.0383" style="stroke:#181818;stroke-width:1;stroke-linejoin:miter;stroke-miterlimit:10;"/></g><!--link Employee to UC7--><g class="link" data-entity-1="ent0001" data-entity-2="ent0012" data-link-type="dependency" data-source-line="62" id="lnk43"><path d="M71.38,480.1283 C96.99,464.8383 134.43,444.8283 170.03,434.4883 C235.95,415.3383 308.5054,406.4603 365.3354,401.9903" fill="none" id="Employee-to-UC7" style="stroke:#181818;stroke-width:1;"/><polygon fill="#181818" points="370.32,401.5983,361.0341,398.3163,365.3354,401.9903,361.6614,406.2917,370.32,401.5983" style="stroke:#181818;stroke-width:1;stroke-linejoin:miter;stroke-miterlimit:10;"/></g><!--link Employee to UC8--><g class="link" data-entity-1="ent0001" data-entity-2="ent0013" data-link-type="dependency" data-source-line="63" id="lnk44"><path d="M71.42,497.8483 C140.83,492.1083 301.327,478.8307 388.927,471.5807" fill="none" id="Employee-to-UC8" style="stroke:#181818;stroke-width:1;"/><polygon fill="#181818" points="393.91,471.1683,384.6107,467.9242,388.927,471.5807,385.2706,475.897,393.91,471.1683" style="stroke:#181818;stroke-width:1;stroke-linejoin:miter;stroke-miterlimit:10;"/></g><!--link Employee to UC9--><g class="link" data-entity-1="ent0001" data-entity-2="ent0014" data-link-type="dependency" data-source-line="64" id="lnk45"><path d="M71.42,502.9683 C139.04,508.2383 292.8451,520.2102 381.9851,527.1502" fill="none" id="Employee-to-UC9" style="stroke:#181818;stroke-width:1;"/><polygon fill="#181818" points="386.97,527.5383,378.3076,522.8518,381.9851,527.1502,377.6867,530.8276,386.97,527.5383" style="stroke:#181818;stroke-width:1;stroke-linejoin:miter;stroke-miterlimit:10;"/></g><!--link Employee to UC10--><g class="link" data-entity-1="ent0001" data-entity-2="ent0015" data-link-type="dependency" data-source-line="65" id="lnk46"><path d="M71.51,520.2283 C97.19,535.1183 134.67,554.7483 170.03,565.4883 C237.8,586.0683 313.2608,594.5602 370.5908,598.3302" fill="none" id="Employee-to-UC10" style="stroke:#181818;stroke-width:1;"/><polygon fill="#181818" points="375.58,598.6583,366.8619,594.0763,370.5908,598.3302,366.3369,602.0591,375.58,598.6583" style="stroke:#181818;stroke-width:1;stroke-linejoin:miter;stroke-miterlimit:10;"/></g><!--link Employee to UC11--><g class="link" data-entity-1="ent0001" data-entity-2="ent0016" data-link-type="dependency" data-source-line="66" id="lnk47"><path d="M64.75,539.0583 C87.98,571.0283 125.52,614.6483 170.03,636.4883 C225.45,663.6783 288.9587,673.5338 344.3887,676.8038" fill="none" id="Employee-to-UC11" style="stroke:#181818;stroke-width:1;"/><polygon fill="#181818" points="349.38,677.0983,340.6312,672.5752,344.3887,676.8038,340.1601,680.5613,349.38,677.0983" style="stroke:#181818;stroke-width:1;stroke-linejoin:miter;stroke-miterlimit:10;"/></g><!--link Employee to UC12--><g class="link" data-entity-1="ent0001" data-entity-2="ent0017" data-link-type="dependency" data-source-line="67" id="lnk48"><path d="M43.57,461.8783 C52.75,397.4083 81.73,270.3783 170.03,224.4883 C227.73,194.5083 295.6734,185.2714 352.7134,183.1814" fill="none" id="Employee-to-UC12" style="stroke:#181818;stroke-width:1;"/><polygon fill="#181818" points="357.71,182.9983,348.5696,179.3305,352.7134,183.1814,348.8625,187.3251,357.71,182.9983" style="stroke:#181818;stroke-width:1;stroke-linejoin:miter;stroke-miterlimit:10;"/></g><!--link Manager to UC1--><g class="link" data-entity-1="ent0002" data-entity-2="ent0006" data-link-type="dependency" data-source-line="69" id="lnk49"><path d="M42.27,1105.8883 C47.28,1144.6183 61.38,1202.8083 101.03,1232.4883 C200.13,1306.6783 357.6511,1279.8558 420.1011,1265.2658" fill="none" id="Manager-to-UC1" style="stroke:#181818;stroke-width:1;"/><polygon fill="#181818" points="424.97,1264.1283,415.296,1262.2807,420.1011,1265.2658,417.116,1270.0709,424.97,1264.1283" style="stroke:#181818;stroke-width:1;stroke-linejoin:miter;stroke-miterlimit:10;"/></g><!--link Manager to UC2--><g class="link" data-entity-1="ent0002" data-entity-2="ent0007" data-link-type="dependency" data-source-line="70" id="lnk50"><path d="M40.5,1106.0283 C43.78,1151.6083 56.2,1226.7883 101.03,1270.4883 C187.97,1355.2383 344.5689,1340.2255 413.2989,1328.6955" fill="none" id="Manager-to-UC2" style="stroke:#181818;stroke-width:1;"/><polygon fill="#181818" points="418.23,1327.8683,408.6922,1325.4124,413.2989,1328.6955,410.0158,1333.3022,418.23,1327.8683" style="stroke:#181818;stroke-width:1;stroke-linejoin:miter;stroke-miterlimit:10;"/></g><!--link Manager to UC3--><g class="link" data-entity-1="ent0002" data-entity-2="ent0008" data-link-type="dependency" data-source-line="71" id="lnk51"><path d="M68.09,1070.6883 C133.45,1077.9983 290.2011,1095.5419 381.0311,1105.7119" fill="none" id="Manager-to-UC3" style="stroke:#181818;stroke-width:1;"/><polygon fill="#181818" points="386,1106.2683,377.501,1101.2917,381.0311,1105.7119,376.6108,1109.242,386,1106.2683" style="stroke:#181818;stroke-width:1;stroke-linejoin:miter;stroke-miterlimit:10;"/></g><!--link Manager to UC13--><g class="link" data-entity-1="ent0002" data-entity-2="ent0018" data-link-type="dependency" data-source-line="72" id="lnk52"><path d="M68.09,1065.7483 C129.62,1062.0083 271.5892,1053.3717 364.3692,1047.7317" fill="none" id="Manager-to-UC13" style="stroke:#181818;stroke-width:1;"/><polygon fill="#181818" points="369.36,1047.4283,360.1339,1043.9817,364.3692,1047.7317,360.6193,1051.967,369.36,1047.4283" style="stroke:#181818;stroke-width:1;stroke-linejoin:miter;stroke-miterlimit:10;"/></g><!--link Manager to UC14--><g class="link" data-entity-1="ent0002" data-entity-2="ent0019" data-link-type="dependency" data-source-line="73" id="lnk53"><path d="M68.06,1089.8083 C93.38,1108.3883 132.13,1133.9083 170.03,1147.4883 C230.09,1169.0083 296.3353,1178.3377 351.9853,1182.6977" fill="none" id="Manager-to-UC14" style="stroke:#181818;stroke-width:1;"/><polygon fill="#181818" points="356.97,1183.0883,348.3099,1178.3975,351.9853,1182.6977,347.6851,1186.3731,356.97,1183.0883" style="stroke:#181818;stroke-width:1;stroke-linejoin:miter;stroke-miterlimit:10;"/></g><!--link Manager to UC15--><g class="link" data-entity-1="ent0002" data-entity-2="ent0020" data-link-type="dependency" data-source-line="74" id="lnk54"><path d="M43.58,1028.9283 C52.76,964.5583 81.75,837.7883 170.03,792.4883 C228.95,762.2583 298.5621,753.4644 356.0121,751.7844" fill="none" id="Manager-to-UC15" style="stroke:#181818;stroke-width:1;"/><polygon fill="#181818" points="361.01,751.6383,351.8969,747.9031,356.0121,751.7844,352.1308,755.8996,361.01,751.6383" style="stroke:#181818;stroke-width:1;stroke-linejoin:miter;stroke-miterlimit:10;"/></g><!--link Manager to UC16--><g class="link" data-entity-1="ent0002" data-entity-2="ent0021" data-link-type="dependency" data-source-line="75" id="lnk55"><path d="M49.82,1029.0483 C65.83,978.2083 102.15,891.1283 170.03,857.4883 C239.86,822.8783 326.1528,818.7519 385.3128,820.7219" fill="none" id="Manager-to-UC16" style="stroke:#181818;stroke-width:1;"/><polygon fill="#181818" points="390.31,820.8883,381.4481,816.591,385.3128,820.7219,381.1819,824.5865,390.31,820.8883" style="stroke:#181818;stroke-width:1;stroke-linejoin:miter;stroke-miterlimit:10;"/></g><!--link Manager to UC17--><g class="link" data-entity-1="ent0002" data-entity-2="ent0022" data-link-type="dependency" data-source-line="76" id="lnk56"><path d="M63.46,1028.9683 C86.36,995.9283 124.14,950.2983 170.03,928.4883 C234.19,897.9983 310.4702,890.841 369.0002,890.341" fill="none" id="Manager-to-UC17" style="stroke:#181818;stroke-width:1;"/><polygon fill="#181818" points="374,890.2983,364.9662,886.3753,369.0002,890.341,365.0345,894.375,374,890.2983" style="stroke:#181818;stroke-width:1;stroke-linejoin:miter;stroke-miterlimit:10;"/></g><!--link Manager to UC18--><g class="link" data-entity-1="ent0002" data-entity-2="ent0023" data-link-type="dependency" data-source-line="77" id="lnk57"><path d="M68.2,1050.3283 C93.92,1035.8083 133.19,1015.7783 170.03,1005.4883 C232.63,988.0083 300.4312,978.8984 356.1612,973.7484" fill="none" id="Manager-to-UC18" style="stroke:#181818;stroke-width:1;"/><polygon fill="#181818" points="361.14,973.2883,351.8101,970.1334,356.1612,973.7484,352.5463,978.0995,361.14,973.2883" style="stroke:#181818;stroke-width:1;stroke-linejoin:miter;stroke-miterlimit:10;"/></g><!--link HR to UC1--><g class="link" data-entity-1="ent0003" data-entity-2="ent0006" data-link-type="dependency" data-source-line="79" id="lnk58"><path d="M47.01,1483.1683 C60.38,1427.1583 94.35,1325.6583 170.03,1289.4883 C254.72,1249.0183 364.6721,1250.8409 417.2221,1254.5009" fill="none" id="HR-to-UC1" style="stroke:#181818;stroke-width:1;"/><polygon fill="#181818" points="422.21,1254.8483,413.5097,1250.2326,417.2221,1254.5009,412.9538,1258.2133,422.21,1254.8483" style="stroke:#181818;stroke-width:1;stroke-linejoin:miter;stroke-miterlimit:10;"/></g><!--link HR to UC2--><g class="link" data-entity-1="ent0003" data-entity-2="ent0007" data-link-type="dependency" data-source-line="80" id="lnk59"><path d="M52.5,1491.1983 C71.59,1451.0683 111.42,1382.0283 170.03,1353.4883 C251.12,1314.0083 355.5603,1314.4279 410.7003,1317.9679" fill="none" id="HR-to-UC2" style="stroke:#181818;stroke-width:1;"/><polygon fill="#181818" points="415.69,1318.2883,406.9648,1313.7199,410.7003,1317.9679,406.4522,1321.7034,415.69,1318.2883" style="stroke:#181818;stroke-width:1;stroke-linejoin:miter;stroke-miterlimit:10;"/></g><!--link HR to UC3--><g class="link" data-entity-1="ent0003" data-entity-2="ent0008" data-link-type="dependency" data-source-line="81" id="lnk60"><path d="M38.98,1482.8683 C39.79,1420.2783 48.51,1294.7183 101.03,1205.4883 C156.89,1110.5883 295.4265,1102.3125 380.1665,1106.6525" fill="none" id="HR-to-UC3" style="stroke:#181818;stroke-width:1;"/><polygon fill="#181818" points="385.16,1106.9083,376.3764,1102.4532,380.1665,1106.6525,375.9672,1110.4427,385.16,1106.9083" style="stroke:#181818;stroke-width:1;stroke-linejoin:miter;stroke-miterlimit:10;"/></g><!--link HR to UC19--><g class="link" data-entity-1="ent0003" data-entity-2="ent0024" data-link-type="dependency" data-source-line="82" id="lnk61"><path d="M41.14,1560.1783 C44.98,1618.3883 57.86,1730.6083 101.03,1814.4883 C121.76,1854.7583 129.8,1868.6783 170.03,1889.4883 C233.15,1922.1383 309.57,1929.3681 368.42,1929.4881" fill="none" id="HR-to-UC19" style="stroke:#181818;stroke-width:1;"/><polygon fill="#181818" points="373.42,1929.4983,364.4282,1925.4799,368.42,1929.4881,364.4119,1933.4799,373.42,1929.4983" style="stroke:#181818;stroke-width:1;stroke-linejoin:miter;stroke-miterlimit:10;"/></g><!--link HR to UC20--><g class="link" data-entity-1="ent0003" data-entity-2="ent0025" data-link-type="dependency" data-source-line="83" id="lnk62"><path d="M42.23,1560.0783 C49.43,1628.1183 75.58,1766.8283 170.03,1815.4883 C230.62,1846.6983 302.9308,1854.8614 361.0308,1855.8714" fill="none" id="HR-to-UC20" style="stroke:#181818;stroke-width:1;"/><polygon fill="#181818" points="366.03,1855.9583,357.1009,1851.8025,361.0308,1855.8714,356.9618,1859.8012,366.03,1855.9583" style="stroke:#181818;stroke-width:1;stroke-linejoin:miter;stroke-miterlimit:10;"/></g><!--link HR to UC21--><g class="link" data-entity-1="ent0003" data-entity-2="ent0026" data-link-type="dependency" data-source-line="84" id="lnk63"><path d="M52.2,1529.6783 C82.84,1549.5083 158.61,1598.8983 162.03,1604.4883 C177.22,1629.3183 149.5,1648.8583 170.03,1669.4883 C225.95,1725.6983 317.9881,1725.9347 381.9781,1717.9847" fill="none" id="HR-to-UC21" style="stroke:#181818;stroke-width:1;"/><polygon fill="#181818" points="386.94,1717.3683,377.5155,1714.5084,381.9781,1717.9847,378.5018,1722.4474,386.94,1717.3683" style="stroke:#181818;stroke-width:1;stroke-linejoin:miter;stroke-miterlimit:10;"/></g><!--link HR to UC22--><g class="link" data-entity-1="ent0003" data-entity-2="ent0027" data-link-type="dependency" data-source-line="85" id="lnk64"><path d="M50.67,1559.8983 C67.57,1610.5983 104.79,1698.4383 170.03,1741.4883 C229.99,1781.0483 307.9921,1787.6345 368.1321,1785.8745" fill="none" id="HR-to-UC22" style="stroke:#181818;stroke-width:1;"/><polygon fill="#181818" points="373.13,1785.7283,364.0168,1781.9933,368.1321,1785.8745,364.2509,1789.9898,373.13,1785.7283" style="stroke:#181818;stroke-width:1;stroke-linejoin:miter;stroke-miterlimit:10;"/></g><!--link HR to UC23--><g class="link" data-entity-1="ent0003" data-entity-2="ent0028" data-link-type="dependency" data-source-line="86" id="lnk65"><path d="M38.77,1560.1783 C38.95,1629.6583 46.35,1778.5883 101.03,1888.4883 C120.92,1928.4583 130.17,1941.3883 170.03,1961.4883 C236.28,1994.8983 317.1605,2000.7701 376.3505,1999.9201" fill="none" id="HR-to-UC23" style="stroke:#181818;stroke-width:1;"/><polygon fill="#181818" points="381.35,1999.8483,372.2935,1995.9779,376.3505,1999.9201,372.4084,2003.9771,381.35,1999.8483" style="stroke:#181818;stroke-width:1;stroke-linejoin:miter;stroke-miterlimit:10;"/></g><!--link HR to UC24--><g class="link" data-entity-1="ent0003" data-entity-2="ent0029" data-link-type="dependency" data-source-line="87" id="lnk66"><path d="M52.37,1506.6183 C63.99,1493.9383 82.13,1476.0083 101.03,1464.4883 C186.39,1412.4483 297.6321,1396.1557 372.1421,1390.9657" fill="none" id="HR-to-UC24" style="stroke:#181818;stroke-width:1;"/><polygon fill="#181818" points="377.13,1390.6183,367.8738,1387.2533,372.1421,1390.9657,368.4297,1395.234,377.13,1390.6183" style="stroke:#181818;stroke-width:1;stroke-linejoin:miter;stroke-miterlimit:10;"/></g><!--link HR to UC25--><g class="link" data-entity-1="ent0003" data-entity-2="ent0030" data-link-type="dependency" data-source-line="88" id="lnk67"><path d="M52.36,1522.0683 C77.26,1523.9183 132.28,1531.5883 162.03,1563.4883 C171.44,1573.5783 159.68,1584.3683 170.03,1593.4883 C224.87,1641.8183 305.6919,1647.1627 367.9719,1642.8627" fill="none" id="HR-to-UC25" style="stroke:#181818;stroke-width:1;"/><polygon fill="#181818" points="372.96,1642.5183,363.7059,1639.1477,367.9719,1642.8627,364.2569,1647.1287,372.96,1642.5183" style="stroke:#181818;stroke-width:1;stroke-linejoin:miter;stroke-miterlimit:10;"/></g><!--link HR to UC26--><g class="link" data-entity-1="ent0003" data-entity-2="ent0031" data-link-type="dependency" data-source-line="89" id="lnk68"><path d="M52.27,1514.5183 C64.41,1508.2683 83.39,1499.4883 101.03,1495.4883 C184.71,1476.5283 277.4407,1473.5336 348.2507,1474.7336" fill="none" id="HR-to-UC26" style="stroke:#181818;stroke-width:1;"/><polygon fill="#181818" points="353.25,1474.8183,344.3191,1470.6664,348.2507,1474.7336,344.1835,1478.6652,353.25,1474.8183" style="stroke:#181818;stroke-width:1;stroke-linejoin:miter;stroke-miterlimit:10;"/></g><!--link HR to UC27--><g class="link" data-entity-1="ent0003" data-entity-2="ent0032" data-link-type="dependency" data-source-line="90" id="lnk69"><path d="M52.41,1521.1283 C74.75,1520.6183 122.12,1519.9783 162.03,1522.4883 C236.15,1527.1483 315.498,1536.9971 373.748,1545.1271" fill="none" id="HR-to-UC27" style="stroke:#181818;stroke-width:1;"/><polygon fill="#181818" points="378.7,1545.8183,370.3393,1540.6126,373.748,1545.1271,369.2335,1548.5358,378.7,1545.8183" style="stroke:#181818;stroke-width:1;stroke-linejoin:miter;stroke-miterlimit:10;"/></g><!--link Admin to UC1--><g class="link" data-entity-1="ent0004" data-entity-2="ent0006" data-link-type="dependency" data-source-line="92" id="lnk70"><path d="M47.35,1953.9883 C71.44,1835.3383 143.86,1476.2083 162.03,1358.4883 C164.39,1343.2283 159.11,1300.3883 170.03,1289.4883 C238.72,1220.9283 364.0601,1238.2349 419.5501,1250.0749" fill="none" id="Admin-to-UC1" style="stroke:#181818;stroke-width:1;"/><polygon fill="#181818" points="424.44,1251.1183,416.4728,1245.3283,419.5501,1250.0749,414.8034,1253.1522,424.44,1251.1183" style="stroke:#181818;stroke-width:1;stroke-linejoin:miter;stroke-miterlimit:10;"/></g><!--link Admin to UC2--><g class="link" data-entity-1="ent0004" data-entity-2="ent0007" data-link-type="dependency" data-source-line="93" id="lnk71"><path d="M43.29,1954.1483 C49.48,1904.3883 64.93,1816.0483 101.03,1749.4883 C120.07,1714.3783 147.02,1720.5083 162.03,1683.4883 C168.92,1666.4883 157.65,1367.0183 170.03,1353.4883 C234.03,1283.4983 356.6547,1299.9633 415.0947,1312.7033" fill="none" id="Admin-to-UC2" style="stroke:#181818;stroke-width:1;"/><polygon fill="#181818" points="419.98,1313.7683,412.0385,1307.9431,415.0947,1312.7033,410.3345,1315.7595,419.98,1313.7683" style="stroke:#181818;stroke-width:1;stroke-linejoin:miter;stroke-miterlimit:10;"/></g><!--link Admin to UC28--><g class="link" data-entity-1="ent0004" data-entity-2="ent0033" data-link-type="dependency" data-source-line="94" id="lnk72"><path d="M60.92,2018.5983 C84.54,2045.3283 125.19,2085.5583 170.03,2104.4883 C239.82,2133.9483 322.54,2139.8623 381.13,2139.9323" fill="none" id="Admin-to-UC28" style="stroke:#181818;stroke-width:1;"/><polygon fill="#181818" points="386.13,2139.9383,377.1348,2135.9275,381.13,2139.9323,377.1252,2143.9275,386.13,2139.9383" style="stroke:#181818;stroke-width:1;stroke-linejoin:miter;stroke-miterlimit:10;"/></g><!--link Admin to UC29--><g class="link" data-entity-1="ent0004" data-entity-2="ent0034" data-link-type="dependency" data-source-line="95" id="lnk73"><path d="M54.04,2030.9483 C73.04,2074.7883 111.02,2143.8083 170.03,2170.4883 C239.62,2201.9483 323.3603,2207.3893 382.1903,2206.7893" fill="none" id="Admin-to-UC29" style="stroke:#181818;stroke-width:1;"/><polygon fill="#181818" points="387.19,2206.7383,378.1497,2202.8303,382.1903,2206.7893,378.2313,2210.8299,387.19,2206.7383" style="stroke:#181818;stroke-width:1;stroke-linejoin:miter;stroke-miterlimit:10;"/></g><!--link Admin to UC30--><g class="link" data-entity-1="ent0004" data-entity-2="ent0035" data-link-type="dependency" data-source-line="96" id="lnk74"><path d="M45.62,2030.7883 C57.42,2089.6983 89.69,2199.6183 170.03,2236.4883 C237.13,2267.2883 317.28,2273.6183 376.07,2273.6183" fill="none" id="Admin-to-UC30" style="stroke:#181818;stroke-width:1;"/><polygon fill="#181818" points="381.07,2273.6183,372.07,2269.6183,376.07,2273.6183,372.07,2277.6183,381.07,2273.6183" style="stroke:#181818;stroke-width:1;stroke-linejoin:miter;stroke-miterlimit:10;"/></g><!--link Admin to UC31--><g class="link" data-entity-1="ent0004" data-entity-2="ent0036" data-link-type="dependency" data-source-line="97" id="lnk75"><path d="M61.13,2006.6583 C72.54,2013.4583 87.05,2021.0683 101.03,2025.4883 C188.15,2053.0083 287.7153,2062.4784 359.6353,2065.7884" fill="none" id="Admin-to-UC31" style="stroke:#181818;stroke-width:1;"/><polygon fill="#181818" points="364.63,2066.0183,355.8234,2061.6087,359.6353,2065.7884,355.4556,2069.6003,364.63,2066.0183" style="stroke:#181818;stroke-width:1;stroke-linejoin:miter;stroke-miterlimit:10;"/></g><!--link Admin to UC19--><g class="link" data-entity-1="ent0004" data-entity-2="ent0024" data-link-type="dependency" data-source-line="98" id="lnk76"><path d="M60.86,1992.7883 C86.47,1992.2583 129.98,1988.4483 162.03,1970.4883 C166.7,1967.8683 165.3,1963.9883 170.03,1961.4883 C232.98,1928.2383 309.61,1921.1032 368.56,1921.1632" fill="none" id="Admin-to-UC19" style="stroke:#181818;stroke-width:1;"/><polygon fill="#181818" points="373.56,1921.1683,364.5641,1917.1591,368.56,1921.1632,364.5559,1925.1591,373.56,1921.1683" style="stroke:#181818;stroke-width:1;stroke-linejoin:miter;stroke-miterlimit:10;"/></g><!--link Admin to UC20--><g class="link" data-entity-1="ent0004" data-entity-2="ent0025" data-link-type="dependency" data-source-line="99" id="lnk77"><path d="M61.07,1969.2783 C85.12,1944.9983 126.42,1907.9083 170.03,1889.4883 C231.91,1863.3583 302.7248,1854.7966 359.9248,1852.2966" fill="none" id="Admin-to-UC20" style="stroke:#181818;stroke-width:1;"/><polygon fill="#181818" points="364.92,1852.0783,355.7539,1848.4751,359.9248,1852.2966,356.1032,1856.4674,364.92,1852.0783" style="stroke:#181818;stroke-width:1;stroke-linejoin:miter;stroke-miterlimit:10;"/></g><!--link Admin to UC21--><g class="link" data-entity-1="ent0004" data-entity-2="ent0026" data-link-type="dependency" data-source-line="100" id="lnk78"><path d="M45.89,1953.7683 C58.01,1894.6283 90.65,1784.1683 170.03,1741.4883 C232.19,1708.0583 307.99,1700.8215 366.89,1700.9015" fill="none" id="Admin-to-UC21" style="stroke:#181818;stroke-width:1;"/><polygon fill="#181818" points="371.89,1700.9083,362.8954,1696.8961,366.89,1700.9015,362.8846,1704.8961,371.89,1700.9083" style="stroke:#181818;stroke-width:1;stroke-linejoin:miter;stroke-miterlimit:10;"/></g><!--link Admin to UC22--><g class="link" data-entity-1="ent0004" data-entity-2="ent0027" data-link-type="dependency" data-source-line="101" id="lnk79"><path d="M55.03,1953.9483 C74.64,1911.1083 112.88,1844.1883 170.03,1815.4883 C231.59,1784.5683 304.8908,1776.5184 363.1108,1775.4684" fill="none" id="Admin-to-UC22" style="stroke:#181818;stroke-width:1;"/><polygon fill="#181818" points="368.11,1775.3783,359.0393,1771.5412,363.1108,1775.4684,359.1836,1779.5399,368.11,1775.3783" style="stroke:#181818;stroke-width:1;stroke-linejoin:miter;stroke-miterlimit:10;"/></g><!--link Admin to UC23--><g class="link" data-entity-1="ent0004" data-entity-2="ent0028" data-link-type="dependency" data-source-line="102" id="lnk80"><path d="M61.07,2000.8883 C72.7,2004.9683 87.44,2009.4383 101.03,2011.4883 C202.23,2026.7583 316.6789,2015.6957 386.4689,2005.8657" fill="none" id="Admin-to-UC23" style="stroke:#181818;stroke-width:1;"/><polygon fill="#181818" points="391.42,2005.1683,381.9501,2002.4626,386.4689,2005.8657,383.0659,2010.3845,391.42,2005.1683" style="stroke:#181818;stroke-width:1;stroke-linejoin:miter;stroke-miterlimit:10;"/></g><!--link UC25 to UC18--><g class="link" data-entity-1="ent0030" data-entity-2="ent0023" data-link-type="dependency" data-source-line="104" id="lnk81"><path d="M379.66,1644.6583 C314.8,1651.9683 221.83,1650.1983 170.03,1593.4883 C56.18,1468.8383 147.8,1382.6783 154.2,1213.9883 C157.72,1121.1183 106.26,1073.0883 170.03,1005.4883 C221.89,950.5083 307.5663,947.2263 371.9763,953.8563" fill="none" id="UC25-to-UC18" style="stroke:#181818;stroke-width:1;stroke-dasharray:7,7;"/><polygon fill="#181818" points="376.95,954.3683,368.4069,949.4678,371.9763,953.8563,367.5877,957.4257,376.95,954.3683" style="stroke:#181818;stroke-width:1;stroke-linejoin:miter;stroke-miterlimit:10;"/><text fill="#000000" font-family="sans-serif" font-size="13" lengthAdjust="spacing" textLength="59.3569" x="102.03" y="1227.5566">&#171;include&#187;</text></g><!--link UC24 to UC26--><g class="link" data-entity-1="ent0029" data-entity-2="ent0031" data-link-type="dependency" data-source-line="105" id="lnk82"><path d="M451.53,1406.1683 C451.53,1420.6783 451.53,1436.3083 451.53,1451.9983" fill="none" id="UC24-to-UC26" style="stroke:#181818;stroke-width:1;stroke-dasharray:7,7;"/><polygon fill="#181818" points="451.53,1456.9983,455.53,1447.9983,451.53,1451.9983,447.53,1447.9983,451.53,1456.9983" style="stroke:#181818;stroke-width:1;stroke-linejoin:miter;stroke-miterlimit:10;"/><text fill="#000000" font-family="sans-serif" font-size="13" lengthAdjust="spacing" textLength="59.3569" x="410.53" y="1436.5466">&#171;include&#187;</text></g><!--link UC5 to UC12--><g class="link" data-entity-1="ent0010" data-entity-2="ent0017" data-link-type="dependency" data-source-line="106" id="lnk83"><path d="M451.53,113.3783 C451.53,127.7283 451.53,143.4083 451.53,158.9483" fill="none" id="UC5-to-UC12" style="stroke:#181818;stroke-width:1;stroke-dasharray:7,7;"/><polygon fill="#181818" points="451.53,163.9483,455.53,154.9483,451.53,158.9483,447.53,154.9483,451.53,163.9483" style="stroke:#181818;stroke-width:1;stroke-linejoin:miter;stroke-miterlimit:10;"/><text fill="#000000" font-family="sans-serif" font-size="13" lengthAdjust="spacing" textLength="57.1924" x="411.53" y="143.7366">&#171;extend&#187;</text></g><?plantuml-src bPNTRvim4C3V-IkiFEojKp3vdAfAQJjjavgfIjhrsOKByG8siqqwDEr_dmbWR4CVbYVVtO_xyfsZgCe0RRvTFV8t492WptcHyGe0FGgUbB6YPwegj64agnID9I8iGRUbOBnK6e64QeGpjA-aWZp8uA2GuaZGzAXGGWLSp44WJvGLH90S5IG-aHJsgjA1QpjXQGOM88yauM-KfUX0CcbRIWanaO3-14Z_RhMZLF2I9NSyumAz7Ac2ni950gBHtcOQ2_u60OcL5hloMd5BcCv5jDBNNNlO93dLIPliqEG_ElJX_VvCTEewmwwEoGDFAPiW8j7pNUWPj8FMWctB3mflw9x8uoid8cc9o2QUYuIeItO7ca5Bp9ou-_8rfmgzS77AUDeYyq6ORTKXicKMOyn6AM09ON4NR6bJcwB8AlG0vDoPLsDEdeWyTL7MOy0MGEcXw9XmEe0UGHouoEj4q0xEMcNWS00FxwXZSJ20dq1FtnRoLn36PUGLAVWPcZ9ry5ybI6NGcOqscJKklUw6pXLifAGfSneJEltVnqT8IZsTVckM8_6wUdTGSD6djdAARTR1JBYXrYFGFUYbL3amumnFHx31SE1mX6hwzbGL9YR68vYUwPzw9mtZtC4NO23goNTBn6xtI_R-rUFX2lHhxUySNema-9qhUg0ngPsQ19PZFNwM_IpXrGYmurdVZE56RCf4R_13FpoHq_tclK5td1reMWfYLHc5GVqUccViwkhcylnu2kmh8bynynLpNx7m5KjViV8Lwq5Yqu5ca6kzi-rJRifnPUp9aSyF53DVCVSL2r-nz1LwkxxkJ4RcYFjZP05hYvXQP_jBwrDiVQk7l3_FhVF2EkivlFoncOHi2RlIoXNNZgX7pH5TJw4BOnV6NbWlRXG4TGNeOzC_z0bTNrCMPsK2DpUrQTQOy69WwZx25mlyhjyTRVW7?></g></svg>